<?xml version="1.0" encoding="UTF-8" standalone="no"?>
<!DOCTYPE svg PUBLIC "-//W3C//DTD SVG 1.1//EN"
 "http://www.w3.org/Graphics/SVG/1.1/DTD/svg11.dtd">
<!-- Generated by graphviz version 2.40.1 (20161225.0304)
 -->
<!-- Title: dependency&#45;cruiser output Pages: 1 -->
<svg width="916pt" height="312pt"
 viewBox="0.00 0.00 916.00 312.00" xmlns="http://www.w3.org/2000/svg" xmlns:xlink="http://www.w3.org/1999/xlink">
<g id="graph0" class="graph" transform="scale(1 1) rotate(0) translate(4 308)">
<title>dependency&#45;cruiser output</title>
<polygon fill="#ffffff" stroke="transparent" points="-4,4 -4,-308 912,-308 912,4 -4,4"/>
<g id="clust1" class="cluster">
<title>cluster_src</title>
<path fill="#ffffff" stroke="#000000" stroke-width="2" d="M20,-8C20,-8 834,-8 834,-8 840,-8 846,-14 846,-20 846,-20 846,-284 846,-284 846,-290 840,-296 834,-296 834,-296 20,-296 20,-296 14,-296 8,-290 8,-284 8,-284 8,-20 8,-20 8,-14 14,-8 20,-8"/>
<text text-anchor="middle" x="427" y="-284.8" font-family="Helvetica,sans-Serif" font-weight="bold" font-size="9.00" fill="#000000">src</text>
</g>
<g id="clust2" class="cluster">
<title>cluster_src/api</title>
<path fill="#ffffff" stroke="#000000" stroke-width="2" d="M408.5,-144C408.5,-144 678.5,-144 678.5,-144 684.5,-144 690.5,-150 690.5,-156 690.5,-156 690.5,-198 690.5,-198 690.5,-204 684.5,-210 678.5,-210 678.5,-210 408.5,-210 408.5,-210 402.5,-210 396.5,-204 396.5,-198 396.5,-198 396.5,-156 396.5,-156 396.5,-150 402.5,-144 408.5,-144"/>
<text text-anchor="middle" x="543.5" y="-198.8" font-family="Helvetica,sans-Serif" font-weight="bold" font-size="9.00" fill="#000000">api</text>
</g>
<g id="clust3" class="cluster">
<title>cluster_src/content</title>
<path fill="#ffffff" stroke="#000000" stroke-width="2" d="M28,-20C28,-20 490,-20 490,-20 496,-20 502,-26 502,-32 502,-32 502,-124 502,-124 502,-130 496,-136 490,-136 490,-136 28,-136 28,-136 22,-136 16,-130 16,-124 16,-124 16,-32 16,-32 16,-26 22,-20 28,-20"/>
<text text-anchor="middle" x="259" y="-124.8" font-family="Helvetica,sans-Serif" font-weight="bold" font-size="9.00" fill="#000000">content</text>
</g>
<g id="clust4" class="cluster">
<title>cluster_src/content/authorization&#45;page</title>
<path fill="#ffffff" stroke="#000000" stroke-width="2" d="M36,-28C36,-28 375,-28 375,-28 381,-28 387,-34 387,-40 387,-40 387,-98 387,-98 387,-104 381,-110 375,-110 375,-110 36,-110 36,-110 30,-110 24,-104 24,-98 24,-98 24,-40 24,-40 24,-34 30,-28 36,-28"/>
<text text-anchor="middle" x="205.5" y="-98.8" font-family="Helvetica,sans-Serif" font-weight="bold" font-size="9.00" fill="#000000">authorization&#45;page</text>
</g>
<g id="clust5" class="cluster">
<title>cluster_src/content/messaging</title>
<path fill="#ffffff" stroke="#000000" stroke-width="2" d="M407,-30C407,-30 482,-30 482,-30 488,-30 494,-36 494,-42 494,-42 494,-70 494,-70 494,-76 488,-82 482,-82 482,-82 407,-82 407,-82 401,-82 395,-76 395,-70 395,-70 395,-42 395,-42 395,-36 401,-30 407,-30"/>
<text text-anchor="middle" x="444.5" y="-70.8" font-family="Helvetica,sans-Serif" font-weight="bold" font-size="9.00" fill="#000000">messaging</text>
</g>
<g id="clust6" class="cluster">
<title>cluster_src/domain</title>
<path fill="#ffffff" stroke="#000000" stroke-width="2" d="M522,-16C522,-16 682,-16 682,-16 688,-16 694,-22 694,-28 694,-28 694,-86 694,-86 694,-92 688,-98 682,-98 682,-98 522,-98 522,-98 516,-98 510,-92 510,-86 510,-86 510,-28 510,-28 510,-22 516,-16 522,-16"/>
<text text-anchor="middle" x="602" y="-86.8" font-family="Helvetica,sans-Serif" font-weight="bold" font-size="9.00" fill="#000000">domain</text>
</g>
<g id="clust7" class="cluster">
<title>cluster_src/store</title>
<path fill="#ffffff" stroke="#000000" stroke-width="2" d="M609.5,-218C609.5,-218 675.5,-218 675.5,-218 681.5,-218 687.5,-224 687.5,-230 687.5,-230 687.5,-258 687.5,-258 687.5,-264 681.5,-270 675.5,-270 675.5,-270 609.5,-270 609.5,-270 603.5,-270 597.5,-264 597.5,-258 597.5,-258 597.5,-230 597.5,-230 597.5,-224 603.5,-218 609.5,-218"/>
<text text-anchor="middle" x="642.5" y="-258.8" font-family="Helvetica,sans-Serif" font-weight="bold" font-size="9.00" fill="#000000">store</text>
</g>
<!-- events -->
<g id="node1" class="node">
<title>events</title>
<g id="a_node1"><a xlink:title="events">
<path fill="#ffffcc" stroke="#c0c0c0" d="M902,-177C902,-177 860,-177 860,-177 857,-177 854,-174 854,-171 854,-171 854,-165 854,-165 854,-162 857,-159 860,-159 860,-159 902,-159 902,-159 905,-159 908,-162 908,-165 908,-165 908,-171 908,-171 908,-174 905,-177 902,-177"/>
<text text-anchor="middle" x="881" y="-165.8" font-family="Helvetica,sans-Serif" font-size="9.00" fill="#c0c0c0">events</text>
</a>
</g>
</g>
<!-- src/api/ProfileApi.ts -->
<g id="node2" class="node">
<title>src/api/ProfileApi.ts</title>
<g id="a_node2"><a xlink:href="src/api/ProfileApi.ts" xlink:title="ProfileApi.ts">
<path fill="#ddfeff" stroke="#000000" d="M578.5,-170C578.5,-170 525.5,-170 525.5,-170 522.5,-170 519.5,-167 519.5,-164 519.5,-164 519.5,-158 519.5,-158 519.5,-155 522.5,-152 525.5,-152 525.5,-152 578.5,-152 578.5,-152 581.5,-152 584.5,-155 584.5,-158 584.5,-158 584.5,-164 584.5,-164 584.5,-167 581.5,-170 578.5,-170"/>
<text text-anchor="start" x="527.5" y="-158.8" font-family="Helvetica,sans-Serif" font-size="9.00" fill="#000000">ProfileApi.ts</text>
</a>
</g>
</g>
<!-- src/chrome -->
<g id="node3" class="node">
<title>src/chrome</title>
<g id="a_node3"><a xlink:href="src/chrome" xlink:title="chrome">
<polygon fill="#ffffcc" stroke="#000000" points="669.5,-133 617.5,-133 615.5,-131 615.5,-115 667.5,-115 669.5,-117 669.5,-133"/>
<polyline fill="none" stroke="#000000" points="667.5,-131 615.5,-131 "/>
<polyline fill="none" stroke="#000000" points="667.5,-131 667.5,-115 "/>
<polyline fill="none" stroke="#000000" points="667.5,-131 669.5,-133 "/>
<text text-anchor="start" x="627" y="-121.8" font-family="Helvetica,sans-Serif" font-size="9.00" fill="#000000">chrome</text>
</a>
</g>
</g>
<!-- src/api/ProfileApi.ts&#45;&gt;src/chrome -->
<g id="edge1" class="edge">
<title>src/api/ProfileApi.ts&#45;&gt;src/chrome</title>
<path fill="none" stroke="#000000" stroke-width="2" stroke-opacity="0.200000" d="M577.1048,-151.9969C580.1373,-150.7352 583.1631,-149.3914 586,-148 591.3721,-145.3651 592.1226,-143.6241 597.5,-141 601.5248,-139.0359 605.8379,-137.1488 610.1421,-135.3925"/>
<polygon fill="#000000" fill-opacity="0.200000" stroke="#000000" stroke-width="2" stroke-opacity="0.200000" points="611.1711,-137.2438 615.9778,-133.0837 609.626,-133.3383 611.1711,-137.2438"/>
</g>
<!-- src/store/ProfileStore.ts -->
<g id="node4" class="node">
<title>src/store/ProfileStore.ts</title>
<g id="a_node4"><a xlink:href="src/store/ProfileStore.ts" xlink:title="ProfileStore.ts">
<path fill="#ddfeff" stroke="#000000" d="M673.5,-244C673.5,-244 611.5,-244 611.5,-244 608.5,-244 605.5,-241 605.5,-238 605.5,-238 605.5,-232 605.5,-232 605.5,-229 608.5,-226 611.5,-226 611.5,-226 673.5,-226 673.5,-226 676.5,-226 679.5,-229 679.5,-232 679.5,-232 679.5,-238 679.5,-238 679.5,-241 676.5,-244 673.5,-244"/>
<text text-anchor="start" x="613.5" y="-232.8" font-family="Helvetica,sans-Serif" font-size="9.00" fill="#000000">ProfileStore.ts</text>
</a>
</g>
</g>
<!-- src/api/ProfileApi.ts&#45;&gt;src/store/ProfileStore.ts -->
<g id="edge2" class="edge">
<title>src/api/ProfileApi.ts&#45;&gt;src/store/ProfileStore.ts</title>
<path fill="none" stroke="#000000" stroke-width="2" stroke-opacity="0.200000" d="M558.1897,-170.0709C566.2088,-181.296 581.1164,-200.4585 597.5,-213 602.4718,-216.8059 608.2065,-220.2112 613.8817,-223.1402"/>
<polygon fill="#000000" fill-opacity="0.200000" stroke="#000000" stroke-width="2" stroke-opacity="0.200000" points="613.1959,-225.1431 619.5067,-225.9076 615.0501,-221.3745 613.1959,-225.1431"/>
</g>
<!-- src/api/SolidSession.ts -->
<g id="node5" class="node">
<title>src/api/SolidSession.ts</title>
<g id="a_node5"><a xlink:href="src/api/SolidSession.ts" xlink:title="SolidSession.ts">
<path fill="#ddfeff" stroke="#000000" d="M676.5,-177C676.5,-177 608.5,-177 608.5,-177 605.5,-177 602.5,-174 602.5,-171 602.5,-171 602.5,-165 602.5,-165 602.5,-162 605.5,-159 608.5,-159 608.5,-159 676.5,-159 676.5,-159 679.5,-159 682.5,-162 682.5,-165 682.5,-165 682.5,-171 682.5,-171 682.5,-174 679.5,-177 676.5,-177"/>
<text text-anchor="start" x="610.5" y="-165.8" font-family="Helvetica,sans-Serif" font-size="9.00" fill="#000000">SolidSession.ts</text>
</a>
</g>
</g>
<!-- src/api/ProfileApi.ts&#45;&gt;src/api/SolidSession.ts -->
<g id="edge3" class="edge">
<title>src/api/ProfileApi.ts&#45;&gt;src/api/SolidSession.ts</title>
<path fill="none" stroke="#000000" stroke-width="2" stroke-opacity="0.200000" d="M584.6726,-163.5272C588.4603,-163.8201 592.3758,-164.123 596.3009,-164.4266"/>
<polygon fill="#000000" fill-opacity="0.200000" stroke="#000000" stroke-width="2" stroke-opacity="0.200000" points="596.3155,-166.5339 602.4596,-164.903 596.6394,-162.3464 596.3155,-166.5339"/>
</g>
<!-- src/solid&#45;client&#45;authn&#45;chrome&#45;ext -->
<g id="node6" class="node">
<title>src/solid&#45;client&#45;authn&#45;chrome&#45;ext</title>
<g id="a_node6"><a xlink:href="src/solid-client-authn-chrome-ext" xlink:title="solid&#45;client&#45;authn&#45;chrome&#45;ext">
<polygon fill="#ffffcc" stroke="#000000" points="838,-177 704,-177 702,-175 702,-159 836,-159 838,-161 838,-177"/>
<polyline fill="none" stroke="#000000" points="836,-175 702,-175 "/>
<polyline fill="none" stroke="#000000" points="836,-175 836,-159 "/>
<polyline fill="none" stroke="#000000" points="836,-175 838,-177 "/>
<text text-anchor="start" x="710" y="-165.8" font-family="Helvetica,sans-Serif" font-size="9.00" fill="#000000">solid&#45;client&#45;authn&#45;chrome&#45;ext</text>
</a>
</g>
</g>
<!-- src/api/SolidSession.ts&#45;&gt;src/solid&#45;client&#45;authn&#45;chrome&#45;ext -->
<g id="edge4" class="edge">
<title>src/api/SolidSession.ts&#45;&gt;src/solid&#45;client&#45;authn&#45;chrome&#45;ext</title>
<path fill="none" stroke="#000000" stroke-width="2" stroke-opacity="0.200000" d="M682.8418,-168C687.055,-168 691.4266,-168 695.8673,-168"/>
<polygon fill="#000000" fill-opacity="0.200000" stroke="#000000" stroke-width="2" stroke-opacity="0.200000" points="695.9573,-170.1001 701.9572,-168 695.9572,-165.9001 695.9573,-170.1001"/>
</g>
<!-- src/solid&#45;client&#45;authn&#45;chrome&#45;ext&#45;&gt;events -->
<g id="edge20" class="edge">
<title>src/solid&#45;client&#45;authn&#45;chrome&#45;ext&#45;&gt;events</title>
<path fill="none" stroke="#000000" stroke-dasharray="5,2" stroke-opacity="0.200000" d="M838.0845,-168C841.2819,-168 844.4205,-168 847.4547,-168"/>
<polygon fill="#000000" fill-opacity="0.200000" stroke="#000000" stroke-opacity="0.200000" points="847.5217,-170.1001 853.5217,-168 847.5217,-165.9001 847.5217,-170.1001"/>
</g>
<!-- src/api/useSolidApis.ts -->
<g id="node7" class="node">
<title>src/api/useSolidApis.ts</title>
<g id="a_node7"><a xlink:href="src/api/useSolidApis.ts" xlink:title="useSolidApis.ts">
<path fill="#ddfeff" stroke="#000000" d="M478.5,-170C478.5,-170 410.5,-170 410.5,-170 407.5,-170 404.5,-167 404.5,-164 404.5,-164 404.5,-158 404.5,-158 404.5,-155 407.5,-152 410.5,-152 410.5,-152 478.5,-152 478.5,-152 481.5,-152 484.5,-155 484.5,-158 484.5,-158 484.5,-164 484.5,-164 484.5,-167 481.5,-170 478.5,-170"/>
<text text-anchor="start" x="412.5" y="-158.8" font-family="Helvetica,sans-Serif" font-size="9.00" fill="#000000">useSolidApis.ts</text>
</a>
</g>
</g>
<!-- src/api/useSolidApis.ts&#45;&gt;src/api/ProfileApi.ts -->
<g id="edge5" class="edge">
<title>src/api/useSolidApis.ts&#45;&gt;src/api/ProfileApi.ts</title>
<path fill="none" stroke="#000000" stroke-width="2" stroke-opacity="0.200000" d="M484.529,-161C493.931,-161 503.9332,-161 513.2767,-161"/>
<polygon fill="#000000" fill-opacity="0.200000" stroke="#000000" stroke-width="2" stroke-opacity="0.200000" points="513.3086,-163.1001 519.3086,-161 513.3086,-158.9001 513.3086,-163.1001"/>
</g>
<!-- src/api/useSolidApis.ts&#45;&gt;src/api/SolidSession.ts -->
<g id="edge6" class="edge">
<title>src/api/useSolidApis.ts&#45;&gt;src/api/SolidSession.ts</title>
<path fill="none" stroke="#000000" stroke-width="2" stroke-opacity="0.200000" d="M477.2361,-170.0173C487.6273,-172.4685 499.2194,-174.7814 510,-176 543.564,-179.7941 552.3057,-178.3736 586,-176 589.3353,-175.765 592.7732,-175.453 596.2286,-175.0883"/>
<polygon fill="#000000" fill-opacity="0.200000" stroke="#000000" stroke-width="2" stroke-opacity="0.200000" points="596.7251,-177.1454 602.4491,-174.3801 596.25,-172.9723 596.7251,-177.1454"/>
</g>
<!-- src/content/authorization&#45;page/AuthorizationPage.tsx -->
<g id="node8" class="node">
<title>src/content/authorization&#45;page/AuthorizationPage.tsx</title>
<g id="a_node8"><a xlink:href="src/content/authorization-page/AuthorizationPage.tsx" xlink:title="AuthorizationPage.tsx">
<path fill="#bbfeff" stroke="#000000" d="M265,-84C265,-84 171,-84 171,-84 168,-84 165,-81 165,-78 165,-78 165,-72 165,-72 165,-69 168,-66 171,-66 171,-66 265,-66 265,-66 268,-66 271,-69 271,-72 271,-72 271,-78 271,-78 271,-81 268,-84 265,-84"/>
<text text-anchor="start" x="173" y="-72.8" font-family="Helvetica,sans-Serif" font-size="9.00" fill="#000000">AuthorizationPage.tsx</text>
</a>
</g>
</g>
<!-- src/content/authorization&#45;page/AuthorizationPage.tsx&#45;&gt;src/chrome -->
<g id="edge7" class="edge">
<title>src/content/authorization&#45;page/AuthorizationPage.tsx&#45;&gt;src/chrome</title>
<path fill="none" stroke="#000000" stroke-width="2" stroke-opacity="0.200000" d="M254.5161,-84.0311C264.0706,-86.1927 274.3877,-88.3497 284,-90 402.5471,-110.3532 545.3917,-119.3175 609.0573,-122.5156"/>
<polygon fill="#000000" fill-opacity="0.200000" stroke="#000000" stroke-width="2" stroke-opacity="0.200000" points="609.2363,-124.6269 615.3325,-122.8249 609.4432,-120.432 609.2363,-124.6269"/>
</g>
<!-- src/content/authorization&#45;page/ErrorDetails.tsx -->
<g id="node9" class="node">
<title>src/content/authorization&#45;page/ErrorDetails.tsx</title>
<g id="a_node9"><a xlink:href="src/content/authorization-page/ErrorDetails.tsx" xlink:title="ErrorDetails.tsx">
<path fill="#bbfeff" stroke="#000000" d="M365,-54C365,-54 298,-54 298,-54 295,-54 292,-51 292,-48 292,-48 292,-42 292,-42 292,-39 295,-36 298,-36 298,-36 365,-36 365,-36 368,-36 371,-39 371,-42 371,-42 371,-48 371,-48 371,-51 368,-54 365,-54"/>
<text text-anchor="start" x="300" y="-42.8" font-family="Helvetica,sans-Serif" font-size="9.00" fill="#000000">ErrorDetails.tsx</text>
</a>
</g>
</g>
<!-- src/content/authorization&#45;page/AuthorizationPage.tsx&#45;&gt;src/content/authorization&#45;page/ErrorDetails.tsx -->
<g id="edge8" class="edge">
<title>src/content/authorization&#45;page/AuthorizationPage.tsx&#45;&gt;src/content/authorization&#45;page/ErrorDetails.tsx</title>
<path fill="none" stroke="#000000" stroke-width="2" stroke-opacity="0.200000" d="M252.0537,-65.999C264.2868,-62.7656 278.2043,-59.087 290.9358,-55.7218"/>
<polygon fill="#000000" fill-opacity="0.200000" stroke="#000000" stroke-width="2" stroke-opacity="0.200000" points="291.8139,-57.6619 297.078,-54.0983 290.7406,-53.6014 291.8139,-57.6619"/>
</g>
<!-- src/content/authorization&#45;page/useAuthorization.ts -->
<g id="node10" class="node">
<title>src/content/authorization&#45;page/useAuthorization.ts</title>
<g id="a_node10"><a xlink:href="src/content/authorization-page/useAuthorization.ts" xlink:title="useAuthorization.ts">
<path fill="#ddfeff" stroke="#000000" d="M373,-84C373,-84 290,-84 290,-84 287,-84 284,-81 284,-78 284,-78 284,-72 284,-72 284,-69 287,-66 290,-66 290,-66 373,-66 373,-66 376,-66 379,-69 379,-72 379,-72 379,-78 379,-78 379,-81 376,-84 373,-84"/>
<text text-anchor="start" x="292" y="-72.8" font-family="Helvetica,sans-Serif" font-size="9.00" fill="#000000">useAuthorization.ts</text>
</a>
</g>
</g>
<!-- src/content/authorization&#45;page/AuthorizationPage.tsx&#45;&gt;src/content/authorization&#45;page/useAuthorization.ts -->
<g id="edge9" class="edge">
<title>src/content/authorization&#45;page/AuthorizationPage.tsx&#45;&gt;src/content/authorization&#45;page/useAuthorization.ts</title>
<path fill="none" stroke="#000000" stroke-width="2" stroke-opacity="0.200000" d="M271.0945,-75C273.2292,-75 275.3709,-75 277.5073,-75"/>
<polygon fill="#000000" fill-opacity="0.200000" stroke="#000000" stroke-width="2" stroke-opacity="0.200000" points="277.8887,-77.1001 283.8886,-75 277.8886,-72.9001 277.8887,-77.1001"/>
</g>
<!-- src/content/authorization&#45;page/useAuthorization.ts&#45;&gt;src/chrome -->
<g id="edge14" class="edge">
<title>src/content/authorization&#45;page/useAuthorization.ts&#45;&gt;src/chrome</title>
<path fill="none" stroke="#000000" stroke-width="2" stroke-opacity="0.200000" d="M374.5172,-84.0185C378.7747,-85.2259 382.9981,-86.5534 387,-88 390.7385,-89.3514 391.1978,-90.84 395,-92 400.0809,-93.5501 542.7094,-111.5153 609.0974,-119.8276"/>
<polygon fill="#000000" fill-opacity="0.200000" stroke="#000000" stroke-width="2" stroke-opacity="0.200000" points="609.0625,-121.9396 615.2769,-120.601 609.5842,-117.7721 609.0625,-121.9396"/>
</g>
<!-- src/content/authorization&#45;page/useAuthorization.ts&#45;&gt;src/api/useSolidApis.ts -->
<g id="edge13" class="edge">
<title>src/content/authorization&#45;page/useAuthorization.ts&#45;&gt;src/api/useSolidApis.ts</title>
<path fill="none" stroke="#000000" stroke-width="2" stroke-opacity="0.200000" d="M336.8828,-84.1885C346.5032,-99.7782 368.175,-131.3366 395,-148 396.1958,-148.7428 397.4332,-149.4435 398.7025,-150.1044"/>
<polygon fill="#000000" fill-opacity="0.200000" stroke="#000000" stroke-width="2" stroke-opacity="0.200000" points="398.1137,-152.1456 404.4414,-152.7546 399.8746,-148.3325 398.1137,-152.1456"/>
</g>
<!-- src/domain/messages.ts -->
<g id="node14" class="node">
<title>src/domain/messages.ts</title>
<g id="a_node14"><a xlink:href="src/domain/messages.ts" xlink:title="messages.ts">
<path fill="#ddfeff" stroke="#000000" d="M580,-64C580,-64 524,-64 524,-64 521,-64 518,-61 518,-58 518,-58 518,-52 518,-52 518,-49 521,-46 524,-46 524,-46 580,-46 580,-46 583,-46 586,-49 586,-52 586,-52 586,-58 586,-58 586,-61 583,-64 580,-64"/>
<text text-anchor="start" x="526" y="-52.8" font-family="Helvetica,sans-Serif" font-size="9.00" fill="#000000">messages.ts</text>
</a>
</g>
</g>
<!-- src/content/authorization&#45;page/useAuthorization.ts&#45;&gt;src/domain/messages.ts -->
<g id="edge15" class="edge">
<title>src/content/authorization&#45;page/useAuthorization.ts&#45;&gt;src/domain/messages.ts</title>
<path fill="none" stroke="#000000" stroke-width="2" stroke-opacity="0.200000" d="M379.0442,-83.859C422.2916,-90.843 482.2843,-97.5117 502,-85 509.0505,-80.5257 503.6978,-73.4782 510,-68 510.7201,-67.3741 511.47,-66.7782 512.2451,-66.2111"/>
<polygon fill="#000000" fill-opacity="0.200000" stroke="#000000" stroke-width="2" stroke-opacity="0.200000" points="513.6673,-67.8018 517.6772,-62.8691 511.4664,-64.2246 513.6673,-67.8018"/>
</g>
<!-- src/content/messaging/sendMessage.ts -->
<g id="node15" class="node">
<title>src/content/messaging/sendMessage.ts</title>
<g id="a_node15"><a xlink:href="src/content/messaging/sendMessage.ts" xlink:title="sendMessage.ts">
<path fill="#ddfeff" stroke="#000000" d="M480,-56C480,-56 409,-56 409,-56 406,-56 403,-53 403,-50 403,-50 403,-44 403,-44 403,-41 406,-38 409,-38 409,-38 480,-38 480,-38 483,-38 486,-41 486,-44 486,-44 486,-50 486,-50 486,-53 483,-56 480,-56"/>
<text text-anchor="start" x="411" y="-44.8" font-family="Helvetica,sans-Serif" font-size="9.00" fill="#000000">sendMessage.ts</text>
</a>
</g>
</g>
<!-- src/content/authorization&#45;page/useAuthorization.ts&#45;&gt;src/content/messaging/sendMessage.ts -->
<g id="edge16" class="edge">
<title>src/content/authorization&#45;page/useAuthorization.ts&#45;&gt;src/content/messaging/sendMessage.ts</title>
<path fill="none" stroke="#000000" stroke-width="2" stroke-opacity="0.200000" d="M367.8759,-65.9865C378.6545,-63.3157 390.5572,-60.3664 401.7027,-57.6046"/>
<polygon fill="#000000" fill-opacity="0.200000" stroke="#000000" stroke-width="2" stroke-opacity="0.200000" points="402.486,-59.5741 407.8048,-56.0926 401.4758,-55.4974 402.486,-59.5741"/>
</g>
<!-- src/content/authorization&#45;page/index.tsx -->
<g id="node11" class="node">
<title>src/content/authorization&#45;page/index.tsx</title>
<g id="a_node11"><a xlink:href="src/content/authorization-page/index.tsx" xlink:title="index.tsx">
<path fill="#bbfeff" stroke="#000000" d="M113,-84C113,-84 71,-84 71,-84 68,-84 65,-81 65,-78 65,-78 65,-72 65,-72 65,-69 68,-66 71,-66 71,-66 113,-66 113,-66 116,-66 119,-69 119,-72 119,-72 119,-78 119,-78 119,-81 116,-84 113,-84"/>
<text text-anchor="start" x="73.5" y="-72.8" font-family="Helvetica,sans-Serif" font-size="9.00" fill="#000000">index.tsx</text>
</a>
</g>
</g>
<!-- src/content/authorization&#45;page/index.tsx&#45;&gt;src/chrome -->
<g id="edge10" class="edge">
<title>src/content/authorization&#45;page/index.tsx&#45;&gt;src/chrome</title>
<path fill="none" stroke="#000000" stroke-width="2" stroke-opacity="0.200000" d="M113.3441,-84.1127C154.6561,-100.8975 248.7709,-135 331.5,-135 331.5,-135 331.5,-135 444.5,-135 502.5065,-135 569.925,-130.2352 609.2403,-126.9776"/>
<polygon fill="#000000" fill-opacity="0.200000" stroke="#000000" stroke-width="2" stroke-opacity="0.200000" points="609.4998,-129.0632 615.3031,-126.4686 609.1484,-124.878 609.4998,-129.0632"/>
</g>
<!-- src/content/authorization&#45;page/index.tsx&#45;&gt;src/content/authorization&#45;page/AuthorizationPage.tsx -->
<g id="edge12" class="edge">
<title>src/content/authorization&#45;page/index.tsx&#45;&gt;src/content/authorization&#45;page/AuthorizationPage.tsx</title>
<path fill="none" stroke="#000000" stroke-width="2" stroke-opacity="0.200000" d="M119.0302,-75C130.6309,-75 144.6787,-75 158.5011,-75"/>
<polygon fill="#000000" fill-opacity="0.200000" stroke="#000000" stroke-width="2" stroke-opacity="0.200000" points="158.8265,-77.1001 164.8265,-75 158.8264,-72.9001 158.8265,-77.1001"/>
</g>
<!-- src/options -->
<g id="node12" class="node">
<title>src/options</title>
<g id="a_node12"><a xlink:href="src/options" xlink:title="options">
<polygon fill="#ffffcc" stroke="#000000" points="245,-166 193,-166 191,-164 191,-148 243,-148 245,-150 245,-166"/>
<polyline fill="none" stroke="#000000" points="243,-164 191,-164 "/>
<polyline fill="none" stroke="#000000" points="243,-164 243,-148 "/>
<polyline fill="none" stroke="#000000" points="243,-164 245,-166 "/>
<text text-anchor="start" x="202.5" y="-154.8" font-family="Helvetica,sans-Serif" font-size="9.00" fill="#000000">options</text>
</a>
</g>
</g>
<!-- src/content/authorization&#45;page/index.tsx&#45;&gt;src/options -->
<g id="edge11" class="edge">
<title>src/content/authorization&#45;page/index.tsx&#45;&gt;src/options</title>
<path fill="none" stroke="#000000" stroke-width="2" stroke-opacity="0.200000" d="M100.1134,-84.1066C112.7452,-97.7852 138.4344,-123.6623 165,-139 171.246,-142.6061 178.3251,-145.6342 185.2293,-148.1164"/>
<polygon fill="#000000" fill-opacity="0.200000" stroke="#000000" stroke-width="2" stroke-opacity="0.200000" points="184.6088,-150.1235 190.9655,-150.0737 185.9651,-146.1485 184.6088,-150.1235"/>
</g>
<!-- src/content/authorization&#45;page/isOnAuthorizationPage.ts -->
<g id="node13" class="node">
<title>src/content/authorization&#45;page/isOnAuthorizationPage.ts</title>
<g id="a_node13"><a xlink:href="src/content/authorization-page/isOnAuthorizationPage.ts" xlink:title="no&#45;orphans">
<path fill="#ccffcc" stroke="#ffa500" d="M146,-54C146,-54 38,-54 38,-54 35,-54 32,-51 32,-48 32,-48 32,-42 32,-42 32,-39 35,-36 38,-36 38,-36 146,-36 146,-36 149,-36 152,-39 152,-42 152,-42 152,-48 152,-48 152,-51 149,-54 146,-54"/>
<text text-anchor="start" x="40" y="-42.8" font-family="Helvetica,sans-Serif" font-size="9.00" fill="#ffa500">isOnAuthorizationPage.ts</text>
</a>
</g>
</g>
<!-- src/domain/Bookmark.ts -->
<g id="node16" class="node">
<title>src/domain/Bookmark.ts</title>
<g id="a_node16"><a xlink:href="src/domain/Bookmark.ts" xlink:title="Bookmark.ts">
<path fill="#ddfeff" stroke="#000000" d="M670,-42C670,-42 615,-42 615,-42 612,-42 609,-39 609,-36 609,-36 609,-30 609,-30 609,-27 612,-24 615,-24 615,-24 670,-24 670,-24 673,-24 676,-27 676,-30 676,-30 676,-36 676,-36 676,-39 673,-42 670,-42"/>
<text text-anchor="start" x="617" y="-30.8" font-family="Helvetica,sans-Serif" font-size="9.00" fill="#000000">Bookmark.ts</text>
</a>
</g>
</g>
<!-- src/domain/messages.ts&#45;&gt;src/domain/Bookmark.ts -->
<g id="edge18" class="edge">
<title>src/domain/messages.ts&#45;&gt;src/domain/Bookmark.ts</title>
<path fill="none" stroke="#000000" stroke-width="2" stroke-opacity="0.200000" d="M586.2142,-46.6827C591.6545,-45.3602 597.3215,-43.9826 602.8737,-42.6329"/>
<polygon fill="#000000" fill-opacity="0.200000" stroke="#000000" stroke-width="2" stroke-opacity="0.200000" points="603.5032,-44.6411 608.8373,-41.1832 602.511,-40.56 603.5032,-44.6411"/>
</g>
<!-- src/domain/PageMetaData.ts -->
<g id="node17" class="node">
<title>src/domain/PageMetaData.ts</title>
<g id="a_node17"><a xlink:href="src/domain/PageMetaData.ts" xlink:title="PageMetaData.ts">
<path fill="#ddfeff" stroke="#000000" d="M680,-72C680,-72 605,-72 605,-72 602,-72 599,-69 599,-66 599,-66 599,-60 599,-60 599,-57 602,-54 605,-54 605,-54 680,-54 680,-54 683,-54 686,-57 686,-60 686,-60 686,-66 686,-66 686,-69 683,-72 680,-72"/>
<text text-anchor="start" x="607" y="-60.8" font-family="Helvetica,sans-Serif" font-size="9.00" fill="#000000">PageMetaData.ts</text>
</a>
</g>
</g>
<!-- src/domain/messages.ts&#45;&gt;src/domain/PageMetaData.ts -->
<g id="edge19" class="edge">
<title>src/domain/messages.ts&#45;&gt;src/domain/PageMetaData.ts</title>
<path fill="none" stroke="#000000" stroke-width="2" stroke-opacity="0.200000" d="M586.2142,-58.0245C588.2664,-58.2059 590.3509,-58.3901 592.4493,-58.5756"/>
<polygon fill="#000000" fill-opacity="0.200000" stroke="#000000" stroke-width="2" stroke-opacity="0.200000" points="592.6064,-60.6976 598.7681,-59.1342 592.9763,-56.5139 592.6064,-60.6976"/>
</g>
<!-- src/content/messaging/sendMessage.ts&#45;&gt;src/domain/messages.ts -->
<g id="edge17" class="edge">
<title>src/content/messaging/sendMessage.ts&#45;&gt;src/domain/messages.ts</title>
<path fill="none" stroke="#000000" stroke-width="2" stroke-opacity="0.200000" d="M486.0623,-50.093C494.4429,-50.7167 503.2407,-51.3714 511.5814,-51.9921"/>
<polygon fill="#000000" fill-opacity="0.200000" stroke="#000000" stroke-width="2" stroke-opacity="0.200000" points="511.7166,-54.1079 517.8559,-52.459 512.0284,-49.9195 511.7166,-54.1079"/>
</g>
</g>
</svg>
