<?xml version="1.0" encoding="UTF-8" standalone="no"?>
<!DOCTYPE svg PUBLIC "-//W3C//DTD SVG 1.1//EN"
 "http://www.w3.org/Graphics/SVG/1.1/DTD/svg11.dtd">
<!-- Generated by graphviz version 2.43.0 (0)
 -->
<!-- Title: dependency&#45;cruiser output Pages: 1 -->
<svg width="1029pt" height="332pt"
 viewBox="0.00 0.00 1029.00 332.00" xmlns="http://www.w3.org/2000/svg" xmlns:xlink="http://www.w3.org/1999/xlink">
<g id="graph0" class="graph" transform="scale(1 1) rotate(0) translate(4 328)">
<title>dependency&#45;cruiser output</title>
<polygon fill="white" stroke="transparent" points="-4,4 -4,-328 1025,-328 1025,4 -4,4"/>
<g id="clust1" class="cluster">
<title>cluster_src</title>
<path fill="#ffffff" stroke="black" stroke-width="2" d="M20,-26C20,-26 1001,-26 1001,-26 1007,-26 1013,-32 1013,-38 1013,-38 1013,-304 1013,-304 1013,-310 1007,-316 1001,-316 1001,-316 20,-316 20,-316 14,-316 8,-310 8,-304 8,-304 8,-38 8,-38 8,-32 14,-26 20,-26"/>
<text text-anchor="middle" x="510.5" y="-304.8" font-family="Helvetica,sans-Serif" font-weight="bold" font-size="9.00">src</text>
</g>
<g id="clust2" class="cluster">
<title>cluster_src/api</title>
<path fill="#ffffff" stroke="black" stroke-width="2" d="M442,-34C442,-34 715,-34 715,-34 721,-34 727,-40 727,-46 727,-46 727,-118 727,-118 727,-124 721,-130 715,-130 715,-130 442,-130 442,-130 436,-130 430,-124 430,-118 430,-118 430,-46 430,-46 430,-40 436,-34 442,-34"/>
<text text-anchor="middle" x="578.5" y="-118.8" font-family="Helvetica,sans-Serif" font-weight="bold" font-size="9.00">api</text>
</g>
<g id="clust3" class="cluster">
<title>cluster_src/content</title>
<path fill="#ffffff" stroke="black" stroke-width="2" d="M28,-148C28,-148 410,-148 410,-148 416,-148 422,-154 422,-160 422,-160 422,-252 422,-252 422,-258 416,-264 410,-264 410,-264 28,-264 28,-264 22,-264 16,-258 16,-252 16,-252 16,-160 16,-160 16,-154 22,-148 28,-148"/>
<text text-anchor="middle" x="219" y="-252.8" font-family="Helvetica,sans-Serif" font-weight="bold" font-size="9.00">content</text>
</g>
<g id="clust4" class="cluster">
<title>cluster_src/content/authorization&#45;page</title>
<path fill="#ffffff" stroke="black" stroke-width="2" d="M36,-156C36,-156 402,-156 402,-156 408,-156 414,-162 414,-168 414,-168 414,-226 414,-226 414,-232 408,-238 402,-238 402,-238 36,-238 36,-238 30,-238 24,-232 24,-226 24,-226 24,-168 24,-168 24,-162 30,-156 36,-156"/>
<text text-anchor="middle" x="219" y="-226.8" font-family="Helvetica,sans-Serif" font-weight="bold" font-size="9.00">authorization&#45;page</text>
</g>
<g id="clust5" class="cluster">
<title>cluster_src/domain</title>
<path fill="#ffffff" stroke="black" stroke-width="2" d="M785.5,-173C785.5,-173 993,-173 993,-173 999,-173 1005,-179 1005,-185 1005,-185 1005,-243 1005,-243 1005,-249 999,-255 993,-255 993,-255 785.5,-255 785.5,-255 779.5,-255 773.5,-249 773.5,-243 773.5,-243 773.5,-185 773.5,-185 773.5,-179 779.5,-173 785.5,-173"/>
<text text-anchor="middle" x="889.25" y="-243.8" font-family="Helvetica,sans-Serif" font-weight="bold" font-size="9.00">domain</text>
</g>
<g id="clust6" class="cluster">
<title>cluster_src/store</title>
<path fill="#ffffff" stroke="black" stroke-width="2" d="M632,-138C632,-138 723,-138 723,-138 729,-138 735,-144 735,-150 735,-150 735,-238 735,-238 735,-244 729,-250 723,-250 723,-250 632,-250 632,-250 626,-250 620,-244 620,-238 620,-238 620,-150 620,-150 620,-144 626,-138 632,-138"/>
<text text-anchor="middle" x="677.5" y="-238.8" font-family="Helvetica,sans-Serif" font-weight="bold" font-size="9.00">store</text>
</g>
<!-- events -->
<g id="node1" class="node">
<title>events</title>
<g id="a_node1"><a xlink:title="events">
<path fill="#ffffcc" stroke="grey" d="M972,-18C972,-18 930,-18 930,-18 927,-18 924,-15 924,-12 924,-12 924,-6 924,-6 924,-3 927,0 930,0 930,0 972,0 972,0 975,0 978,-3 978,-6 978,-6 978,-12 978,-12 978,-15 975,-18 972,-18"/>
<text text-anchor="middle" x="951" y="-6.8" font-family="Helvetica,sans-Serif" font-size="9.00" fill="grey">events</text>
</a>
</g>
</g>
<!-- src/api/ProfileApi.ts -->
<g id="node2" class="node">
<title>src/api/ProfileApi.ts</title>
<g id="a_node2"><a xlink:href="src/api/ProfileApi.ts" xlink:title="ProfileApi.ts">
<path fill="#ddfeff" stroke="black" d="M602.5,-104C602.5,-104 544.5,-104 544.5,-104 541.5,-104 538.5,-101 538.5,-98 538.5,-98 538.5,-92 538.5,-92 538.5,-89 541.5,-86 544.5,-86 544.5,-86 602.5,-86 602.5,-86 605.5,-86 608.5,-89 608.5,-92 608.5,-92 608.5,-98 608.5,-98 608.5,-101 605.5,-104 602.5,-104"/>
<text text-anchor="start" x="546.5" y="-92.8" font-family="Helvetica,sans-Serif" font-size="9.00">ProfileApi.ts</text>
</a>
</g>
</g>
<!-- src/chrome -->
<g id="node3" class="node">
<title>src/chrome</title>
<g id="a_node3"><a xlink:href="src/chrome" xlink:title="chrome">
<polygon fill="#ffffcc" stroke="black" points="704.5,-290 652.5,-290 650.5,-288 650.5,-272 702.5,-272 704.5,-274 704.5,-290"/>
<polyline fill="none" stroke="black" points="702.5,-288 650.5,-288 "/>
<polyline fill="none" stroke="black" points="702.5,-288 702.5,-272 "/>
<polyline fill="none" stroke="black" points="702.5,-288 704.5,-290 "/>
<text text-anchor="start" x="660" y="-278.8" font-family="Helvetica,sans-Serif" font-size="9.00">chrome</text>
</a>
</g>
</g>
<!-- src/api/ProfileApi.ts&#45;&gt;src/chrome -->
<g id="edge1" class="edge">
<title>src/api/ProfileApi.ts&#45;&gt;src/chrome</title>
<path fill="none" stroke="#000000" stroke-width="2" stroke-opacity="0.200000" d="M608.31,-104.16C609.67,-105.3 610.92,-106.57 612,-108 631.43,-133.77 602.24,-226.06 620,-253 625.79,-261.79 635.2,-267.92 644.7,-272.16"/>
<polygon fill="#000000" fill-opacity="0.200000" stroke="#000000" stroke-width="2" stroke-opacity="0.200000" points="643.92,-274.11 650.27,-274.44 645.51,-270.22 643.92,-274.11"/>
</g>
<!-- src/store/ProfileStore.ts -->
<g id="node4" class="node">
<title>src/store/ProfileStore.ts</title>
<g id="a_node4"><a xlink:href="src/store/ProfileStore.ts" xlink:title="ProfileStore.ts">
<path fill="#ddfeff" stroke="black" d="M711.5,-224C711.5,-224 643.5,-224 643.5,-224 640.5,-224 637.5,-221 637.5,-218 637.5,-218 637.5,-212 637.5,-212 637.5,-209 640.5,-206 643.5,-206 643.5,-206 711.5,-206 711.5,-206 714.5,-206 717.5,-209 717.5,-212 717.5,-212 717.5,-218 717.5,-218 717.5,-221 714.5,-224 711.5,-224"/>
<text text-anchor="start" x="645.5" y="-212.8" font-family="Helvetica,sans-Serif" font-size="9.00">ProfileStore.ts</text>
</a>
</g>
</g>
<!-- src/api/ProfileApi.ts&#45;&gt;src/store/ProfileStore.ts -->
<g id="edge2" class="edge">
<title>src/api/ProfileApi.ts&#45;&gt;src/store/ProfileStore.ts</title>
<path fill="none" stroke="#000000" stroke-width="2" stroke-opacity="0.200000" d="M575.76,-104.15C579.05,-124.57 589.89,-174.08 620,-200 623.44,-202.96 627.4,-205.34 631.59,-207.26"/>
<polygon fill="#000000" fill-opacity="0.200000" stroke="#000000" stroke-width="2" stroke-opacity="0.200000" points="631.08,-209.32 637.43,-209.6 632.64,-205.42 631.08,-209.32"/>
</g>
<!-- src/api/SolidSession.ts -->
<g id="node5" class="node">
<title>src/api/SolidSession.ts</title>
<g id="a_node5"><a xlink:href="src/api/SolidSession.ts" xlink:title="SolidSession.ts">
<path fill="#ddfeff" stroke="black" d="M713,-60C713,-60 642,-60 642,-60 639,-60 636,-57 636,-54 636,-54 636,-48 636,-48 636,-45 639,-42 642,-42 642,-42 713,-42 713,-42 716,-42 719,-45 719,-48 719,-48 719,-54 719,-54 719,-57 716,-60 713,-60"/>
<text text-anchor="start" x="644" y="-48.8" font-family="Helvetica,sans-Serif" font-size="9.00">SolidSession.ts</text>
</a>
</g>
</g>
<!-- src/api/ProfileApi.ts&#45;&gt;src/api/SolidSession.ts -->
<g id="edge3" class="edge">
<title>src/api/ProfileApi.ts&#45;&gt;src/api/SolidSession.ts</title>
<path fill="none" stroke="#000000" stroke-width="2" stroke-opacity="0.200000" d="M597.57,-85.95C602.35,-84.02 607.35,-81.97 612,-80 625.01,-74.47 639.37,-68.05 651.23,-62.66"/>
<polygon fill="#000000" fill-opacity="0.200000" stroke="#000000" stroke-width="2" stroke-opacity="0.200000" points="652.25,-64.5 656.83,-60.1 650.5,-60.68 652.25,-64.5"/>
</g>
<!-- src/domain/messages.ts -->
<g id="node12" class="node">
<title>src/domain/messages.ts</title>
<g id="a_node12"><a xlink:href="src/domain/messages.ts" xlink:title="messages.ts">
<path fill="#ddfeff" stroke="black" d="M847.5,-229C847.5,-229 787.5,-229 787.5,-229 784.5,-229 781.5,-226 781.5,-223 781.5,-223 781.5,-217 781.5,-217 781.5,-214 784.5,-211 787.5,-211 787.5,-211 847.5,-211 847.5,-211 850.5,-211 853.5,-214 853.5,-217 853.5,-217 853.5,-223 853.5,-223 853.5,-226 850.5,-229 847.5,-229"/>
<text text-anchor="start" x="789.5" y="-217.8" font-family="Helvetica,sans-Serif" font-size="9.00">messages.ts</text>
</a>
</g>
</g>
<!-- src/chrome&#45;&gt;src/domain/messages.ts -->
<g id="edge11" class="edge">
<title>src/chrome&#45;&gt;src/domain/messages.ts</title>
<path fill="none" stroke="#000000" stroke-width="2" stroke-opacity="0.200000" d="M704.73,-273.7C714.38,-270.74 725.32,-267.06 735,-263 756.47,-254 779.87,-241.33 796.07,-232.08"/>
<polygon fill="#000000" fill-opacity="0.200000" stroke="#000000" stroke-width="2" stroke-opacity="0.200000" points="797.12,-233.9 801.27,-229.08 795.02,-230.26 797.12,-233.9"/>
</g>
<!-- src/solid&#45;client&#45;authn&#45;chrome&#45;ext -->
<g id="node6" class="node">
<title>src/solid&#45;client&#45;authn&#45;chrome&#45;ext</title>
<g id="a_node6"><a xlink:href="src/solid-client-authn-chrome-ext" xlink:title="solid&#45;client&#45;authn&#45;chrome&#45;ext">
<polygon fill="#ffffcc" stroke="black" points="892,-56 745,-56 743,-54 743,-38 890,-38 892,-40 892,-56"/>
<polyline fill="none" stroke="black" points="890,-54 743,-54 "/>
<polyline fill="none" stroke="black" points="890,-54 890,-38 "/>
<polyline fill="none" stroke="black" points="890,-54 892,-56 "/>
<text text-anchor="start" x="751" y="-44.8" font-family="Helvetica,sans-Serif" font-size="9.00">solid&#45;client&#45;authn&#45;chrome&#45;ext</text>
</a>
</g>
</g>
<!-- src/api/SolidSession.ts&#45;&gt;src/solid&#45;client&#45;authn&#45;chrome&#45;ext -->
<g id="edge4" class="edge">
<title>src/api/SolidSession.ts&#45;&gt;src/solid&#45;client&#45;authn&#45;chrome&#45;ext</title>
<path fill="none" stroke="#000000" stroke-width="2" stroke-opacity="0.200000" d="M719.16,-49.82C724.82,-49.66 730.8,-49.48 736.88,-49.31"/>
<polygon fill="#000000" fill-opacity="0.200000" stroke="#000000" stroke-width="2" stroke-opacity="0.200000" points="737.06,-51.4 743,-49.13 736.94,-47.21 737.06,-51.4"/>
</g>
<!-- src/solid&#45;client&#45;authn&#45;chrome&#45;ext&#45;&gt;events -->
<g id="edge23" class="edge">
<title>src/solid&#45;client&#45;authn&#45;chrome&#45;ext&#45;&gt;events</title>
<path fill="none" stroke="#000000" stroke-dasharray="5,2" stroke-opacity="0.200000" d="M849.66,-37.99C870.26,-32.04 897.19,-24.26 917.97,-18.26"/>
<polygon fill="#000000" fill-opacity="0.200000" stroke="#000000" stroke-opacity="0.200000" points="918.75,-20.22 923.93,-16.53 917.58,-16.18 918.75,-20.22"/>
</g>
<!-- src/api/StorageApi.ts -->
<g id="node7" class="node">
<title>src/api/StorageApi.ts</title>
<g id="a_node7"><a xlink:href="src/api/StorageApi.ts" xlink:title="StorageApi.ts">
<path fill="#ddfeff" stroke="black" d="M606,-74C606,-74 541,-74 541,-74 538,-74 535,-71 535,-68 535,-68 535,-62 535,-62 535,-59 538,-56 541,-56 541,-56 606,-56 606,-56 609,-56 612,-59 612,-62 612,-62 612,-68 612,-68 612,-71 609,-74 606,-74"/>
<text text-anchor="start" x="543" y="-62.8" font-family="Helvetica,sans-Serif" font-size="9.00">StorageApi.ts</text>
</a>
</g>
</g>
<!-- src/domain/Storage.ts -->
<g id="node8" class="node">
<title>src/domain/Storage.ts</title>
<g id="a_node8"><a xlink:href="src/domain/Storage.ts" xlink:title="Storage.ts">
<path fill="#ddfeff" stroke="black" d="M843,-199C843,-199 792,-199 792,-199 789,-199 786,-196 786,-193 786,-193 786,-187 786,-187 786,-184 789,-181 792,-181 792,-181 843,-181 843,-181 846,-181 849,-184 849,-187 849,-187 849,-193 849,-193 849,-196 846,-199 843,-199"/>
<text text-anchor="start" x="794" y="-187.8" font-family="Helvetica,sans-Serif" font-size="9.00">Storage.ts</text>
</a>
</g>
</g>
<!-- src/api/StorageApi.ts&#45;&gt;src/domain/Storage.ts -->
<g id="edge5" class="edge">
<title>src/api/StorageApi.ts&#45;&gt;src/domain/Storage.ts</title>
<path fill="none" stroke="#000000" stroke-width="2" stroke-opacity="0.200000" d="M612.21,-70.98C649.33,-78.94 704.73,-96.73 735,-135 746.79,-149.9 729.48,-163.65 743,-177 752.51,-186.39 766.29,-190.32 779.35,-191.67"/>
<polygon fill="#000000" fill-opacity="0.200000" stroke="#000000" stroke-width="2" stroke-opacity="0.200000" points="779.54,-193.79 785.68,-192.14 779.85,-189.6 779.54,-193.79"/>
</g>
<!-- src/store/getContainerUrl.ts -->
<g id="node9" class="node">
<title>src/store/getContainerUrl.ts</title>
<g id="a_node9"><a xlink:href="src/store/getContainerUrl.ts" xlink:title="getContainerUrl.ts">
<path fill="#ddfeff" stroke="black" d="M721,-194C721,-194 634,-194 634,-194 631,-194 628,-191 628,-188 628,-188 628,-182 628,-182 628,-179 631,-176 634,-176 634,-176 721,-176 721,-176 724,-176 727,-179 727,-182 727,-182 727,-188 727,-188 727,-191 724,-194 721,-194"/>
<text text-anchor="start" x="636" y="-182.8" font-family="Helvetica,sans-Serif" font-size="9.00">getContainerUrl.ts</text>
</a>
</g>
</g>
<!-- src/api/StorageApi.ts&#45;&gt;src/store/getContainerUrl.ts -->
<g id="edge6" class="edge">
<title>src/api/StorageApi.ts&#45;&gt;src/store/getContainerUrl.ts</title>
<path fill="none" stroke="#000000" stroke-width="2" stroke-opacity="0.200000" d="M605.96,-74.21C608.26,-75.84 610.33,-77.75 612,-80 623.98,-96.11 607.07,-154.64 620,-170 620.86,-171.02 621.78,-171.97 622.75,-172.87"/>
<polygon fill="#000000" fill-opacity="0.200000" stroke="#000000" stroke-width="2" stroke-opacity="0.200000" points="621.94,-174.89 628,-176.84 624.48,-171.54 621.94,-174.89"/>
</g>
<!-- src/store/StorageStore.ts -->
<g id="node10" class="node">
<title>src/store/StorageStore.ts</title>
<g id="a_node10"><a xlink:href="src/store/StorageStore.ts" xlink:title="StorageStore.ts">
<path fill="#ddfeff" stroke="black" d="M715,-164C715,-164 640,-164 640,-164 637,-164 634,-161 634,-158 634,-158 634,-152 634,-152 634,-149 637,-146 640,-146 640,-146 715,-146 715,-146 718,-146 721,-149 721,-152 721,-152 721,-158 721,-158 721,-161 718,-164 715,-164"/>
<text text-anchor="start" x="642" y="-152.8" font-family="Helvetica,sans-Serif" font-size="9.00">StorageStore.ts</text>
</a>
</g>
</g>
<!-- src/api/StorageApi.ts&#45;&gt;src/store/StorageStore.ts -->
<g id="edge7" class="edge">
<title>src/api/StorageApi.ts&#45;&gt;src/store/StorageStore.ts</title>
<path fill="none" stroke="#000000" stroke-width="2" stroke-opacity="0.200000" d="M605.47,-74.08C607.93,-75.74 610.17,-77.69 612,-80 626.79,-98.67 605.12,-114.4 620,-133 623.21,-137.02 627.26,-140.3 631.7,-142.99"/>
<polygon fill="#000000" fill-opacity="0.200000" stroke="#000000" stroke-width="2" stroke-opacity="0.200000" points="630.8,-144.89 637.08,-145.88 632.78,-141.19 630.8,-144.89"/>
</g>
<!-- src/store/StorageStore.ts&#45;&gt;src/domain/Storage.ts -->
<g id="edge24" class="edge">
<title>src/store/StorageStore.ts&#45;&gt;src/domain/Storage.ts</title>
<path fill="none" stroke="#000000" stroke-width="2" stroke-opacity="0.200000" d="M721.27,-164.08C726.03,-165.75 730.7,-167.71 735,-170 739.17,-172.22 738.74,-174.96 743,-177 754.24,-182.39 767.42,-185.56 779.49,-187.43"/>
<polygon fill="#000000" fill-opacity="0.200000" stroke="#000000" stroke-width="2" stroke-opacity="0.200000" points="779.45,-189.54 785.68,-188.29 780.03,-185.38 779.45,-189.54"/>
</g>
<!-- src/api/useSolidApis.ts -->
<g id="node11" class="node">
<title>src/api/useSolidApis.ts</title>
<g id="a_node11"><a xlink:href="src/api/useSolidApis.ts" xlink:title="useSolidApis.ts">
<path fill="#ddfeff" stroke="black" d="M516,-89C516,-89 444,-89 444,-89 441,-89 438,-86 438,-83 438,-83 438,-77 438,-77 438,-74 441,-71 444,-71 444,-71 516,-71 516,-71 519,-71 522,-74 522,-77 522,-77 522,-83 522,-83 522,-86 519,-89 516,-89"/>
<text text-anchor="start" x="446" y="-77.8" font-family="Helvetica,sans-Serif" font-size="9.00">useSolidApis.ts</text>
</a>
</g>
</g>
<!-- src/api/useSolidApis.ts&#45;&gt;src/api/ProfileApi.ts -->
<g id="edge8" class="edge">
<title>src/api/useSolidApis.ts&#45;&gt;src/api/ProfileApi.ts</title>
<path fill="none" stroke="#000000" stroke-width="2" stroke-opacity="0.200000" d="M522.2,-86.75C525.58,-87.31 528.99,-87.87 532.36,-88.42"/>
<polygon fill="#000000" fill-opacity="0.200000" stroke="#000000" stroke-width="2" stroke-opacity="0.200000" points="532.11,-90.51 538.37,-89.41 532.79,-86.36 532.11,-90.51"/>
</g>
<!-- src/api/useSolidApis.ts&#45;&gt;src/api/SolidSession.ts -->
<g id="edge9" class="edge">
<title>src/api/useSolidApis.ts&#45;&gt;src/api/SolidSession.ts</title>
<path fill="none" stroke="#000000" stroke-width="2" stroke-opacity="0.200000" d="M493.1,-70.9C503.56,-63.64 519.43,-54.04 535,-50 565.84,-42.01 601.75,-42.37 629.68,-44.67"/>
<polygon fill="#000000" fill-opacity="0.200000" stroke="#000000" stroke-width="2" stroke-opacity="0.200000" points="629.71,-46.78 635.87,-45.23 630.08,-42.6 629.71,-46.78"/>
</g>
<!-- src/api/useSolidApis.ts&#45;&gt;src/api/StorageApi.ts -->
<g id="edge10" class="edge">
<title>src/api/useSolidApis.ts&#45;&gt;src/api/StorageApi.ts</title>
<path fill="none" stroke="#000000" stroke-width="2" stroke-opacity="0.200000" d="M522.2,-73.25C524.29,-72.9 526.39,-72.56 528.48,-72.22"/>
<polygon fill="#000000" fill-opacity="0.200000" stroke="#000000" stroke-width="2" stroke-opacity="0.200000" points="529.15,-74.23 534.73,-71.19 528.47,-70.09 529.15,-74.23"/>
</g>
<!-- src/domain/Bookmark.ts -->
<g id="node19" class="node">
<title>src/domain/Bookmark.ts</title>
<g id="a_node19"><a xlink:href="src/domain/Bookmark.ts" xlink:title="Bookmark.ts">
<path fill="#ddfeff" stroke="black" d="M981.5,-199C981.5,-199 920.5,-199 920.5,-199 917.5,-199 914.5,-196 914.5,-193 914.5,-193 914.5,-187 914.5,-187 914.5,-184 917.5,-181 920.5,-181 920.5,-181 981.5,-181 981.5,-181 984.5,-181 987.5,-184 987.5,-187 987.5,-187 987.5,-193 987.5,-193 987.5,-196 984.5,-199 981.5,-199"/>
<text text-anchor="start" x="922.5" y="-187.8" font-family="Helvetica,sans-Serif" font-size="9.00">Bookmark.ts</text>
</a>
</g>
</g>
<!-- src/domain/messages.ts&#45;&gt;src/domain/Bookmark.ts -->
<g id="edge21" class="edge">
<title>src/domain/messages.ts&#45;&gt;src/domain/Bookmark.ts</title>
<path fill="none" stroke="#000000" stroke-width="2" stroke-opacity="0.200000" d="M853.72,-213.2C865.88,-210.75 879.57,-207.87 892,-205 897.93,-203.63 904.18,-202.1 910.29,-200.56"/>
<polygon fill="#000000" fill-opacity="0.200000" stroke="#000000" stroke-width="2" stroke-opacity="0.200000" points="911.04,-202.54 916.34,-199.02 910,-198.47 911.04,-202.54"/>
</g>
<!-- src/domain/PageMetaData.ts -->
<g id="node20" class="node">
<title>src/domain/PageMetaData.ts</title>
<g id="a_node20"><a xlink:href="src/domain/PageMetaData.ts" xlink:title="PageMetaData.ts">
<path fill="#ddfeff" stroke="black" d="M991,-229C991,-229 911,-229 911,-229 908,-229 905,-226 905,-223 905,-223 905,-217 905,-217 905,-214 908,-211 911,-211 911,-211 991,-211 991,-211 994,-211 997,-214 997,-217 997,-217 997,-223 997,-223 997,-226 994,-229 991,-229"/>
<text text-anchor="start" x="913" y="-217.8" font-family="Helvetica,sans-Serif" font-size="9.00">PageMetaData.ts</text>
</a>
</g>
</g>
<!-- src/domain/messages.ts&#45;&gt;src/domain/PageMetaData.ts -->
<g id="edge22" class="edge">
<title>src/domain/messages.ts&#45;&gt;src/domain/PageMetaData.ts</title>
<path fill="none" stroke="#000000" stroke-width="2" stroke-opacity="0.200000" d="M853.74,-220C867.45,-220 883.44,-220 898.4,-220"/>
<polygon fill="#000000" fill-opacity="0.200000" stroke="#000000" stroke-width="2" stroke-opacity="0.200000" points="898.74,-222.1 904.74,-220 898.74,-217.9 898.74,-222.1"/>
</g>
<!-- src/content/authorization&#45;page/AuthorizationPage.tsx -->
<g id="node13" class="node">
<title>src/content/authorization&#45;page/AuthorizationPage.tsx</title>
<g id="a_node13"><a xlink:href="src/content/authorization-page/AuthorizationPage.tsx" xlink:title="AuthorizationPage.tsx">
<path fill="#bbfeff" stroke="black" d="M283,-212C283,-212 180,-212 180,-212 177,-212 174,-209 174,-206 174,-206 174,-200 174,-200 174,-197 177,-194 180,-194 180,-194 283,-194 283,-194 286,-194 289,-197 289,-200 289,-200 289,-206 289,-206 289,-209 286,-212 283,-212"/>
<text text-anchor="start" x="182" y="-200.8" font-family="Helvetica,sans-Serif" font-size="9.00">AuthorizationPage.tsx</text>
</a>
</g>
</g>
<!-- src/content/authorization&#45;page/AuthorizationPage.tsx&#45;&gt;src/chrome -->
<g id="edge12" class="edge">
<title>src/content/authorization&#45;page/AuthorizationPage.tsx&#45;&gt;src/chrome</title>
<path fill="none" stroke="#000000" stroke-width="2" stroke-opacity="0.200000" d="M274.01,-212.05C283.22,-214.03 292.94,-216.1 302,-218 358.82,-229.9 372.69,-234.73 430,-244 510.43,-257.01 531.76,-251.86 612,-266 622.6,-267.87 634.07,-270.38 644.37,-272.81"/>
<polygon fill="#000000" fill-opacity="0.200000" stroke="#000000" stroke-width="2" stroke-opacity="0.200000" points="643.95,-274.86 650.27,-274.22 644.93,-270.78 643.95,-274.86"/>
</g>
<!-- src/content/authorization&#45;page/ErrorDetails.tsx -->
<g id="node14" class="node">
<title>src/content/authorization&#45;page/ErrorDetails.tsx</title>
<g id="a_node14"><a xlink:href="src/content/authorization-page/ErrorDetails.tsx" xlink:title="ErrorDetails.tsx">
<path fill="#bbfeff" stroke="black" d="M391,-182C391,-182 317,-182 317,-182 314,-182 311,-179 311,-176 311,-176 311,-170 311,-170 311,-167 314,-164 317,-164 317,-164 391,-164 391,-164 394,-164 397,-167 397,-170 397,-170 397,-176 397,-176 397,-179 394,-182 391,-182"/>
<text text-anchor="start" x="319" y="-170.8" font-family="Helvetica,sans-Serif" font-size="9.00">ErrorDetails.tsx</text>
</a>
</g>
</g>
<!-- src/content/authorization&#45;page/AuthorizationPage.tsx&#45;&gt;src/content/authorization&#45;page/ErrorDetails.tsx -->
<g id="edge13" class="edge">
<title>src/content/authorization&#45;page/AuthorizationPage.tsx&#45;&gt;src/content/authorization&#45;page/ErrorDetails.tsx</title>
<path fill="none" stroke="#000000" stroke-width="2" stroke-opacity="0.200000" d="M268.65,-194C281.76,-190.74 296.69,-187.02 310.3,-183.63"/>
<polygon fill="#000000" fill-opacity="0.200000" stroke="#000000" stroke-width="2" stroke-opacity="0.200000" points="311.14,-185.59 316.46,-182.1 310.13,-181.51 311.14,-185.59"/>
</g>
<!-- src/content/authorization&#45;page/useAuthorization.ts -->
<g id="node15" class="node">
<title>src/content/authorization&#45;page/useAuthorization.ts</title>
<g id="a_node15"><a xlink:href="src/content/authorization-page/useAuthorization.ts" xlink:title="useAuthorization.ts">
<path fill="#ddfeff" stroke="black" d="M400,-212C400,-212 308,-212 308,-212 305,-212 302,-209 302,-206 302,-206 302,-200 302,-200 302,-197 305,-194 308,-194 308,-194 400,-194 400,-194 403,-194 406,-197 406,-200 406,-200 406,-206 406,-206 406,-209 403,-212 400,-212"/>
<text text-anchor="start" x="310" y="-200.8" font-family="Helvetica,sans-Serif" font-size="9.00">useAuthorization.ts</text>
</a>
</g>
</g>
<!-- src/content/authorization&#45;page/AuthorizationPage.tsx&#45;&gt;src/content/authorization&#45;page/useAuthorization.ts -->
<g id="edge14" class="edge">
<title>src/content/authorization&#45;page/AuthorizationPage.tsx&#45;&gt;src/content/authorization&#45;page/useAuthorization.ts</title>
<path fill="none" stroke="#000000" stroke-width="2" stroke-opacity="0.200000" d="M289.22,-203C291.3,-203 293.38,-203 295.45,-203"/>
<polygon fill="#000000" fill-opacity="0.200000" stroke="#000000" stroke-width="2" stroke-opacity="0.200000" points="295.66,-205.1 301.66,-203 295.66,-200.9 295.66,-205.1"/>
</g>
<!-- src/content/authorization&#45;page/useAuthorization.ts&#45;&gt;src/chrome -->
<g id="edge19" class="edge">
<title>src/content/authorization&#45;page/useAuthorization.ts&#45;&gt;src/chrome</title>
<path fill="none" stroke="#000000" stroke-width="2" stroke-opacity="0.200000" d="M406.16,-207.75C411.85,-209.74 417.28,-212.42 422,-216 428.33,-220.81 423.48,-227.46 430,-232 496.78,-278.5 541.61,-211.16 612,-252 617.23,-255.03 615.1,-259.46 620,-263 627.26,-268.24 636.1,-271.99 644.62,-274.67"/>
<polygon fill="#000000" fill-opacity="0.200000" stroke="#000000" stroke-width="2" stroke-opacity="0.200000" points="644.09,-276.7 650.44,-276.36 645.26,-272.67 644.09,-276.7"/>
</g>
<!-- src/content/authorization&#45;page/useAuthorization.ts&#45;&gt;src/api/useSolidApis.ts -->
<g id="edge18" class="edge">
<title>src/content/authorization&#45;page/useAuthorization.ts&#45;&gt;src/api/useSolidApis.ts</title>
<path fill="none" stroke="#000000" stroke-width="2" stroke-opacity="0.200000" d="M406.13,-196.52C411.82,-194.4 417.27,-191.62 422,-188 452.95,-164.34 468.83,-119.01 475.34,-95.31"/>
<polygon fill="#000000" fill-opacity="0.200000" stroke="#000000" stroke-width="2" stroke-opacity="0.200000" points="477.44,-95.57 476.93,-89.23 473.37,-94.5 477.44,-95.57"/>
</g>
<!-- src/content/authorization&#45;page/useAuthorization.ts&#45;&gt;src/domain/messages.ts -->
<g id="edge20" class="edge">
<title>src/content/authorization&#45;page/useAuthorization.ts&#45;&gt;src/domain/messages.ts</title>
<path fill="none" stroke="#000000" stroke-width="2" stroke-opacity="0.200000" d="M406,-194.71C462.3,-188.52 552.78,-187.68 612,-233 619.6,-238.82 612.07,-247.63 620,-253 641.16,-267.33 709.92,-257.89 735,-253 755.82,-248.95 778.04,-239.57 794.02,-231.85"/>
<polygon fill="#000000" fill-opacity="0.200000" stroke="#000000" stroke-width="2" stroke-opacity="0.200000" points="795.16,-233.63 799.61,-229.09 793.3,-229.86 795.16,-233.63"/>
</g>
<!-- src/content/authorization&#45;page/index.tsx -->
<g id="node16" class="node">
<title>src/content/authorization&#45;page/index.tsx</title>
<g id="a_node16"><a xlink:href="src/content/authorization-page/index.tsx" xlink:title="index.tsx">
<path fill="#bbfeff" stroke="black" d="M119.5,-212C119.5,-212 73.5,-212 73.5,-212 70.5,-212 67.5,-209 67.5,-206 67.5,-206 67.5,-200 67.5,-200 67.5,-197 70.5,-194 73.5,-194 73.5,-194 119.5,-194 119.5,-194 122.5,-194 125.5,-197 125.5,-200 125.5,-200 125.5,-206 125.5,-206 125.5,-209 122.5,-212 119.5,-212"/>
<text text-anchor="start" x="75.5" y="-200.8" font-family="Helvetica,sans-Serif" font-size="9.00">index.tsx</text>
</a>
</g>
</g>
<!-- src/content/authorization&#45;page/index.tsx&#45;&gt;src/chrome -->
<g id="edge15" class="edge">
<title>src/content/authorization&#45;page/index.tsx&#45;&gt;src/chrome</title>
<path fill="none" stroke="#000000" stroke-width="2" stroke-opacity="0.200000" d="M125.77,-208.95C140.17,-211.87 157.98,-215.34 174,-218 350.67,-247.37 564.33,-269.89 644.26,-277.86"/>
<polygon fill="#000000" fill-opacity="0.200000" stroke="#000000" stroke-width="2" stroke-opacity="0.200000" points="644.06,-279.95 650.24,-278.46 644.47,-275.77 644.06,-279.95"/>
</g>
<!-- src/content/authorization&#45;page/index.tsx&#45;&gt;src/content/authorization&#45;page/AuthorizationPage.tsx -->
<g id="edge17" class="edge">
<title>src/content/authorization&#45;page/index.tsx&#45;&gt;src/content/authorization&#45;page/AuthorizationPage.tsx</title>
<path fill="none" stroke="#000000" stroke-width="2" stroke-opacity="0.200000" d="M125.71,-203C137.98,-203 152.9,-203 167.58,-203"/>
<polygon fill="#000000" fill-opacity="0.200000" stroke="#000000" stroke-width="2" stroke-opacity="0.200000" points="167.85,-205.1 173.85,-203 167.85,-200.9 167.85,-205.1"/>
</g>
<!-- src/options -->
<g id="node17" class="node">
<title>src/options</title>
<g id="a_node17"><a xlink:href="src/options" xlink:title="options">
<polygon fill="#ffffcc" stroke="black" points="258.5,-290 206.5,-290 204.5,-288 204.5,-272 256.5,-272 258.5,-274 258.5,-290"/>
<polyline fill="none" stroke="black" points="256.5,-288 204.5,-288 "/>
<polyline fill="none" stroke="black" points="256.5,-288 256.5,-272 "/>
<polyline fill="none" stroke="black" points="256.5,-288 258.5,-290 "/>
<text text-anchor="start" x="214.5" y="-278.8" font-family="Helvetica,sans-Serif" font-size="9.00">options</text>
</a>
</g>
</g>
<!-- src/content/authorization&#45;page/index.tsx&#45;&gt;src/options -->
<g id="edge16" class="edge">
<title>src/content/authorization&#45;page/index.tsx&#45;&gt;src/options</title>
<path fill="none" stroke="#000000" stroke-width="2" stroke-opacity="0.200000" d="M107.08,-212.4C120.83,-225.43 147.45,-248.95 174,-263 181.54,-266.99 190.12,-270.28 198.28,-272.91"/>
<polygon fill="#000000" fill-opacity="0.200000" stroke="#000000" stroke-width="2" stroke-opacity="0.200000" points="198.05,-275.04 204.41,-274.8 199.29,-271.03 198.05,-275.04"/>
</g>
<!-- src/content/authorization&#45;page/isOnAuthorizationPage.ts -->
<g id="node18" class="node">
<title>src/content/authorization&#45;page/isOnAuthorizationPage.ts</title>
<g id="a_node18"><a xlink:href="src/content/authorization-page/isOnAuthorizationPage.ts" xlink:title="no&#45;orphans">
<path fill="#ccffcc" stroke="orange" d="M155,-182C155,-182 38,-182 38,-182 35,-182 32,-179 32,-176 32,-176 32,-170 32,-170 32,-167 35,-164 38,-164 38,-164 155,-164 155,-164 158,-164 161,-167 161,-170 161,-170 161,-176 161,-176 161,-179 158,-182 155,-182"/>
<text text-anchor="start" x="40" y="-170.8" font-family="Helvetica,sans-Serif" font-size="9.00" fill="orange">isOnAuthorizationPage.ts</text>
</a>
</g>
</g>
</g>
</svg>
