<?xml version="1.0" encoding="UTF-8" standalone="no"?>
<!DOCTYPE svg PUBLIC "-//W3C//DTD SVG 1.1//EN"
 "http://www.w3.org/Graphics/SVG/1.1/DTD/svg11.dtd">
<!-- Generated by graphviz version 2.40.1 (20161225.0304)
 -->
<!-- Title: dependency&#45;cruiser output Pages: 1 -->
<svg width="1099pt" height="546pt"
 viewBox="0.00 0.00 1099.00 546.00" xmlns="http://www.w3.org/2000/svg" xmlns:xlink="http://www.w3.org/1999/xlink">
<g id="graph0" class="graph" transform="scale(1 1) rotate(0) translate(4 542)">
<title>dependency&#45;cruiser output</title>
<polygon fill="#ffffff" stroke="transparent" points="-4,4 -4,-542 1095,-542 1095,4 -4,4"/>
<g id="clust1" class="cluster">
<title>cluster_src</title>
<path fill="#ffffff" stroke="#000000" stroke-width="2" d="M20,-26C20,-26 1071,-26 1071,-26 1077,-26 1083,-32 1083,-38 1083,-38 1083,-518 1083,-518 1083,-524 1077,-530 1071,-530 1071,-530 20,-530 20,-530 14,-530 8,-524 8,-518 8,-518 8,-38 8,-38 8,-32 14,-26 20,-26"/>
<text text-anchor="middle" x="545.5" y="-518.8" font-family="Helvetica,sans-Serif" font-weight="bold" font-size="9.00" fill="#000000">src</text>
</g>
<g id="clust2" class="cluster">
<title>cluster_src/api</title>
<path fill="#ffffff" stroke="#000000" stroke-width="2" d="M389,-228C389,-228 717.5,-228 717.5,-228 723.5,-228 729.5,-234 729.5,-240 729.5,-240 729.5,-312 729.5,-312 729.5,-318 723.5,-324 717.5,-324 717.5,-324 389,-324 389,-324 383,-324 377,-318 377,-312 377,-312 377,-240 377,-240 377,-234 383,-228 389,-228"/>
<text text-anchor="middle" x="553.25" y="-312.8" font-family="Helvetica,sans-Serif" font-weight="bold" font-size="9.00" fill="#000000">api</text>
</g>
<g id="clust3" class="cluster">
<title>cluster_src/background</title>
<path fill="#ffffff" stroke="#000000" stroke-width="2" d="M110,-332C110,-332 461,-332 461,-332 467,-332 473,-338 473,-344 473,-344 473,-432 473,-432 473,-438 467,-444 461,-444 461,-444 110,-444 110,-444 104,-444 98,-438 98,-432 98,-432 98,-344 98,-344 98,-338 104,-332 110,-332"/>
<text text-anchor="middle" x="285.5" y="-432.8" font-family="Helvetica,sans-Serif" font-weight="bold" font-size="9.00" fill="#000000">background</text>
</g>
<g id="clust4" class="cluster">
<title>cluster_src/domain</title>
<path fill="#ffffff" stroke="#000000" stroke-width="2" d="M385,-138C385,-138 590.5,-138 590.5,-138 596.5,-138 602.5,-144 602.5,-150 602.5,-150 602.5,-208 602.5,-208 602.5,-214 596.5,-220 590.5,-220 590.5,-220 385,-220 385,-220 379,-220 373,-214 373,-208 373,-208 373,-150 373,-150 373,-144 379,-138 385,-138"/>
<text text-anchor="middle" x="487.75" y="-208.8" font-family="Helvetica,sans-Serif" font-weight="bold" font-size="9.00" fill="#000000">domain</text>
</g>
<g id="clust5" class="cluster">
<title>cluster_src/options</title>
<path fill="#ffffff" stroke="#000000" stroke-width="2" d="M126.5,-452C126.5,-452 345,-452 345,-452 351,-452 357,-458 357,-464 357,-464 357,-492 357,-492 357,-498 351,-504 345,-504 345,-504 126.5,-504 126.5,-504 120.5,-504 114.5,-498 114.5,-492 114.5,-492 114.5,-464 114.5,-464 114.5,-458 120.5,-452 126.5,-452"/>
<text text-anchor="middle" x="235.75" y="-492.8" font-family="Helvetica,sans-Serif" font-weight="bold" font-size="9.00" fill="#000000">options</text>
</g>
<g id="clust6" class="cluster">
<title>cluster_src/solid&#45;client&#45;authn&#45;chrome&#45;ext</title>
<path fill="#ffffff" stroke="#000000" stroke-width="2" d="M525.5,-34C525.5,-34 1063,-34 1063,-34 1069,-34 1075,-40 1075,-46 1075,-46 1075,-118 1075,-118 1075,-124 1069,-130 1063,-130 1063,-130 525.5,-130 525.5,-130 519.5,-130 513.5,-124 513.5,-118 513.5,-118 513.5,-46 513.5,-46 513.5,-40 519.5,-34 525.5,-34"/>
<text text-anchor="middle" x="794.25" y="-118.8" font-family="Helvetica,sans-Serif" font-weight="bold" font-size="9.00" fill="#000000">solid&#45;client&#45;authn&#45;chrome&#45;ext</text>
</g>
<g id="clust7" class="cluster">
<title>cluster_src/store</title>
<path fill="#ffffff" stroke="#000000" stroke-width="2" d="M510.5,-340C510.5,-340 905,-340 905,-340 911,-340 917,-346 917,-352 917,-352 917,-410 917,-410 917,-416 911,-422 905,-422 905,-422 510.5,-422 510.5,-422 504.5,-422 498.5,-416 498.5,-410 498.5,-410 498.5,-352 498.5,-352 498.5,-346 504.5,-340 510.5,-340"/>
<text text-anchor="middle" x="707.75" y="-410.8" font-family="Helvetica,sans-Serif" font-weight="bold" font-size="9.00" fill="#000000">store</text>
</g>
<!-- events -->
<g id="node1" class="node">
<title>events</title>
<g id="a_node1"><a xlink:title="events">
<path fill="#ffffcc" stroke="#c0c0c0" d="M715.5,-18C715.5,-18 673.5,-18 673.5,-18 670.5,-18 667.5,-15 667.5,-12 667.5,-12 667.5,-6 667.5,-6 667.5,-3 670.5,0 673.5,0 673.5,0 715.5,0 715.5,0 718.5,0 721.5,-3 721.5,-6 721.5,-6 721.5,-12 721.5,-12 721.5,-15 718.5,-18 715.5,-18"/>
<text text-anchor="middle" x="694.5" y="-6.8" font-family="Helvetica,sans-Serif" font-size="9.00" fill="#c0c0c0">events</text>
</a>
</g>
</g>
<!-- src/api/SolidApi.ts -->
<g id="node2" class="node">
<title>src/api/SolidApi.ts</title>
<g id="a_node2"><a xlink:href="src/api/SolidApi.ts" xlink:title="SolidApi.ts">
<path fill="#ddfeff" stroke="#000000" d="M439,-268C439,-268 391,-268 391,-268 388,-268 385,-265 385,-262 385,-262 385,-256 385,-256 385,-253 388,-250 391,-250 391,-250 439,-250 439,-250 442,-250 445,-253 445,-256 445,-256 445,-262 445,-262 445,-265 442,-268 439,-268"/>
<text text-anchor="start" x="393" y="-256.8" font-family="Helvetica,sans-Serif" font-size="9.00" fill="#000000">SolidApi.ts</text>
</a>
</g>
</g>
<!-- src/domain/Bookmark.ts -->
<g id="node3" class="node">
<title>src/domain/Bookmark.ts</title>
<g id="a_node3"><a xlink:href="src/domain/Bookmark.ts" xlink:title="Bookmark.ts">
<path fill="#ddfeff" stroke="#000000" d="M578.5,-164C578.5,-164 523.5,-164 523.5,-164 520.5,-164 517.5,-161 517.5,-158 517.5,-158 517.5,-152 517.5,-152 517.5,-149 520.5,-146 523.5,-146 523.5,-146 578.5,-146 578.5,-146 581.5,-146 584.5,-149 584.5,-152 584.5,-152 584.5,-158 584.5,-158 584.5,-161 581.5,-164 578.5,-164"/>
<text text-anchor="start" x="525.5" y="-152.8" font-family="Helvetica,sans-Serif" font-size="9.00" fill="#000000">Bookmark.ts</text>
</a>
</g>
</g>
<!-- src/api/SolidApi.ts&#45;&gt;src/domain/Bookmark.ts -->
<g id="edge1" class="edge">
<title>src/api/SolidApi.ts&#45;&gt;src/domain/Bookmark.ts</title>
<path fill="none" stroke="#000000" stroke-width="2" stroke-opacity="0.200000" d="M438.9102,-249.9446C451.0544,-244.1016 464.915,-235.2718 473,-223 486.1062,-203.1069 464.679,-187.3531 481,-170 488.8312,-161.6736 500.07,-157.3938 511.2573,-155.3278"/>
<polygon fill="#000000" fill-opacity="0.200000" stroke="#000000" stroke-width="2" stroke-opacity="0.200000" points="511.8248,-157.3661 517.4452,-154.3961 511.1994,-153.2129 511.8248,-157.3661"/>
</g>
<!-- src/domain/PageMetaData.ts -->
<g id="node4" class="node">
<title>src/domain/PageMetaData.ts</title>
<g id="a_node4"><a xlink:href="src/domain/PageMetaData.ts" xlink:title="PageMetaData.ts">
<path fill="#ddfeff" stroke="#000000" d="M588.5,-194C588.5,-194 513.5,-194 513.5,-194 510.5,-194 507.5,-191 507.5,-188 507.5,-188 507.5,-182 507.5,-182 507.5,-179 510.5,-176 513.5,-176 513.5,-176 588.5,-176 588.5,-176 591.5,-176 594.5,-179 594.5,-182 594.5,-182 594.5,-188 594.5,-188 594.5,-191 591.5,-194 588.5,-194"/>
<text text-anchor="start" x="515.5" y="-182.8" font-family="Helvetica,sans-Serif" font-size="9.00" fill="#000000">PageMetaData.ts</text>
</a>
</g>
</g>
<!-- src/api/SolidApi.ts&#45;&gt;src/domain/PageMetaData.ts -->
<g id="edge2" class="edge">
<title>src/api/SolidApi.ts&#45;&gt;src/domain/PageMetaData.ts</title>
<path fill="none" stroke="#000000" stroke-width="2" stroke-opacity="0.200000" d="M431.6763,-249.9261C456.045,-236.6667 501.4376,-211.9678 528.6667,-197.1519"/>
<polygon fill="#000000" fill-opacity="0.200000" stroke="#000000" stroke-width="2" stroke-opacity="0.200000" points="529.9207,-198.8604 534.1873,-194.1481 527.9133,-195.1712 529.9207,-198.8604"/>
</g>
<!-- src/solid&#45;client&#45;authn&#45;chrome&#45;ext/Session.ts -->
<g id="node5" class="node">
<title>src/solid&#45;client&#45;authn&#45;chrome&#45;ext/Session.ts</title>
<g id="a_node5"><a xlink:href="src/solid-client-authn-chrome-ext/Session.ts" xlink:title="Session.ts">
<path fill="#ddfeff" stroke="#000000" d="M574.5,-104C574.5,-104 527.5,-104 527.5,-104 524.5,-104 521.5,-101 521.5,-98 521.5,-98 521.5,-92 521.5,-92 521.5,-89 524.5,-86 527.5,-86 527.5,-86 574.5,-86 574.5,-86 577.5,-86 580.5,-89 580.5,-92 580.5,-92 580.5,-98 580.5,-98 580.5,-101 577.5,-104 574.5,-104"/>
<text text-anchor="start" x="529.5" y="-92.8" font-family="Helvetica,sans-Serif" font-size="9.00" fill="#000000">Session.ts</text>
</a>
</g>
</g>
<!-- src/api/SolidApi.ts&#45;&gt;src/solid&#45;client&#45;authn&#45;chrome&#45;ext/Session.ts -->
<g id="edge3" class="edge">
<title>src/api/SolidApi.ts&#45;&gt;src/solid&#45;client&#45;authn&#45;chrome&#45;ext/Session.ts</title>
<path fill="none" stroke="#000000" stroke-width="2" stroke-opacity="0.200000" d="M439.4987,-249.9904C451.6553,-244.1999 465.3436,-235.4047 473,-223 493.6269,-189.5807 459.7692,-168.039 481,-135 489.2762,-122.1207 503.2582,-112.9451 516.5597,-106.6594"/>
<polygon fill="#000000" fill-opacity="0.200000" stroke="#000000" stroke-width="2" stroke-opacity="0.200000" points="517.5782,-108.5045 522.2001,-104.1401 515.8653,-104.6697 517.5782,-108.5045"/>
</g>
<!-- src/store/BookmarkStore.ts -->
<g id="node6" class="node">
<title>src/store/BookmarkStore.ts</title>
<g id="a_node6"><a xlink:href="src/store/BookmarkStore.ts" xlink:title="BookmarkStore.ts">
<path fill="#ddfeff" stroke="#000000" d="M589.5,-370C589.5,-370 512.5,-370 512.5,-370 509.5,-370 506.5,-367 506.5,-364 506.5,-364 506.5,-358 506.5,-358 506.5,-355 509.5,-352 512.5,-352 512.5,-352 589.5,-352 589.5,-352 592.5,-352 595.5,-355 595.5,-358 595.5,-358 595.5,-364 595.5,-364 595.5,-367 592.5,-370 589.5,-370"/>
<text text-anchor="start" x="514.5" y="-358.8" font-family="Helvetica,sans-Serif" font-size="9.00" fill="#000000">BookmarkStore.ts</text>
</a>
</g>
</g>
<!-- src/api/SolidApi.ts&#45;&gt;src/store/BookmarkStore.ts -->
<g id="edge4" class="edge">
<title>src/api/SolidApi.ts&#45;&gt;src/store/BookmarkStore.ts</title>
<path fill="none" stroke="#000000" stroke-width="2" stroke-opacity="0.200000" d="M422.2747,-268.3617C433.6159,-282.4849 456.7395,-309.4507 481,-327 493.3407,-335.9269 508.3872,-343.5849 521.3632,-349.3606"/>
<polygon fill="#000000" fill-opacity="0.200000" stroke="#000000" stroke-width="2" stroke-opacity="0.200000" points="520.8224,-351.4152 527.1623,-351.8796 522.4958,-347.5629 520.8224,-351.4152"/>
</g>
<!-- src/api/generateDatePathForToday.ts -->
<g id="node7" class="node">
<title>src/api/generateDatePathForToday.ts</title>
<g id="a_node7"><a xlink:href="src/api/generateDatePathForToday.ts" xlink:title="generateDatePathForToday.ts">
<path fill="#ddfeff" stroke="#000000" d="M615,-268C615,-268 487,-268 487,-268 484,-268 481,-265 481,-262 481,-262 481,-256 481,-256 481,-253 484,-250 487,-250 487,-250 615,-250 615,-250 618,-250 621,-253 621,-256 621,-256 621,-262 621,-262 621,-265 618,-268 615,-268"/>
<text text-anchor="start" x="489" y="-256.8" font-family="Helvetica,sans-Serif" font-size="9.00" fill="#000000">generateDatePathForToday.ts</text>
</a>
</g>
</g>
<!-- src/api/SolidApi.ts&#45;&gt;src/api/generateDatePathForToday.ts -->
<g id="edge5" class="edge">
<title>src/api/SolidApi.ts&#45;&gt;src/api/generateDatePathForToday.ts</title>
<path fill="none" stroke="#000000" stroke-width="2" stroke-opacity="0.200000" d="M445.1828,-259C454.0795,-259 464.2424,-259 474.6707,-259"/>
<polygon fill="#000000" fill-opacity="0.200000" stroke="#000000" stroke-width="2" stroke-opacity="0.200000" points="474.8339,-261.1001 480.8338,-259 474.8338,-256.9001 474.8339,-261.1001"/>
</g>
<!-- src/api/generateUuid.ts -->
<g id="node8" class="node">
<title>src/api/generateUuid.ts</title>
<g id="a_node8"><a xlink:href="src/api/generateUuid.ts" xlink:title="generateUuid.ts">
<path fill="#ddfeff" stroke="#000000" d="M586,-298C586,-298 516,-298 516,-298 513,-298 510,-295 510,-292 510,-292 510,-286 510,-286 510,-283 513,-280 516,-280 516,-280 586,-280 586,-280 589,-280 592,-283 592,-286 592,-286 592,-292 592,-292 592,-295 589,-298 586,-298"/>
<text text-anchor="start" x="518" y="-286.8" font-family="Helvetica,sans-Serif" font-size="9.00" fill="#000000">generateUuid.ts</text>
</a>
</g>
</g>
<!-- src/api/SolidApi.ts&#45;&gt;src/api/generateUuid.ts -->
<g id="edge6" class="edge">
<title>src/api/SolidApi.ts&#45;&gt;src/api/generateUuid.ts</title>
<path fill="none" stroke="#000000" stroke-width="2" stroke-opacity="0.200000" d="M445.2105,-265.9486C456.4413,-268.51 469.2963,-271.4162 481,-274 488.3008,-275.6118 496.0357,-277.2944 503.5976,-278.9255"/>
<polygon fill="#000000" fill-opacity="0.200000" stroke="#000000" stroke-width="2" stroke-opacity="0.200000" points="503.588,-281.0714 509.8955,-280.2808 504.4716,-276.9654 503.588,-281.0714"/>
</g>
<!-- src/api/now.ts -->
<g id="node9" class="node">
<title>src/api/now.ts</title>
<g id="a_node9"><a xlink:href="src/api/now.ts" xlink:title="now.ts">
<path fill="#ddfeff" stroke="#000000" d="M715.5,-261C715.5,-261 673.5,-261 673.5,-261 670.5,-261 667.5,-258 667.5,-255 667.5,-255 667.5,-249 667.5,-249 667.5,-246 670.5,-243 673.5,-243 673.5,-243 715.5,-243 715.5,-243 718.5,-243 721.5,-246 721.5,-249 721.5,-249 721.5,-255 721.5,-255 721.5,-258 718.5,-261 715.5,-261"/>
<text text-anchor="start" x="681" y="-249.8" font-family="Helvetica,sans-Serif" font-size="9.00" fill="#000000">now.ts</text>
</a>
</g>
</g>
<!-- src/api/SolidApi.ts&#45;&gt;src/api/now.ts -->
<g id="edge7" class="edge">
<title>src/api/SolidApi.ts&#45;&gt;src/api/now.ts</title>
<path fill="none" stroke="#000000" stroke-width="2" stroke-opacity="0.200000" d="M445.3157,-250.6175C456.4449,-247.9373 469.206,-245.3234 481,-244 544.5904,-236.8648 619.4311,-242.9793 661.481,-247.7261"/>
<polygon fill="#000000" fill-opacity="0.200000" stroke="#000000" stroke-width="2" stroke-opacity="0.200000" points="661.2406,-249.8122 667.442,-248.4148 661.7227,-245.6399 661.2406,-249.8122"/>
</g>
<!-- src/solid&#45;client&#45;authn&#45;chrome&#45;ext/Session.ts&#45;&gt;events -->
<g id="edge34" class="edge">
<title>src/solid&#45;client&#45;authn&#45;chrome&#45;ext/Session.ts&#45;&gt;events</title>
<path fill="none" stroke="#000000" stroke-dasharray="5,2" stroke-opacity="0.200000" d="M561.014,-85.6005C575.926,-72.012 605.3009,-46.7834 634,-31 642.5154,-26.3169 652.2259,-22.2769 661.3373,-18.9836"/>
<polygon fill="#000000" fill-opacity="0.200000" stroke="#000000" stroke-opacity="0.200000" points="662.2484,-20.8898 667.2197,-16.928 660.8628,-16.9249 662.2484,-20.8898"/>
</g>
<!-- src/solid&#45;client&#45;authn&#45;chrome&#45;ext/ChromeExtensionRedirector.ts -->
<g id="node21" class="node">
<title>src/solid&#45;client&#45;authn&#45;chrome&#45;ext/ChromeExtensionRedirector.ts</title>
<g id="a_node21"><a xlink:href="src/solid-client-authn-chrome-ext/ChromeExtensionRedirector.ts" xlink:title="ChromeExtensionRedirector.ts">
<path fill="#ddfeff" stroke="#000000" d="M913.5,-104C913.5,-104 783.5,-104 783.5,-104 780.5,-104 777.5,-101 777.5,-98 777.5,-98 777.5,-92 777.5,-92 777.5,-89 780.5,-86 783.5,-86 783.5,-86 913.5,-86 913.5,-86 916.5,-86 919.5,-89 919.5,-92 919.5,-92 919.5,-98 919.5,-98 919.5,-101 916.5,-104 913.5,-104"/>
<text text-anchor="start" x="785.5" y="-92.8" font-family="Helvetica,sans-Serif" font-size="9.00" fill="#000000">ChromeExtensionRedirector.ts</text>
</a>
</g>
</g>
<!-- src/solid&#45;client&#45;authn&#45;chrome&#45;ext/Session.ts&#45;&gt;src/solid&#45;client&#45;authn&#45;chrome&#45;ext/ChromeExtensionRedirector.ts -->
<g id="edge31" class="edge">
<title>src/solid&#45;client&#45;authn&#45;chrome&#45;ext/Session.ts&#45;&gt;src/solid&#45;client&#45;authn&#45;chrome&#45;ext/ChromeExtensionRedirector.ts</title>
<path fill="none" stroke="#000000" stroke-width="2" stroke-opacity="0.200000" d="M580.5779,-95.4428C596.4221,-95.6582 616.2751,-95.8932 634,-96 687.7768,-96.3239 701.223,-96.2876 755,-96 760.1921,-95.9722 765.5464,-95.9358 770.9412,-95.8933"/>
<polygon fill="#000000" fill-opacity="0.200000" stroke="#000000" stroke-width="2" stroke-opacity="0.200000" points="771.3032,-97.9905 777.2855,-95.8408 771.2683,-93.7906 771.3032,-97.9905"/>
</g>
<!-- src/solid&#45;client&#45;authn&#45;chrome&#45;ext/getClientAuthentication.ts -->
<g id="node23" class="node">
<title>src/solid&#45;client&#45;authn&#45;chrome&#45;ext/getClientAuthentication.ts</title>
<g id="a_node23"><a xlink:href="src/solid-client-authn-chrome-ext/getClientAuthentication.ts" xlink:title="getClientAuthentication.ts">
<path fill="#ddfeff" stroke="#000000" d="M749,-90C749,-90 640,-90 640,-90 637,-90 634,-87 634,-84 634,-84 634,-78 634,-78 634,-75 637,-72 640,-72 640,-72 749,-72 749,-72 752,-72 755,-75 755,-78 755,-78 755,-84 755,-84 755,-87 752,-90 749,-90"/>
<text text-anchor="start" x="642" y="-78.8" font-family="Helvetica,sans-Serif" font-size="9.00" fill="#000000">getClientAuthentication.ts</text>
</a>
</g>
</g>
<!-- src/solid&#45;client&#45;authn&#45;chrome&#45;ext/Session.ts&#45;&gt;src/solid&#45;client&#45;authn&#45;chrome&#45;ext/getClientAuthentication.ts -->
<g id="edge32" class="edge">
<title>src/solid&#45;client&#45;authn&#45;chrome&#45;ext/Session.ts&#45;&gt;src/solid&#45;client&#45;authn&#45;chrome&#45;ext/getClientAuthentication.ts</title>
<path fill="none" stroke="#000000" stroke-width="2" stroke-opacity="0.200000" d="M580.7333,-92.0992C594.4058,-90.7653 611.2211,-89.1248 627.688,-87.5182"/>
<polygon fill="#000000" fill-opacity="0.200000" stroke="#000000" stroke-width="2" stroke-opacity="0.200000" points="627.9648,-89.6013 633.7325,-86.9285 627.5569,-85.4212 627.9648,-89.6013"/>
</g>
<!-- src/solid&#45;client&#45;authn&#45;chrome&#45;ext/time.ts -->
<g id="node24" class="node">
<title>src/solid&#45;client&#45;authn&#45;chrome&#45;ext/time.ts</title>
<g id="a_node24"><a xlink:href="src/solid-client-authn-chrome-ext/time.ts" xlink:title="time.ts">
<path fill="#ddfeff" stroke="#000000" d="M715.5,-60C715.5,-60 673.5,-60 673.5,-60 670.5,-60 667.5,-57 667.5,-54 667.5,-54 667.5,-48 667.5,-48 667.5,-45 670.5,-42 673.5,-42 673.5,-42 715.5,-42 715.5,-42 718.5,-42 721.5,-45 721.5,-48 721.5,-48 721.5,-54 721.5,-54 721.5,-57 718.5,-60 715.5,-60"/>
<text text-anchor="start" x="681" y="-48.8" font-family="Helvetica,sans-Serif" font-size="9.00" fill="#000000">time.ts</text>
</a>
</g>
</g>
<!-- src/solid&#45;client&#45;authn&#45;chrome&#45;ext/Session.ts&#45;&gt;src/solid&#45;client&#45;authn&#45;chrome&#45;ext/time.ts -->
<g id="edge33" class="edge">
<title>src/solid&#45;client&#45;authn&#45;chrome&#45;ext/Session.ts&#45;&gt;src/solid&#45;client&#45;authn&#45;chrome&#45;ext/time.ts</title>
<path fill="none" stroke="#000000" stroke-width="2" stroke-opacity="0.200000" d="M575.139,-85.8977C591.5977,-79.8569 613.9591,-71.9714 634,-66 642.7634,-63.3888 652.3332,-60.8672 661.2222,-58.6604"/>
<polygon fill="#000000" fill-opacity="0.200000" stroke="#000000" stroke-width="2" stroke-opacity="0.200000" points="661.9201,-60.6517 667.2491,-57.1858 660.9219,-56.572 661.9201,-60.6517"/>
</g>
<!-- src/store/createRelations.ts -->
<g id="node25" class="node">
<title>src/store/createRelations.ts</title>
<g id="a_node25"><a xlink:href="src/store/createRelations.ts" xlink:title="createRelations.ts">
<path fill="#ddfeff" stroke="#000000" d="M733.5,-366C733.5,-366 655.5,-366 655.5,-366 652.5,-366 649.5,-363 649.5,-360 649.5,-360 649.5,-354 649.5,-354 649.5,-351 652.5,-348 655.5,-348 655.5,-348 733.5,-348 733.5,-348 736.5,-348 739.5,-351 739.5,-354 739.5,-354 739.5,-360 739.5,-360 739.5,-363 736.5,-366 733.5,-366"/>
<text text-anchor="start" x="657.5" y="-354.8" font-family="Helvetica,sans-Serif" font-size="9.00" fill="#000000">createRelations.ts</text>
</a>
</g>
</g>
<!-- src/store/BookmarkStore.ts&#45;&gt;src/store/createRelations.ts -->
<g id="edge37" class="edge">
<title>src/store/BookmarkStore.ts&#45;&gt;src/store/createRelations.ts</title>
<path fill="none" stroke="#000000" stroke-width="2" stroke-opacity="0.200000" d="M595.6177,-359.7563C610.7254,-359.3352 627.7153,-358.8616 643.294,-358.4273"/>
<polygon fill="#000000" fill-opacity="0.200000" stroke="#000000" stroke-width="2" stroke-opacity="0.200000" points="643.4765,-360.5232 649.4157,-358.2567 643.3594,-356.3248 643.4765,-360.5232"/>
</g>
<!-- src/store/importToStore.ts -->
<g id="node26" class="node">
<title>src/store/importToStore.ts</title>
<g id="a_node26"><a xlink:href="src/store/importToStore.ts" xlink:title="importToStore.ts">
<path fill="#ddfeff" stroke="#000000" d="M730,-396C730,-396 659,-396 659,-396 656,-396 653,-393 653,-390 653,-390 653,-384 653,-384 653,-381 656,-378 659,-378 659,-378 730,-378 730,-378 733,-378 736,-381 736,-384 736,-384 736,-390 736,-390 736,-393 733,-396 730,-396"/>
<text text-anchor="start" x="661" y="-384.8" font-family="Helvetica,sans-Serif" font-size="9.00" fill="#000000">importToStore.ts</text>
</a>
</g>
</g>
<!-- src/store/BookmarkStore.ts&#45;&gt;src/store/importToStore.ts -->
<g id="edge38" class="edge">
<title>src/store/BookmarkStore.ts&#45;&gt;src/store/importToStore.ts</title>
<path fill="none" stroke="#000000" stroke-width="2" stroke-opacity="0.200000" d="M595.6177,-369.084C611.885,-372.0314 630.3344,-375.3742 646.8548,-378.3674"/>
<polygon fill="#000000" fill-opacity="0.200000" stroke="#000000" stroke-width="2" stroke-opacity="0.200000" points="646.568,-380.4496 652.8463,-379.453 647.3168,-376.3169 646.568,-380.4496"/>
</g>
<!-- src/api/generateDatePathForToday.ts&#45;&gt;src/api/now.ts -->
<g id="edge8" class="edge">
<title>src/api/generateDatePathForToday.ts&#45;&gt;src/api/now.ts</title>
<path fill="none" stroke="#000000" stroke-width="2" stroke-opacity="0.200000" d="M621.0685,-255.582C635.1242,-254.8964 649.2661,-254.2065 661.3348,-253.6178"/>
<polygon fill="#000000" fill-opacity="0.200000" stroke="#000000" stroke-width="2" stroke-opacity="0.200000" points="661.555,-255.7097 667.4455,-253.3197 661.3503,-251.5147 661.555,-255.7097"/>
</g>
<!-- src/background.ts -->
<g id="node10" class="node">
<title>src/background.ts</title>
<g id="a_node10"><a xlink:href="src/background.ts" xlink:title="background.ts">
<path fill="#ddfeff" stroke="#000000" d="M84,-388C84,-388 22,-388 22,-388 19,-388 16,-385 16,-382 16,-382 16,-376 16,-376 16,-373 19,-370 22,-370 22,-370 84,-370 84,-370 87,-370 90,-373 90,-376 90,-376 90,-382 90,-382 90,-385 87,-388 84,-388"/>
<text text-anchor="start" x="24" y="-376.8" font-family="Helvetica,sans-Serif" font-size="9.00" fill="#000000">background.ts</text>
</a>
</g>
</g>
<!-- src/background.ts&#45;&gt;src/solid&#45;client&#45;authn&#45;chrome&#45;ext/Session.ts -->
<g id="edge15" class="edge">
<title>src/background.ts&#45;&gt;src/solid&#45;client&#45;authn&#45;chrome&#45;ext/Session.ts</title>
<path fill="none" stroke="#000000" stroke-width="2" stroke-opacity="0.200000" d="M53.7809,-369.9314C56.9986,-334.6962 70.3814,-207.4833 98,-180 212.9595,-65.6037 429.8328,-79.0665 515.19,-89.6378"/>
<polygon fill="#000000" fill-opacity="0.200000" stroke="#000000" stroke-width="2" stroke-opacity="0.200000" points="515.1298,-91.7471 521.3475,-90.4239 515.6618,-87.5809 515.1298,-91.7471"/>
</g>
<!-- src/background/activate.ts -->
<g id="node11" class="node">
<title>src/background/activate.ts</title>
<g id="a_node11"><a xlink:href="src/background/activate.ts" xlink:title="activate.ts">
<path fill="#ddfeff" stroke="#000000" d="M195.5,-358C195.5,-358 150.5,-358 150.5,-358 147.5,-358 144.5,-355 144.5,-352 144.5,-352 144.5,-346 144.5,-346 144.5,-343 147.5,-340 150.5,-340 150.5,-340 195.5,-340 195.5,-340 198.5,-340 201.5,-343 201.5,-346 201.5,-346 201.5,-352 201.5,-352 201.5,-355 198.5,-358 195.5,-358"/>
<text text-anchor="start" x="152.5" y="-346.8" font-family="Helvetica,sans-Serif" font-size="9.00" fill="#000000">activate.ts</text>
</a>
</g>
</g>
<!-- src/background.ts&#45;&gt;src/background/activate.ts -->
<g id="edge9" class="edge">
<title>src/background.ts&#45;&gt;src/background/activate.ts</title>
<path fill="none" stroke="#000000" stroke-width="2" stroke-opacity="0.200000" d="M78.5342,-369.8767C84.8503,-367.7899 91.6326,-365.6909 98,-364 111.0143,-360.5439 125.4865,-357.4722 138.2194,-355.0226"/>
<polygon fill="#000000" fill-opacity="0.200000" stroke="#000000" stroke-width="2" stroke-opacity="0.200000" points="138.8103,-357.0482 144.3164,-353.8711 138.0309,-352.9212 138.8103,-357.0482"/>
</g>
<!-- src/background/createMessageHandler.ts -->
<g id="node12" class="node">
<title>src/background/createMessageHandler.ts</title>
<g id="a_node12"><a xlink:href="src/background/createMessageHandler.ts" xlink:title="createMessageHandler.ts">
<path fill="#ddfeff" stroke="#000000" d="M228,-418C228,-418 118,-418 118,-418 115,-418 112,-415 112,-412 112,-412 112,-406 112,-406 112,-403 115,-400 118,-400 118,-400 228,-400 228,-400 231,-400 234,-403 234,-406 234,-406 234,-412 234,-412 234,-415 231,-418 228,-418"/>
<text text-anchor="start" x="120" y="-406.8" font-family="Helvetica,sans-Serif" font-size="9.00" fill="#000000">createMessageHandler.ts</text>
</a>
</g>
</g>
<!-- src/background.ts&#45;&gt;src/background/createMessageHandler.ts -->
<g id="edge10" class="edge">
<title>src/background.ts&#45;&gt;src/background/createMessageHandler.ts</title>
<path fill="none" stroke="#000000" stroke-width="2" stroke-opacity="0.200000" d="M78.5342,-388.1233C84.8503,-390.2101 91.6326,-392.3091 98,-394 104.1903,-395.6439 110.7105,-397.2009 117.2164,-398.6453"/>
<polygon fill="#000000" fill-opacity="0.200000" stroke="#000000" stroke-width="2" stroke-opacity="0.200000" points="116.8684,-400.7186 123.1774,-399.9394 117.7595,-396.6142 116.8684,-400.7186"/>
</g>
<!-- src/background/MessageHandler.ts -->
<g id="node13" class="node">
<title>src/background/MessageHandler.ts</title>
<g id="a_node13"><a xlink:href="src/background/MessageHandler.ts" xlink:title="MessageHandler.ts">
<path fill="#ddfeff" stroke="#000000" d="M343,-381C343,-381 259,-381 259,-381 256,-381 253,-378 253,-375 253,-375 253,-369 253,-369 253,-366 256,-363 259,-363 259,-363 343,-363 343,-363 346,-363 349,-366 349,-369 349,-369 349,-375 349,-375 349,-378 346,-381 343,-381"/>
<text text-anchor="start" x="261" y="-369.8" font-family="Helvetica,sans-Serif" font-size="9.00" fill="#000000">MessageHandler.ts</text>
</a>
</g>
</g>
<!-- src/background.ts&#45;&gt;src/background/MessageHandler.ts -->
<g id="edge11" class="edge">
<title>src/background.ts&#45;&gt;src/background/MessageHandler.ts</title>
<path fill="none" stroke="#000000" stroke-width="2" stroke-opacity="0.200000" d="M58.6845,-388.0065C66.1645,-398.9138 80.4431,-416.7277 98,-424 156.3071,-448.1516 180.7795,-445.816 240,-424 260.5196,-416.4409 278.8322,-398.5688 289.9156,-385.8928"/>
<polygon fill="#000000" fill-opacity="0.200000" stroke="#000000" stroke-width="2" stroke-opacity="0.200000" points="291.6545,-387.0894 293.9355,-381.1558 288.4521,-384.3718 291.6545,-387.0894"/>
</g>
<!-- src/background/sendMessageToActiveTab.ts -->
<g id="node14" class="node">
<title>src/background/sendMessageToActiveTab.ts</title>
<g id="a_node14"><a xlink:href="src/background/sendMessageToActiveTab.ts" xlink:title="sendMessageToActiveTab.ts">
<path fill="#ddfeff" stroke="#000000" d="M234,-388C234,-388 112,-388 112,-388 109,-388 106,-385 106,-382 106,-382 106,-376 106,-376 106,-373 109,-370 112,-370 112,-370 234,-370 234,-370 237,-370 240,-373 240,-376 240,-376 240,-382 240,-382 240,-385 237,-388 234,-388"/>
<text text-anchor="start" x="114" y="-376.8" font-family="Helvetica,sans-Serif" font-size="9.00" fill="#000000">sendMessageToActiveTab.ts</text>
</a>
</g>
</g>
<!-- src/background.ts&#45;&gt;src/background/sendMessageToActiveTab.ts -->
<g id="edge12" class="edge">
<title>src/background.ts&#45;&gt;src/background/sendMessageToActiveTab.ts</title>
<path fill="none" stroke="#000000" stroke-width="2" stroke-opacity="0.200000" d="M90.311,-379C93.2522,-379 96.2788,-379 99.3559,-379"/>
<polygon fill="#000000" fill-opacity="0.200000" stroke="#000000" stroke-width="2" stroke-opacity="0.200000" points="99.732,-381.1001 105.732,-379 99.7319,-376.9001 99.732,-381.1001"/>
</g>
<!-- src/domain/messages.ts -->
<g id="node15" class="node">
<title>src/domain/messages.ts</title>
<g id="a_node15"><a xlink:href="src/domain/messages.ts" xlink:title="messages.ts">
<path fill="#ddfeff" stroke="#000000" d="M443,-194C443,-194 387,-194 387,-194 384,-194 381,-191 381,-188 381,-188 381,-182 381,-182 381,-179 384,-176 387,-176 387,-176 443,-176 443,-176 446,-176 449,-179 449,-182 449,-182 449,-188 449,-188 449,-191 446,-194 443,-194"/>
<text text-anchor="start" x="389" y="-182.8" font-family="Helvetica,sans-Serif" font-size="9.00" fill="#000000">messages.ts</text>
</a>
</g>
</g>
<!-- src/background.ts&#45;&gt;src/domain/messages.ts -->
<g id="edge13" class="edge">
<title>src/background.ts&#45;&gt;src/domain/messages.ts</title>
<path fill="none" stroke="#000000" stroke-width="2" stroke-opacity="0.200000" d="M58.3286,-369.6582C78.4009,-335.5603 153.4047,-217.6848 253,-177 295.7897,-159.5204 310.8863,-173.8347 357,-177 362.6599,-177.3885 368.6087,-177.9879 374.4515,-178.6877"/>
<polygon fill="#000000" fill-opacity="0.200000" stroke="#000000" stroke-width="2" stroke-opacity="0.200000" points="374.5152,-180.8123 380.7311,-179.4812 375.0418,-176.6455 374.5152,-180.8123"/>
</g>
<!-- src/options/optionsStorageApi.ts -->
<g id="node16" class="node">
<title>src/options/optionsStorageApi.ts</title>
<g id="a_node16"><a xlink:href="src/options/optionsStorageApi.ts" xlink:title="optionsStorageApi.ts">
<path fill="#ddfeff" stroke="#000000" d="M217.5,-478C217.5,-478 128.5,-478 128.5,-478 125.5,-478 122.5,-475 122.5,-472 122.5,-472 122.5,-466 122.5,-466 122.5,-463 125.5,-460 128.5,-460 128.5,-460 217.5,-460 217.5,-460 220.5,-460 223.5,-463 223.5,-466 223.5,-466 223.5,-472 223.5,-472 223.5,-475 220.5,-478 217.5,-478"/>
<text text-anchor="start" x="130.5" y="-466.8" font-family="Helvetica,sans-Serif" font-size="9.00" fill="#000000">optionsStorageApi.ts</text>
</a>
</g>
</g>
<!-- src/background.ts&#45;&gt;src/options/optionsStorageApi.ts -->
<g id="edge14" class="edge">
<title>src/background.ts&#45;&gt;src/options/optionsStorageApi.ts</title>
<path fill="none" stroke="#000000" stroke-width="2" stroke-opacity="0.200000" d="M55.5313,-388.1099C60.6134,-404.5741 73.7055,-439.1366 98,-456 103.4857,-459.8077 109.7279,-462.6188 116.2142,-464.6783"/>
<polygon fill="#000000" fill-opacity="0.200000" stroke="#000000" stroke-width="2" stroke-opacity="0.200000" points="115.8808,-466.7657 122.225,-466.3653 117.0158,-462.722 115.8808,-466.7657"/>
</g>
<!-- src/background/activate.ts&#45;&gt;src/domain/messages.ts -->
<g id="edge20" class="edge">
<title>src/background/activate.ts&#45;&gt;src/domain/messages.ts</title>
<path fill="none" stroke="#000000" stroke-width="2" stroke-opacity="0.200000" d="M201.5587,-350.8177C215.1415,-350.058 230.4594,-346.5427 240,-336 261.1135,-312.6689 230.4156,-216.9105 253,-195 269.7225,-178.7765 332.4387,-179.3399 374.75,-181.7723"/>
<polygon fill="#000000" fill-opacity="0.200000" stroke="#000000" stroke-width="2" stroke-opacity="0.200000" points="374.7201,-183.8743 380.8367,-182.143 374.9755,-179.6821 374.7201,-183.8743"/>
</g>
<!-- src/background/createMessageHandler.ts&#45;&gt;src/api/SolidApi.ts -->
<g id="edge21" class="edge">
<title>src/background/createMessageHandler.ts&#45;&gt;src/api/SolidApi.ts</title>
<path fill="none" stroke="#000000" stroke-width="2" stroke-opacity="0.200000" d="M231.5208,-399.9506C234.5581,-398.265 237.4162,-396.2964 240,-394 253.028,-382.421 242.0088,-370.5276 253,-357 288.0223,-313.8956 347.3829,-285 383.6992,-270.334"/>
<polygon fill="#000000" fill-opacity="0.200000" stroke="#000000" stroke-width="2" stroke-opacity="0.200000" points="384.5203,-272.2676 389.3226,-268.1024 382.971,-268.3637 384.5203,-272.2676"/>
</g>
<!-- src/background/createMessageHandler.ts&#45;&gt;src/solid&#45;client&#45;authn&#45;chrome&#45;ext/Session.ts -->
<g id="edge22" class="edge">
<title>src/background/createMessageHandler.ts&#45;&gt;src/solid&#45;client&#45;authn&#45;chrome&#45;ext/Session.ts</title>
<path fill="none" stroke="#000000" stroke-width="2" stroke-opacity="0.200000" d="M233.3426,-399.8155C235.7665,-398.1432 238.0082,-396.2165 240,-394 274.0847,-356.0695 226.8079,-323.7547 253,-280 281.8748,-231.7637 328.2312,-256.2996 357,-208 365.3512,-193.9793 353.4164,-146.4953 365,-135 382.1235,-118.007 449.5041,-129.4699 473,-124 490.8878,-119.8356 510.2444,-112.656 525.2,-106.4826"/>
<polygon fill="#000000" fill-opacity="0.200000" stroke="#000000" stroke-width="2" stroke-opacity="0.200000" points="526.1894,-108.3449 530.9094,-104.0867 524.5642,-104.472 526.1894,-108.3449"/>
</g>
<!-- src/background/createMessageHandler.ts&#45;&gt;src/store/BookmarkStore.ts -->
<g id="edge23" class="edge">
<title>src/background/createMessageHandler.ts&#45;&gt;src/store/BookmarkStore.ts</title>
<path fill="none" stroke="#000000" stroke-width="2" stroke-opacity="0.200000" d="M234.0362,-413.89C295.3628,-417.1524 392.1231,-417.7737 473,-398 493.8765,-392.8959 515.8375,-381.9014 531.1186,-373.2166"/>
<polygon fill="#000000" fill-opacity="0.200000" stroke="#000000" stroke-width="2" stroke-opacity="0.200000" points="532.2941,-374.9625 536.4318,-370.1366 530.1877,-371.3289 532.2941,-374.9625"/>
</g>
<!-- src/background/createMessageHandler.ts&#45;&gt;src/background/MessageHandler.ts -->
<g id="edge24" class="edge">
<title>src/background/createMessageHandler.ts&#45;&gt;src/background/MessageHandler.ts</title>
<path fill="none" stroke="#000000" stroke-width="2" stroke-opacity="0.200000" d="M217.1705,-399.9409C224.8252,-398.135 232.6751,-396.1316 240,-394 250.6626,-390.897 262.1648,-386.919 272.2766,-383.201"/>
<polygon fill="#000000" fill-opacity="0.200000" stroke="#000000" stroke-width="2" stroke-opacity="0.200000" points="273.1625,-385.112 278.0527,-381.0505 271.697,-381.176 273.1625,-385.112"/>
</g>
<!-- src/background/MessageHandler.ts&#45;&gt;src/api/SolidApi.ts -->
<g id="edge16" class="edge">
<title>src/background/MessageHandler.ts&#45;&gt;src/api/SolidApi.ts</title>
<path fill="none" stroke="#000000" stroke-width="2" stroke-opacity="0.200000" d="M310.3291,-362.7527C330.4698,-342.7887 378.091,-295.5853 401.514,-272.3677"/>
<polygon fill="#000000" fill-opacity="0.200000" stroke="#000000" stroke-width="2" stroke-opacity="0.200000" points="403.0777,-273.7746 405.8606,-268.0592 400.1209,-270.7917 403.0777,-273.7746"/>
</g>
<!-- src/background/MessageHandler.ts&#45;&gt;src/store/BookmarkStore.ts -->
<g id="edge18" class="edge">
<title>src/background/MessageHandler.ts&#45;&gt;src/store/BookmarkStore.ts</title>
<path fill="none" stroke="#000000" stroke-width="2" stroke-opacity="0.200000" d="M349.2182,-368.8579C354.5423,-368.5492 359.8853,-368.256 365,-368 410.6111,-365.7167 462.548,-363.8211 499.926,-362.581"/>
<polygon fill="#000000" fill-opacity="0.200000" stroke="#000000" stroke-width="2" stroke-opacity="0.200000" points="500.3353,-364.6687 506.2629,-362.3724 500.197,-360.471 500.3353,-364.6687"/>
</g>
<!-- src/background/MessageHandler.ts&#45;&gt;src/domain/messages.ts -->
<g id="edge17" class="edge">
<title>src/background/MessageHandler.ts&#45;&gt;src/domain/messages.ts</title>
<path fill="none" stroke="#000000" stroke-width="2" stroke-opacity="0.200000" d="M303.2873,-362.9336C309.7482,-338.6265 329.9775,-270.7519 365,-225 373.1708,-214.326 384.7784,-204.8111 394.753,-197.7419"/>
<polygon fill="#000000" fill-opacity="0.200000" stroke="#000000" stroke-width="2" stroke-opacity="0.200000" points="396.0401,-199.4055 399.7934,-194.2749 393.6598,-195.9451 396.0401,-199.4055"/>
</g>
<!-- src/background/openOptionsPage.ts -->
<g id="node17" class="node">
<title>src/background/openOptionsPage.ts</title>
<g id="a_node17"><a xlink:href="src/background/openOptionsPage.ts" xlink:title="openOptionsPage.ts">
<path fill="#ddfeff" stroke="#000000" d="M459,-392C459,-392 371,-392 371,-392 368,-392 365,-389 365,-386 365,-386 365,-380 365,-380 365,-377 368,-374 371,-374 371,-374 459,-374 459,-374 462,-374 465,-377 465,-380 465,-380 465,-386 465,-386 465,-389 462,-392 459,-392"/>
<text text-anchor="start" x="373" y="-380.8" font-family="Helvetica,sans-Serif" font-size="9.00" fill="#000000">openOptionsPage.ts</text>
</a>
</g>
</g>
<!-- src/background/MessageHandler.ts&#45;&gt;src/background/openOptionsPage.ts -->
<g id="edge19" class="edge">
<title>src/background/MessageHandler.ts&#45;&gt;src/background/openOptionsPage.ts</title>
<path fill="none" stroke="#000000" stroke-width="2" stroke-opacity="0.200000" d="M349.0159,-376.6331C352.123,-376.9329 355.2667,-377.2363 358.4088,-377.5394"/>
<polygon fill="#000000" fill-opacity="0.200000" stroke="#000000" stroke-width="2" stroke-opacity="0.200000" points="358.6697,-379.6743 364.8437,-378.1604 359.0732,-375.4937 358.6697,-379.6743"/>
</g>
<!-- src/background/sendMessageToActiveTab.ts&#45;&gt;src/domain/messages.ts -->
<g id="edge25" class="edge">
<title>src/background/sendMessageToActiveTab.ts&#45;&gt;src/domain/messages.ts</title>
<path fill="none" stroke="#000000" stroke-width="2" stroke-opacity="0.200000" d="M232.9402,-369.9135C235.5046,-368.2216 237.8828,-366.2633 240,-364 265.8073,-336.4112 231.7632,-311.2436 253,-280 282.8371,-236.1036 340.2355,-209.6195 378.0773,-196.1532"/>
<polygon fill="#000000" fill-opacity="0.200000" stroke="#000000" stroke-width="2" stroke-opacity="0.200000" points="378.9976,-198.0566 383.9755,-194.103 377.6186,-194.0894 378.9976,-198.0566"/>
</g>
<!-- src/domain/messages.ts&#45;&gt;src/domain/Bookmark.ts -->
<g id="edge26" class="edge">
<title>src/domain/messages.ts&#45;&gt;src/domain/Bookmark.ts</title>
<path fill="none" stroke="#000000" stroke-width="2" stroke-opacity="0.200000" d="M449.2372,-177.1341C459.4501,-174.8106 470.6732,-172.2799 481,-170 490.749,-167.8477 501.272,-165.5692 511.1234,-163.4557"/>
<polygon fill="#000000" fill-opacity="0.200000" stroke="#000000" stroke-width="2" stroke-opacity="0.200000" points="511.7303,-165.4734 517.1575,-162.1636 510.8508,-161.3665 511.7303,-165.4734"/>
</g>
<!-- src/domain/messages.ts&#45;&gt;src/domain/PageMetaData.ts -->
<g id="edge27" class="edge">
<title>src/domain/messages.ts&#45;&gt;src/domain/PageMetaData.ts</title>
<path fill="none" stroke="#000000" stroke-width="2" stroke-opacity="0.200000" d="M449.3185,-185C465.017,-185 483.9196,-185 501.1459,-185"/>
<polygon fill="#000000" fill-opacity="0.200000" stroke="#000000" stroke-width="2" stroke-opacity="0.200000" points="501.4076,-187.1001 507.4076,-185 501.4075,-182.9001 501.4076,-187.1001"/>
</g>
<!-- src/options/onOptionChange.ts -->
<g id="node18" class="node">
<title>src/options/onOptionChange.ts</title>
<g id="a_node18"><a xlink:href="src/options/onOptionChange.ts" xlink:title="onOptionChange.ts">
<path fill="#ddfeff" stroke="#000000" d="M343,-478C343,-478 259,-478 259,-478 256,-478 253,-475 253,-472 253,-472 253,-466 253,-466 253,-463 256,-460 259,-460 259,-460 343,-460 343,-460 346,-460 349,-463 349,-466 349,-466 349,-472 349,-472 349,-475 346,-478 343,-478"/>
<text text-anchor="start" x="261" y="-466.8" font-family="Helvetica,sans-Serif" font-size="9.00" fill="#000000">onOptionChange.ts</text>
</a>
</g>
</g>
<!-- src/options/optionsStorageApi.ts&#45;&gt;src/options/onOptionChange.ts -->
<g id="edge28" class="edge">
<title>src/options/optionsStorageApi.ts&#45;&gt;src/options/onOptionChange.ts</title>
<path fill="none" stroke="#000000" stroke-width="2" stroke-opacity="0.200000" d="M223.589,-469C231.1229,-469 238.9163,-469 246.526,-469"/>
<polygon fill="#000000" fill-opacity="0.200000" stroke="#000000" stroke-width="2" stroke-opacity="0.200000" points="246.8652,-471.1001 252.8651,-469 246.8651,-466.9001 246.8652,-471.1001"/>
</g>
<!-- src/solid&#45;client&#45;authn&#45;chrome&#45;ext/ChromeExtensionLogoutHandler.ts -->
<g id="node19" class="node">
<title>src/solid&#45;client&#45;authn&#45;chrome&#45;ext/ChromeExtensionLogoutHandler.ts</title>
<g id="a_node19"><a xlink:href="src/solid-client-authn-chrome-ext/ChromeExtensionLogoutHandler.ts" xlink:title="ChromeExtensionLogoutHandler.ts">
<path fill="#ddfeff" stroke="#000000" d="M923,-74C923,-74 774,-74 774,-74 771,-74 768,-71 768,-68 768,-68 768,-62 768,-62 768,-59 771,-56 774,-56 774,-56 923,-56 923,-56 926,-56 929,-59 929,-62 929,-62 929,-68 929,-68 929,-71 926,-74 923,-74"/>
<text text-anchor="start" x="776" y="-62.8" font-family="Helvetica,sans-Serif" font-size="9.00" fill="#000000">ChromeExtensionLogoutHandler.ts</text>
</a>
</g>
</g>
<!-- src/solid&#45;client&#45;authn&#45;chrome&#45;ext/chromeExtensionLogout.ts -->
<g id="node20" class="node">
<title>src/solid&#45;client&#45;authn&#45;chrome&#45;ext/chromeExtensionLogout.ts</title>
<g id="a_node20"><a xlink:href="src/solid-client-authn-chrome-ext/chromeExtensionLogout.ts" xlink:title="chromeExtensionLogout.ts">
<path fill="#ddfeff" stroke="#000000" d="M1061,-74C1061,-74 948,-74 948,-74 945,-74 942,-71 942,-68 942,-68 942,-62 942,-62 942,-59 945,-56 948,-56 948,-56 1061,-56 1061,-56 1064,-56 1067,-59 1067,-62 1067,-62 1067,-68 1067,-68 1067,-71 1064,-74 1061,-74"/>
<text text-anchor="start" x="950" y="-62.8" font-family="Helvetica,sans-Serif" font-size="9.00" fill="#000000">chromeExtensionLogout.ts</text>
</a>
</g>
</g>
<!-- src/solid&#45;client&#45;authn&#45;chrome&#45;ext/ChromeExtensionLogoutHandler.ts&#45;&gt;src/solid&#45;client&#45;authn&#45;chrome&#45;ext/chromeExtensionLogout.ts -->
<g id="edge29" class="edge">
<title>src/solid&#45;client&#45;authn&#45;chrome&#45;ext/ChromeExtensionLogoutHandler.ts&#45;&gt;src/solid&#45;client&#45;authn&#45;chrome&#45;ext/chromeExtensionLogout.ts</title>
<path fill="none" stroke="#000000" stroke-width="2" stroke-opacity="0.200000" d="M929.2417,-65C931.3234,-65 933.4024,-65 935.473,-65"/>
<polygon fill="#000000" fill-opacity="0.200000" stroke="#000000" stroke-width="2" stroke-opacity="0.200000" points="935.653,-67.1001 941.653,-65 935.6529,-62.9001 935.653,-67.1001"/>
</g>
<!-- src/solid&#45;client&#45;authn&#45;chrome&#45;ext/launchWebAuthFlow.ts -->
<g id="node22" class="node">
<title>src/solid&#45;client&#45;authn&#45;chrome&#45;ext/launchWebAuthFlow.ts</title>
<g id="a_node22"><a xlink:href="src/solid-client-authn-chrome-ext/launchWebAuthFlow.ts" xlink:title="launchWebAuthFlow.ts">
<path fill="#ddfeff" stroke="#000000" d="M1053.5,-104C1053.5,-104 955.5,-104 955.5,-104 952.5,-104 949.5,-101 949.5,-98 949.5,-98 949.5,-92 949.5,-92 949.5,-89 952.5,-86 955.5,-86 955.5,-86 1053.5,-86 1053.5,-86 1056.5,-86 1059.5,-89 1059.5,-92 1059.5,-92 1059.5,-98 1059.5,-98 1059.5,-101 1056.5,-104 1053.5,-104"/>
<text text-anchor="start" x="957.5" y="-92.8" font-family="Helvetica,sans-Serif" font-size="9.00" fill="#000000">launchWebAuthFlow.ts</text>
</a>
</g>
</g>
<!-- src/solid&#45;client&#45;authn&#45;chrome&#45;ext/ChromeExtensionRedirector.ts&#45;&gt;src/solid&#45;client&#45;authn&#45;chrome&#45;ext/launchWebAuthFlow.ts -->
<g id="edge30" class="edge">
<title>src/solid&#45;client&#45;authn&#45;chrome&#45;ext/ChromeExtensionRedirector.ts&#45;&gt;src/solid&#45;client&#45;authn&#45;chrome&#45;ext/launchWebAuthFlow.ts</title>
<path fill="none" stroke="#000000" stroke-width="2" stroke-opacity="0.200000" d="M919.6524,-95C927.4371,-95 935.3135,-95 942.9681,-95"/>
<polygon fill="#000000" fill-opacity="0.200000" stroke="#000000" stroke-width="2" stroke-opacity="0.200000" points="943.3391,-97.1001 949.339,-95 943.339,-92.9001 943.3391,-97.1001"/>
</g>
<!-- src/solid&#45;client&#45;authn&#45;chrome&#45;ext/getClientAuthentication.ts&#45;&gt;src/solid&#45;client&#45;authn&#45;chrome&#45;ext/ChromeExtensionLogoutHandler.ts -->
<g id="edge35" class="edge">
<title>src/solid&#45;client&#45;authn&#45;chrome&#45;ext/getClientAuthentication.ts&#45;&gt;src/solid&#45;client&#45;authn&#45;chrome&#45;ext/ChromeExtensionLogoutHandler.ts</title>
<path fill="none" stroke="#000000" stroke-width="2" stroke-opacity="0.200000" d="M755.3649,-74.6764C757.4247,-74.4624 759.5006,-74.2467 761.5864,-74.03"/>
<polygon fill="#000000" fill-opacity="0.200000" stroke="#000000" stroke-width="2" stroke-opacity="0.200000" points="762.1163,-76.0863 767.8672,-73.3774 761.6822,-71.9088 762.1163,-76.0863"/>
</g>
<!-- src/solid&#45;client&#45;authn&#45;chrome&#45;ext/getClientAuthentication.ts&#45;&gt;src/solid&#45;client&#45;authn&#45;chrome&#45;ext/ChromeExtensionRedirector.ts -->
<g id="edge36" class="edge">
<title>src/solid&#45;client&#45;authn&#45;chrome&#45;ext/getClientAuthentication.ts&#45;&gt;src/solid&#45;client&#45;authn&#45;chrome&#45;ext/ChromeExtensionRedirector.ts</title>
<path fill="none" stroke="#000000" stroke-width="2" stroke-opacity="0.200000" d="M755.3649,-86.5332C760.5617,-87.0056 765.8611,-87.4874 771.1627,-87.9693"/>
<polygon fill="#000000" fill-opacity="0.200000" stroke="#000000" stroke-width="2" stroke-opacity="0.200000" points="771.2158,-90.0827 777.3813,-88.5347 771.5961,-85.9 771.2158,-90.0827"/>
</g>
<!-- src/store/createAboutStatements.ts -->
<g id="node27" class="node">
<title>src/store/createAboutStatements.ts</title>
<g id="a_node27"><a xlink:href="src/store/createAboutStatements.ts" xlink:title="createAboutStatements.ts">
<path fill="#ddfeff" stroke="#000000" d="M903,-366C903,-366 794,-366 794,-366 791,-366 788,-363 788,-360 788,-360 788,-354 788,-354 788,-351 791,-348 794,-348 794,-348 903,-348 903,-348 906,-348 909,-351 909,-354 909,-354 909,-360 909,-360 909,-363 906,-366 903,-366"/>
<text text-anchor="start" x="796" y="-354.8" font-family="Helvetica,sans-Serif" font-size="9.00" fill="#000000">createAboutStatements.ts</text>
</a>
</g>
</g>
<!-- src/store/createRelations.ts&#45;&gt;src/store/createAboutStatements.ts -->
<g id="edge39" class="edge">
<title>src/store/createRelations.ts&#45;&gt;src/store/createAboutStatements.ts</title>
<path fill="none" stroke="#000000" stroke-width="2" stroke-opacity="0.200000" d="M739.8721,-357C752.9921,-357 767.5947,-357 781.7293,-357"/>
<polygon fill="#000000" fill-opacity="0.200000" stroke="#000000" stroke-width="2" stroke-opacity="0.200000" points="781.7526,-359.1001 787.7526,-357 781.7525,-354.9001 781.7526,-359.1001"/>
</g>
</g>
</svg>
