<?xml version="1.0" encoding="UTF-8" standalone="no"?>
<!DOCTYPE svg PUBLIC "-//W3C//DTD SVG 1.1//EN"
 "http://www.w3.org/Graphics/SVG/1.1/DTD/svg11.dtd">
<!-- Generated by graphviz version 2.40.1 (20161225.0304)
 -->
<!-- Title: dependency&#45;cruiser output Pages: 1 -->
<svg width="1180pt" height="426pt"
 viewBox="0.00 0.00 1180.00 426.00" xmlns="http://www.w3.org/2000/svg" xmlns:xlink="http://www.w3.org/1999/xlink">
<g id="graph0" class="graph" transform="scale(1 1) rotate(0) translate(4 422)">
<title>dependency&#45;cruiser output</title>
<polygon fill="#ffffff" stroke="transparent" points="-4,4 -4,-422 1176,-422 1176,4 -4,4"/>
<g id="clust1" class="cluster">
<title>cluster_src</title>
<path fill="#ffffff" stroke="#000000" stroke-width="2" d="M20,-26C20,-26 1152,-26 1152,-26 1158,-26 1164,-32 1164,-38 1164,-38 1164,-398 1164,-398 1164,-404 1158,-410 1152,-410 1152,-410 20,-410 20,-410 14,-410 8,-404 8,-398 8,-398 8,-38 8,-38 8,-32 14,-26 20,-26"/>
<text text-anchor="middle" x="586" y="-398.8" font-family="Helvetica,sans-Serif" font-weight="bold" font-size="9.00" fill="#000000">src</text>
</g>
<g id="clust2" class="cluster">
<title>cluster_src/api</title>
<path fill="#ffffff" stroke="#000000" stroke-width="2" d="M493,-198C493,-198 798.5,-198 798.5,-198 804.5,-198 810.5,-204 810.5,-210 810.5,-210 810.5,-282 810.5,-282 810.5,-288 804.5,-294 798.5,-294 798.5,-294 493,-294 493,-294 487,-294 481,-288 481,-282 481,-282 481,-210 481,-210 481,-204 487,-198 493,-198"/>
<text text-anchor="middle" x="645.75" y="-282.8" font-family="Helvetica,sans-Serif" font-weight="bold" font-size="9.00" fill="#000000">api</text>
</g>
<g id="clust3" class="cluster">
<title>cluster_src/background</title>
<path fill="#ffffff" stroke="#000000" stroke-width="2" d="M110,-212C110,-212 461,-212 461,-212 467,-212 473,-218 473,-224 473,-224 473,-312 473,-312 473,-318 467,-324 461,-324 461,-324 110,-324 110,-324 104,-324 98,-318 98,-312 98,-312 98,-224 98,-224 98,-218 104,-212 110,-212"/>
<text text-anchor="middle" x="285.5" y="-312.8" font-family="Helvetica,sans-Serif" font-weight="bold" font-size="9.00" fill="#000000">background</text>
</g>
<g id="clust4" class="cluster">
<title>cluster_src/content</title>
<path fill="#ffffff" stroke="#000000" stroke-width="2" d="M605,-138C605,-138 659,-138 659,-138 665,-138 671,-144 671,-150 671,-150 671,-178 671,-178 671,-184 665,-190 659,-190 659,-190 605,-190 605,-190 599,-190 593,-184 593,-178 593,-178 593,-150 593,-150 593,-144 599,-138 605,-138"/>
<text text-anchor="middle" x="632" y="-178.8" font-family="Helvetica,sans-Serif" font-weight="bold" font-size="9.00" fill="#000000">content</text>
</g>
<g id="clust5" class="cluster">
<title>cluster_src/options</title>
<path fill="#ffffff" stroke="#000000" stroke-width="2" d="M126.5,-332C126.5,-332 345,-332 345,-332 351,-332 357,-338 357,-344 357,-344 357,-372 357,-372 357,-378 351,-384 345,-384 345,-384 126.5,-384 126.5,-384 120.5,-384 114.5,-378 114.5,-372 114.5,-372 114.5,-344 114.5,-344 114.5,-338 120.5,-332 126.5,-332"/>
<text text-anchor="middle" x="235.75" y="-372.8" font-family="Helvetica,sans-Serif" font-weight="bold" font-size="9.00" fill="#000000">options</text>
</g>
<g id="clust6" class="cluster">
<title>cluster_src/solid&#45;client&#45;authn&#45;chrome&#45;ext</title>
<path fill="#ffffff" stroke="#000000" stroke-width="2" d="M606.5,-34C606.5,-34 1144,-34 1144,-34 1150,-34 1156,-40 1156,-46 1156,-46 1156,-118 1156,-118 1156,-124 1150,-130 1144,-130 1144,-130 606.5,-130 606.5,-130 600.5,-130 594.5,-124 594.5,-118 594.5,-118 594.5,-46 594.5,-46 594.5,-40 600.5,-34 606.5,-34"/>
<text text-anchor="middle" x="875.25" y="-118.8" font-family="Helvetica,sans-Serif" font-weight="bold" font-size="9.00" fill="#000000">solid&#45;client&#45;authn&#45;chrome&#45;ext</text>
</g>
<g id="clust7" class="cluster">
<title>cluster_src/store</title>
<path fill="#ffffff" stroke="#000000" stroke-width="2" d="M609,-302C609,-302 986,-302 986,-302 992,-302 998,-308 998,-314 998,-314 998,-372 998,-372 998,-378 992,-384 986,-384 986,-384 609,-384 609,-384 603,-384 597,-378 597,-372 597,-372 597,-314 597,-314 597,-308 603,-302 609,-302"/>
<text text-anchor="middle" x="797.5" y="-372.8" font-family="Helvetica,sans-Serif" font-weight="bold" font-size="9.00" fill="#000000">store</text>
</g>
<!-- events -->
<g id="node1" class="node">
<title>events</title>
<g id="a_node1"><a xlink:title="events">
<path fill="#ffffcc" stroke="#c0c0c0" d="M796.5,-18C796.5,-18 754.5,-18 754.5,-18 751.5,-18 748.5,-15 748.5,-12 748.5,-12 748.5,-6 748.5,-6 748.5,-3 751.5,0 754.5,0 754.5,0 796.5,0 796.5,0 799.5,0 802.5,-3 802.5,-6 802.5,-6 802.5,-12 802.5,-12 802.5,-15 799.5,-18 796.5,-18"/>
<text text-anchor="middle" x="775.5" y="-6.8" font-family="Helvetica,sans-Serif" font-size="9.00" fill="#c0c0c0">events</text>
</a>
</g>
</g>
<!-- src/api/SolidApi.ts -->
<g id="node2" class="node">
<title>src/api/SolidApi.ts</title>
<g id="a_node2"><a xlink:href="src/api/SolidApi.ts" xlink:title="SolidApi.ts">
<path fill="#ddfeff" stroke="#000000" d="M543,-234C543,-234 495,-234 495,-234 492,-234 489,-231 489,-228 489,-228 489,-222 489,-222 489,-219 492,-216 495,-216 495,-216 543,-216 543,-216 546,-216 549,-219 549,-222 549,-222 549,-228 549,-228 549,-231 546,-234 543,-234"/>
<text text-anchor="start" x="497" y="-222.8" font-family="Helvetica,sans-Serif" font-size="9.00" fill="#000000">SolidApi.ts</text>
</a>
</g>
</g>
<!-- src/content/usePage.ts -->
<g id="node3" class="node">
<title>src/content/usePage.ts</title>
<g id="a_node3"><a xlink:href="src/content/usePage.ts" xlink:title="usePage.ts">
<path fill="#ddfeff" stroke="#000000" d="M657,-164C657,-164 607,-164 607,-164 604,-164 601,-161 601,-158 601,-158 601,-152 601,-152 601,-149 604,-146 607,-146 607,-146 657,-146 657,-146 660,-146 663,-149 663,-152 663,-152 663,-158 663,-158 663,-161 660,-164 657,-164"/>
<text text-anchor="start" x="609" y="-152.8" font-family="Helvetica,sans-Serif" font-size="9.00" fill="#000000">usePage.ts</text>
</a>
</g>
</g>
<!-- src/api/SolidApi.ts&#45;&gt;src/content/usePage.ts -->
<g id="edge1" class="edge">
<title>src/api/SolidApi.ts&#45;&gt;src/content/usePage.ts</title>
<path fill="none" stroke="#000000" stroke-width="2" stroke-opacity="0.200000" d="M531.5912,-215.7678C540.0569,-209.6724 551.5388,-201.6194 562,-195 577.6629,-185.0893 595.8518,-174.7288 609.7625,-167.0357"/>
<polygon fill="#000000" fill-opacity="0.200000" stroke="#000000" stroke-width="2" stroke-opacity="0.200000" points="610.816,-168.853 615.0601,-164.1203 608.791,-165.1734 610.816,-168.853"/>
</g>
<!-- src/solid&#45;client&#45;authn&#45;chrome&#45;ext/Session.ts -->
<g id="node4" class="node">
<title>src/solid&#45;client&#45;authn&#45;chrome&#45;ext/Session.ts</title>
<g id="a_node4"><a xlink:href="src/solid-client-authn-chrome-ext/Session.ts" xlink:title="Session.ts">
<path fill="#ddfeff" stroke="#000000" d="M655.5,-104C655.5,-104 608.5,-104 608.5,-104 605.5,-104 602.5,-101 602.5,-98 602.5,-98 602.5,-92 602.5,-92 602.5,-89 605.5,-86 608.5,-86 608.5,-86 655.5,-86 655.5,-86 658.5,-86 661.5,-89 661.5,-92 661.5,-92 661.5,-98 661.5,-98 661.5,-101 658.5,-104 655.5,-104"/>
<text text-anchor="start" x="610.5" y="-92.8" font-family="Helvetica,sans-Serif" font-size="9.00" fill="#000000">Session.ts</text>
</a>
</g>
</g>
<!-- src/api/SolidApi.ts&#45;&gt;src/solid&#45;client&#45;authn&#45;chrome&#45;ext/Session.ts -->
<g id="edge2" class="edge">
<title>src/api/SolidApi.ts&#45;&gt;src/solid&#45;client&#45;authn&#45;chrome&#45;ext/Session.ts</title>
<path fill="none" stroke="#000000" stroke-width="2" stroke-opacity="0.200000" d="M530.2827,-215.7337C536.7049,-209.8649 544.3687,-201.7496 549,-193 561.3586,-169.6517 546.307,-156.2511 562,-135 571.3853,-122.2907 586.1029,-113.0125 599.626,-106.6106"/>
<polygon fill="#000000" fill-opacity="0.200000" stroke="#000000" stroke-width="2" stroke-opacity="0.200000" points="600.7214,-108.4205 605.3295,-104.0415 598.9964,-104.5911 600.7214,-108.4205"/>
</g>
<!-- src/store/Store.ts -->
<g id="node5" class="node">
<title>src/store/Store.ts</title>
<g id="a_node5"><a xlink:href="src/store/Store.ts" xlink:title="Store.ts">
<path fill="#ddfeff" stroke="#000000" d="M653,-328C653,-328 611,-328 611,-328 608,-328 605,-325 605,-322 605,-322 605,-316 605,-316 605,-313 608,-310 611,-310 611,-310 653,-310 653,-310 656,-310 659,-313 659,-316 659,-316 659,-322 659,-322 659,-325 656,-328 653,-328"/>
<text text-anchor="start" x="616.5" y="-316.8" font-family="Helvetica,sans-Serif" font-size="9.00" fill="#000000">Store.ts</text>
</a>
</g>
</g>
<!-- src/api/SolidApi.ts&#45;&gt;src/store/Store.ts -->
<g id="edge3" class="edge">
<title>src/api/SolidApi.ts&#45;&gt;src/store/Store.ts</title>
<path fill="none" stroke="#000000" stroke-width="2" stroke-opacity="0.200000" d="M522.1199,-234.4411C527.6783,-249.8128 540.7478,-280.2158 562,-297 572.5673,-305.3456 586.3422,-310.5501 598.8744,-313.7846"/>
<polygon fill="#000000" fill-opacity="0.200000" stroke="#000000" stroke-width="2" stroke-opacity="0.200000" points="598.5841,-315.8741 604.9072,-315.2194 599.5559,-311.7881 598.5841,-315.8741"/>
</g>
<!-- src/api/generateDatePathForToday.ts -->
<g id="node6" class="node">
<title>src/api/generateDatePathForToday.ts</title>
<g id="a_node6"><a xlink:href="src/api/generateDatePathForToday.ts" xlink:title="generateDatePathForToday.ts">
<path fill="#ddfeff" stroke="#000000" d="M696,-224C696,-224 568,-224 568,-224 565,-224 562,-221 562,-218 562,-218 562,-212 562,-212 562,-209 565,-206 568,-206 568,-206 696,-206 696,-206 699,-206 702,-209 702,-212 702,-212 702,-218 702,-218 702,-221 699,-224 696,-224"/>
<text text-anchor="start" x="570" y="-212.8" font-family="Helvetica,sans-Serif" font-size="9.00" fill="#000000">generateDatePathForToday.ts</text>
</a>
</g>
</g>
<!-- src/api/SolidApi.ts&#45;&gt;src/api/generateDatePathForToday.ts -->
<g id="edge4" class="edge">
<title>src/api/SolidApi.ts&#45;&gt;src/api/generateDatePathForToday.ts</title>
<path fill="none" stroke="#000000" stroke-width="2" stroke-opacity="0.200000" d="M549.2819,-222.3202C551.2432,-222.1466 553.2586,-221.9683 555.3151,-221.7863"/>
<polygon fill="#000000" fill-opacity="0.200000" stroke="#000000" stroke-width="2" stroke-opacity="0.200000" points="555.8032,-223.8514 561.5946,-221.2306 555.4329,-219.6677 555.8032,-223.8514"/>
</g>
<!-- src/api/generateUuid.ts -->
<g id="node7" class="node">
<title>src/api/generateUuid.ts</title>
<g id="a_node7"><a xlink:href="src/api/generateUuid.ts" xlink:title="generateUuid.ts">
<path fill="#ddfeff" stroke="#000000" d="M667,-254C667,-254 597,-254 597,-254 594,-254 591,-251 591,-248 591,-248 591,-242 591,-242 591,-239 594,-236 597,-236 597,-236 667,-236 667,-236 670,-236 673,-239 673,-242 673,-242 673,-248 673,-248 673,-251 670,-254 667,-254"/>
<text text-anchor="start" x="599" y="-242.8" font-family="Helvetica,sans-Serif" font-size="9.00" fill="#000000">generateUuid.ts</text>
</a>
</g>
</g>
<!-- src/api/SolidApi.ts&#45;&gt;src/api/generateUuid.ts -->
<g id="edge5" class="edge">
<title>src/api/SolidApi.ts&#45;&gt;src/api/generateUuid.ts</title>
<path fill="none" stroke="#000000" stroke-width="2" stroke-opacity="0.200000" d="M549.2819,-230.3596C560.0821,-232.2712 572.5245,-234.4734 584.4249,-236.5796"/>
<polygon fill="#000000" fill-opacity="0.200000" stroke="#000000" stroke-width="2" stroke-opacity="0.200000" points="584.3129,-238.6924 590.5871,-237.6703 585.045,-234.5567 584.3129,-238.6924"/>
</g>
<!-- src/api/now.ts -->
<g id="node8" class="node">
<title>src/api/now.ts</title>
<g id="a_node8"><a xlink:href="src/api/now.ts" xlink:title="now.ts">
<path fill="#ddfeff" stroke="#000000" d="M796.5,-246C796.5,-246 754.5,-246 754.5,-246 751.5,-246 748.5,-243 748.5,-240 748.5,-240 748.5,-234 748.5,-234 748.5,-231 751.5,-228 754.5,-228 754.5,-228 796.5,-228 796.5,-228 799.5,-228 802.5,-231 802.5,-234 802.5,-234 802.5,-240 802.5,-240 802.5,-243 799.5,-246 796.5,-246"/>
<text text-anchor="start" x="762" y="-234.8" font-family="Helvetica,sans-Serif" font-size="9.00" fill="#000000">now.ts</text>
</a>
</g>
</g>
<!-- src/api/SolidApi.ts&#45;&gt;src/api/now.ts -->
<g id="edge6" class="edge">
<title>src/api/SolidApi.ts&#45;&gt;src/api/now.ts</title>
<path fill="none" stroke="#000000" stroke-width="2" stroke-opacity="0.200000" d="M526.7799,-234.2205C534.6492,-242.7671 547.6702,-254.9053 562,-260 624.9034,-282.3642 704.274,-262.1855 746.2931,-248.0396"/>
<polygon fill="#000000" fill-opacity="0.200000" stroke="#000000" stroke-width="2" stroke-opacity="0.200000" points="746.9773,-250.0251 751.9687,-246.0886 745.6119,-246.0532 746.9773,-250.0251"/>
</g>
<!-- src/solid&#45;client&#45;authn&#45;chrome&#45;ext/Session.ts&#45;&gt;events -->
<g id="edge33" class="edge">
<title>src/solid&#45;client&#45;authn&#45;chrome&#45;ext/Session.ts&#45;&gt;events</title>
<path fill="none" stroke="#000000" stroke-dasharray="5,2" stroke-opacity="0.200000" d="M642.014,-85.6005C656.926,-72.012 686.3009,-46.7834 715,-31 723.5154,-26.3169 733.2259,-22.2769 742.3373,-18.9836"/>
<polygon fill="#000000" fill-opacity="0.200000" stroke="#000000" stroke-opacity="0.200000" points="743.2484,-20.8898 748.2197,-16.928 741.8628,-16.9249 743.2484,-20.8898"/>
</g>
<!-- src/solid&#45;client&#45;authn&#45;chrome&#45;ext/ChromeExtensionRedirector.ts -->
<g id="node20" class="node">
<title>src/solid&#45;client&#45;authn&#45;chrome&#45;ext/ChromeExtensionRedirector.ts</title>
<g id="a_node20"><a xlink:href="src/solid-client-authn-chrome-ext/ChromeExtensionRedirector.ts" xlink:title="ChromeExtensionRedirector.ts">
<path fill="#ddfeff" stroke="#000000" d="M994.5,-104C994.5,-104 864.5,-104 864.5,-104 861.5,-104 858.5,-101 858.5,-98 858.5,-98 858.5,-92 858.5,-92 858.5,-89 861.5,-86 864.5,-86 864.5,-86 994.5,-86 994.5,-86 997.5,-86 1000.5,-89 1000.5,-92 1000.5,-92 1000.5,-98 1000.5,-98 1000.5,-101 997.5,-104 994.5,-104"/>
<text text-anchor="start" x="866.5" y="-92.8" font-family="Helvetica,sans-Serif" font-size="9.00" fill="#000000">ChromeExtensionRedirector.ts</text>
</a>
</g>
</g>
<!-- src/solid&#45;client&#45;authn&#45;chrome&#45;ext/Session.ts&#45;&gt;src/solid&#45;client&#45;authn&#45;chrome&#45;ext/ChromeExtensionRedirector.ts -->
<g id="edge30" class="edge">
<title>src/solid&#45;client&#45;authn&#45;chrome&#45;ext/Session.ts&#45;&gt;src/solid&#45;client&#45;authn&#45;chrome&#45;ext/ChromeExtensionRedirector.ts</title>
<path fill="none" stroke="#000000" stroke-width="2" stroke-opacity="0.200000" d="M661.5779,-95.4428C677.4221,-95.6582 697.2751,-95.8932 715,-96 768.7768,-96.3239 782.223,-96.2876 836,-96 841.1921,-95.9722 846.5464,-95.9358 851.9412,-95.8933"/>
<polygon fill="#000000" fill-opacity="0.200000" stroke="#000000" stroke-width="2" stroke-opacity="0.200000" points="852.3032,-97.9905 858.2855,-95.8408 852.2683,-93.7906 852.3032,-97.9905"/>
</g>
<!-- src/solid&#45;client&#45;authn&#45;chrome&#45;ext/getClientAuthentication.ts -->
<g id="node22" class="node">
<title>src/solid&#45;client&#45;authn&#45;chrome&#45;ext/getClientAuthentication.ts</title>
<g id="a_node22"><a xlink:href="src/solid-client-authn-chrome-ext/getClientAuthentication.ts" xlink:title="getClientAuthentication.ts">
<path fill="#ddfeff" stroke="#000000" d="M830,-90C830,-90 721,-90 721,-90 718,-90 715,-87 715,-84 715,-84 715,-78 715,-78 715,-75 718,-72 721,-72 721,-72 830,-72 830,-72 833,-72 836,-75 836,-78 836,-78 836,-84 836,-84 836,-87 833,-90 830,-90"/>
<text text-anchor="start" x="723" y="-78.8" font-family="Helvetica,sans-Serif" font-size="9.00" fill="#000000">getClientAuthentication.ts</text>
</a>
</g>
</g>
<!-- src/solid&#45;client&#45;authn&#45;chrome&#45;ext/Session.ts&#45;&gt;src/solid&#45;client&#45;authn&#45;chrome&#45;ext/getClientAuthentication.ts -->
<g id="edge31" class="edge">
<title>src/solid&#45;client&#45;authn&#45;chrome&#45;ext/Session.ts&#45;&gt;src/solid&#45;client&#45;authn&#45;chrome&#45;ext/getClientAuthentication.ts</title>
<path fill="none" stroke="#000000" stroke-width="2" stroke-opacity="0.200000" d="M661.7333,-92.0992C675.4058,-90.7653 692.2211,-89.1248 708.688,-87.5182"/>
<polygon fill="#000000" fill-opacity="0.200000" stroke="#000000" stroke-width="2" stroke-opacity="0.200000" points="708.9648,-89.6013 714.7325,-86.9285 708.5569,-85.4212 708.9648,-89.6013"/>
</g>
<!-- src/solid&#45;client&#45;authn&#45;chrome&#45;ext/time.ts -->
<g id="node23" class="node">
<title>src/solid&#45;client&#45;authn&#45;chrome&#45;ext/time.ts</title>
<g id="a_node23"><a xlink:href="src/solid-client-authn-chrome-ext/time.ts" xlink:title="time.ts">
<path fill="#ddfeff" stroke="#000000" d="M796.5,-60C796.5,-60 754.5,-60 754.5,-60 751.5,-60 748.5,-57 748.5,-54 748.5,-54 748.5,-48 748.5,-48 748.5,-45 751.5,-42 754.5,-42 754.5,-42 796.5,-42 796.5,-42 799.5,-42 802.5,-45 802.5,-48 802.5,-48 802.5,-54 802.5,-54 802.5,-57 799.5,-60 796.5,-60"/>
<text text-anchor="start" x="762" y="-48.8" font-family="Helvetica,sans-Serif" font-size="9.00" fill="#000000">time.ts</text>
</a>
</g>
</g>
<!-- src/solid&#45;client&#45;authn&#45;chrome&#45;ext/Session.ts&#45;&gt;src/solid&#45;client&#45;authn&#45;chrome&#45;ext/time.ts -->
<g id="edge32" class="edge">
<title>src/solid&#45;client&#45;authn&#45;chrome&#45;ext/Session.ts&#45;&gt;src/solid&#45;client&#45;authn&#45;chrome&#45;ext/time.ts</title>
<path fill="none" stroke="#000000" stroke-width="2" stroke-opacity="0.200000" d="M656.139,-85.8977C672.5977,-79.8569 694.9591,-71.9714 715,-66 723.7634,-63.3888 733.3332,-60.8672 742.2222,-58.6604"/>
<polygon fill="#000000" fill-opacity="0.200000" stroke="#000000" stroke-width="2" stroke-opacity="0.200000" points="742.9201,-60.6517 748.2491,-57.1858 741.9219,-56.572 742.9201,-60.6517"/>
</g>
<!-- src/store/createRelations.ts -->
<g id="node24" class="node">
<title>src/store/createRelations.ts</title>
<g id="a_node24"><a xlink:href="src/store/createRelations.ts" xlink:title="createRelations.ts">
<path fill="#ddfeff" stroke="#000000" d="M814.5,-328C814.5,-328 736.5,-328 736.5,-328 733.5,-328 730.5,-325 730.5,-322 730.5,-322 730.5,-316 730.5,-316 730.5,-313 733.5,-310 736.5,-310 736.5,-310 814.5,-310 814.5,-310 817.5,-310 820.5,-313 820.5,-316 820.5,-316 820.5,-322 820.5,-322 820.5,-325 817.5,-328 814.5,-328"/>
<text text-anchor="start" x="738.5" y="-316.8" font-family="Helvetica,sans-Serif" font-size="9.00" fill="#000000">createRelations.ts</text>
</a>
</g>
</g>
<!-- src/store/Store.ts&#45;&gt;src/store/createRelations.ts -->
<g id="edge36" class="edge">
<title>src/store/Store.ts&#45;&gt;src/store/createRelations.ts</title>
<path fill="none" stroke="#000000" stroke-width="2" stroke-opacity="0.200000" d="M659.329,-319C677.6886,-319 702.4457,-319 724.3882,-319"/>
<polygon fill="#000000" fill-opacity="0.200000" stroke="#000000" stroke-width="2" stroke-opacity="0.200000" points="724.4948,-321.1001 730.4948,-319 724.4948,-316.9001 724.4948,-321.1001"/>
</g>
<!-- src/store/importToStore.ts -->
<g id="node25" class="node">
<title>src/store/importToStore.ts</title>
<g id="a_node25"><a xlink:href="src/store/importToStore.ts" xlink:title="importToStore.ts">
<path fill="#ddfeff" stroke="#000000" d="M811,-358C811,-358 740,-358 740,-358 737,-358 734,-355 734,-352 734,-352 734,-346 734,-346 734,-343 737,-340 740,-340 740,-340 811,-340 811,-340 814,-340 817,-343 817,-346 817,-346 817,-352 817,-352 817,-355 814,-358 811,-358"/>
<text text-anchor="start" x="742" y="-346.8" font-family="Helvetica,sans-Serif" font-size="9.00" fill="#000000">importToStore.ts</text>
</a>
</g>
</g>
<!-- src/store/Store.ts&#45;&gt;src/store/importToStore.ts -->
<g id="edge37" class="edge">
<title>src/store/Store.ts&#45;&gt;src/store/importToStore.ts</title>
<path fill="none" stroke="#000000" stroke-width="2" stroke-opacity="0.200000" d="M659.329,-324.7134C678.6629,-328.7553 705.0912,-334.2804 727.8561,-339.0396"/>
<polygon fill="#000000" fill-opacity="0.200000" stroke="#000000" stroke-width="2" stroke-opacity="0.200000" points="727.5608,-341.1232 733.8636,-340.2955 728.4203,-337.0121 727.5608,-341.1232"/>
</g>
<!-- src/api/generateDatePathForToday.ts&#45;&gt;src/api/now.ts -->
<g id="edge7" class="edge">
<title>src/api/generateDatePathForToday.ts&#45;&gt;src/api/now.ts</title>
<path fill="none" stroke="#000000" stroke-width="2" stroke-opacity="0.200000" d="M690.781,-224.0117C708.2543,-226.6906 726.7892,-229.5321 742.0525,-231.8722"/>
<polygon fill="#000000" fill-opacity="0.200000" stroke="#000000" stroke-width="2" stroke-opacity="0.200000" points="742.132,-234.0088 748.3809,-232.8424 742.7685,-229.8573 742.132,-234.0088"/>
</g>
<!-- src/background.ts -->
<g id="node9" class="node">
<title>src/background.ts</title>
<g id="a_node9"><a xlink:href="src/background.ts" xlink:title="background.ts">
<path fill="#ddfeff" stroke="#000000" d="M84,-268C84,-268 22,-268 22,-268 19,-268 16,-265 16,-262 16,-262 16,-256 16,-256 16,-253 19,-250 22,-250 22,-250 84,-250 84,-250 87,-250 90,-253 90,-256 90,-256 90,-262 90,-262 90,-265 87,-268 84,-268"/>
<text text-anchor="start" x="24" y="-256.8" font-family="Helvetica,sans-Serif" font-size="9.00" fill="#000000">background.ts</text>
</a>
</g>
</g>
<!-- src/background.ts&#45;&gt;src/solid&#45;client&#45;authn&#45;chrome&#45;ext/Session.ts -->
<g id="edge14" class="edge">
<title>src/background.ts&#45;&gt;src/solid&#45;client&#45;authn&#45;chrome&#45;ext/Session.ts</title>
<path fill="none" stroke="#000000" stroke-width="2" stroke-opacity="0.200000" d="M54.3148,-249.9765C57.6805,-230.3626 68.5203,-183.7814 98,-161 170.5035,-104.9706 209.37,-125 301,-125 301,-125 301,-125 415,-125 479.3423,-125 553.4135,-111.898 596.2543,-103.0111"/>
<polygon fill="#000000" fill-opacity="0.200000" stroke="#000000" stroke-width="2" stroke-opacity="0.200000" points="596.9032,-105.0208 602.3436,-101.7326 596.0401,-100.9104 596.9032,-105.0208"/>
</g>
<!-- src/background/activate.ts -->
<g id="node10" class="node">
<title>src/background/activate.ts</title>
<g id="a_node10"><a xlink:href="src/background/activate.ts" xlink:title="activate.ts">
<path fill="#ddfeff" stroke="#000000" d="M195.5,-238C195.5,-238 150.5,-238 150.5,-238 147.5,-238 144.5,-235 144.5,-232 144.5,-232 144.5,-226 144.5,-226 144.5,-223 147.5,-220 150.5,-220 150.5,-220 195.5,-220 195.5,-220 198.5,-220 201.5,-223 201.5,-226 201.5,-226 201.5,-232 201.5,-232 201.5,-235 198.5,-238 195.5,-238"/>
<text text-anchor="start" x="152.5" y="-226.8" font-family="Helvetica,sans-Serif" font-size="9.00" fill="#000000">activate.ts</text>
</a>
</g>
</g>
<!-- src/background.ts&#45;&gt;src/background/activate.ts -->
<g id="edge8" class="edge">
<title>src/background.ts&#45;&gt;src/background/activate.ts</title>
<path fill="none" stroke="#000000" stroke-width="2" stroke-opacity="0.200000" d="M78.5342,-249.8767C84.8503,-247.7899 91.6326,-245.6909 98,-244 111.0143,-240.5439 125.4865,-237.4722 138.2194,-235.0226"/>
<polygon fill="#000000" fill-opacity="0.200000" stroke="#000000" stroke-width="2" stroke-opacity="0.200000" points="138.8103,-237.0482 144.3164,-233.8711 138.0309,-232.9212 138.8103,-237.0482"/>
</g>
<!-- src/background/createMessageHandler.ts -->
<g id="node11" class="node">
<title>src/background/createMessageHandler.ts</title>
<g id="a_node11"><a xlink:href="src/background/createMessageHandler.ts" xlink:title="createMessageHandler.ts">
<path fill="#ddfeff" stroke="#000000" d="M228,-298C228,-298 118,-298 118,-298 115,-298 112,-295 112,-292 112,-292 112,-286 112,-286 112,-283 115,-280 118,-280 118,-280 228,-280 228,-280 231,-280 234,-283 234,-286 234,-286 234,-292 234,-292 234,-295 231,-298 228,-298"/>
<text text-anchor="start" x="120" y="-286.8" font-family="Helvetica,sans-Serif" font-size="9.00" fill="#000000">createMessageHandler.ts</text>
</a>
</g>
</g>
<!-- src/background.ts&#45;&gt;src/background/createMessageHandler.ts -->
<g id="edge9" class="edge">
<title>src/background.ts&#45;&gt;src/background/createMessageHandler.ts</title>
<path fill="none" stroke="#000000" stroke-width="2" stroke-opacity="0.200000" d="M78.5342,-268.1233C84.8503,-270.2101 91.6326,-272.3091 98,-274 104.1903,-275.6439 110.7105,-277.2009 117.2164,-278.6453"/>
<polygon fill="#000000" fill-opacity="0.200000" stroke="#000000" stroke-width="2" stroke-opacity="0.200000" points="116.8684,-280.7186 123.1774,-279.9394 117.7595,-276.6142 116.8684,-280.7186"/>
</g>
<!-- src/background/MessageHandler.ts -->
<g id="node12" class="node">
<title>src/background/MessageHandler.ts</title>
<g id="a_node12"><a xlink:href="src/background/MessageHandler.ts" xlink:title="MessageHandler.ts">
<path fill="#ddfeff" stroke="#000000" d="M343,-287C343,-287 259,-287 259,-287 256,-287 253,-284 253,-281 253,-281 253,-275 253,-275 253,-272 256,-269 259,-269 259,-269 343,-269 343,-269 346,-269 349,-272 349,-275 349,-275 349,-281 349,-281 349,-284 346,-287 343,-287"/>
<text text-anchor="start" x="261" y="-275.8" font-family="Helvetica,sans-Serif" font-size="9.00" fill="#000000">MessageHandler.ts</text>
</a>
</g>
</g>
<!-- src/background.ts&#45;&gt;src/background/MessageHandler.ts -->
<g id="edge10" class="edge">
<title>src/background.ts&#45;&gt;src/background/MessageHandler.ts</title>
<path fill="none" stroke="#000000" stroke-width="2" stroke-opacity="0.200000" d="M58.6845,-268.0065C66.1645,-278.9138 80.4431,-296.7277 98,-304 156.3071,-328.1516 178.1652,-316.6283 240,-304 253.5431,-301.2341 267.8011,-295.3432 279.1242,-289.8671"/>
<polygon fill="#000000" fill-opacity="0.200000" stroke="#000000" stroke-width="2" stroke-opacity="0.200000" points="280.3246,-291.6153 284.7586,-287.06 278.4517,-287.856 280.3246,-291.6153"/>
</g>
<!-- src/background/sendMessageToActiveTab.ts -->
<g id="node13" class="node">
<title>src/background/sendMessageToActiveTab.ts</title>
<g id="a_node13"><a xlink:href="src/background/sendMessageToActiveTab.ts" xlink:title="sendMessageToActiveTab.ts">
<path fill="#ddfeff" stroke="#000000" d="M234,-268C234,-268 112,-268 112,-268 109,-268 106,-265 106,-262 106,-262 106,-256 106,-256 106,-253 109,-250 112,-250 112,-250 234,-250 234,-250 237,-250 240,-253 240,-256 240,-256 240,-262 240,-262 240,-265 237,-268 234,-268"/>
<text text-anchor="start" x="114" y="-256.8" font-family="Helvetica,sans-Serif" font-size="9.00" fill="#000000">sendMessageToActiveTab.ts</text>
</a>
</g>
</g>
<!-- src/background.ts&#45;&gt;src/background/sendMessageToActiveTab.ts -->
<g id="edge11" class="edge">
<title>src/background.ts&#45;&gt;src/background/sendMessageToActiveTab.ts</title>
<path fill="none" stroke="#000000" stroke-width="2" stroke-opacity="0.200000" d="M90.311,-259C93.2522,-259 96.2788,-259 99.3559,-259"/>
<polygon fill="#000000" fill-opacity="0.200000" stroke="#000000" stroke-width="2" stroke-opacity="0.200000" points="99.732,-261.1001 105.732,-259 99.7319,-256.9001 99.732,-261.1001"/>
</g>
<!-- src/messages.ts -->
<g id="node14" class="node">
<title>src/messages.ts</title>
<g id="a_node14"><a xlink:href="src/messages.ts" xlink:title="messages.ts">
<path fill="#ddfeff" stroke="#000000" d="M443,-194C443,-194 387,-194 387,-194 384,-194 381,-191 381,-188 381,-188 381,-182 381,-182 381,-179 384,-176 387,-176 387,-176 443,-176 443,-176 446,-176 449,-179 449,-182 449,-182 449,-188 449,-188 449,-191 446,-194 443,-194"/>
<text text-anchor="start" x="389" y="-182.8" font-family="Helvetica,sans-Serif" font-size="9.00" fill="#000000">messages.ts</text>
</a>
</g>
</g>
<!-- src/background.ts&#45;&gt;src/messages.ts -->
<g id="edge12" class="edge">
<title>src/background.ts&#45;&gt;src/messages.ts</title>
<path fill="none" stroke="#000000" stroke-width="2" stroke-opacity="0.200000" d="M58.7576,-249.663C66.3129,-238.2352 80.6691,-219.1552 98,-209 198.2196,-150.2754 241.3523,-163.1303 357,-174 362.8163,-174.5467 368.9179,-175.3952 374.8894,-176.3842"/>
<polygon fill="#000000" fill-opacity="0.200000" stroke="#000000" stroke-width="2" stroke-opacity="0.200000" points="374.5308,-178.4532 380.8022,-177.4139 375.2515,-174.3155 374.5308,-178.4532"/>
</g>
<!-- src/options/optionsStorageApi.ts -->
<g id="node15" class="node">
<title>src/options/optionsStorageApi.ts</title>
<g id="a_node15"><a xlink:href="src/options/optionsStorageApi.ts" xlink:title="optionsStorageApi.ts">
<path fill="#ddfeff" stroke="#000000" d="M217.5,-358C217.5,-358 128.5,-358 128.5,-358 125.5,-358 122.5,-355 122.5,-352 122.5,-352 122.5,-346 122.5,-346 122.5,-343 125.5,-340 128.5,-340 128.5,-340 217.5,-340 217.5,-340 220.5,-340 223.5,-343 223.5,-346 223.5,-346 223.5,-352 223.5,-352 223.5,-355 220.5,-358 217.5,-358"/>
<text text-anchor="start" x="130.5" y="-346.8" font-family="Helvetica,sans-Serif" font-size="9.00" fill="#000000">optionsStorageApi.ts</text>
</a>
</g>
</g>
<!-- src/background.ts&#45;&gt;src/options/optionsStorageApi.ts -->
<g id="edge13" class="edge">
<title>src/background.ts&#45;&gt;src/options/optionsStorageApi.ts</title>
<path fill="none" stroke="#000000" stroke-width="2" stroke-opacity="0.200000" d="M55.5313,-268.1099C60.6134,-284.5741 73.7055,-319.1366 98,-336 103.4857,-339.8077 109.7279,-342.6188 116.2142,-344.6783"/>
<polygon fill="#000000" fill-opacity="0.200000" stroke="#000000" stroke-width="2" stroke-opacity="0.200000" points="115.8808,-346.7657 122.225,-346.3653 117.0158,-342.722 115.8808,-346.7657"/>
</g>
<!-- src/background/activate.ts&#45;&gt;src/messages.ts -->
<g id="edge19" class="edge">
<title>src/background/activate.ts&#45;&gt;src/messages.ts</title>
<path fill="none" stroke="#000000" stroke-width="2" stroke-opacity="0.200000" d="M201.522,-228.7588C214.2981,-227.3935 228.9417,-223.9616 240,-216 249.5293,-209.1393 243.0071,-199.1659 253,-193 289.435,-170.5187 339.7321,-171.9188 374.575,-176.7636"/>
<polygon fill="#000000" fill-opacity="0.200000" stroke="#000000" stroke-width="2" stroke-opacity="0.200000" points="374.6506,-178.8978 380.8942,-177.7033 375.2684,-174.7435 374.6506,-178.8978"/>
</g>
<!-- src/background/createMessageHandler.ts&#45;&gt;src/api/SolidApi.ts -->
<g id="edge20" class="edge">
<title>src/background/createMessageHandler.ts&#45;&gt;src/api/SolidApi.ts</title>
<path fill="none" stroke="#000000" stroke-width="2" stroke-opacity="0.200000" d="M231.5647,-279.9996C234.5911,-278.3018 237.4348,-276.3172 240,-274 253.5583,-261.7525 238.3812,-245.9598 253,-235 288.283,-208.5482 418.7885,-215.9777 482.9346,-221.4731"/>
<polygon fill="#000000" fill-opacity="0.200000" stroke="#000000" stroke-width="2" stroke-opacity="0.200000" points="482.7694,-223.5666 488.9297,-221.9976 483.1356,-219.3826 482.7694,-223.5666"/>
</g>
<!-- src/background/createMessageHandler.ts&#45;&gt;src/solid&#45;client&#45;authn&#45;chrome&#45;ext/Session.ts -->
<g id="edge21" class="edge">
<title>src/background/createMessageHandler.ts&#45;&gt;src/solid&#45;client&#45;authn&#45;chrome&#45;ext/Session.ts</title>
<path fill="none" stroke="#000000" stroke-width="2" stroke-opacity="0.200000" d="M232.4577,-279.9277C235.1828,-278.2378 237.724,-276.2755 240,-274 258.6822,-255.3224 232.8745,-233.1125 253,-216 271.655,-200.1378 450.6632,-213.0343 473,-203 477.5868,-200.9395 476.5235,-197.2902 481,-195 508.2553,-181.0561 526.3077,-204.551 549,-184 565.7004,-168.8755 548.2661,-152.8616 562,-135 571.705,-122.3782 586.6058,-113.0757 600.169,-106.6346"/>
<polygon fill="#000000" fill-opacity="0.200000" stroke="#000000" stroke-width="2" stroke-opacity="0.200000" points="601.2815,-108.4362 605.8809,-104.048 599.5488,-104.6102 601.2815,-108.4362"/>
</g>
<!-- src/background/createMessageHandler.ts&#45;&gt;src/store/Store.ts -->
<g id="edge22" class="edge">
<title>src/background/createMessageHandler.ts&#45;&gt;src/store/Store.ts</title>
<path fill="none" stroke="#000000" stroke-width="2" stroke-opacity="0.200000" d="M225.0799,-279.9795C230.2419,-278.3093 235.3033,-276.3343 240,-274 246.7777,-270.6314 245.9654,-265.7925 253,-263 299.3321,-244.6077 315.1687,-258.3338 365,-257 412.9828,-255.7157 435.8796,-226.5685 473,-257 487.0206,-268.4941 467.8468,-284.5226 481,-297 483.1339,-299.0243 555.0174,-308.8329 598.8211,-314.6475"/>
<polygon fill="#000000" fill-opacity="0.200000" stroke="#000000" stroke-width="2" stroke-opacity="0.200000" points="598.5816,-316.7341 604.8054,-315.4403 599.1332,-312.5704 598.5816,-316.7341"/>
</g>
<!-- src/background/createMessageHandler.ts&#45;&gt;src/background/MessageHandler.ts -->
<g id="edge23" class="edge">
<title>src/background/createMessageHandler.ts&#45;&gt;src/background/MessageHandler.ts</title>
<path fill="none" stroke="#000000" stroke-width="2" stroke-opacity="0.200000" d="M234.001,-283.7577C238.2407,-283.3934 242.4979,-283.0275 246.6982,-282.6666"/>
<polygon fill="#000000" fill-opacity="0.200000" stroke="#000000" stroke-width="2" stroke-opacity="0.200000" points="247.0043,-284.7481 252.8025,-282.142 246.6447,-280.5635 247.0043,-284.7481"/>
</g>
<!-- src/background/MessageHandler.ts&#45;&gt;src/api/SolidApi.ts -->
<g id="edge15" class="edge">
<title>src/background/MessageHandler.ts&#45;&gt;src/api/SolidApi.ts</title>
<path fill="none" stroke="#000000" stroke-width="2" stroke-opacity="0.200000" d="M338.4755,-268.889C378.8043,-259.0843 442.5208,-243.5936 482.4767,-233.8795"/>
<polygon fill="#000000" fill-opacity="0.200000" stroke="#000000" stroke-width="2" stroke-opacity="0.200000" points="483.3441,-235.8299 488.6782,-232.3718 482.3519,-231.7488 483.3441,-235.8299"/>
</g>
<!-- src/background/MessageHandler.ts&#45;&gt;src/store/Store.ts -->
<g id="edge17" class="edge">
<title>src/background/MessageHandler.ts&#45;&gt;src/store/Store.ts</title>
<path fill="none" stroke="#000000" stroke-width="2" stroke-opacity="0.200000" d="M349.2103,-274.6636C354.5359,-274.3913 359.8814,-274.1598 365,-274 412.9766,-272.5022 435.2719,-244.3253 473,-274 484.862,-283.3299 469.5172,-297.2072 481,-307 513.3056,-334.551 564.9221,-332.1238 598.6427,-326.5728"/>
<polygon fill="#000000" fill-opacity="0.200000" stroke="#000000" stroke-width="2" stroke-opacity="0.200000" points="599.1751,-328.6116 604.7221,-325.5065 598.4495,-324.4747 599.1751,-328.6116"/>
</g>
<!-- src/background/MessageHandler.ts&#45;&gt;src/messages.ts -->
<g id="edge16" class="edge">
<title>src/background/MessageHandler.ts&#45;&gt;src/messages.ts</title>
<path fill="none" stroke="#000000" stroke-width="2" stroke-opacity="0.200000" d="M349.1238,-271.2687C352.0337,-269.5665 354.7061,-267.5007 357,-265 373.9952,-246.4727 350.1355,-229.2767 365,-209 368.5865,-204.1077 373.4359,-200.1698 378.7093,-197.0129"/>
<polygon fill="#000000" fill-opacity="0.200000" stroke="#000000" stroke-width="2" stroke-opacity="0.200000" points="379.8086,-198.806 384.0931,-194.1099 377.8152,-195.1092 379.8086,-198.806"/>
</g>
<!-- src/background/openOptionsPage.ts -->
<g id="node16" class="node">
<title>src/background/openOptionsPage.ts</title>
<g id="a_node16"><a xlink:href="src/background/openOptionsPage.ts" xlink:title="openOptionsPage.ts">
<path fill="#ddfeff" stroke="#000000" d="M459,-298C459,-298 371,-298 371,-298 368,-298 365,-295 365,-292 365,-292 365,-286 365,-286 365,-283 368,-280 371,-280 371,-280 459,-280 459,-280 462,-280 465,-283 465,-286 465,-286 465,-292 465,-292 465,-295 462,-298 459,-298"/>
<text text-anchor="start" x="373" y="-286.8" font-family="Helvetica,sans-Serif" font-size="9.00" fill="#000000">openOptionsPage.ts</text>
</a>
</g>
</g>
<!-- src/background/MessageHandler.ts&#45;&gt;src/background/openOptionsPage.ts -->
<g id="edge18" class="edge">
<title>src/background/MessageHandler.ts&#45;&gt;src/background/openOptionsPage.ts</title>
<path fill="none" stroke="#000000" stroke-width="2" stroke-opacity="0.200000" d="M349.0159,-282.6331C352.123,-282.9329 355.2667,-283.2363 358.4088,-283.5394"/>
<polygon fill="#000000" fill-opacity="0.200000" stroke="#000000" stroke-width="2" stroke-opacity="0.200000" points="358.6697,-285.6743 364.8437,-284.1604 359.0732,-281.4937 358.6697,-285.6743"/>
</g>
<!-- src/background/sendMessageToActiveTab.ts&#45;&gt;src/messages.ts -->
<g id="edge24" class="edge">
<title>src/background/sendMessageToActiveTab.ts&#45;&gt;src/messages.ts</title>
<path fill="none" stroke="#000000" stroke-width="2" stroke-opacity="0.200000" d="M231.5208,-249.9506C234.5581,-248.265 237.4162,-246.2964 240,-244 253.028,-232.421 239.4903,-218.0132 253,-207 262.2711,-199.4421 329.5754,-192.2985 374.4654,-188.3007"/>
<polygon fill="#000000" fill-opacity="0.200000" stroke="#000000" stroke-width="2" stroke-opacity="0.200000" points="374.8494,-190.3751 380.6424,-187.7577 374.4815,-186.1913 374.8494,-190.3751"/>
</g>
<!-- src/messages.ts&#45;&gt;src/api/SolidApi.ts -->
<g id="edge25" class="edge">
<title>src/messages.ts&#45;&gt;src/api/SolidApi.ts</title>
<path fill="none" stroke="#000000" stroke-width="2" stroke-opacity="0.200000" d="M436.2759,-194.0746C449.1476,-199.4717 465.9318,-206.346 481,-212 482.6524,-212.62 484.3496,-213.2446 486.0665,-213.8666"/>
<polygon fill="#000000" fill-opacity="0.200000" stroke="#000000" stroke-width="2" stroke-opacity="0.200000" points="485.5869,-215.925 491.9437,-215.962 486.9974,-211.9689 485.5869,-215.925"/>
</g>
<!-- src/messages.ts&#45;&gt;src/content/usePage.ts -->
<g id="edge26" class="edge">
<title>src/messages.ts&#45;&gt;src/content/usePage.ts</title>
<path fill="none" stroke="#000000" stroke-width="2" stroke-opacity="0.200000" d="M449.3843,-180.2464C489.0561,-174.7618 554.0505,-165.7764 594.8547,-160.1353"/>
<polygon fill="#000000" fill-opacity="0.200000" stroke="#000000" stroke-width="2" stroke-opacity="0.200000" points="595.2849,-162.1959 600.9407,-159.2939 594.7096,-158.0355 595.2849,-162.1959"/>
</g>
<!-- src/options/onOptionChange.ts -->
<g id="node17" class="node">
<title>src/options/onOptionChange.ts</title>
<g id="a_node17"><a xlink:href="src/options/onOptionChange.ts" xlink:title="onOptionChange.ts">
<path fill="#ddfeff" stroke="#000000" d="M343,-358C343,-358 259,-358 259,-358 256,-358 253,-355 253,-352 253,-352 253,-346 253,-346 253,-343 256,-340 259,-340 259,-340 343,-340 343,-340 346,-340 349,-343 349,-346 349,-346 349,-352 349,-352 349,-355 346,-358 343,-358"/>
<text text-anchor="start" x="261" y="-346.8" font-family="Helvetica,sans-Serif" font-size="9.00" fill="#000000">onOptionChange.ts</text>
</a>
</g>
</g>
<!-- src/options/optionsStorageApi.ts&#45;&gt;src/options/onOptionChange.ts -->
<g id="edge27" class="edge">
<title>src/options/optionsStorageApi.ts&#45;&gt;src/options/onOptionChange.ts</title>
<path fill="none" stroke="#000000" stroke-width="2" stroke-opacity="0.200000" d="M223.589,-349C231.1229,-349 238.9163,-349 246.526,-349"/>
<polygon fill="#000000" fill-opacity="0.200000" stroke="#000000" stroke-width="2" stroke-opacity="0.200000" points="246.8652,-351.1001 252.8651,-349 246.8651,-346.9001 246.8652,-351.1001"/>
</g>
<!-- src/solid&#45;client&#45;authn&#45;chrome&#45;ext/ChromeExtensionLogoutHandler.ts -->
<g id="node18" class="node">
<title>src/solid&#45;client&#45;authn&#45;chrome&#45;ext/ChromeExtensionLogoutHandler.ts</title>
<g id="a_node18"><a xlink:href="src/solid-client-authn-chrome-ext/ChromeExtensionLogoutHandler.ts" xlink:title="ChromeExtensionLogoutHandler.ts">
<path fill="#ddfeff" stroke="#000000" d="M1004,-74C1004,-74 855,-74 855,-74 852,-74 849,-71 849,-68 849,-68 849,-62 849,-62 849,-59 852,-56 855,-56 855,-56 1004,-56 1004,-56 1007,-56 1010,-59 1010,-62 1010,-62 1010,-68 1010,-68 1010,-71 1007,-74 1004,-74"/>
<text text-anchor="start" x="857" y="-62.8" font-family="Helvetica,sans-Serif" font-size="9.00" fill="#000000">ChromeExtensionLogoutHandler.ts</text>
</a>
</g>
</g>
<!-- src/solid&#45;client&#45;authn&#45;chrome&#45;ext/chromeExtensionLogout.ts -->
<g id="node19" class="node">
<title>src/solid&#45;client&#45;authn&#45;chrome&#45;ext/chromeExtensionLogout.ts</title>
<g id="a_node19"><a xlink:href="src/solid-client-authn-chrome-ext/chromeExtensionLogout.ts" xlink:title="chromeExtensionLogout.ts">
<path fill="#ddfeff" stroke="#000000" d="M1142,-74C1142,-74 1029,-74 1029,-74 1026,-74 1023,-71 1023,-68 1023,-68 1023,-62 1023,-62 1023,-59 1026,-56 1029,-56 1029,-56 1142,-56 1142,-56 1145,-56 1148,-59 1148,-62 1148,-62 1148,-68 1148,-68 1148,-71 1145,-74 1142,-74"/>
<text text-anchor="start" x="1031" y="-62.8" font-family="Helvetica,sans-Serif" font-size="9.00" fill="#000000">chromeExtensionLogout.ts</text>
</a>
</g>
</g>
<!-- src/solid&#45;client&#45;authn&#45;chrome&#45;ext/ChromeExtensionLogoutHandler.ts&#45;&gt;src/solid&#45;client&#45;authn&#45;chrome&#45;ext/chromeExtensionLogout.ts -->
<g id="edge28" class="edge">
<title>src/solid&#45;client&#45;authn&#45;chrome&#45;ext/ChromeExtensionLogoutHandler.ts&#45;&gt;src/solid&#45;client&#45;authn&#45;chrome&#45;ext/chromeExtensionLogout.ts</title>
<path fill="none" stroke="#000000" stroke-width="2" stroke-opacity="0.200000" d="M1010.2417,-65C1012.3234,-65 1014.4024,-65 1016.473,-65"/>
<polygon fill="#000000" fill-opacity="0.200000" stroke="#000000" stroke-width="2" stroke-opacity="0.200000" points="1016.653,-67.1001 1022.653,-65 1016.6529,-62.9001 1016.653,-67.1001"/>
</g>
<!-- src/solid&#45;client&#45;authn&#45;chrome&#45;ext/launchWebAuthFlow.ts -->
<g id="node21" class="node">
<title>src/solid&#45;client&#45;authn&#45;chrome&#45;ext/launchWebAuthFlow.ts</title>
<g id="a_node21"><a xlink:href="src/solid-client-authn-chrome-ext/launchWebAuthFlow.ts" xlink:title="launchWebAuthFlow.ts">
<path fill="#ddfeff" stroke="#000000" d="M1134.5,-104C1134.5,-104 1036.5,-104 1036.5,-104 1033.5,-104 1030.5,-101 1030.5,-98 1030.5,-98 1030.5,-92 1030.5,-92 1030.5,-89 1033.5,-86 1036.5,-86 1036.5,-86 1134.5,-86 1134.5,-86 1137.5,-86 1140.5,-89 1140.5,-92 1140.5,-92 1140.5,-98 1140.5,-98 1140.5,-101 1137.5,-104 1134.5,-104"/>
<text text-anchor="start" x="1038.5" y="-92.8" font-family="Helvetica,sans-Serif" font-size="9.00" fill="#000000">launchWebAuthFlow.ts</text>
</a>
</g>
</g>
<!-- src/solid&#45;client&#45;authn&#45;chrome&#45;ext/ChromeExtensionRedirector.ts&#45;&gt;src/solid&#45;client&#45;authn&#45;chrome&#45;ext/launchWebAuthFlow.ts -->
<g id="edge29" class="edge">
<title>src/solid&#45;client&#45;authn&#45;chrome&#45;ext/ChromeExtensionRedirector.ts&#45;&gt;src/solid&#45;client&#45;authn&#45;chrome&#45;ext/launchWebAuthFlow.ts</title>
<path fill="none" stroke="#000000" stroke-width="2" stroke-opacity="0.200000" d="M1000.6524,-95C1008.4371,-95 1016.3135,-95 1023.9681,-95"/>
<polygon fill="#000000" fill-opacity="0.200000" stroke="#000000" stroke-width="2" stroke-opacity="0.200000" points="1024.3391,-97.1001 1030.339,-95 1024.339,-92.9001 1024.3391,-97.1001"/>
</g>
<!-- src/solid&#45;client&#45;authn&#45;chrome&#45;ext/getClientAuthentication.ts&#45;&gt;src/solid&#45;client&#45;authn&#45;chrome&#45;ext/ChromeExtensionLogoutHandler.ts -->
<g id="edge34" class="edge">
<title>src/solid&#45;client&#45;authn&#45;chrome&#45;ext/getClientAuthentication.ts&#45;&gt;src/solid&#45;client&#45;authn&#45;chrome&#45;ext/ChromeExtensionLogoutHandler.ts</title>
<path fill="none" stroke="#000000" stroke-width="2" stroke-opacity="0.200000" d="M836.3649,-74.6764C838.4247,-74.4624 840.5006,-74.2467 842.5864,-74.03"/>
<polygon fill="#000000" fill-opacity="0.200000" stroke="#000000" stroke-width="2" stroke-opacity="0.200000" points="843.1163,-76.0863 848.8672,-73.3774 842.6822,-71.9088 843.1163,-76.0863"/>
</g>
<!-- src/solid&#45;client&#45;authn&#45;chrome&#45;ext/getClientAuthentication.ts&#45;&gt;src/solid&#45;client&#45;authn&#45;chrome&#45;ext/ChromeExtensionRedirector.ts -->
<g id="edge35" class="edge">
<title>src/solid&#45;client&#45;authn&#45;chrome&#45;ext/getClientAuthentication.ts&#45;&gt;src/solid&#45;client&#45;authn&#45;chrome&#45;ext/ChromeExtensionRedirector.ts</title>
<path fill="none" stroke="#000000" stroke-width="2" stroke-opacity="0.200000" d="M836.3649,-86.5332C841.5617,-87.0056 846.8611,-87.4874 852.1627,-87.9693"/>
<polygon fill="#000000" fill-opacity="0.200000" stroke="#000000" stroke-width="2" stroke-opacity="0.200000" points="852.2158,-90.0827 858.3813,-88.5347 852.5961,-85.9 852.2158,-90.0827"/>
</g>
<!-- src/store/createAboutStatements.ts -->
<g id="node26" class="node">
<title>src/store/createAboutStatements.ts</title>
<g id="a_node26"><a xlink:href="src/store/createAboutStatements.ts" xlink:title="createAboutStatements.ts">
<path fill="#ddfeff" stroke="#000000" d="M984,-328C984,-328 875,-328 875,-328 872,-328 869,-325 869,-322 869,-322 869,-316 869,-316 869,-313 872,-310 875,-310 875,-310 984,-310 984,-310 987,-310 990,-313 990,-316 990,-316 990,-322 990,-322 990,-325 987,-328 984,-328"/>
<text text-anchor="start" x="877" y="-316.8" font-family="Helvetica,sans-Serif" font-size="9.00" fill="#000000">createAboutStatements.ts</text>
</a>
</g>
</g>
<!-- src/store/createRelations.ts&#45;&gt;src/store/createAboutStatements.ts -->
<g id="edge38" class="edge">
<title>src/store/createRelations.ts&#45;&gt;src/store/createAboutStatements.ts</title>
<path fill="none" stroke="#000000" stroke-width="2" stroke-opacity="0.200000" d="M820.8721,-319C833.9921,-319 848.5947,-319 862.7293,-319"/>
<polygon fill="#000000" fill-opacity="0.200000" stroke="#000000" stroke-width="2" stroke-opacity="0.200000" points="862.7526,-321.1001 868.7526,-319 862.7525,-316.9001 862.7526,-321.1001"/>
</g>
</g>
</svg>
