<?xml version="1.0" encoding="UTF-8" standalone="no"?>
<!DOCTYPE svg PUBLIC "-//W3C//DTD SVG 1.1//EN"
 "http://www.w3.org/Graphics/SVG/1.1/DTD/svg11.dtd">
<!-- Generated by graphviz version 2.40.1 (20161225.0304)
 -->
<!-- Title: dependency&#45;cruiser output Pages: 1 -->
<svg width="1538pt" height="713pt"
 viewBox="0.00 0.00 1537.50 713.33" xmlns="http://www.w3.org/2000/svg" xmlns:xlink="http://www.w3.org/1999/xlink">
<g id="graph0" class="graph" transform="scale(1 1) rotate(0) translate(4 709.3324)">
<title>dependency&#45;cruiser output</title>
<polygon fill="#ffffff" stroke="transparent" points="-4,4 -4,-709.3324 1533.5,-709.3324 1533.5,4 -4,4"/>
<g id="clust1" class="cluster">
<title>cluster_src</title>
<path fill="#ffffff" stroke="#000000" stroke-width="2" d="M20,-39.3324C20,-39.3324 1509.5,-39.3324 1509.5,-39.3324 1515.5,-39.3324 1521.5,-45.3324 1521.5,-51.3324 1521.5,-51.3324 1521.5,-685.3324 1521.5,-685.3324 1521.5,-691.3324 1515.5,-697.3324 1509.5,-697.3324 1509.5,-697.3324 20,-697.3324 20,-697.3324 14,-697.3324 8,-691.3324 8,-685.3324 8,-685.3324 8,-51.3324 8,-51.3324 8,-45.3324 14,-39.3324 20,-39.3324"/>
<text text-anchor="middle" x="764.75" y="-686.1324" font-family="Helvetica,sans-Serif" font-weight="bold" font-size="9.00" fill="#000000">src</text>
</g>
<g id="clust2" class="cluster">
<title>cluster_src/api</title>
<path fill="#ffffff" stroke="#000000" stroke-width="2" d="M724,-575.3324C724,-575.3324 1034.5,-575.3324 1034.5,-575.3324 1040.5,-575.3324 1046.5,-581.3324 1046.5,-587.3324 1046.5,-587.3324 1046.5,-659.3324 1046.5,-659.3324 1046.5,-665.3324 1040.5,-671.3324 1034.5,-671.3324 1034.5,-671.3324 724,-671.3324 724,-671.3324 718,-671.3324 712,-665.3324 712,-659.3324 712,-659.3324 712,-587.3324 712,-587.3324 712,-581.3324 718,-575.3324 724,-575.3324"/>
<text text-anchor="middle" x="879.25" y="-660.1324" font-family="Helvetica,sans-Serif" font-weight="bold" font-size="9.00" fill="#000000">api</text>
</g>
<g id="clust3" class="cluster">
<title>cluster_src/assets</title>
<path fill="#ffffff" stroke="#000000" stroke-width="2" d="M97.5,-47.3324C97.5,-47.3324 151.5,-47.3324 151.5,-47.3324 157.5,-47.3324 163.5,-53.3324 163.5,-59.3324 163.5,-59.3324 163.5,-87.3324 163.5,-87.3324 163.5,-93.3324 157.5,-99.3324 151.5,-99.3324 151.5,-99.3324 97.5,-99.3324 97.5,-99.3324 91.5,-99.3324 85.5,-93.3324 85.5,-87.3324 85.5,-87.3324 85.5,-59.3324 85.5,-59.3324 85.5,-53.3324 91.5,-47.3324 97.5,-47.3324"/>
<text text-anchor="middle" x="124.5" y="-88.1324" font-family="Helvetica,sans-Serif" font-weight="bold" font-size="9.00" fill="#000000">assets</text>
</g>
<g id="clust4" class="cluster">
<title>cluster_src/chrome</title>
<path fill="#ffffff" stroke="#000000" stroke-width="2" d="M988.5,-52.3324C988.5,-52.3324 1034.5,-52.3324 1034.5,-52.3324 1040.5,-52.3324 1046.5,-58.3324 1046.5,-64.3324 1046.5,-64.3324 1046.5,-92.3324 1046.5,-92.3324 1046.5,-98.3324 1040.5,-104.3324 1034.5,-104.3324 1034.5,-104.3324 988.5,-104.3324 988.5,-104.3324 982.5,-104.3324 976.5,-98.3324 976.5,-92.3324 976.5,-92.3324 976.5,-64.3324 976.5,-64.3324 976.5,-58.3324 982.5,-52.3324 988.5,-52.3324"/>
<text text-anchor="middle" x="1011.5" y="-93.1324" font-family="Helvetica,sans-Serif" font-weight="bold" font-size="9.00" fill="#000000">chrome</text>
</g>
<g id="clust5" class="cluster">
<title>cluster_src/components</title>
<path fill="#ffffff" stroke="#000000" stroke-width="2" d="M579,-415.3324C579,-415.3324 659,-415.3324 659,-415.3324 665,-415.3324 671,-421.3324 671,-427.3324 671,-427.3324 671,-485.3324 671,-485.3324 671,-491.3324 665,-497.3324 659,-497.3324 659,-497.3324 579,-497.3324 579,-497.3324 573,-497.3324 567,-491.3324 567,-485.3324 567,-485.3324 567,-427.3324 567,-427.3324 567,-421.3324 573,-415.3324 579,-415.3324"/>
<text text-anchor="middle" x="619" y="-486.1324" font-family="Helvetica,sans-Serif" font-weight="bold" font-size="9.00" fill="#000000">components</text>
</g>
<g id="clust6" class="cluster">
<title>cluster_src/content</title>
<path fill="#ffffff" stroke="#000000" stroke-width="2" d="M96,-147.3324C96,-147.3324 787.5,-147.3324 787.5,-147.3324 793.5,-147.3324 799.5,-153.3324 799.5,-159.3324 799.5,-159.3324 799.5,-365.3324 799.5,-365.3324 799.5,-371.3324 793.5,-377.3324 787.5,-377.3324 787.5,-377.3324 96,-377.3324 96,-377.3324 90,-377.3324 84,-371.3324 84,-365.3324 84,-365.3324 84,-159.3324 84,-159.3324 84,-153.3324 90,-147.3324 96,-147.3324"/>
<text text-anchor="middle" x="441.75" y="-366.1324" font-family="Helvetica,sans-Serif" font-weight="bold" font-size="9.00" fill="#000000">content</text>
</g>
<g id="clust7" class="cluster">
<title>cluster_src/domain</title>
<path fill="#ffffff" stroke="#000000" stroke-width="2" d="M720,-385.3324C720,-385.3324 923,-385.3324 923,-385.3324 929,-385.3324 935,-391.3324 935,-397.3324 935,-397.3324 935,-455.3324 935,-455.3324 935,-461.3324 929,-467.3324 923,-467.3324 923,-467.3324 720,-467.3324 720,-467.3324 714,-467.3324 708,-461.3324 708,-455.3324 708,-455.3324 708,-397.3324 708,-397.3324 708,-391.3324 714,-385.3324 720,-385.3324"/>
<text text-anchor="middle" x="821.5" y="-456.1324" font-family="Helvetica,sans-Serif" font-weight="bold" font-size="9.00" fill="#000000">domain</text>
</g>
<g id="clust8" class="cluster">
<title>cluster_src/options</title>
<path fill="#ffffff" stroke="#000000" stroke-width="2" d="M703.5,-57.3324C703.5,-57.3324 927.5,-57.3324 927.5,-57.3324 933.5,-57.3324 939.5,-63.3324 939.5,-69.3324 939.5,-69.3324 939.5,-127.3324 939.5,-127.3324 939.5,-133.3324 933.5,-139.3324 927.5,-139.3324 927.5,-139.3324 703.5,-139.3324 703.5,-139.3324 697.5,-139.3324 691.5,-133.3324 691.5,-127.3324 691.5,-127.3324 691.5,-69.3324 691.5,-69.3324 691.5,-63.3324 697.5,-57.3324 703.5,-57.3324"/>
<text text-anchor="middle" x="815.5" y="-128.1324" font-family="Helvetica,sans-Serif" font-weight="bold" font-size="9.00" fill="#000000">options</text>
</g>
<g id="clust9" class="cluster">
<title>cluster_src/solid&#45;client&#45;authn&#45;chrome&#45;ext</title>
<path fill="#ffffff" stroke="#000000" stroke-width="2" d="M986,-112.3324C986,-112.3324 1501.5,-112.3324 1501.5,-112.3324 1507.5,-112.3324 1513.5,-118.3324 1513.5,-124.3324 1513.5,-124.3324 1513.5,-196.3324 1513.5,-196.3324 1513.5,-202.3324 1507.5,-208.3324 1501.5,-208.3324 1501.5,-208.3324 986,-208.3324 986,-208.3324 980,-208.3324 974,-202.3324 974,-196.3324 974,-196.3324 974,-124.3324 974,-124.3324 974,-118.3324 980,-112.3324 986,-112.3324"/>
<text text-anchor="middle" x="1243.75" y="-197.1324" font-family="Helvetica,sans-Serif" font-weight="bold" font-size="9.00" fill="#000000">solid&#45;client&#45;authn&#45;chrome&#45;ext</text>
</g>
<g id="clust10" class="cluster">
<title>cluster_src/store</title>
<path fill="#ffffff" stroke="#000000" stroke-width="2" d="M860.5,-485.3324C860.5,-485.3324 1186.5,-485.3324 1186.5,-485.3324 1192.5,-485.3324 1198.5,-491.3324 1198.5,-497.3324 1198.5,-497.3324 1198.5,-555.3324 1198.5,-555.3324 1198.5,-561.3324 1192.5,-567.3324 1186.5,-567.3324 1186.5,-567.3324 860.5,-567.3324 860.5,-567.3324 854.5,-567.3324 848.5,-561.3324 848.5,-555.3324 848.5,-555.3324 848.5,-497.3324 848.5,-497.3324 848.5,-491.3324 854.5,-485.3324 860.5,-485.3324"/>
<text text-anchor="middle" x="1023.5" y="-556.1324" font-family="Helvetica,sans-Serif" font-weight="bold" font-size="9.00" fill="#000000">store</text>
</g>
<!-- events -->
<g id="node1" class="node">
<title>events</title>
<g id="a_node1"><a xlink:title="events">
<path fill="#ffffcc" stroke="#c0c0c0" d="M1151,-31.3324C1151,-31.3324 1109,-31.3324 1109,-31.3324 1106,-31.3324 1103,-28.3324 1103,-25.3324 1103,-25.3324 1103,-19.3324 1103,-19.3324 1103,-16.3324 1106,-13.3324 1109,-13.3324 1109,-13.3324 1151,-13.3324 1151,-13.3324 1154,-13.3324 1157,-16.3324 1157,-19.3324 1157,-19.3324 1157,-25.3324 1157,-25.3324 1157,-28.3324 1154,-31.3324 1151,-31.3324"/>
<text text-anchor="middle" x="1130" y="-20.1324" font-family="Helvetica,sans-Serif" font-size="9.00" fill="#c0c0c0">events</text>
</a>
</g>
</g>
<!-- src/api/SolidApi.ts -->
<g id="node2" class="node">
<title>src/api/SolidApi.ts</title>
<g id="a_node2"><a xlink:href="src/api/SolidApi.ts" xlink:title="SolidApi.ts">
<path fill="#ddfeff" stroke="#000000" d="M774,-601.3324C774,-601.3324 726,-601.3324 726,-601.3324 723,-601.3324 720,-598.3324 720,-595.3324 720,-595.3324 720,-589.3324 720,-589.3324 720,-586.3324 723,-583.3324 726,-583.3324 726,-583.3324 774,-583.3324 774,-583.3324 777,-583.3324 780,-586.3324 780,-589.3324 780,-589.3324 780,-595.3324 780,-595.3324 780,-598.3324 777,-601.3324 774,-601.3324"/>
<text text-anchor="start" x="728" y="-590.1324" font-family="Helvetica,sans-Serif" font-size="9.00" fill="#000000">SolidApi.ts</text>
</a>
</g>
</g>
<!-- src/domain/Bookmark.ts -->
<g id="node3" class="node">
<title>src/domain/Bookmark.ts</title>
<g id="a_node3"><a xlink:href="src/domain/Bookmark.ts" xlink:title="Bookmark.ts">
<path fill="#ddfeff" stroke="#000000" d="M911,-441.3324C911,-441.3324 856,-441.3324 856,-441.3324 853,-441.3324 850,-438.3324 850,-435.3324 850,-435.3324 850,-429.3324 850,-429.3324 850,-426.3324 853,-423.3324 856,-423.3324 856,-423.3324 911,-423.3324 911,-423.3324 914,-423.3324 917,-426.3324 917,-429.3324 917,-429.3324 917,-435.3324 917,-435.3324 917,-438.3324 914,-441.3324 911,-441.3324"/>
<text text-anchor="start" x="858" y="-430.1324" font-family="Helvetica,sans-Serif" font-size="9.00" fill="#000000">Bookmark.ts</text>
</a>
</g>
</g>
<!-- src/api/SolidApi.ts&#45;&gt;src/domain/Bookmark.ts -->
<g id="edge1" class="edge">
<title>src/api/SolidApi.ts&#45;&gt;src/domain/Bookmark.ts</title>
<path fill="none" stroke="#000000" stroke-width="2" stroke-opacity="0.200000" d="M752.8637,-583.1332C759.9927,-561.4785 780.3836,-506.5409 813.5,-472.3324 825.0853,-460.3651 841.0255,-450.8805 854.7685,-444.1563"/>
<polygon fill="#000000" fill-opacity="0.200000" stroke="#000000" stroke-width="2" stroke-opacity="0.200000" points="855.978,-445.9074 860.5047,-441.4443 854.1828,-442.1103 855.978,-445.9074"/>
</g>
<!-- src/domain/PageMetaData.ts -->
<g id="node4" class="node">
<title>src/domain/PageMetaData.ts</title>
<g id="a_node4"><a xlink:href="src/domain/PageMetaData.ts" xlink:title="PageMetaData.ts">
<path fill="#ddfeff" stroke="#000000" d="M921,-411.3324C921,-411.3324 846,-411.3324 846,-411.3324 843,-411.3324 840,-408.3324 840,-405.3324 840,-405.3324 840,-399.3324 840,-399.3324 840,-396.3324 843,-393.3324 846,-393.3324 846,-393.3324 921,-393.3324 921,-393.3324 924,-393.3324 927,-396.3324 927,-399.3324 927,-399.3324 927,-405.3324 927,-405.3324 927,-408.3324 924,-411.3324 921,-411.3324"/>
<text text-anchor="start" x="848" y="-400.1324" font-family="Helvetica,sans-Serif" font-size="9.00" fill="#000000">PageMetaData.ts</text>
</a>
</g>
</g>
<!-- src/api/SolidApi.ts&#45;&gt;src/domain/PageMetaData.ts -->
<g id="edge2" class="edge">
<title>src/api/SolidApi.ts&#45;&gt;src/domain/PageMetaData.ts</title>
<path fill="none" stroke="#000000" stroke-width="2" stroke-opacity="0.200000" d="M754.2842,-583.3286C763.6622,-563.3576 786.302,-513.6842 800.5,-470.3324 808.0488,-447.2833 796.0994,-434.2281 813.5,-417.3324 819.1845,-411.8129 826.3787,-408.1122 833.9782,-405.6667"/>
<polygon fill="#000000" fill-opacity="0.200000" stroke="#000000" stroke-width="2" stroke-opacity="0.200000" points="834.6334,-407.6642 839.8504,-404.0319 833.5069,-403.6181 834.6334,-407.6642"/>
</g>
<!-- src/solid&#45;client&#45;authn&#45;chrome&#45;ext/Session.ts -->
<g id="node5" class="node">
<title>src/solid&#45;client&#45;authn&#45;chrome&#45;ext/Session.ts</title>
<g id="a_node5"><a xlink:href="src/solid-client-authn-chrome-ext/Session.ts" xlink:title="Session.ts">
<path fill="#ddfeff" stroke="#000000" d="M1035,-153.3324C1035,-153.3324 988,-153.3324 988,-153.3324 985,-153.3324 982,-150.3324 982,-147.3324 982,-147.3324 982,-141.3324 982,-141.3324 982,-138.3324 985,-135.3324 988,-135.3324 988,-135.3324 1035,-135.3324 1035,-135.3324 1038,-135.3324 1041,-138.3324 1041,-141.3324 1041,-141.3324 1041,-147.3324 1041,-147.3324 1041,-150.3324 1038,-153.3324 1035,-153.3324"/>
<text text-anchor="start" x="990" y="-142.1324" font-family="Helvetica,sans-Serif" font-size="9.00" fill="#000000">Session.ts</text>
</a>
</g>
</g>
<!-- src/api/SolidApi.ts&#45;&gt;src/solid&#45;client&#45;authn&#45;chrome&#45;ext/Session.ts -->
<g id="edge3" class="edge">
<title>src/api/SolidApi.ts&#45;&gt;src/solid&#45;client&#45;authn&#45;chrome&#45;ext/Session.ts</title>
<path fill="none" stroke="#000000" stroke-width="2" stroke-opacity="0.200000" d="M752.1811,-583.2287C757.9307,-561.4458 775.7266,-506.3515 813.5,-482.3324 839.8493,-465.5776 930.4436,-491.3898 953.5,-470.3324 1000.094,-427.7781 1009.4275,-218.4593 1011.141,-159.6978"/>
<polygon fill="#000000" fill-opacity="0.200000" stroke="#000000" stroke-width="2" stroke-opacity="0.200000" points="1013.2431,-159.6478 1011.3069,-153.5929 1009.0446,-159.5337 1013.2431,-159.6478"/>
</g>
<!-- src/store/Store.ts -->
<g id="node6" class="node">
<title>src/store/Store.ts</title>
<g id="a_node6"><a xlink:href="src/store/Store.ts" xlink:title="Store.ts">
<path fill="#ddfeff" stroke="#000000" d="M904.5,-541.3324C904.5,-541.3324 862.5,-541.3324 862.5,-541.3324 859.5,-541.3324 856.5,-538.3324 856.5,-535.3324 856.5,-535.3324 856.5,-529.3324 856.5,-529.3324 856.5,-526.3324 859.5,-523.3324 862.5,-523.3324 862.5,-523.3324 904.5,-523.3324 904.5,-523.3324 907.5,-523.3324 910.5,-526.3324 910.5,-529.3324 910.5,-529.3324 910.5,-535.3324 910.5,-535.3324 910.5,-538.3324 907.5,-541.3324 904.5,-541.3324"/>
<text text-anchor="start" x="868" y="-530.1324" font-family="Helvetica,sans-Serif" font-size="9.00" fill="#000000">Store.ts</text>
</a>
</g>
</g>
<!-- src/api/SolidApi.ts&#45;&gt;src/store/Store.ts -->
<g id="edge4" class="edge">
<title>src/api/SolidApi.ts&#45;&gt;src/store/Store.ts</title>
<path fill="none" stroke="#000000" stroke-width="2" stroke-opacity="0.200000" d="M770.2758,-583.2197C793.7391,-572.6744 832.4116,-555.2935 857.9211,-543.8286"/>
<polygon fill="#000000" fill-opacity="0.200000" stroke="#000000" stroke-width="2" stroke-opacity="0.200000" points="858.859,-545.7094 863.4708,-541.3343 857.1373,-541.8785 858.859,-545.7094"/>
</g>
<!-- src/api/generateDatePathForToday.ts -->
<g id="node7" class="node">
<title>src/api/generateDatePathForToday.ts</title>
<g id="a_node7"><a xlink:href="src/api/generateDatePathForToday.ts" xlink:title="generateDatePathForToday.ts">
<path fill="#ddfeff" stroke="#000000" d="M947.5,-601.3324C947.5,-601.3324 819.5,-601.3324 819.5,-601.3324 816.5,-601.3324 813.5,-598.3324 813.5,-595.3324 813.5,-595.3324 813.5,-589.3324 813.5,-589.3324 813.5,-586.3324 816.5,-583.3324 819.5,-583.3324 819.5,-583.3324 947.5,-583.3324 947.5,-583.3324 950.5,-583.3324 953.5,-586.3324 953.5,-589.3324 953.5,-589.3324 953.5,-595.3324 953.5,-595.3324 953.5,-598.3324 950.5,-601.3324 947.5,-601.3324"/>
<text text-anchor="start" x="821.5" y="-590.1324" font-family="Helvetica,sans-Serif" font-size="9.00" fill="#000000">generateDatePathForToday.ts</text>
</a>
</g>
</g>
<!-- src/api/SolidApi.ts&#45;&gt;src/api/generateDatePathForToday.ts -->
<g id="edge5" class="edge">
<title>src/api/SolidApi.ts&#45;&gt;src/api/generateDatePathForToday.ts</title>
<path fill="none" stroke="#000000" stroke-width="2" stroke-opacity="0.200000" d="M780.2932,-592.3324C788.434,-592.3324 797.6183,-592.3324 807.0671,-592.3324"/>
<polygon fill="#000000" fill-opacity="0.200000" stroke="#000000" stroke-width="2" stroke-opacity="0.200000" points="807.3062,-594.4325 813.3062,-592.3324 807.3062,-590.2325 807.3062,-594.4325"/>
</g>
<!-- src/api/generateUuid.ts -->
<g id="node8" class="node">
<title>src/api/generateUuid.ts</title>
<g id="a_node8"><a xlink:href="src/api/generateUuid.ts" xlink:title="generateUuid.ts">
<path fill="#ddfeff" stroke="#000000" d="M918.5,-631.3324C918.5,-631.3324 848.5,-631.3324 848.5,-631.3324 845.5,-631.3324 842.5,-628.3324 842.5,-625.3324 842.5,-625.3324 842.5,-619.3324 842.5,-619.3324 842.5,-616.3324 845.5,-613.3324 848.5,-613.3324 848.5,-613.3324 918.5,-613.3324 918.5,-613.3324 921.5,-613.3324 924.5,-616.3324 924.5,-619.3324 924.5,-619.3324 924.5,-625.3324 924.5,-625.3324 924.5,-628.3324 921.5,-631.3324 918.5,-631.3324"/>
<text text-anchor="start" x="850.5" y="-620.1324" font-family="Helvetica,sans-Serif" font-size="9.00" fill="#000000">generateUuid.ts</text>
</a>
</g>
</g>
<!-- src/api/SolidApi.ts&#45;&gt;src/api/generateUuid.ts -->
<g id="edge6" class="edge">
<title>src/api/SolidApi.ts&#45;&gt;src/api/generateUuid.ts</title>
<path fill="none" stroke="#000000" stroke-width="2" stroke-opacity="0.200000" d="M780.0109,-599.5573C790.5844,-602.0668 802.5596,-604.8683 813.5,-607.3324 820.7939,-608.9752 828.5252,-610.6742 836.0855,-612.3123"/>
<polygon fill="#000000" fill-opacity="0.200000" stroke="#000000" stroke-width="2" stroke-opacity="0.200000" points="836.0745,-614.4582 842.3826,-613.6714 836.9607,-610.3527 836.0745,-614.4582"/>
</g>
<!-- src/api/now.ts -->
<g id="node9" class="node">
<title>src/api/now.ts</title>
<g id="a_node9"><a xlink:href="src/api/now.ts" xlink:title="now.ts">
<path fill="#ddfeff" stroke="#000000" d="M1032.5,-623.3324C1032.5,-623.3324 990.5,-623.3324 990.5,-623.3324 987.5,-623.3324 984.5,-620.3324 984.5,-617.3324 984.5,-617.3324 984.5,-611.3324 984.5,-611.3324 984.5,-608.3324 987.5,-605.3324 990.5,-605.3324 990.5,-605.3324 1032.5,-605.3324 1032.5,-605.3324 1035.5,-605.3324 1038.5,-608.3324 1038.5,-611.3324 1038.5,-611.3324 1038.5,-617.3324 1038.5,-617.3324 1038.5,-620.3324 1035.5,-623.3324 1032.5,-623.3324"/>
<text text-anchor="start" x="998" y="-612.1324" font-family="Helvetica,sans-Serif" font-size="9.00" fill="#000000">now.ts</text>
</a>
</g>
</g>
<!-- src/api/SolidApi.ts&#45;&gt;src/api/now.ts -->
<g id="edge7" class="edge">
<title>src/api/SolidApi.ts&#45;&gt;src/api/now.ts</title>
<path fill="none" stroke="#000000" stroke-width="2" stroke-opacity="0.200000" d="M758.871,-601.4103C770.3025,-612.3914 791.3551,-630.2813 813.5,-637.3324 872.7893,-656.2106 892.383,-649.0082 953.5,-637.3324 965.3501,-635.0686 977.8673,-630.4212 988.2281,-625.8927"/>
<polygon fill="#000000" fill-opacity="0.200000" stroke="#000000" stroke-width="2" stroke-opacity="0.200000" points="989.1381,-627.7861 993.7443,-623.405 987.4115,-623.9574 989.1381,-627.7861"/>
</g>
<!-- src/solid&#45;client&#45;authn&#45;chrome&#45;ext/Session.ts&#45;&gt;events -->
<g id="edge72" class="edge">
<title>src/solid&#45;client&#45;authn&#45;chrome&#45;ext/Session.ts&#45;&gt;events</title>
<path fill="none" stroke="#000000" stroke-dasharray="5,2" stroke-opacity="0.200000" d="M1023.8166,-135.1229C1033.1392,-127.9382 1046.0743,-117.5025 1056.5,-107.3324 1080.4194,-83.9995 1105.2338,-53.8388 1119.038,-36.4319"/>
<polygon fill="#000000" fill-opacity="0.200000" stroke="#000000" stroke-opacity="0.200000" points="1120.8911,-37.4732 1122.9554,-31.4608 1117.5922,-34.8736 1120.8911,-37.4732"/>
</g>
<!-- src/solid&#45;client&#45;authn&#45;chrome&#45;ext/ChromeExtensionRedirector.ts -->
<g id="node40" class="node">
<title>src/solid&#45;client&#45;authn&#45;chrome&#45;ext/ChromeExtensionRedirector.ts</title>
<g id="a_node40"><a xlink:href="src/solid-client-authn-chrome-ext/ChromeExtensionRedirector.ts" xlink:title="ChromeExtensionRedirector.ts">
<path fill="#ddfeff" stroke="#000000" d="M1352,-182.3324C1352,-182.3324 1222,-182.3324 1222,-182.3324 1219,-182.3324 1216,-179.3324 1216,-176.3324 1216,-176.3324 1216,-170.3324 1216,-170.3324 1216,-167.3324 1219,-164.3324 1222,-164.3324 1222,-164.3324 1352,-164.3324 1352,-164.3324 1355,-164.3324 1358,-167.3324 1358,-170.3324 1358,-170.3324 1358,-176.3324 1358,-176.3324 1358,-179.3324 1355,-182.3324 1352,-182.3324"/>
<text text-anchor="start" x="1224" y="-171.1324" font-family="Helvetica,sans-Serif" font-size="9.00" fill="#000000">ChromeExtensionRedirector.ts</text>
</a>
</g>
</g>
<!-- src/solid&#45;client&#45;authn&#45;chrome&#45;ext/Session.ts&#45;&gt;src/solid&#45;client&#45;authn&#45;chrome&#45;ext/ChromeExtensionRedirector.ts -->
<g id="edge69" class="edge">
<title>src/solid&#45;client&#45;authn&#45;chrome&#45;ext/Session.ts&#45;&gt;src/solid&#45;client&#45;authn&#45;chrome&#45;ext/ChromeExtensionRedirector.ts</title>
<path fill="none" stroke="#000000" stroke-width="2" stroke-opacity="0.200000" d="M1024.5986,-153.4355C1035.9042,-160.7035 1052.977,-170.3122 1069.5,-174.3324 1115.1365,-185.4363 1167.7714,-185.514 1209.8307,-182.6588"/>
<polygon fill="#000000" fill-opacity="0.200000" stroke="#000000" stroke-width="2" stroke-opacity="0.200000" points="1210.1238,-184.7432 1215.9573,-182.2173 1209.8218,-180.5541 1210.1238,-184.7432"/>
</g>
<!-- src/solid&#45;client&#45;authn&#45;chrome&#45;ext/getClientAuthentication.ts -->
<g id="node42" class="node">
<title>src/solid&#45;client&#45;authn&#45;chrome&#45;ext/getClientAuthentication.ts</title>
<g id="a_node42"><a xlink:href="src/solid-client-authn-chrome-ext/getClientAuthentication.ts" xlink:title="getClientAuthentication.ts">
<path fill="#ddfeff" stroke="#000000" d="M1184.5,-168.3324C1184.5,-168.3324 1075.5,-168.3324 1075.5,-168.3324 1072.5,-168.3324 1069.5,-165.3324 1069.5,-162.3324 1069.5,-162.3324 1069.5,-156.3324 1069.5,-156.3324 1069.5,-153.3324 1072.5,-150.3324 1075.5,-150.3324 1075.5,-150.3324 1184.5,-150.3324 1184.5,-150.3324 1187.5,-150.3324 1190.5,-153.3324 1190.5,-156.3324 1190.5,-156.3324 1190.5,-162.3324 1190.5,-162.3324 1190.5,-165.3324 1187.5,-168.3324 1184.5,-168.3324"/>
<text text-anchor="start" x="1077.5" y="-157.1324" font-family="Helvetica,sans-Serif" font-size="9.00" fill="#000000">getClientAuthentication.ts</text>
</a>
</g>
</g>
<!-- src/solid&#45;client&#45;authn&#45;chrome&#45;ext/Session.ts&#45;&gt;src/solid&#45;client&#45;authn&#45;chrome&#45;ext/getClientAuthentication.ts -->
<g id="edge70" class="edge">
<title>src/solid&#45;client&#45;authn&#45;chrome&#45;ext/Session.ts&#45;&gt;src/solid&#45;client&#45;authn&#45;chrome&#45;ext/getClientAuthentication.ts</title>
<path fill="none" stroke="#000000" stroke-width="2" stroke-opacity="0.200000" d="M1041.0969,-148.0789C1047.98,-148.9501 1055.5824,-149.9125 1063.3574,-150.8966"/>
<polygon fill="#000000" fill-opacity="0.200000" stroke="#000000" stroke-width="2" stroke-opacity="0.200000" points="1063.1113,-152.9822 1069.3275,-151.6524 1063.6388,-148.8154 1063.1113,-152.9822"/>
</g>
<!-- src/solid&#45;client&#45;authn&#45;chrome&#45;ext/time.ts -->
<g id="node43" class="node">
<title>src/solid&#45;client&#45;authn&#45;chrome&#45;ext/time.ts</title>
<g id="a_node43"><a xlink:href="src/solid-client-authn-chrome-ext/time.ts" xlink:title="time.ts">
<path fill="#ddfeff" stroke="#000000" d="M1151,-138.3324C1151,-138.3324 1109,-138.3324 1109,-138.3324 1106,-138.3324 1103,-135.3324 1103,-132.3324 1103,-132.3324 1103,-126.3324 1103,-126.3324 1103,-123.3324 1106,-120.3324 1109,-120.3324 1109,-120.3324 1151,-120.3324 1151,-120.3324 1154,-120.3324 1157,-123.3324 1157,-126.3324 1157,-126.3324 1157,-132.3324 1157,-132.3324 1157,-135.3324 1154,-138.3324 1151,-138.3324"/>
<text text-anchor="start" x="1116.5" y="-127.1324" font-family="Helvetica,sans-Serif" font-size="9.00" fill="#000000">time.ts</text>
</a>
</g>
</g>
<!-- src/solid&#45;client&#45;authn&#45;chrome&#45;ext/Session.ts&#45;&gt;src/solid&#45;client&#45;authn&#45;chrome&#45;ext/time.ts -->
<g id="edge71" class="edge">
<title>src/solid&#45;client&#45;authn&#45;chrome&#45;ext/Session.ts&#45;&gt;src/solid&#45;client&#45;authn&#45;chrome&#45;ext/time.ts</title>
<path fill="none" stroke="#000000" stroke-width="2" stroke-opacity="0.200000" d="M1041.0969,-140.586C1057.9479,-138.4529 1079.1106,-135.7741 1096.5606,-133.5653"/>
<polygon fill="#000000" fill-opacity="0.200000" stroke="#000000" stroke-width="2" stroke-opacity="0.200000" points="1097.118,-135.6115 1102.8067,-132.7746 1096.5905,-131.4448 1097.118,-135.6115"/>
</g>
<!-- src/store/createRelations.ts -->
<g id="node44" class="node">
<title>src/store/createRelations.ts</title>
<g id="a_node44"><a xlink:href="src/store/createRelations.ts" xlink:title="createRelations.ts">
<path fill="#ddfeff" stroke="#000000" d="M1050.5,-511.3324C1050.5,-511.3324 972.5,-511.3324 972.5,-511.3324 969.5,-511.3324 966.5,-508.3324 966.5,-505.3324 966.5,-505.3324 966.5,-499.3324 966.5,-499.3324 966.5,-496.3324 969.5,-493.3324 972.5,-493.3324 972.5,-493.3324 1050.5,-493.3324 1050.5,-493.3324 1053.5,-493.3324 1056.5,-496.3324 1056.5,-499.3324 1056.5,-499.3324 1056.5,-505.3324 1056.5,-505.3324 1056.5,-508.3324 1053.5,-511.3324 1050.5,-511.3324"/>
<text text-anchor="start" x="974.5" y="-500.1324" font-family="Helvetica,sans-Serif" font-size="9.00" fill="#000000">createRelations.ts</text>
</a>
</g>
</g>
<!-- src/store/Store.ts&#45;&gt;src/store/createRelations.ts -->
<g id="edge75" class="edge">
<title>src/store/Store.ts&#45;&gt;src/store/createRelations.ts</title>
<path fill="none" stroke="#000000" stroke-width="2" stroke-opacity="0.200000" d="M910.6455,-525.9702C926.8648,-522.1688 947.8745,-517.2446 966.5166,-512.8754"/>
<polygon fill="#000000" fill-opacity="0.200000" stroke="#000000" stroke-width="2" stroke-opacity="0.200000" points="967.3751,-514.8312 972.7376,-511.4174 966.4166,-510.742 967.3751,-514.8312"/>
</g>
<!-- src/store/importToStore.ts -->
<g id="node45" class="node">
<title>src/store/importToStore.ts</title>
<g id="a_node45"><a xlink:href="src/store/importToStore.ts" xlink:title="importToStore.ts">
<path fill="#ddfeff" stroke="#000000" d="M1047,-541.3324C1047,-541.3324 976,-541.3324 976,-541.3324 973,-541.3324 970,-538.3324 970,-535.3324 970,-535.3324 970,-529.3324 970,-529.3324 970,-526.3324 973,-523.3324 976,-523.3324 976,-523.3324 1047,-523.3324 1047,-523.3324 1050,-523.3324 1053,-526.3324 1053,-529.3324 1053,-529.3324 1053,-535.3324 1053,-535.3324 1053,-538.3324 1050,-541.3324 1047,-541.3324"/>
<text text-anchor="start" x="978" y="-530.1324" font-family="Helvetica,sans-Serif" font-size="9.00" fill="#000000">importToStore.ts</text>
</a>
</g>
</g>
<!-- src/store/Store.ts&#45;&gt;src/store/importToStore.ts -->
<g id="edge76" class="edge">
<title>src/store/Store.ts&#45;&gt;src/store/importToStore.ts</title>
<path fill="none" stroke="#000000" stroke-width="2" stroke-opacity="0.200000" d="M910.6455,-532.3324C926.0736,-532.3324 945.8362,-532.3324 963.7724,-532.3324"/>
<polygon fill="#000000" fill-opacity="0.200000" stroke="#000000" stroke-width="2" stroke-opacity="0.200000" points="963.7762,-534.4325 969.7762,-532.3324 963.7762,-530.2325 963.7762,-534.4325"/>
</g>
<!-- src/api/generateDatePathForToday.ts&#45;&gt;src/api/now.ts -->
<g id="edge8" class="edge">
<title>src/api/generateDatePathForToday.ts&#45;&gt;src/api/now.ts</title>
<path fill="none" stroke="#000000" stroke-width="2" stroke-opacity="0.200000" d="M935.9318,-601.3441C950.1715,-603.7916 965.2015,-606.3749 978.0744,-608.5874"/>
<polygon fill="#000000" fill-opacity="0.200000" stroke="#000000" stroke-width="2" stroke-opacity="0.200000" points="977.9385,-610.6948 984.2076,-609.6415 978.65,-606.5555 977.9385,-610.6948"/>
</g>
<!-- src/assets/content.css -->
<g id="node10" class="node">
<title>src/assets/content.css</title>
<g id="a_node10"><a xlink:href="src/assets/content.css" xlink:title="content.css">
<path fill="#ffffcc" stroke="#000000" d="M149.5,-73.3324C149.5,-73.3324 99.5,-73.3324 99.5,-73.3324 96.5,-73.3324 93.5,-70.3324 93.5,-67.3324 93.5,-67.3324 93.5,-61.3324 93.5,-61.3324 93.5,-58.3324 96.5,-55.3324 99.5,-55.3324 99.5,-55.3324 149.5,-55.3324 149.5,-55.3324 152.5,-55.3324 155.5,-58.3324 155.5,-61.3324 155.5,-61.3324 155.5,-67.3324 155.5,-67.3324 155.5,-70.3324 152.5,-73.3324 149.5,-73.3324"/>
<text text-anchor="start" x="101.5" y="-62.1324" font-family="Helvetica,sans-Serif" font-size="9.00" fill="#000000">content.css</text>
</a>
</g>
</g>
<!-- src/chrome/urls.ts -->
<g id="node11" class="node">
<title>src/chrome/urls.ts</title>
<g id="a_node11"><a xlink:href="src/chrome/urls.ts" xlink:title="urls.ts">
<path fill="#ddfeff" stroke="#000000" d="M1032.5,-78.3324C1032.5,-78.3324 990.5,-78.3324 990.5,-78.3324 987.5,-78.3324 984.5,-75.3324 984.5,-72.3324 984.5,-72.3324 984.5,-66.3324 984.5,-66.3324 984.5,-63.3324 987.5,-60.3324 990.5,-60.3324 990.5,-60.3324 1032.5,-60.3324 1032.5,-60.3324 1035.5,-60.3324 1038.5,-63.3324 1038.5,-66.3324 1038.5,-66.3324 1038.5,-72.3324 1038.5,-72.3324 1038.5,-75.3324 1035.5,-78.3324 1032.5,-78.3324"/>
<text text-anchor="start" x="999" y="-67.1324" font-family="Helvetica,sans-Serif" font-size="9.00" fill="#000000">urls.ts</text>
</a>
</g>
</g>
<!-- src/components/Button.tsx -->
<g id="node12" class="node">
<title>src/components/Button.tsx</title>
<g id="a_node12"><a xlink:href="src/components/Button.tsx" xlink:title="Button.tsx">
<path fill="#bbfeff" stroke="#000000" d="M641,-471.3324C641,-471.3324 597,-471.3324 597,-471.3324 594,-471.3324 591,-468.3324 591,-465.3324 591,-465.3324 591,-459.3324 591,-459.3324 591,-456.3324 594,-453.3324 597,-453.3324 597,-453.3324 641,-453.3324 641,-453.3324 644,-453.3324 647,-456.3324 647,-459.3324 647,-459.3324 647,-465.3324 647,-465.3324 647,-468.3324 644,-471.3324 641,-471.3324"/>
<text text-anchor="start" x="599" y="-460.1324" font-family="Helvetica,sans-Serif" font-size="9.00" fill="#000000">Button.tsx</text>
</a>
</g>
</g>
<!-- src/components/ErrorMessage.tsx -->
<g id="node13" class="node">
<title>src/components/ErrorMessage.tsx</title>
<g id="a_node13"><a xlink:href="src/components/ErrorMessage.tsx" xlink:title="ErrorMessage.tsx">
<path fill="#bbfeff" stroke="#000000" d="M657,-441.3324C657,-441.3324 581,-441.3324 581,-441.3324 578,-441.3324 575,-438.3324 575,-435.3324 575,-435.3324 575,-429.3324 575,-429.3324 575,-426.3324 578,-423.3324 581,-423.3324 581,-423.3324 657,-423.3324 657,-423.3324 660,-423.3324 663,-426.3324 663,-429.3324 663,-429.3324 663,-435.3324 663,-435.3324 663,-438.3324 660,-441.3324 657,-441.3324"/>
<text text-anchor="start" x="583" y="-430.1324" font-family="Helvetica,sans-Serif" font-size="9.00" fill="#000000">ErrorMessage.tsx</text>
</a>
</g>
</g>
<!-- src/content.tsx -->
<g id="node14" class="node">
<title>src/content.tsx</title>
<g id="a_node14"><a xlink:href="src/content.tsx" xlink:title="content.tsx">
<path fill="#bbfeff" stroke="#000000" d="M70,-144.3324C70,-144.3324 22,-144.3324 22,-144.3324 19,-144.3324 16,-141.3324 16,-138.3324 16,-138.3324 16,-132.3324 16,-132.3324 16,-129.3324 19,-126.3324 22,-126.3324 22,-126.3324 70,-126.3324 70,-126.3324 73,-126.3324 76,-129.3324 76,-132.3324 76,-132.3324 76,-138.3324 76,-138.3324 76,-141.3324 73,-144.3324 70,-144.3324"/>
<text text-anchor="start" x="24" y="-133.1324" font-family="Helvetica,sans-Serif" font-size="9.00" fill="#000000">content.tsx</text>
</a>
</g>
</g>
<!-- src/content.tsx&#45;&gt;src/assets/content.css -->
<g id="edge9" class="edge">
<title>src/content.tsx&#45;&gt;src/assets/content.css</title>
<path fill="none" stroke="#000000" stroke-width="2" stroke-opacity="0.200000" d="M49.6851,-126.0752C55.2391,-113.2826 66.9506,-90.3122 84,-77.3324 85.2339,-76.3931 86.5379,-75.5203 87.8921,-74.7096"/>
<polygon fill="#000000" fill-opacity="0.200000" stroke="#000000" stroke-width="2" stroke-opacity="0.200000" points="88.9721,-76.515 93.3231,-71.8804 87.0316,-72.7901 88.9721,-76.515"/>
</g>
<!-- src/content.tsx&#45;&gt;src/chrome/urls.ts -->
<g id="edge10" class="edge">
<title>src/content.tsx&#45;&gt;src/chrome/urls.ts</title>
<path fill="none" stroke="#000000" stroke-width="2" stroke-opacity="0.200000" d="M76.1954,-126.9755C78.8245,-126.3728 81.4528,-125.8139 84,-125.3324 351.107,-74.8388 420.1221,-70.1369 691.5,-54.3324 807.7475,-47.5624 837.9866,-39.6371 953.5,-54.3324 961.6396,-55.3679 970.2706,-57.1897 978.3171,-59.2148"/>
<polygon fill="#000000" fill-opacity="0.200000" stroke="#000000" stroke-width="2" stroke-opacity="0.200000" points="978.0021,-61.3032 984.3385,-60.7934 979.0672,-57.2404 978.0021,-61.3032"/>
</g>
<!-- src/content/authorization&#45;page/ -->
<g id="node15" class="node">
<title>src/content/authorization&#45;page/</title>
<g id="a_node15"><a xlink:href="src/content/authorization-page/" xlink:title="authorization&#45;page">
<polygon fill="#ffffcc" stroke="#000000" points="666,-203.3324 574,-203.3324 572,-201.3324 572,-185.3324 664,-185.3324 666,-187.3324 666,-203.3324"/>
<polyline fill="none" stroke="#000000" points="664,-201.3324 572,-201.3324 "/>
<polyline fill="none" stroke="#000000" points="664,-201.3324 664,-185.3324 "/>
<polyline fill="none" stroke="#000000" points="664,-201.3324 666,-203.3324 "/>
<text text-anchor="start" x="580" y="-192.1324" font-family="Helvetica,sans-Serif" font-size="9.00" fill="#000000">authorization&#45;page</text>
</a>
</g>
</g>
<!-- src/content.tsx&#45;&gt;src/content/authorization&#45;page/ -->
<g id="edge11" class="edge">
<title>src/content.tsx&#45;&gt;src/content/authorization&#45;page/</title>
<path fill="none" stroke="#000000" stroke-width="2" stroke-opacity="0.200000" d="M76.2434,-137.3571C109.7752,-139.4245 165.4763,-142.3324 213.5,-142.3324 213.5,-142.3324 213.5,-142.3324 319.5,-142.3324 418.6948,-142.3324 452.7411,-121.044 541.5,-165.3324 549.0978,-169.1235 547.1544,-175.0732 554.5,-179.3324 558.1084,-181.4247 561.9896,-183.2252 565.9937,-184.7747"/>
<polygon fill="#000000" fill-opacity="0.200000" stroke="#000000" stroke-width="2" stroke-opacity="0.200000" points="565.5738,-186.8534 571.9307,-186.8698 566.9716,-182.8927 565.5738,-186.8534"/>
</g>
<!-- src/content/ChromeMessageListener.ts -->
<g id="node16" class="node">
<title>src/content/ChromeMessageListener.ts</title>
<g id="a_node16"><a xlink:href="src/content/ChromeMessageListener.ts" xlink:title="ChromeMessageListener.ts">
<path fill="#ddfeff" stroke="#000000" d="M677.5,-173.3324C677.5,-173.3324 560.5,-173.3324 560.5,-173.3324 557.5,-173.3324 554.5,-170.3324 554.5,-167.3324 554.5,-167.3324 554.5,-161.3324 554.5,-161.3324 554.5,-158.3324 557.5,-155.3324 560.5,-155.3324 560.5,-155.3324 677.5,-155.3324 677.5,-155.3324 680.5,-155.3324 683.5,-158.3324 683.5,-161.3324 683.5,-161.3324 683.5,-167.3324 683.5,-167.3324 683.5,-170.3324 680.5,-173.3324 677.5,-173.3324"/>
<text text-anchor="start" x="562.5" y="-162.1324" font-family="Helvetica,sans-Serif" font-size="9.00" fill="#000000">ChromeMessageListener.ts</text>
</a>
</g>
</g>
<!-- src/content.tsx&#45;&gt;src/content/ChromeMessageListener.ts -->
<g id="edge12" class="edge">
<title>src/content.tsx&#45;&gt;src/content/ChromeMessageListener.ts</title>
<path fill="none" stroke="#000000" stroke-width="2" stroke-opacity="0.200000" d="M76.2434,-133.3077C109.7752,-131.2404 165.4763,-128.3324 213.5,-128.3324 213.5,-128.3324 213.5,-128.3324 319.5,-128.3324 418.2667,-128.3324 451.1252,-98.492 541.5,-138.3324 548.9767,-141.6284 547.2987,-147.4715 554.5,-151.3324 555.4344,-151.8334 556.3858,-152.3151 557.3518,-152.7783"/>
<polygon fill="#000000" fill-opacity="0.200000" stroke="#000000" stroke-width="2" stroke-opacity="0.200000" points="556.6858,-154.7783 563.0263,-155.2342 558.354,-150.9238 556.6858,-154.7783"/>
</g>
<!-- src/content/WebClip.tsx -->
<g id="node17" class="node">
<title>src/content/WebClip.tsx</title>
<g id="a_node17"><a xlink:href="src/content/WebClip.tsx" xlink:title="WebClip.tsx">
<path fill="#bbfeff" stroke="#000000" d="M151,-176.3324C151,-176.3324 98,-176.3324 98,-176.3324 95,-176.3324 92,-173.3324 92,-170.3324 92,-170.3324 92,-164.3324 92,-164.3324 92,-161.3324 95,-158.3324 98,-158.3324 98,-158.3324 151,-158.3324 151,-158.3324 154,-158.3324 157,-161.3324 157,-164.3324 157,-164.3324 157,-170.3324 157,-170.3324 157,-173.3324 154,-176.3324 151,-176.3324"/>
<text text-anchor="start" x="100" y="-165.1324" font-family="Helvetica,sans-Serif" font-size="9.00" fill="#000000">WebClip.tsx</text>
</a>
</g>
</g>
<!-- src/content.tsx&#45;&gt;src/content/WebClip.tsx -->
<g id="edge13" class="edge">
<title>src/content.tsx&#45;&gt;src/content/WebClip.tsx</title>
<path fill="none" stroke="#000000" stroke-width="2" stroke-opacity="0.200000" d="M62.7686,-144.4101C69.2934,-147.7577 76.8967,-151.4364 84,-154.3324 85.436,-154.9179 86.9089,-155.4948 88.4031,-156.0605"/>
<polygon fill="#000000" fill-opacity="0.200000" stroke="#000000" stroke-width="2" stroke-opacity="0.200000" points="87.8816,-158.1054 94.238,-158.1824 89.317,-154.1582 87.8816,-158.1054"/>
</g>
<!-- src/domain/messages.ts -->
<g id="node18" class="node">
<title>src/domain/messages.ts</title>
<g id="a_node18"><a xlink:href="src/domain/messages.ts" xlink:title="messages.ts">
<path fill="#ddfeff" stroke="#000000" d="M778,-411.3324C778,-411.3324 722,-411.3324 722,-411.3324 719,-411.3324 716,-408.3324 716,-405.3324 716,-405.3324 716,-399.3324 716,-399.3324 716,-396.3324 719,-393.3324 722,-393.3324 722,-393.3324 778,-393.3324 778,-393.3324 781,-393.3324 784,-396.3324 784,-399.3324 784,-399.3324 784,-405.3324 784,-405.3324 784,-408.3324 781,-411.3324 778,-411.3324"/>
<text text-anchor="start" x="724" y="-400.1324" font-family="Helvetica,sans-Serif" font-size="9.00" fill="#000000">messages.ts</text>
</a>
</g>
</g>
<!-- src/content.tsx&#45;&gt;src/domain/messages.ts -->
<g id="edge14" class="edge">
<title>src/content.tsx&#45;&gt;src/domain/messages.ts</title>
<path fill="none" stroke="#000000" stroke-width="2" stroke-opacity="0.200000" d="M46.6342,-144.3702C49.4903,-183.4303 61.9874,-337.685 84,-380.3324 120.8319,-451.691 133.1966,-506.3324 213.5,-506.3324 213.5,-506.3324 213.5,-506.3324 462.5,-506.3324 560.7584,-506.3324 597.3111,-547.515 683.5,-500.3324 716.4713,-482.2829 736.2642,-440.0365 744.8866,-417.3562"/>
<polygon fill="#000000" fill-opacity="0.200000" stroke="#000000" stroke-width="2" stroke-opacity="0.200000" points="746.9344,-417.8707 747.024,-411.5144 742.9901,-416.4275 746.9344,-417.8707"/>
</g>
<!-- src/content/authorization&#45;page/&#45;&gt;src/chrome/urls.ts -->
<g id="edge38" class="edge">
<title>src/content/authorization&#45;page/&#45;&gt;src/chrome/urls.ts</title>
<path fill="none" stroke="#000000" stroke-width="2" stroke-opacity="0.200000" d="M666.0468,-200.5893C736.5187,-207.256 870.1001,-209.0704 953.5,-142.3324 965.8081,-132.4833 957.4732,-122.2557 966.5,-109.3324 973.7725,-98.9207 984.2782,-89.3818 993.31,-82.2325"/>
<polygon fill="#000000" fill-opacity="0.200000" stroke="#000000" stroke-width="2" stroke-opacity="0.200000" points="994.6682,-83.8373 998.1461,-78.5162 992.109,-80.507 994.6682,-83.8373"/>
</g>
<!-- src/content/authorization&#45;page/&#45;&gt;src/domain/messages.ts -->
<g id="edge40" class="edge">
<title>src/content/authorization&#45;page/&#45;&gt;src/domain/messages.ts</title>
<path fill="none" stroke="#000000" stroke-width="2" stroke-opacity="0.200000" d="M666.1231,-197.6834C672.8024,-200.1518 678.9379,-203.8556 683.5,-209.3324 695.6737,-223.9472 680.3106,-364.951 691.5,-380.3324 696.1796,-386.7653 702.9767,-391.3179 710.2946,-394.5397"/>
<polygon fill="#000000" fill-opacity="0.200000" stroke="#000000" stroke-width="2" stroke-opacity="0.200000" points="709.6128,-396.5279 715.9658,-396.7531 711.1399,-392.6153 709.6128,-396.5279"/>
</g>
<!-- src/options/optionsStorageApi.ts -->
<g id="node33" class="node">
<title>src/options/optionsStorageApi.ts</title>
<g id="a_node33"><a xlink:href="src/options/optionsStorageApi.ts" xlink:title="optionsStorageApi.ts">
<path fill="#ddfeff" stroke="#000000" d="M794.5,-113.3324C794.5,-113.3324 705.5,-113.3324 705.5,-113.3324 702.5,-113.3324 699.5,-110.3324 699.5,-107.3324 699.5,-107.3324 699.5,-101.3324 699.5,-101.3324 699.5,-98.3324 702.5,-95.3324 705.5,-95.3324 705.5,-95.3324 794.5,-95.3324 794.5,-95.3324 797.5,-95.3324 800.5,-98.3324 800.5,-101.3324 800.5,-101.3324 800.5,-107.3324 800.5,-107.3324 800.5,-110.3324 797.5,-113.3324 794.5,-113.3324"/>
<text text-anchor="start" x="707.5" y="-102.1324" font-family="Helvetica,sans-Serif" font-size="9.00" fill="#000000">optionsStorageApi.ts</text>
</a>
</g>
</g>
<!-- src/content/authorization&#45;page/&#45;&gt;src/options/optionsStorageApi.ts -->
<g id="edge39" class="edge">
<title>src/content/authorization&#45;page/&#45;&gt;src/options/optionsStorageApi.ts</title>
<path fill="none" stroke="#000000" stroke-width="2" stroke-opacity="0.200000" d="M666.2965,-189.8924C672.7061,-187.525 678.7127,-184.1378 683.5,-179.3324 694.7617,-168.028 682.5181,-157.5211 691.5,-144.3324 699.5942,-132.4472 712.4909,-123.077 724.118,-116.4025"/>
<polygon fill="#000000" fill-opacity="0.200000" stroke="#000000" stroke-width="2" stroke-opacity="0.200000" points="725.4459,-118.0695 729.6972,-113.3434 723.4265,-114.3868 725.4459,-118.0695"/>
</g>
<!-- src/options/useSolidApis.ts -->
<g id="node34" class="node">
<title>src/options/useSolidApis.ts</title>
<g id="a_node34"><a xlink:href="src/options/useSolidApis.ts" xlink:title="useSolidApis.ts">
<path fill="#ddfeff" stroke="#000000" d="M784,-83.3324C784,-83.3324 716,-83.3324 716,-83.3324 713,-83.3324 710,-80.3324 710,-77.3324 710,-77.3324 710,-71.3324 710,-71.3324 710,-68.3324 713,-65.3324 716,-65.3324 716,-65.3324 784,-65.3324 784,-65.3324 787,-65.3324 790,-68.3324 790,-71.3324 790,-71.3324 790,-77.3324 790,-77.3324 790,-80.3324 787,-83.3324 784,-83.3324"/>
<text text-anchor="start" x="718" y="-72.1324" font-family="Helvetica,sans-Serif" font-size="9.00" fill="#000000">useSolidApis.ts</text>
</a>
</g>
</g>
<!-- src/content/authorization&#45;page/&#45;&gt;src/options/useSolidApis.ts -->
<g id="edge41" class="edge">
<title>src/content/authorization&#45;page/&#45;&gt;src/options/useSolidApis.ts</title>
<path fill="none" stroke="#000000" stroke-width="2" stroke-opacity="0.200000" d="M666.2511,-190.6953C672.8294,-188.2481 678.8996,-184.6257 683.5,-179.3324 696.6713,-164.1773 678.5001,-104.6348 691.5,-89.3324 694.9154,-85.3121 699.2479,-82.2927 704.005,-80.036"/>
<polygon fill="#000000" fill-opacity="0.200000" stroke="#000000" stroke-width="2" stroke-opacity="0.200000" points="704.9724,-81.9105 709.7552,-77.723 703.4049,-78.014 704.9724,-81.9105"/>
</g>
<!-- src/content/sendMessage.ts -->
<g id="node35" class="node">
<title>src/content/sendMessage.ts</title>
<g id="a_node35"><a xlink:href="src/content/sendMessage.ts" xlink:title="sendMessage.ts">
<path fill="#ddfeff" stroke="#000000" d="M785.5,-318.3324C785.5,-318.3324 714.5,-318.3324 714.5,-318.3324 711.5,-318.3324 708.5,-315.3324 708.5,-312.3324 708.5,-312.3324 708.5,-306.3324 708.5,-306.3324 708.5,-303.3324 711.5,-300.3324 714.5,-300.3324 714.5,-300.3324 785.5,-300.3324 785.5,-300.3324 788.5,-300.3324 791.5,-303.3324 791.5,-306.3324 791.5,-306.3324 791.5,-312.3324 791.5,-312.3324 791.5,-315.3324 788.5,-318.3324 785.5,-318.3324"/>
<text text-anchor="start" x="716.5" y="-307.1324" font-family="Helvetica,sans-Serif" font-size="9.00" fill="#000000">sendMessage.ts</text>
</a>
</g>
</g>
<!-- src/content/authorization&#45;page/&#45;&gt;src/content/sendMessage.ts -->
<g id="edge42" class="edge">
<title>src/content/authorization&#45;page/&#45;&gt;src/content/sendMessage.ts</title>
<path fill="none" stroke="#000000" stroke-width="2" stroke-opacity="0.200000" d="M666.2373,-200.8898C672.3628,-202.9826 678.3035,-205.7297 683.5,-209.3324 714.6668,-230.9407 735.1168,-272.3287 744.3443,-294.4784"/>
<polygon fill="#000000" fill-opacity="0.200000" stroke="#000000" stroke-width="2" stroke-opacity="0.200000" points="742.4543,-295.4067 746.6489,-300.1832 746.3485,-293.8334 742.4543,-295.4067"/>
</g>
<!-- src/content/ChromeMessageListener.ts&#45;&gt;events -->
<g id="edge15" class="edge">
<title>src/content/ChromeMessageListener.ts&#45;&gt;events</title>
<path fill="none" stroke="#000000" stroke-dasharray="5,2" stroke-opacity="0.200000" d="M621.8859,-155.1607C629.3289,-133.2268 651.4502,-77.8226 691.5,-54.3324 824.065,23.4202 1019.3467,-1.3357 1096.6948,-15.452"/>
<polygon fill="#000000" fill-opacity="0.200000" stroke="#000000" stroke-opacity="0.200000" points="1096.6513,-17.58 1102.9345,-16.6148 1097.4208,-13.451 1096.6513,-17.58"/>
</g>
<!-- src/content/WebClip.tsx&#45;&gt;src/content/ChromeMessageListener.ts -->
<g id="edge35" class="edge">
<title>src/content/WebClip.tsx&#45;&gt;src/content/ChromeMessageListener.ts</title>
<path fill="none" stroke="#000000" stroke-width="2" stroke-opacity="0.200000" d="M157.2082,-167.0434C206.3393,-166.6176 302.1119,-165.8195 383.5,-165.3324 438.7687,-165.0017 501.3341,-164.7414 548.0793,-164.5694"/>
<polygon fill="#000000" fill-opacity="0.200000" stroke="#000000" stroke-width="2" stroke-opacity="0.200000" points="548.2855,-166.6687 554.2778,-164.5468 548.2701,-162.4688 548.2855,-166.6687"/>
</g>
<!-- src/content/PageContent.tsx -->
<g id="node22" class="node">
<title>src/content/PageContent.tsx</title>
<g id="a_node22"><a xlink:href="src/content/PageContent.tsx" xlink:title="PageContent.tsx">
<path fill="#bbfeff" stroke="#000000" d="M249.5,-264.3324C249.5,-264.3324 177.5,-264.3324 177.5,-264.3324 174.5,-264.3324 171.5,-261.3324 171.5,-258.3324 171.5,-258.3324 171.5,-252.3324 171.5,-252.3324 171.5,-249.3324 174.5,-246.3324 177.5,-246.3324 177.5,-246.3324 249.5,-246.3324 249.5,-246.3324 252.5,-246.3324 255.5,-249.3324 255.5,-252.3324 255.5,-252.3324 255.5,-258.3324 255.5,-258.3324 255.5,-261.3324 252.5,-264.3324 249.5,-264.3324"/>
<text text-anchor="start" x="179.5" y="-253.1324" font-family="Helvetica,sans-Serif" font-size="9.00" fill="#000000">PageContent.tsx</text>
</a>
</g>
</g>
<!-- src/content/WebClip.tsx&#45;&gt;src/content/PageContent.tsx -->
<g id="edge37" class="edge">
<title>src/content/WebClip.tsx&#45;&gt;src/content/PageContent.tsx</title>
<path fill="none" stroke="#000000" stroke-width="2" stroke-opacity="0.200000" d="M157.2683,-176.3824C159.4674,-177.5485 161.5716,-178.8595 163.5,-180.3324 184.3233,-196.2371 199.2968,-223.4207 207.1647,-240.3254"/>
<polygon fill="#000000" fill-opacity="0.200000" stroke="#000000" stroke-width="2" stroke-opacity="0.200000" points="205.3626,-241.4384 209.7396,-246.0484 209.1928,-239.715 205.3626,-241.4384"/>
</g>
<!-- src/content/chromeMessageListenerContext.ts -->
<g id="node32" class="node">
<title>src/content/chromeMessageListenerContext.ts</title>
<g id="a_node32"><a xlink:href="src/content/chromeMessageListenerContext.ts" xlink:title="chromeMessageListenerContext.ts">
<path fill="#ddfeff" stroke="#000000" d="M535.5,-189.3324C535.5,-189.3324 389.5,-189.3324 389.5,-189.3324 386.5,-189.3324 383.5,-186.3324 383.5,-183.3324 383.5,-183.3324 383.5,-177.3324 383.5,-177.3324 383.5,-174.3324 386.5,-171.3324 389.5,-171.3324 389.5,-171.3324 535.5,-171.3324 535.5,-171.3324 538.5,-171.3324 541.5,-174.3324 541.5,-177.3324 541.5,-177.3324 541.5,-183.3324 541.5,-183.3324 541.5,-186.3324 538.5,-189.3324 535.5,-189.3324"/>
<text text-anchor="start" x="391.5" y="-178.1324" font-family="Helvetica,sans-Serif" font-size="9.00" fill="#000000">chromeMessageListenerContext.ts</text>
</a>
</g>
</g>
<!-- src/content/WebClip.tsx&#45;&gt;src/content/chromeMessageListenerContext.ts -->
<g id="edge36" class="edge">
<title>src/content/WebClip.tsx&#45;&gt;src/content/chromeMessageListenerContext.ts</title>
<path fill="none" stroke="#000000" stroke-width="2" stroke-opacity="0.200000" d="M157.216,-168.5907C207.5527,-170.5268 305.6522,-174.2998 377.1021,-177.0479"/>
<polygon fill="#000000" fill-opacity="0.200000" stroke="#000000" stroke-width="2" stroke-opacity="0.200000" points="377.4202,-179.1616 383.4966,-177.2938 377.5817,-174.9647 377.4202,-179.1616"/>
</g>
<!-- src/domain/messages.ts&#45;&gt;src/domain/Bookmark.ts -->
<g id="edge61" class="edge">
<title>src/domain/messages.ts&#45;&gt;src/domain/Bookmark.ts</title>
<path fill="none" stroke="#000000" stroke-width="2" stroke-opacity="0.200000" d="M784.2432,-410.5596C793.7116,-412.7968 803.9962,-415.1919 813.5,-417.3324 823.3401,-419.5487 833.9763,-421.8673 843.9148,-424.0005"/>
<polygon fill="#000000" fill-opacity="0.200000" stroke="#000000" stroke-width="2" stroke-opacity="0.200000" points="843.6928,-426.1005 849.9994,-425.3023 844.5715,-421.9934 843.6928,-426.1005"/>
</g>
<!-- src/domain/messages.ts&#45;&gt;src/domain/PageMetaData.ts -->
<g id="edge62" class="edge">
<title>src/domain/messages.ts&#45;&gt;src/domain/PageMetaData.ts</title>
<path fill="none" stroke="#000000" stroke-width="2" stroke-opacity="0.200000" d="M784.0331,-402.3324C799.1696,-402.3324 817.288,-402.3324 833.8893,-402.3324"/>
<polygon fill="#000000" fill-opacity="0.200000" stroke="#000000" stroke-width="2" stroke-opacity="0.200000" points="833.9286,-404.4325 839.9286,-402.3324 833.9285,-400.2325 833.9286,-404.4325"/>
</g>
<!-- src/content/LoginButton.tsx -->
<g id="node19" class="node">
<title>src/content/LoginButton.tsx</title>
<g id="a_node19"><a xlink:href="src/content/LoginButton.tsx" xlink:title="LoginButton.tsx">
<path fill="#bbfeff" stroke="#000000" d="M353.5,-351.3324C353.5,-351.3324 285.5,-351.3324 285.5,-351.3324 282.5,-351.3324 279.5,-348.3324 279.5,-345.3324 279.5,-345.3324 279.5,-339.3324 279.5,-339.3324 279.5,-336.3324 282.5,-333.3324 285.5,-333.3324 285.5,-333.3324 353.5,-333.3324 353.5,-333.3324 356.5,-333.3324 359.5,-336.3324 359.5,-339.3324 359.5,-339.3324 359.5,-345.3324 359.5,-345.3324 359.5,-348.3324 356.5,-351.3324 353.5,-351.3324"/>
<text text-anchor="start" x="287.5" y="-340.1324" font-family="Helvetica,sans-Serif" font-size="9.00" fill="#000000">LoginButton.tsx</text>
</a>
</g>
</g>
<!-- src/content/LoginButton.tsx&#45;&gt;src/components/Button.tsx -->
<g id="edge16" class="edge">
<title>src/content/LoginButton.tsx&#45;&gt;src/components/Button.tsx</title>
<path fill="none" stroke="#000000" stroke-width="2" stroke-opacity="0.200000" d="M359.6609,-347.6258C363.7267,-349.5299 367.4671,-352.0389 370.5,-355.3324 394.0104,-380.8628 358.4663,-408.2938 383.5,-432.3324 397.7631,-446.0286 522.9851,-456.0493 584.791,-460.2083"/>
<polygon fill="#000000" fill-opacity="0.200000" stroke="#000000" stroke-width="2" stroke-opacity="0.200000" points="584.8014,-462.3135 590.9274,-460.6159 585.0799,-458.1227 584.8014,-462.3135"/>
</g>
<!-- src/content/LoginButton.tsx&#45;&gt;src/components/ErrorMessage.tsx -->
<g id="edge17" class="edge">
<title>src/content/LoginButton.tsx&#45;&gt;src/components/ErrorMessage.tsx</title>
<path fill="none" stroke="#000000" stroke-width="2" stroke-opacity="0.200000" d="M359.7054,-347.9372C363.7117,-349.7919 367.4259,-352.2041 370.5,-355.3324 388.1052,-373.2481 364.5487,-393.8472 383.5,-410.3324 435.4516,-455.5239 520.3849,-450.9522 572.8034,-442.4194"/>
<polygon fill="#000000" fill-opacity="0.200000" stroke="#000000" stroke-width="2" stroke-opacity="0.200000" points="573.4665,-444.437 579.0303,-441.3623 572.7634,-440.2962 573.4665,-444.437"/>
</g>
<!-- src/content/prettifyUrl.ts -->
<g id="node20" class="node">
<title>src/content/prettifyUrl.ts</title>
<g id="a_node20"><a xlink:href="src/content/prettifyUrl.ts" xlink:title="prettifyUrl.ts">
<path fill="#ddfeff" stroke="#000000" d="M489,-337.3324C489,-337.3324 436,-337.3324 436,-337.3324 433,-337.3324 430,-334.3324 430,-331.3324 430,-331.3324 430,-325.3324 430,-325.3324 430,-322.3324 433,-319.3324 436,-319.3324 436,-319.3324 489,-319.3324 489,-319.3324 492,-319.3324 495,-322.3324 495,-325.3324 495,-325.3324 495,-331.3324 495,-331.3324 495,-334.3324 492,-337.3324 489,-337.3324"/>
<text text-anchor="start" x="438" y="-326.1324" font-family="Helvetica,sans-Serif" font-size="9.00" fill="#000000">prettifyUrl.ts</text>
</a>
</g>
</g>
<!-- src/content/LoginButton.tsx&#45;&gt;src/content/prettifyUrl.ts -->
<g id="edge18" class="edge">
<title>src/content/LoginButton.tsx&#45;&gt;src/content/prettifyUrl.ts</title>
<path fill="none" stroke="#000000" stroke-width="2" stroke-opacity="0.200000" d="M359.714,-338.3954C379.7777,-336.4311 403.9355,-334.066 423.7884,-332.1224"/>
<polygon fill="#000000" fill-opacity="0.200000" stroke="#000000" stroke-width="2" stroke-opacity="0.200000" points="424.0354,-334.2083 429.8022,-331.5336 423.6261,-330.0283 424.0354,-334.2083"/>
</g>
<!-- src/content/useLogin.ts -->
<g id="node21" class="node">
<title>src/content/useLogin.ts</title>
<g id="a_node21"><a xlink:href="src/content/useLogin.ts" xlink:title="useLogin.ts">
<path fill="#ddfeff" stroke="#000000" d="M645,-351.3324C645,-351.3324 593,-351.3324 593,-351.3324 590,-351.3324 587,-348.3324 587,-345.3324 587,-345.3324 587,-339.3324 587,-339.3324 587,-336.3324 590,-333.3324 593,-333.3324 593,-333.3324 645,-333.3324 645,-333.3324 648,-333.3324 651,-336.3324 651,-339.3324 651,-339.3324 651,-345.3324 651,-345.3324 651,-348.3324 648,-351.3324 645,-351.3324"/>
<text text-anchor="start" x="595" y="-340.1324" font-family="Helvetica,sans-Serif" font-size="9.00" fill="#000000">useLogin.ts</text>
</a>
</g>
</g>
<!-- src/content/LoginButton.tsx&#45;&gt;src/content/useLogin.ts -->
<g id="edge19" class="edge">
<title>src/content/LoginButton.tsx&#45;&gt;src/content/useLogin.ts</title>
<path fill="none" stroke="#000000" stroke-width="2" stroke-opacity="0.200000" d="M359.7845,-343.0578C367.649,-343.1723 375.8326,-343.2725 383.5,-343.3324 453.7201,-343.881 471.2792,-343.7854 541.5,-343.3324 554.3355,-343.2496 568.366,-343.0897 580.9188,-342.9216"/>
<polygon fill="#000000" fill-opacity="0.200000" stroke="#000000" stroke-width="2" stroke-opacity="0.200000" points="580.9801,-345.021 586.9506,-342.8387 580.9223,-340.8214 580.9801,-345.021"/>
</g>
<!-- src/content/useLogin.ts&#45;&gt;src/domain/messages.ts -->
<g id="edge51" class="edge">
<title>src/content/useLogin.ts&#45;&gt;src/domain/messages.ts</title>
<path fill="none" stroke="#000000" stroke-width="2" stroke-opacity="0.200000" d="M651.0267,-345.3669C662.4044,-347.8605 674.5866,-352.3361 683.5,-360.3324 690.6262,-366.7255 684.6604,-373.6336 691.5,-380.3324 696.7689,-385.4929 703.3638,-389.4639 710.2091,-392.5134"/>
<polygon fill="#000000" fill-opacity="0.200000" stroke="#000000" stroke-width="2" stroke-opacity="0.200000" points="709.6452,-394.5509 715.9944,-394.864 711.2263,-390.6599 709.6452,-394.5509"/>
</g>
<!-- src/content/useLogin.ts&#45;&gt;src/content/sendMessage.ts -->
<g id="edge52" class="edge">
<title>src/content/useLogin.ts&#45;&gt;src/content/sendMessage.ts</title>
<path fill="none" stroke="#000000" stroke-width="2" stroke-opacity="0.200000" d="M651.0462,-334.2597C668.1958,-329.9396 689.5277,-324.5659 707.9898,-319.9151"/>
<polygon fill="#000000" fill-opacity="0.200000" stroke="#000000" stroke-width="2" stroke-opacity="0.200000" points="708.8254,-321.8703 714.1306,-318.3682 707.7994,-317.7976 708.8254,-321.8703"/>
</g>
<!-- src/content/PageContent.tsx&#45;&gt;src/content/LoginButton.tsx -->
<g id="edge20" class="edge">
<title>src/content/PageContent.tsx&#45;&gt;src/content/LoginButton.tsx</title>
<path fill="none" stroke="#000000" stroke-width="2" stroke-opacity="0.200000" d="M250.9224,-264.5272C252.5692,-265.653 254.11,-266.9159 255.5,-268.3324 270.0804,-283.1916 255.6133,-296.9827 268.5,-313.3324 274.0839,-320.4169 281.908,-326.0704 289.754,-330.4351"/>
<polygon fill="#000000" fill-opacity="0.200000" stroke="#000000" stroke-width="2" stroke-opacity="0.200000" points="288.8707,-332.3427 295.1621,-333.2527 290.8113,-328.6179 288.8707,-332.3427"/>
</g>
<!-- src/content/openOptions.ts -->
<g id="node23" class="node">
<title>src/content/openOptions.ts</title>
<g id="a_node23"><a xlink:href="src/content/openOptions.ts" xlink:title="openOptions.ts">
<path fill="#ddfeff" stroke="#000000" d="M495.5,-307.3324C495.5,-307.3324 429.5,-307.3324 429.5,-307.3324 426.5,-307.3324 423.5,-304.3324 423.5,-301.3324 423.5,-301.3324 423.5,-295.3324 423.5,-295.3324 423.5,-292.3324 426.5,-289.3324 429.5,-289.3324 429.5,-289.3324 495.5,-289.3324 495.5,-289.3324 498.5,-289.3324 501.5,-292.3324 501.5,-295.3324 501.5,-295.3324 501.5,-301.3324 501.5,-301.3324 501.5,-304.3324 498.5,-307.3324 495.5,-307.3324"/>
<text text-anchor="start" x="431.5" y="-296.1324" font-family="Helvetica,sans-Serif" font-size="9.00" fill="#000000">openOptions.ts</text>
</a>
</g>
</g>
<!-- src/content/PageContent.tsx&#45;&gt;src/content/openOptions.ts -->
<g id="edge21" class="edge">
<title>src/content/PageContent.tsx&#45;&gt;src/content/openOptions.ts</title>
<path fill="none" stroke="#000000" stroke-width="2" stroke-opacity="0.200000" d="M255.7395,-262.6268C300.6223,-270.3776 371.3224,-282.5869 417.3021,-290.5272"/>
<polygon fill="#000000" fill-opacity="0.200000" stroke="#000000" stroke-width="2" stroke-opacity="0.200000" points="417.0714,-292.6183 423.3413,-291.5701 417.7862,-288.4796 417.0714,-292.6183"/>
</g>
<!-- src/content/SetupButton.tsx -->
<g id="node24" class="node">
<title>src/content/SetupButton.tsx</title>
<g id="a_node24"><a xlink:href="src/content/SetupButton.tsx" xlink:title="SetupButton.tsx">
<path fill="#bbfeff" stroke="#000000" d="M353.5,-307.3324C353.5,-307.3324 285.5,-307.3324 285.5,-307.3324 282.5,-307.3324 279.5,-304.3324 279.5,-301.3324 279.5,-301.3324 279.5,-295.3324 279.5,-295.3324 279.5,-292.3324 282.5,-289.3324 285.5,-289.3324 285.5,-289.3324 353.5,-289.3324 353.5,-289.3324 356.5,-289.3324 359.5,-292.3324 359.5,-295.3324 359.5,-295.3324 359.5,-301.3324 359.5,-301.3324 359.5,-304.3324 356.5,-307.3324 353.5,-307.3324"/>
<text text-anchor="start" x="287.5" y="-296.1324" font-family="Helvetica,sans-Serif" font-size="9.00" fill="#000000">SetupButton.tsx</text>
</a>
</g>
</g>
<!-- src/content/PageContent.tsx&#45;&gt;src/content/SetupButton.tsx -->
<g id="edge22" class="edge">
<title>src/content/PageContent.tsx&#45;&gt;src/content/SetupButton.tsx</title>
<path fill="none" stroke="#000000" stroke-width="2" stroke-opacity="0.200000" d="M244.4053,-264.3626C248.1697,-265.6197 251.9408,-266.955 255.5,-268.3324 269.2687,-273.661 284.2315,-280.6072 296.2248,-286.4736"/>
<polygon fill="#000000" fill-opacity="0.200000" stroke="#000000" stroke-width="2" stroke-opacity="0.200000" points="295.5461,-288.4805 301.8557,-289.2549 297.4062,-284.7149 295.5461,-288.4805"/>
</g>
<!-- src/content/ToolbarContainer.tsx -->
<g id="node25" class="node">
<title>src/content/ToolbarContainer.tsx</title>
<g id="a_node25"><a xlink:href="src/content/ToolbarContainer.tsx" xlink:title="ToolbarContainer.tsx">
<path fill="#bbfeff" stroke="#000000" d="M364.5,-251.3324C364.5,-251.3324 274.5,-251.3324 274.5,-251.3324 271.5,-251.3324 268.5,-248.3324 268.5,-245.3324 268.5,-245.3324 268.5,-239.3324 268.5,-239.3324 268.5,-236.3324 271.5,-233.3324 274.5,-233.3324 274.5,-233.3324 364.5,-233.3324 364.5,-233.3324 367.5,-233.3324 370.5,-236.3324 370.5,-239.3324 370.5,-239.3324 370.5,-245.3324 370.5,-245.3324 370.5,-248.3324 367.5,-251.3324 364.5,-251.3324"/>
<text text-anchor="start" x="276.5" y="-240.1324" font-family="Helvetica,sans-Serif" font-size="9.00" fill="#000000">ToolbarContainer.tsx</text>
</a>
</g>
</g>
<!-- src/content/PageContent.tsx&#45;&gt;src/content/ToolbarContainer.tsx -->
<g id="edge23" class="edge">
<title>src/content/PageContent.tsx&#45;&gt;src/content/ToolbarContainer.tsx</title>
<path fill="none" stroke="#000000" stroke-width="2" stroke-opacity="0.200000" d="M255.6986,-250.1571C257.777,-249.9022 259.8786,-249.6445 261.9898,-249.3856"/>
<polygon fill="#000000" fill-opacity="0.200000" stroke="#000000" stroke-width="2" stroke-opacity="0.200000" points="262.639,-251.4218 268.3387,-248.6069 262.1277,-247.253 262.639,-251.4218"/>
</g>
<!-- src/content/useSessionInfo.ts -->
<g id="node26" class="node">
<title>src/content/useSessionInfo.ts</title>
<g id="a_node26"><a xlink:href="src/content/useSessionInfo.ts" xlink:title="useSessionInfo.ts">
<path fill="#ddfeff" stroke="#000000" d="M358,-221.3324C358,-221.3324 281,-221.3324 281,-221.3324 278,-221.3324 275,-218.3324 275,-215.3324 275,-215.3324 275,-209.3324 275,-209.3324 275,-206.3324 278,-203.3324 281,-203.3324 281,-203.3324 358,-203.3324 358,-203.3324 361,-203.3324 364,-206.3324 364,-209.3324 364,-209.3324 364,-215.3324 364,-215.3324 364,-218.3324 361,-221.3324 358,-221.3324"/>
<text text-anchor="start" x="283" y="-210.1324" font-family="Helvetica,sans-Serif" font-size="9.00" fill="#000000">useSessionInfo.ts</text>
</a>
</g>
</g>
<!-- src/content/PageContent.tsx&#45;&gt;src/content/useSessionInfo.ts -->
<g id="edge24" class="edge">
<title>src/content/PageContent.tsx&#45;&gt;src/content/useSessionInfo.ts</title>
<path fill="none" stroke="#000000" stroke-width="2" stroke-opacity="0.200000" d="M229.4994,-246.1925C240.283,-240.2827 254.9592,-232.7168 268.5,-227.3324 272.0457,-225.9225 275.7763,-224.5768 279.5396,-223.3113"/>
<polygon fill="#000000" fill-opacity="0.200000" stroke="#000000" stroke-width="2" stroke-opacity="0.200000" points="280.3994,-225.2401 285.4584,-221.3909 279.1032,-221.2451 280.3994,-225.2401"/>
</g>
<!-- src/content/openOptions.ts&#45;&gt;src/domain/messages.ts -->
<g id="edge44" class="edge">
<title>src/content/openOptions.ts&#45;&gt;src/domain/messages.ts</title>
<path fill="none" stroke="#000000" stroke-width="2" stroke-opacity="0.200000" d="M501.8827,-297.3033C516.0027,-298.9396 531.008,-303.2969 541.5,-313.3324 559.6515,-330.6943 536.2149,-351.1113 554.5,-368.3324 576.37,-388.9299 659.1828,-397.243 709.7479,-400.4497"/>
<polygon fill="#000000" fill-opacity="0.200000" stroke="#000000" stroke-width="2" stroke-opacity="0.200000" points="709.6315,-402.5464 715.7483,-400.8159 709.8874,-398.3542 709.6315,-402.5464"/>
</g>
<!-- src/content/openOptions.ts&#45;&gt;src/content/sendMessage.ts -->
<g id="edge45" class="edge">
<title>src/content/openOptions.ts&#45;&gt;src/content/sendMessage.ts</title>
<path fill="none" stroke="#000000" stroke-width="2" stroke-opacity="0.200000" d="M501.726,-306.1613C517.9832,-309.0314 537.0793,-311.9216 554.5,-313.3324 611.6462,-317.9605 626.1925,-315.0544 683.5,-313.3324 689.4827,-313.1527 695.7641,-312.8821 701.9789,-312.5648"/>
<polygon fill="#000000" fill-opacity="0.200000" stroke="#000000" stroke-width="2" stroke-opacity="0.200000" points="702.279,-314.6519 708.158,-312.2336 702.0542,-310.4579 702.279,-314.6519"/>
</g>
<!-- src/content/SetupButton.tsx&#45;&gt;src/components/Button.tsx -->
<g id="edge25" class="edge">
<title>src/content/SetupButton.tsx&#45;&gt;src/components/Button.tsx</title>
<path fill="none" stroke="#000000" stroke-width="2" stroke-opacity="0.200000" d="M345.1887,-307.3847C354.5645,-311.9507 364.3631,-318.4495 370.5,-327.3324 391.7234,-358.0528 356.6307,-384.4053 383.5,-410.3324 434.3967,-459.4445 480.5647,-393.4249 541.5,-429.3324 550.0019,-434.3424 546.2831,-441.8675 554.5,-447.3324 563.4626,-453.2933 574.4966,-456.9004 584.8882,-459.0781"/>
<polygon fill="#000000" fill-opacity="0.200000" stroke="#000000" stroke-width="2" stroke-opacity="0.200000" points="584.6283,-461.1658 590.9118,-460.2021 585.3988,-457.0371 584.6283,-461.1658"/>
</g>
<!-- src/content/SetupButton.tsx&#45;&gt;src/content/openOptions.ts -->
<g id="edge26" class="edge">
<title>src/content/SetupButton.tsx&#45;&gt;src/content/openOptions.ts</title>
<path fill="none" stroke="#000000" stroke-width="2" stroke-opacity="0.200000" d="M359.714,-298.3324C377.5266,-298.3324 398.5661,-298.3324 416.9554,-298.3324"/>
<polygon fill="#000000" fill-opacity="0.200000" stroke="#000000" stroke-width="2" stroke-opacity="0.200000" points="417.0816,-300.4325 423.0816,-298.3324 417.0816,-296.2325 417.0816,-300.4325"/>
</g>
<!-- src/content/Toolbar.tsx -->
<g id="node27" class="node">
<title>src/content/Toolbar.tsx</title>
<g id="a_node27"><a xlink:href="src/content/Toolbar.tsx" xlink:title="Toolbar.tsx">
<path fill="#bbfeff" stroke="#000000" d="M487.5,-247.3324C487.5,-247.3324 437.5,-247.3324 437.5,-247.3324 434.5,-247.3324 431.5,-244.3324 431.5,-241.3324 431.5,-241.3324 431.5,-235.3324 431.5,-235.3324 431.5,-232.3324 434.5,-229.3324 437.5,-229.3324 437.5,-229.3324 487.5,-229.3324 487.5,-229.3324 490.5,-229.3324 493.5,-232.3324 493.5,-235.3324 493.5,-235.3324 493.5,-241.3324 493.5,-241.3324 493.5,-244.3324 490.5,-247.3324 487.5,-247.3324"/>
<text text-anchor="start" x="439.5" y="-236.1324" font-family="Helvetica,sans-Serif" font-size="9.00" fill="#000000">Toolbar.tsx</text>
</a>
</g>
</g>
<!-- src/content/ToolbarContainer.tsx&#45;&gt;src/content/Toolbar.tsx -->
<g id="edge31" class="edge">
<title>src/content/ToolbarContainer.tsx&#45;&gt;src/content/Toolbar.tsx</title>
<path fill="none" stroke="#000000" stroke-width="2" stroke-opacity="0.200000" d="M370.7224,-240.8996C388.5513,-240.4009 408.214,-239.8509 424.7509,-239.3883"/>
<polygon fill="#000000" fill-opacity="0.200000" stroke="#000000" stroke-width="2" stroke-opacity="0.200000" points="425.2206,-241.4761 431.1595,-239.2091 425.1031,-237.2778 425.2206,-241.4761"/>
</g>
<!-- src/content/usePage.ts -->
<g id="node29" class="node">
<title>src/content/usePage.ts</title>
<g id="a_node29"><a xlink:href="src/content/usePage.ts" xlink:title="usePage.ts">
<path fill="#ddfeff" stroke="#000000" d="M644,-233.3324C644,-233.3324 594,-233.3324 594,-233.3324 591,-233.3324 588,-230.3324 588,-227.3324 588,-227.3324 588,-221.3324 588,-221.3324 588,-218.3324 591,-215.3324 594,-215.3324 594,-215.3324 644,-215.3324 644,-215.3324 647,-215.3324 650,-218.3324 650,-221.3324 650,-221.3324 650,-227.3324 650,-227.3324 650,-230.3324 647,-233.3324 644,-233.3324"/>
<text text-anchor="start" x="596" y="-222.1324" font-family="Helvetica,sans-Serif" font-size="9.00" fill="#000000">usePage.ts</text>
</a>
</g>
</g>
<!-- src/content/ToolbarContainer.tsx&#45;&gt;src/content/usePage.ts -->
<g id="edge32" class="edge">
<title>src/content/ToolbarContainer.tsx&#45;&gt;src/content/usePage.ts</title>
<path fill="none" stroke="#000000" stroke-width="2" stroke-opacity="0.200000" d="M358.9427,-233.2461C362.9945,-231.5834 366.9289,-229.6283 370.5,-227.3324 377.9207,-222.5616 375.4751,-215.9968 383.5,-212.3324 447.3777,-183.164 471.4848,-206.944 541.5,-212.3324 554.6826,-213.347 569.0158,-215.3185 581.7298,-217.3751"/>
<polygon fill="#000000" fill-opacity="0.200000" stroke="#000000" stroke-width="2" stroke-opacity="0.200000" points="581.566,-219.4766 587.829,-218.3877 582.2539,-215.3333 581.566,-219.4766"/>
</g>
<!-- src/content/usePageData.ts -->
<g id="node30" class="node">
<title>src/content/usePageData.ts</title>
<g id="a_node30"><a xlink:href="src/content/usePageData.ts" xlink:title="usePageData.ts">
<path fill="#ddfeff" stroke="#000000" d="M654,-307.3324C654,-307.3324 584,-307.3324 584,-307.3324 581,-307.3324 578,-304.3324 578,-301.3324 578,-301.3324 578,-295.3324 578,-295.3324 578,-292.3324 581,-289.3324 584,-289.3324 584,-289.3324 654,-289.3324 654,-289.3324 657,-289.3324 660,-292.3324 660,-295.3324 660,-295.3324 660,-301.3324 660,-301.3324 660,-304.3324 657,-307.3324 654,-307.3324"/>
<text text-anchor="start" x="586" y="-296.1324" font-family="Helvetica,sans-Serif" font-size="9.00" fill="#000000">usePageData.ts</text>
</a>
</g>
</g>
<!-- src/content/ToolbarContainer.tsx&#45;&gt;src/content/usePageData.ts -->
<g id="edge33" class="edge">
<title>src/content/ToolbarContainer.tsx&#45;&gt;src/content/usePageData.ts</title>
<path fill="none" stroke="#000000" stroke-width="2" stroke-opacity="0.200000" d="M350.5337,-233.2719C357.1292,-231.3275 364.0484,-229.2737 370.5,-227.3324 376.2887,-225.5906 377.5221,-224.2313 383.5,-223.3324 418.2208,-218.1115 513.4995,-202.1484 541.5,-223.3324 558.4427,-236.1505 540.622,-253.2465 554.5,-269.3324 561.0089,-276.8768 569.8731,-282.5523 578.9452,-286.7856"/>
<polygon fill="#000000" fill-opacity="0.200000" stroke="#000000" stroke-width="2" stroke-opacity="0.200000" points="578.2614,-288.778 584.6016,-289.2389 579.9326,-284.9248 578.2614,-288.778"/>
</g>
<!-- src/content/useProfile.ts -->
<g id="node31" class="node">
<title>src/content/useProfile.ts</title>
<g id="a_node31"><a xlink:href="src/content/useProfile.ts" xlink:title="useProfile.ts">
<path fill="#ddfeff" stroke="#000000" d="M490,-277.3324C490,-277.3324 435,-277.3324 435,-277.3324 432,-277.3324 429,-274.3324 429,-271.3324 429,-271.3324 429,-265.3324 429,-265.3324 429,-262.3324 432,-259.3324 435,-259.3324 435,-259.3324 490,-259.3324 490,-259.3324 493,-259.3324 496,-262.3324 496,-265.3324 496,-265.3324 496,-271.3324 496,-271.3324 496,-274.3324 493,-277.3324 490,-277.3324"/>
<text text-anchor="start" x="437" y="-266.1324" font-family="Helvetica,sans-Serif" font-size="9.00" fill="#000000">useProfile.ts</text>
</a>
</g>
</g>
<!-- src/content/ToolbarContainer.tsx&#45;&gt;src/content/useProfile.ts -->
<g id="edge34" class="edge">
<title>src/content/ToolbarContainer.tsx&#45;&gt;src/content/useProfile.ts</title>
<path fill="none" stroke="#000000" stroke-width="2" stroke-opacity="0.200000" d="M369.1131,-251.353C386.6432,-254.5403 406.1159,-258.0808 422.7241,-261.1004"/>
<polygon fill="#000000" fill-opacity="0.200000" stroke="#000000" stroke-width="2" stroke-opacity="0.200000" points="422.4255,-263.1805 428.7044,-262.1878 423.1769,-259.0482 422.4255,-263.1805"/>
</g>
<!-- src/content/useSessionInfo.ts&#45;&gt;src/domain/messages.ts -->
<g id="edge59" class="edge">
<title>src/content/useSessionInfo.ts&#45;&gt;src/domain/messages.ts</title>
<path fill="none" stroke="#000000" stroke-width="2" stroke-opacity="0.200000" d="M363.9481,-221.4916C366.3808,-223.139 368.6015,-225.0701 370.5,-227.3324 403.8484,-267.0721 349.3694,-304.2625 383.5,-343.3324 425.6825,-391.6196 623.6988,-400.4873 709.8241,-402.042"/>
<polygon fill="#000000" fill-opacity="0.200000" stroke="#000000" stroke-width="2" stroke-opacity="0.200000" points="709.7939,-404.1417 715.828,-402.1417 709.8638,-399.9423 709.7939,-404.1417"/>
</g>
<!-- src/content/useSessionInfo.ts&#45;&gt;src/content/chromeMessageListenerContext.ts -->
<g id="edge60" class="edge">
<title>src/content/useSessionInfo.ts&#45;&gt;src/content/chromeMessageListenerContext.ts</title>
<path fill="none" stroke="#000000" stroke-width="2" stroke-opacity="0.200000" d="M360.0956,-203.2481C377.4551,-199.3634 397.8243,-194.8053 415.8046,-190.7817"/>
<polygon fill="#000000" fill-opacity="0.200000" stroke="#000000" stroke-width="2" stroke-opacity="0.200000" points="416.4064,-192.7991 421.8029,-189.4395 415.4891,-188.7005 416.4064,-192.7991"/>
</g>
<!-- src/content/Toolbar.tsx&#45;&gt;src/components/Button.tsx -->
<g id="edge27" class="edge">
<title>src/content/Toolbar.tsx&#45;&gt;src/components/Button.tsx</title>
<path fill="none" stroke="#000000" stroke-width="2" stroke-opacity="0.200000" d="M493.5064,-235.8115C510.208,-236.2669 529.7424,-240.0622 541.5,-253.3324 570.1537,-285.6725 526.5129,-414.4138 554.5,-447.3324 561.9771,-456.127 573.511,-460.3303 584.7693,-462.1911"/>
<polygon fill="#000000" fill-opacity="0.200000" stroke="#000000" stroke-width="2" stroke-opacity="0.200000" points="584.7471,-464.3058 590.968,-462.9981 585.2894,-460.141 584.7471,-464.3058"/>
</g>
<!-- src/content/Toolbar.tsx&#45;&gt;src/components/ErrorMessage.tsx -->
<g id="edge28" class="edge">
<title>src/content/Toolbar.tsx&#45;&gt;src/components/ErrorMessage.tsx</title>
<path fill="none" stroke="#000000" stroke-width="2" stroke-opacity="0.200000" d="M493.7241,-235.9828C510.2823,-236.5372 529.6058,-240.3734 541.5,-253.3324 560.6834,-274.2331 540.97,-355.397 554.5,-380.3324 563.8477,-397.56 581.5189,-411.1806 596.0041,-420.1532"/>
<polygon fill="#000000" fill-opacity="0.200000" stroke="#000000" stroke-width="2" stroke-opacity="0.200000" points="594.9481,-421.9685 601.1752,-423.2466 597.1043,-418.3642 594.9481,-421.9685"/>
</g>
<!-- src/content/useBookmark.ts -->
<g id="node28" class="node">
<title>src/content/useBookmark.ts</title>
<g id="a_node28"><a xlink:href="src/content/useBookmark.ts" xlink:title="useBookmark.ts">
<path fill="#ddfeff" stroke="#000000" d="M654,-263.3324C654,-263.3324 584,-263.3324 584,-263.3324 581,-263.3324 578,-260.3324 578,-257.3324 578,-257.3324 578,-251.3324 578,-251.3324 578,-248.3324 581,-245.3324 584,-245.3324 584,-245.3324 654,-245.3324 654,-245.3324 657,-245.3324 660,-248.3324 660,-251.3324 660,-251.3324 660,-257.3324 660,-257.3324 660,-260.3324 657,-263.3324 654,-263.3324"/>
<text text-anchor="start" x="586" y="-252.1324" font-family="Helvetica,sans-Serif" font-size="9.00" fill="#000000">useBookmark.ts</text>
</a>
</g>
</g>
<!-- src/content/Toolbar.tsx&#45;&gt;src/content/useBookmark.ts -->
<g id="edge29" class="edge">
<title>src/content/Toolbar.tsx&#45;&gt;src/content/useBookmark.ts</title>
<path fill="none" stroke="#000000" stroke-width="2" stroke-opacity="0.200000" d="M493.794,-241.5318C516.1732,-243.8198 546.6838,-246.9391 571.9832,-249.5256"/>
<polygon fill="#000000" fill-opacity="0.200000" stroke="#000000" stroke-width="2" stroke-opacity="0.200000" points="571.7781,-251.6155 577.9606,-250.1367 572.2053,-247.4373 571.7781,-251.6155"/>
</g>
<!-- src/content/Toolbar.tsx&#45;&gt;src/content/usePage.ts -->
<g id="edge30" class="edge">
<title>src/content/Toolbar.tsx&#45;&gt;src/content/usePage.ts</title>
<path fill="none" stroke="#000000" stroke-width="2" stroke-opacity="0.200000" d="M493.794,-235.533C519.0635,-233.2724 554.7004,-230.0845 581.4961,-227.6874"/>
<polygon fill="#000000" fill-opacity="0.200000" stroke="#000000" stroke-width="2" stroke-opacity="0.200000" points="581.9713,-229.7534 587.7603,-227.127 581.597,-225.5701 581.9713,-229.7534"/>
</g>
<!-- src/content/useBookmark.ts&#45;&gt;src/domain/Bookmark.ts -->
<g id="edge47" class="edge">
<title>src/content/useBookmark.ts&#45;&gt;src/domain/Bookmark.ts</title>
<path fill="none" stroke="#000000" stroke-width="2" stroke-opacity="0.200000" d="M660.3261,-262.4835C668.0361,-264.0548 676.0192,-265.7157 683.5,-267.3324 735.6624,-278.6055 765.1247,-254.3751 800.5,-294.3324 836.9389,-335.4911 776.7391,-376.4612 813.5,-417.3324 821.1439,-425.831 832.33,-430.1593 843.5267,-432.2167"/>
<polygon fill="#000000" fill-opacity="0.200000" stroke="#000000" stroke-width="2" stroke-opacity="0.200000" points="843.4821,-434.3331 849.7257,-433.1382 844.0997,-430.1788 843.4821,-434.3331"/>
</g>
<!-- src/content/useBookmark.ts&#45;&gt;src/domain/PageMetaData.ts -->
<g id="edge49" class="edge">
<title>src/content/useBookmark.ts&#45;&gt;src/domain/PageMetaData.ts</title>
<path fill="none" stroke="#000000" stroke-width="2" stroke-opacity="0.200000" d="M660.0465,-250.8247C699.0762,-249.4885 757.9759,-252.8474 800.5,-279.3324 842.2024,-305.3057 867.8339,-360.8422 878.1953,-387.4804"/>
<polygon fill="#000000" fill-opacity="0.200000" stroke="#000000" stroke-width="2" stroke-opacity="0.200000" points="876.3086,-388.4288 880.3933,-393.2997 880.2377,-386.9447 876.3086,-388.4288"/>
</g>
<!-- src/content/useBookmark.ts&#45;&gt;src/domain/messages.ts -->
<g id="edge48" class="edge">
<title>src/content/useBookmark.ts&#45;&gt;src/domain/messages.ts</title>
<path fill="none" stroke="#000000" stroke-width="2" stroke-opacity="0.200000" d="M656.4698,-263.4317C666.8166,-267.7688 676.9804,-274.1084 683.5,-283.3324 695.9838,-300.9948 678.4677,-363.0709 691.5,-380.3324 696.2411,-386.6121 702.9902,-391.0994 710.2293,-394.3059"/>
<polygon fill="#000000" fill-opacity="0.200000" stroke="#000000" stroke-width="2" stroke-opacity="0.200000" points="709.4833,-396.2691 715.8354,-396.5167 711.0242,-392.3619 709.4833,-396.2691"/>
</g>
<!-- src/content/useBookmark.ts&#45;&gt;src/content/sendMessage.ts -->
<g id="edge50" class="edge">
<title>src/content/useBookmark.ts&#45;&gt;src/content/sendMessage.ts</title>
<path fill="none" stroke="#000000" stroke-width="2" stroke-opacity="0.200000" d="M660.2755,-260.523C668.572,-263.1701 676.7915,-266.9464 683.5,-272.3324 689.3916,-277.0627 685.8211,-282.3489 691.5,-287.3324 696.3705,-291.6065 702.152,-295.0837 708.1546,-297.9032"/>
<polygon fill="#000000" fill-opacity="0.200000" stroke="#000000" stroke-width="2" stroke-opacity="0.200000" points="707.3693,-299.8515 713.7095,-300.3116 709.04,-295.9981 707.3693,-299.8515"/>
</g>
<!-- src/content/usePage.ts&#45;&gt;src/domain/PageMetaData.ts -->
<g id="edge53" class="edge">
<title>src/content/usePage.ts&#45;&gt;src/domain/PageMetaData.ts</title>
<path fill="none" stroke="#000000" stroke-width="2" stroke-opacity="0.200000" d="M650.2624,-220.1348C689.0311,-216.6293 755.4914,-216.3678 800.5,-247.3324 850.0392,-281.414 872.484,-354.8218 880.1993,-386.8539"/>
<polygon fill="#000000" fill-opacity="0.200000" stroke="#000000" stroke-width="2" stroke-opacity="0.200000" points="878.2299,-387.6588 881.6265,-393.0321 882.3221,-386.7134 878.2299,-387.6588"/>
</g>
<!-- src/content/usePageData.ts&#45;&gt;src/domain/messages.ts -->
<g id="edge54" class="edge">
<title>src/content/usePageData.ts&#45;&gt;src/domain/messages.ts</title>
<path fill="none" stroke="#000000" stroke-width="2" stroke-opacity="0.200000" d="M655.4172,-307.4282C665.9751,-311.7859 676.5244,-318.1381 683.5,-327.3324 697.8987,-346.3109 676.5123,-361.8155 691.5,-380.3324 696.3,-386.2627 702.8763,-390.5949 709.8912,-393.7597"/>
<polygon fill="#000000" fill-opacity="0.200000" stroke="#000000" stroke-width="2" stroke-opacity="0.200000" points="709.5068,-395.8681 715.8574,-396.1529 711.0705,-391.9701 709.5068,-395.8681"/>
</g>
<!-- src/content/usePageData.ts&#45;&gt;src/content/sendMessage.ts -->
<g id="edge55" class="edge">
<title>src/content/usePageData.ts&#45;&gt;src/content/sendMessage.ts</title>
<path fill="none" stroke="#000000" stroke-width="2" stroke-opacity="0.200000" d="M660.0898,-301.7827C673.364,-302.8973 688.199,-304.143 701.9316,-305.2961"/>
<polygon fill="#000000" fill-opacity="0.200000" stroke="#000000" stroke-width="2" stroke-opacity="0.200000" points="701.9993,-307.4091 708.154,-305.8186 702.3508,-303.2239 701.9993,-307.4091"/>
</g>
<!-- src/content/useProfile.ts&#45;&gt;src/api/SolidApi.ts -->
<g id="edge56" class="edge">
<title>src/content/useProfile.ts&#45;&gt;src/api/SolidApi.ts</title>
<path fill="none" stroke="#000000" stroke-width="2" stroke-opacity="0.200000" d="M496.2399,-266.3588C512.0729,-267.3057 529.955,-271.3869 541.5,-283.3324 567.7537,-310.4968 530.3265,-338.3014 554.5,-367.3324 593.3549,-413.9951 645.0308,-365.3512 683.5,-412.3324 699.9857,-432.4659 684.0068,-445.4128 691.5,-470.3324 703.7941,-511.2184 728.12,-555.5457 741.1953,-577.8176"/>
<polygon fill="#000000" fill-opacity="0.200000" stroke="#000000" stroke-width="2" stroke-opacity="0.200000" points="739.5463,-579.1538 744.4145,-583.2418 743.1582,-577.0102 739.5463,-579.1538"/>
</g>
<!-- src/content/useProfile.ts&#45;&gt;src/domain/messages.ts -->
<g id="edge57" class="edge">
<title>src/content/useProfile.ts&#45;&gt;src/domain/messages.ts</title>
<path fill="none" stroke="#000000" stroke-width="2" stroke-opacity="0.200000" d="M496.136,-266.4603C511.9434,-267.4322 529.834,-271.505 541.5,-283.3324 564.9493,-307.1062 529.9496,-334.6975 554.5,-357.3324 575.6669,-376.8478 658.4777,-355.0926 683.5,-369.3324 688.7539,-372.3223 686.6907,-376.6699 691.5,-380.3324 696.9857,-384.51 703.3526,-387.9692 709.8252,-390.8093"/>
<polygon fill="#000000" fill-opacity="0.200000" stroke="#000000" stroke-width="2" stroke-opacity="0.200000" points="709.4286,-392.916 715.7769,-393.2462 711.0201,-389.0292 709.4286,-392.916"/>
</g>
<!-- src/content/useProfile.ts&#45;&gt;src/content/sendMessage.ts -->
<g id="edge58" class="edge">
<title>src/content/useProfile.ts&#45;&gt;src/content/sendMessage.ts</title>
<path fill="none" stroke="#000000" stroke-width="2" stroke-opacity="0.200000" d="M496.1479,-268.9983C549.0478,-270.3176 649.1762,-273.9914 683.5,-283.3324 687.3357,-284.3763 687.8569,-285.7417 691.5,-287.3324 700.1467,-291.1078 709.6687,-294.8566 718.4737,-298.1614"/>
<polygon fill="#000000" fill-opacity="0.200000" stroke="#000000" stroke-width="2" stroke-opacity="0.200000" points="717.7841,-300.1453 724.1399,-300.2647 719.2458,-296.2079 717.7841,-300.1453"/>
</g>
<!-- src/content/chromeMessageListenerContext.ts&#45;&gt;src/content/ChromeMessageListener.ts -->
<g id="edge43" class="edge">
<title>src/content/chromeMessageListenerContext.ts&#45;&gt;src/content/ChromeMessageListener.ts</title>
<path fill="none" stroke="#000000" stroke-width="2" stroke-opacity="0.200000" d="M541.667,-172.2387C543.7898,-172.0216 545.9117,-171.8047 548.0264,-171.5885"/>
<polygon fill="#000000" fill-opacity="0.200000" stroke="#000000" stroke-width="2" stroke-opacity="0.200000" points="548.5877,-173.6422 554.343,-170.9427 548.1605,-169.4639 548.5877,-173.6422"/>
</g>
<!-- src/options/onOptionChange.ts -->
<g id="node37" class="node">
<title>src/options/onOptionChange.ts</title>
<g id="a_node37"><a xlink:href="src/options/onOptionChange.ts" xlink:title="onOptionChange.ts">
<path fill="#ddfeff" stroke="#000000" d="M925.5,-113.3324C925.5,-113.3324 841.5,-113.3324 841.5,-113.3324 838.5,-113.3324 835.5,-110.3324 835.5,-107.3324 835.5,-107.3324 835.5,-101.3324 835.5,-101.3324 835.5,-98.3324 838.5,-95.3324 841.5,-95.3324 841.5,-95.3324 925.5,-95.3324 925.5,-95.3324 928.5,-95.3324 931.5,-98.3324 931.5,-101.3324 931.5,-101.3324 931.5,-107.3324 931.5,-107.3324 931.5,-110.3324 928.5,-113.3324 925.5,-113.3324"/>
<text text-anchor="start" x="843.5" y="-102.1324" font-family="Helvetica,sans-Serif" font-size="9.00" fill="#000000">onOptionChange.ts</text>
</a>
</g>
</g>
<!-- src/options/optionsStorageApi.ts&#45;&gt;src/options/onOptionChange.ts -->
<g id="edge65" class="edge">
<title>src/options/optionsStorageApi.ts&#45;&gt;src/options/onOptionChange.ts</title>
<path fill="none" stroke="#000000" stroke-width="2" stroke-opacity="0.200000" d="M800.8515,-104.3324C810.16,-104.3324 819.9066,-104.3324 829.3083,-104.3324"/>
<polygon fill="#000000" fill-opacity="0.200000" stroke="#000000" stroke-width="2" stroke-opacity="0.200000" points="829.4287,-106.4325 835.4287,-104.3324 829.4287,-102.2325 829.4287,-106.4325"/>
</g>
<!-- src/options/api/ -->
<g id="node36" class="node">
<title>src/options/api/</title>
<g id="a_node36"><a xlink:href="src/options/api/" xlink:title="api">
<polygon fill="#ffffcc" stroke="#000000" points="910.5,-83.3324 858.5,-83.3324 856.5,-81.3324 856.5,-65.3324 908.5,-65.3324 910.5,-67.3324 910.5,-83.3324"/>
<polyline fill="none" stroke="#000000" points="908.5,-81.3324 856.5,-81.3324 "/>
<polyline fill="none" stroke="#000000" points="908.5,-81.3324 908.5,-65.3324 "/>
<polyline fill="none" stroke="#000000" points="908.5,-81.3324 910.5,-83.3324 "/>
<text text-anchor="middle" x="883.5" y="-72.1324" font-family="Helvetica,sans-Serif" font-size="9.00" fill="#000000">api</text>
</a>
</g>
</g>
<!-- src/options/useSolidApis.ts&#45;&gt;src/options/api/ -->
<g id="edge66" class="edge">
<title>src/options/useSolidApis.ts&#45;&gt;src/options/api/</title>
<path fill="none" stroke="#000000" stroke-width="2" stroke-opacity="0.200000" d="M790.0544,-74.3324C809.0704,-74.3324 831.5472,-74.3324 849.6907,-74.3324"/>
<polygon fill="#000000" fill-opacity="0.200000" stroke="#000000" stroke-width="2" stroke-opacity="0.200000" points="850.1647,-76.4325 856.1647,-74.3324 850.1646,-72.2325 850.1647,-76.4325"/>
</g>
<!-- src/content/sendMessage.ts&#45;&gt;src/domain/messages.ts -->
<g id="edge46" class="edge">
<title>src/content/sendMessage.ts&#45;&gt;src/domain/messages.ts</title>
<path fill="none" stroke="#000000" stroke-width="2" stroke-opacity="0.200000" d="M760.9709,-318.4145C786.2359,-341.8678 787.7469,-365.3212 765.504,-388.7746"/>
<polygon fill="#000000" fill-opacity="0.200000" stroke="#000000" stroke-width="2" stroke-opacity="0.200000" points="763.8649,-387.442 761.0747,-393.1539 766.8179,-390.4287 763.8649,-387.442"/>
<path fill="none" stroke="#000000" stroke-width="2" stroke-opacity="0.200000" d="M739.0291,-318.4145C713.7641,-341.8678 712.2531,-365.3212 734.496,-388.7746"/>
<polygon fill="#000000" fill-opacity="0.200000" stroke="#000000" stroke-width="2" stroke-opacity="0.200000" points="733.1821,-390.4287 738.9253,-393.1539 736.1351,-387.442 733.1821,-390.4287"/>
</g>
<!-- src/options/api/&#45;&gt;src/solid&#45;client&#45;authn&#45;chrome&#45;ext/Session.ts -->
<g id="edge64" class="edge">
<title>src/options/api/&#45;&gt;src/solid&#45;client&#45;authn&#45;chrome&#45;ext/Session.ts</title>
<path fill="none" stroke="#000000" stroke-width="2" stroke-opacity="0.200000" d="M910.5217,-75.5479C924.3088,-77.2504 940.8018,-81.0456 953.5,-89.3324 961.7641,-94.7256 959.7441,-100.1393 966.5,-107.3324 974.6426,-116.0019 984.7997,-124.5138 993.4025,-131.1836"/>
<polygon fill="#000000" fill-opacity="0.200000" stroke="#000000" stroke-width="2" stroke-opacity="0.200000" points="992.4799,-133.1205 998.5261,-135.0834 995.0237,-129.7784 992.4799,-133.1205"/>
</g>
<!-- src/options/api/&#45;&gt;src/chrome/urls.ts -->
<g id="edge63" class="edge">
<title>src/options/api/&#45;&gt;src/chrome/urls.ts</title>
<path fill="none" stroke="#000000" stroke-width="2" stroke-opacity="0.200000" d="M910.6455,-73.272C930.4159,-72.4998 957.3042,-71.4494 978.3458,-70.6275"/>
<polygon fill="#000000" fill-opacity="0.200000" stroke="#000000" stroke-width="2" stroke-opacity="0.200000" points="978.4802,-72.724 984.3936,-70.3913 978.3162,-68.5272 978.4802,-72.724"/>
</g>
<!-- src/solid&#45;client&#45;authn&#45;chrome&#45;ext/ChromeExtensionLogoutHandler.ts -->
<g id="node38" class="node">
<title>src/solid&#45;client&#45;authn&#45;chrome&#45;ext/ChromeExtensionLogoutHandler.ts</title>
<g id="a_node38"><a xlink:href="src/solid-client-authn-chrome-ext/ChromeExtensionLogoutHandler.ts" xlink:title="ChromeExtensionLogoutHandler.ts">
<path fill="#ddfeff" stroke="#000000" d="M1361.5,-152.3324C1361.5,-152.3324 1212.5,-152.3324 1212.5,-152.3324 1209.5,-152.3324 1206.5,-149.3324 1206.5,-146.3324 1206.5,-146.3324 1206.5,-140.3324 1206.5,-140.3324 1206.5,-137.3324 1209.5,-134.3324 1212.5,-134.3324 1212.5,-134.3324 1361.5,-134.3324 1361.5,-134.3324 1364.5,-134.3324 1367.5,-137.3324 1367.5,-140.3324 1367.5,-140.3324 1367.5,-146.3324 1367.5,-146.3324 1367.5,-149.3324 1364.5,-152.3324 1361.5,-152.3324"/>
<text text-anchor="start" x="1214.5" y="-141.1324" font-family="Helvetica,sans-Serif" font-size="9.00" fill="#000000">ChromeExtensionLogoutHandler.ts</text>
</a>
</g>
</g>
<!-- src/solid&#45;client&#45;authn&#45;chrome&#45;ext/chromeExtensionLogout.ts -->
<g id="node39" class="node">
<title>src/solid&#45;client&#45;authn&#45;chrome&#45;ext/chromeExtensionLogout.ts</title>
<g id="a_node39"><a xlink:href="src/solid-client-authn-chrome-ext/chromeExtensionLogout.ts" xlink:title="chromeExtensionLogout.ts">
<path fill="#ddfeff" stroke="#000000" d="M1499.5,-152.3324C1499.5,-152.3324 1386.5,-152.3324 1386.5,-152.3324 1383.5,-152.3324 1380.5,-149.3324 1380.5,-146.3324 1380.5,-146.3324 1380.5,-140.3324 1380.5,-140.3324 1380.5,-137.3324 1383.5,-134.3324 1386.5,-134.3324 1386.5,-134.3324 1499.5,-134.3324 1499.5,-134.3324 1502.5,-134.3324 1505.5,-137.3324 1505.5,-140.3324 1505.5,-140.3324 1505.5,-146.3324 1505.5,-146.3324 1505.5,-149.3324 1502.5,-152.3324 1499.5,-152.3324"/>
<text text-anchor="start" x="1388.5" y="-141.1324" font-family="Helvetica,sans-Serif" font-size="9.00" fill="#000000">chromeExtensionLogout.ts</text>
</a>
</g>
</g>
<!-- src/solid&#45;client&#45;authn&#45;chrome&#45;ext/ChromeExtensionLogoutHandler.ts&#45;&gt;src/solid&#45;client&#45;authn&#45;chrome&#45;ext/chromeExtensionLogout.ts -->
<g id="edge67" class="edge">
<title>src/solid&#45;client&#45;authn&#45;chrome&#45;ext/ChromeExtensionLogoutHandler.ts&#45;&gt;src/solid&#45;client&#45;authn&#45;chrome&#45;ext/chromeExtensionLogout.ts</title>
<path fill="none" stroke="#000000" stroke-width="2" stroke-opacity="0.200000" d="M1367.7417,-143.3324C1369.8234,-143.3324 1371.9024,-143.3324 1373.973,-143.3324"/>
<polygon fill="#000000" fill-opacity="0.200000" stroke="#000000" stroke-width="2" stroke-opacity="0.200000" points="1374.153,-145.4325 1380.153,-143.3324 1374.1529,-141.2325 1374.153,-145.4325"/>
</g>
<!-- src/solid&#45;client&#45;authn&#45;chrome&#45;ext/launchWebAuthFlow.ts -->
<g id="node41" class="node">
<title>src/solid&#45;client&#45;authn&#45;chrome&#45;ext/launchWebAuthFlow.ts</title>
<g id="a_node41"><a xlink:href="src/solid-client-authn-chrome-ext/launchWebAuthFlow.ts" xlink:title="launchWebAuthFlow.ts">
<path fill="#ddfeff" stroke="#000000" d="M1492,-182.3324C1492,-182.3324 1394,-182.3324 1394,-182.3324 1391,-182.3324 1388,-179.3324 1388,-176.3324 1388,-176.3324 1388,-170.3324 1388,-170.3324 1388,-167.3324 1391,-164.3324 1394,-164.3324 1394,-164.3324 1492,-164.3324 1492,-164.3324 1495,-164.3324 1498,-167.3324 1498,-170.3324 1498,-170.3324 1498,-176.3324 1498,-176.3324 1498,-179.3324 1495,-182.3324 1492,-182.3324"/>
<text text-anchor="start" x="1396" y="-171.1324" font-family="Helvetica,sans-Serif" font-size="9.00" fill="#000000">launchWebAuthFlow.ts</text>
</a>
</g>
</g>
<!-- src/solid&#45;client&#45;authn&#45;chrome&#45;ext/ChromeExtensionRedirector.ts&#45;&gt;src/solid&#45;client&#45;authn&#45;chrome&#45;ext/launchWebAuthFlow.ts -->
<g id="edge68" class="edge">
<title>src/solid&#45;client&#45;authn&#45;chrome&#45;ext/ChromeExtensionRedirector.ts&#45;&gt;src/solid&#45;client&#45;authn&#45;chrome&#45;ext/launchWebAuthFlow.ts</title>
<path fill="none" stroke="#000000" stroke-width="2" stroke-opacity="0.200000" d="M1358.1524,-173.3324C1365.9371,-173.3324 1373.8135,-173.3324 1381.4681,-173.3324"/>
<polygon fill="#000000" fill-opacity="0.200000" stroke="#000000" stroke-width="2" stroke-opacity="0.200000" points="1381.8391,-175.4325 1387.839,-173.3324 1381.839,-171.2325 1381.8391,-175.4325"/>
</g>
<!-- src/solid&#45;client&#45;authn&#45;chrome&#45;ext/getClientAuthentication.ts&#45;&gt;src/solid&#45;client&#45;authn&#45;chrome&#45;ext/ChromeExtensionLogoutHandler.ts -->
<g id="edge73" class="edge">
<title>src/solid&#45;client&#45;authn&#45;chrome&#45;ext/getClientAuthentication.ts&#45;&gt;src/solid&#45;client&#45;authn&#45;chrome&#45;ext/ChromeExtensionLogoutHandler.ts</title>
<path fill="none" stroke="#000000" stroke-width="2" stroke-opacity="0.200000" d="M1190.7003,-153.1464C1193.7743,-152.8331 1196.8868,-152.5159 1200.0175,-152.1969"/>
<polygon fill="#000000" fill-opacity="0.200000" stroke="#000000" stroke-width="2" stroke-opacity="0.200000" points="1200.7066,-154.2376 1206.4627,-151.54 1200.2807,-150.0593 1200.7066,-154.2376"/>
</g>
<!-- src/solid&#45;client&#45;authn&#45;chrome&#45;ext/getClientAuthentication.ts&#45;&gt;src/solid&#45;client&#45;authn&#45;chrome&#45;ext/ChromeExtensionRedirector.ts -->
<g id="edge74" class="edge">
<title>src/solid&#45;client&#45;authn&#45;chrome&#45;ext/getClientAuthentication.ts&#45;&gt;src/solid&#45;client&#45;authn&#45;chrome&#45;ext/ChromeExtensionRedirector.ts</title>
<path fill="none" stroke="#000000" stroke-width="2" stroke-opacity="0.200000" d="M1190.7003,-164.7452C1196.9131,-165.2992 1203.2829,-165.8672 1209.6427,-166.4343"/>
<polygon fill="#000000" fill-opacity="0.200000" stroke="#000000" stroke-width="2" stroke-opacity="0.200000" points="1209.8301,-168.5593 1215.993,-167.0006 1210.2032,-164.3759 1209.8301,-168.5593"/>
</g>
<!-- src/store/createAboutStatements.ts -->
<g id="node46" class="node">
<title>src/store/createAboutStatements.ts</title>
<g id="a_node46"><a xlink:href="src/store/createAboutStatements.ts" xlink:title="createAboutStatements.ts">
<path fill="#ddfeff" stroke="#000000" d="M1184.5,-511.3324C1184.5,-511.3324 1075.5,-511.3324 1075.5,-511.3324 1072.5,-511.3324 1069.5,-508.3324 1069.5,-505.3324 1069.5,-505.3324 1069.5,-499.3324 1069.5,-499.3324 1069.5,-496.3324 1072.5,-493.3324 1075.5,-493.3324 1075.5,-493.3324 1184.5,-493.3324 1184.5,-493.3324 1187.5,-493.3324 1190.5,-496.3324 1190.5,-499.3324 1190.5,-499.3324 1190.5,-505.3324 1190.5,-505.3324 1190.5,-508.3324 1187.5,-511.3324 1184.5,-511.3324"/>
<text text-anchor="start" x="1077.5" y="-500.1324" font-family="Helvetica,sans-Serif" font-size="9.00" fill="#000000">createAboutStatements.ts</text>
</a>
</g>
</g>
<!-- src/store/createRelations.ts&#45;&gt;src/store/createAboutStatements.ts -->
<g id="edge77" class="edge">
<title>src/store/createRelations.ts&#45;&gt;src/store/createAboutStatements.ts</title>
<path fill="none" stroke="#000000" stroke-width="2" stroke-opacity="0.200000" d="M1056.6378,-502.3324C1058.8616,-502.3324 1061.1136,-502.3324 1063.3802,-502.3324"/>
<polygon fill="#000000" fill-opacity="0.200000" stroke="#000000" stroke-width="2" stroke-opacity="0.200000" points="1063.4049,-504.4325 1069.4048,-502.3324 1063.4048,-500.2325 1063.4049,-504.4325"/>
</g>
</g>
</svg>
