<?xml version="1.0" encoding="UTF-8" standalone="no"?>
<!DOCTYPE svg PUBLIC "-//W3C//DTD SVG 1.1//EN"
 "http://www.w3.org/Graphics/SVG/1.1/DTD/svg11.dtd">
<!-- Generated by graphviz version 2.40.1 (20161225.0304)
 -->
<!-- Title: dependency&#45;cruiser output Pages: 1 -->
<svg width="1538pt" height="625pt"
 viewBox="0.00 0.00 1537.50 624.63" xmlns="http://www.w3.org/2000/svg" xmlns:xlink="http://www.w3.org/1999/xlink">
<g id="graph0" class="graph" transform="scale(1 1) rotate(0) translate(4 620.6348)">
<title>dependency&#45;cruiser output</title>
<polygon fill="#ffffff" stroke="transparent" points="-4,4 -4,-620.6348 1533.5,-620.6348 1533.5,4 -4,4"/>
<g id="clust1" class="cluster">
<title>cluster_src</title>
<path fill="#ffffff" stroke="#000000" stroke-width="2" d="M20,-38.6348C20,-38.6348 1509.5,-38.6348 1509.5,-38.6348 1515.5,-38.6348 1521.5,-44.6348 1521.5,-50.6348 1521.5,-50.6348 1521.5,-596.6348 1521.5,-596.6348 1521.5,-602.6348 1515.5,-608.6348 1509.5,-608.6348 1509.5,-608.6348 20,-608.6348 20,-608.6348 14,-608.6348 8,-602.6348 8,-596.6348 8,-596.6348 8,-50.6348 8,-50.6348 8,-44.6348 14,-38.6348 20,-38.6348"/>
<text text-anchor="middle" x="764.75" y="-597.4348" font-family="Helvetica,sans-Serif" font-weight="bold" font-size="9.00" fill="#000000">src</text>
</g>
<g id="clust2" class="cluster">
<title>cluster_src/api</title>
<path fill="#ffffff" stroke="#000000" stroke-width="2" d="M724,-396.6348C724,-396.6348 1034.5,-396.6348 1034.5,-396.6348 1040.5,-396.6348 1046.5,-402.6348 1046.5,-408.6348 1046.5,-408.6348 1046.5,-480.6348 1046.5,-480.6348 1046.5,-486.6348 1040.5,-492.6348 1034.5,-492.6348 1034.5,-492.6348 724,-492.6348 724,-492.6348 718,-492.6348 712,-486.6348 712,-480.6348 712,-480.6348 712,-408.6348 712,-408.6348 712,-402.6348 718,-396.6348 724,-396.6348"/>
<text text-anchor="middle" x="879.25" y="-481.4348" font-family="Helvetica,sans-Serif" font-weight="bold" font-size="9.00" fill="#000000">api</text>
</g>
<g id="clust3" class="cluster">
<title>cluster_src/assets</title>
<path fill="#ffffff" stroke="#000000" stroke-width="2" d="M97.5,-46.6348C97.5,-46.6348 151.5,-46.6348 151.5,-46.6348 157.5,-46.6348 163.5,-52.6348 163.5,-58.6348 163.5,-58.6348 163.5,-86.6348 163.5,-86.6348 163.5,-92.6348 157.5,-98.6348 151.5,-98.6348 151.5,-98.6348 97.5,-98.6348 97.5,-98.6348 91.5,-98.6348 85.5,-92.6348 85.5,-86.6348 85.5,-86.6348 85.5,-58.6348 85.5,-58.6348 85.5,-52.6348 91.5,-46.6348 97.5,-46.6348"/>
<text text-anchor="middle" x="124.5" y="-87.4348" font-family="Helvetica,sans-Serif" font-weight="bold" font-size="9.00" fill="#000000">assets</text>
</g>
<g id="clust4" class="cluster">
<title>cluster_src/chrome</title>
<path fill="#ffffff" stroke="#000000" stroke-width="2" d="M988.5,-46.6348C988.5,-46.6348 1034.5,-46.6348 1034.5,-46.6348 1040.5,-46.6348 1046.5,-52.6348 1046.5,-58.6348 1046.5,-58.6348 1046.5,-86.6348 1046.5,-86.6348 1046.5,-92.6348 1040.5,-98.6348 1034.5,-98.6348 1034.5,-98.6348 988.5,-98.6348 988.5,-98.6348 982.5,-98.6348 976.5,-92.6348 976.5,-86.6348 976.5,-86.6348 976.5,-58.6348 976.5,-58.6348 976.5,-52.6348 982.5,-46.6348 988.5,-46.6348"/>
<text text-anchor="middle" x="1011.5" y="-87.4348" font-family="Helvetica,sans-Serif" font-weight="bold" font-size="9.00" fill="#000000">chrome</text>
</g>
<g id="clust5" class="cluster">
<title>cluster_src/components</title>
<path fill="#ffffff" stroke="#000000" stroke-width="2" d="M579,-426.6348C579,-426.6348 659,-426.6348 659,-426.6348 665,-426.6348 671,-432.6348 671,-438.6348 671,-438.6348 671,-496.6348 671,-496.6348 671,-502.6348 665,-508.6348 659,-508.6348 659,-508.6348 579,-508.6348 579,-508.6348 573,-508.6348 567,-502.6348 567,-496.6348 567,-496.6348 567,-438.6348 567,-438.6348 567,-432.6348 573,-426.6348 579,-426.6348"/>
<text text-anchor="middle" x="619" y="-497.4348" font-family="Helvetica,sans-Serif" font-weight="bold" font-size="9.00" fill="#000000">components</text>
</g>
<g id="clust6" class="cluster">
<title>cluster_src/content</title>
<path fill="#ffffff" stroke="#000000" stroke-width="2" d="M96,-160.6348C96,-160.6348 787.5,-160.6348 787.5,-160.6348 793.5,-160.6348 799.5,-166.6348 799.5,-172.6348 799.5,-172.6348 799.5,-376.6348 799.5,-376.6348 799.5,-382.6348 793.5,-388.6348 787.5,-388.6348 787.5,-388.6348 96,-388.6348 96,-388.6348 90,-388.6348 84,-382.6348 84,-376.6348 84,-376.6348 84,-172.6348 84,-172.6348 84,-166.6348 90,-160.6348 96,-160.6348"/>
<text text-anchor="middle" x="441.75" y="-377.4348" font-family="Helvetica,sans-Serif" font-weight="bold" font-size="9.00" fill="#000000">content</text>
</g>
<g id="clust7" class="cluster">
<title>cluster_src/options</title>
<path fill="#ffffff" stroke="#000000" stroke-width="2" d="M703.5,-70.6348C703.5,-70.6348 927.5,-70.6348 927.5,-70.6348 933.5,-70.6348 939.5,-76.6348 939.5,-82.6348 939.5,-82.6348 939.5,-140.6348 939.5,-140.6348 939.5,-146.6348 933.5,-152.6348 927.5,-152.6348 927.5,-152.6348 703.5,-152.6348 703.5,-152.6348 697.5,-152.6348 691.5,-146.6348 691.5,-140.6348 691.5,-140.6348 691.5,-82.6348 691.5,-82.6348 691.5,-76.6348 697.5,-70.6348 703.5,-70.6348"/>
<text text-anchor="middle" x="815.5" y="-141.4348" font-family="Helvetica,sans-Serif" font-weight="bold" font-size="9.00" fill="#000000">options</text>
</g>
<g id="clust8" class="cluster">
<title>cluster_src/solid&#45;client&#45;authn&#45;chrome&#45;ext</title>
<path fill="#ffffff" stroke="#000000" stroke-width="2" d="M986,-106.6348C986,-106.6348 1501.5,-106.6348 1501.5,-106.6348 1507.5,-106.6348 1513.5,-112.6348 1513.5,-118.6348 1513.5,-118.6348 1513.5,-190.6348 1513.5,-190.6348 1513.5,-196.6348 1507.5,-202.6348 1501.5,-202.6348 1501.5,-202.6348 986,-202.6348 986,-202.6348 980,-202.6348 974,-196.6348 974,-190.6348 974,-190.6348 974,-118.6348 974,-118.6348 974,-112.6348 980,-106.6348 986,-106.6348"/>
<text text-anchor="middle" x="1243.75" y="-191.4348" font-family="Helvetica,sans-Serif" font-weight="bold" font-size="9.00" fill="#000000">solid&#45;client&#45;authn&#45;chrome&#45;ext</text>
</g>
<g id="clust9" class="cluster">
<title>cluster_src/store</title>
<path fill="#ffffff" stroke="#000000" stroke-width="2" d="M860.5,-500.6348C860.5,-500.6348 1186.5,-500.6348 1186.5,-500.6348 1192.5,-500.6348 1198.5,-506.6348 1198.5,-512.6348 1198.5,-512.6348 1198.5,-570.6348 1198.5,-570.6348 1198.5,-576.6348 1192.5,-582.6348 1186.5,-582.6348 1186.5,-582.6348 860.5,-582.6348 860.5,-582.6348 854.5,-582.6348 848.5,-576.6348 848.5,-570.6348 848.5,-570.6348 848.5,-512.6348 848.5,-512.6348 848.5,-506.6348 854.5,-500.6348 860.5,-500.6348"/>
<text text-anchor="middle" x="1023.5" y="-571.4348" font-family="Helvetica,sans-Serif" font-weight="bold" font-size="9.00" fill="#000000">store</text>
</g>
<!-- events -->
<g id="node1" class="node">
<title>events</title>
<g id="a_node1"><a xlink:title="events">
<path fill="#ffffcc" stroke="#c0c0c0" d="M1151,-30.6348C1151,-30.6348 1109,-30.6348 1109,-30.6348 1106,-30.6348 1103,-27.6348 1103,-24.6348 1103,-24.6348 1103,-18.6348 1103,-18.6348 1103,-15.6348 1106,-12.6348 1109,-12.6348 1109,-12.6348 1151,-12.6348 1151,-12.6348 1154,-12.6348 1157,-15.6348 1157,-18.6348 1157,-18.6348 1157,-24.6348 1157,-24.6348 1157,-27.6348 1154,-30.6348 1151,-30.6348"/>
<text text-anchor="middle" x="1130" y="-19.4348" font-family="Helvetica,sans-Serif" font-size="9.00" fill="#c0c0c0">events</text>
</a>
</g>
</g>
<!-- src/api/SolidApi.ts -->
<g id="node2" class="node">
<title>src/api/SolidApi.ts</title>
<g id="a_node2"><a xlink:href="src/api/SolidApi.ts" xlink:title="SolidApi.ts">
<path fill="#ddfeff" stroke="#000000" d="M774,-422.6348C774,-422.6348 726,-422.6348 726,-422.6348 723,-422.6348 720,-419.6348 720,-416.6348 720,-416.6348 720,-410.6348 720,-410.6348 720,-407.6348 723,-404.6348 726,-404.6348 726,-404.6348 774,-404.6348 774,-404.6348 777,-404.6348 780,-407.6348 780,-410.6348 780,-410.6348 780,-416.6348 780,-416.6348 780,-419.6348 777,-422.6348 774,-422.6348"/>
<text text-anchor="start" x="728" y="-411.4348" font-family="Helvetica,sans-Serif" font-size="9.00" fill="#000000">SolidApi.ts</text>
</a>
</g>
</g>
<!-- src/content/usePage.ts -->
<g id="node3" class="node">
<title>src/content/usePage.ts</title>
<g id="a_node3"><a xlink:href="src/content/usePage.ts" xlink:title="usePage.ts">
<path fill="#ddfeff" stroke="#000000" d="M775,-287.6348C775,-287.6348 725,-287.6348 725,-287.6348 722,-287.6348 719,-284.6348 719,-281.6348 719,-281.6348 719,-275.6348 719,-275.6348 719,-272.6348 722,-269.6348 725,-269.6348 725,-269.6348 775,-269.6348 775,-269.6348 778,-269.6348 781,-272.6348 781,-275.6348 781,-275.6348 781,-281.6348 781,-281.6348 781,-284.6348 778,-287.6348 775,-287.6348"/>
<text text-anchor="start" x="727" y="-276.4348" font-family="Helvetica,sans-Serif" font-size="9.00" fill="#000000">usePage.ts</text>
</a>
</g>
</g>
<!-- src/api/SolidApi.ts&#45;&gt;src/content/usePage.ts -->
<g id="edge1" class="edge">
<title>src/api/SolidApi.ts&#45;&gt;src/content/usePage.ts</title>
<path fill="none" stroke="#000000" stroke-width="2" stroke-opacity="0.200000" d="M719.8696,-406.2927C710.1366,-402.9251 699.7417,-398.1811 691.5,-391.6348 688.1539,-388.977 687.405,-387.7247 686.1667,-383.6348 683.5264,-374.9147 683.5264,-310.355 686.1667,-301.6348 689.7162,-289.9115 700.914,-283.9171 712.9612,-280.932"/>
<polygon fill="#000000" fill-opacity="0.200000" stroke="#000000" stroke-width="2" stroke-opacity="0.200000" points="713.4658,-282.9721 718.9137,-279.6963 712.612,-278.8597 713.4658,-282.9721"/>
<path fill="none" stroke="#000000" stroke-width="2" stroke-opacity="0.200000" d="M719.9505,-410.6382C706.5366,-407.4284 692.8458,-400.8872 688.8333,-387.6348 685.9355,-378.0639 685.9355,-307.2058 688.8333,-297.6348 692.0144,-287.1286 701.8377,-281.8998 712.7075,-279.4406"/>
<polygon fill="#000000" fill-opacity="0.200000" stroke="#000000" stroke-width="2" stroke-opacity="0.200000" points="713.284,-281.4708 718.8185,-278.3434 712.5417,-277.3369 713.284,-281.4708"/>
</g>
<!-- src/solid&#45;client&#45;authn&#45;chrome&#45;ext/Session.ts -->
<g id="node4" class="node">
<title>src/solid&#45;client&#45;authn&#45;chrome&#45;ext/Session.ts</title>
<g id="a_node4"><a xlink:href="src/solid-client-authn-chrome-ext/Session.ts" xlink:title="Session.ts">
<path fill="#ddfeff" stroke="#000000" d="M1035,-143.6348C1035,-143.6348 988,-143.6348 988,-143.6348 985,-143.6348 982,-140.6348 982,-137.6348 982,-137.6348 982,-131.6348 982,-131.6348 982,-128.6348 985,-125.6348 988,-125.6348 988,-125.6348 1035,-125.6348 1035,-125.6348 1038,-125.6348 1041,-128.6348 1041,-131.6348 1041,-131.6348 1041,-137.6348 1041,-137.6348 1041,-140.6348 1038,-143.6348 1035,-143.6348"/>
<text text-anchor="start" x="990" y="-132.4348" font-family="Helvetica,sans-Serif" font-size="9.00" fill="#000000">Session.ts</text>
</a>
</g>
</g>
<!-- src/api/SolidApi.ts&#45;&gt;src/solid&#45;client&#45;authn&#45;chrome&#45;ext/Session.ts -->
<g id="edge2" class="edge">
<title>src/api/SolidApi.ts&#45;&gt;src/solid&#45;client&#45;authn&#45;chrome&#45;ext/Session.ts</title>
<path fill="none" stroke="#000000" stroke-width="2" stroke-opacity="0.200000" d="M777.2404,-404.5368C785.1688,-401.1779 793.5569,-396.8815 800.5,-391.6348 897.4737,-318.3558 977.6606,-191.7728 1003.0782,-149.133"/>
<polygon fill="#000000" fill-opacity="0.200000" stroke="#000000" stroke-width="2" stroke-opacity="0.200000" points="1004.9205,-150.1432 1006.1671,-143.9097 1001.3053,-148.0052 1004.9205,-150.1432"/>
</g>
<!-- src/store/Store.ts -->
<g id="node5" class="node">
<title>src/store/Store.ts</title>
<g id="a_node5"><a xlink:href="src/store/Store.ts" xlink:title="Store.ts">
<path fill="#ddfeff" stroke="#000000" d="M904.5,-526.6348C904.5,-526.6348 862.5,-526.6348 862.5,-526.6348 859.5,-526.6348 856.5,-523.6348 856.5,-520.6348 856.5,-520.6348 856.5,-514.6348 856.5,-514.6348 856.5,-511.6348 859.5,-508.6348 862.5,-508.6348 862.5,-508.6348 904.5,-508.6348 904.5,-508.6348 907.5,-508.6348 910.5,-511.6348 910.5,-514.6348 910.5,-514.6348 910.5,-520.6348 910.5,-520.6348 910.5,-523.6348 907.5,-526.6348 904.5,-526.6348"/>
<text text-anchor="start" x="868" y="-515.4348" font-family="Helvetica,sans-Serif" font-size="9.00" fill="#000000">Store.ts</text>
</a>
</g>
</g>
<!-- src/api/SolidApi.ts&#45;&gt;src/store/Store.ts -->
<g id="edge3" class="edge">
<title>src/api/SolidApi.ts&#45;&gt;src/store/Store.ts</title>
<path fill="none" stroke="#000000" stroke-width="2" stroke-opacity="0.200000" d="M780.1917,-415.7006C787.7333,-417.6196 795.1785,-420.9515 800.5,-426.6348 821.8291,-449.4141 792.7768,-472.303 813.5,-495.6348 822.8167,-506.1243 837.0726,-511.6602 850.2937,-514.5633"/>
<polygon fill="#000000" fill-opacity="0.200000" stroke="#000000" stroke-width="2" stroke-opacity="0.200000" points="849.9843,-516.6423 856.2739,-515.7202 850.7821,-512.5188 849.9843,-516.6423"/>
</g>
<!-- src/api/generateDatePathForToday.ts -->
<g id="node6" class="node">
<title>src/api/generateDatePathForToday.ts</title>
<g id="a_node6"><a xlink:href="src/api/generateDatePathForToday.ts" xlink:title="generateDatePathForToday.ts">
<path fill="#ddfeff" stroke="#000000" d="M947.5,-422.6348C947.5,-422.6348 819.5,-422.6348 819.5,-422.6348 816.5,-422.6348 813.5,-419.6348 813.5,-416.6348 813.5,-416.6348 813.5,-410.6348 813.5,-410.6348 813.5,-407.6348 816.5,-404.6348 819.5,-404.6348 819.5,-404.6348 947.5,-404.6348 947.5,-404.6348 950.5,-404.6348 953.5,-407.6348 953.5,-410.6348 953.5,-410.6348 953.5,-416.6348 953.5,-416.6348 953.5,-419.6348 950.5,-422.6348 947.5,-422.6348"/>
<text text-anchor="start" x="821.5" y="-411.4348" font-family="Helvetica,sans-Serif" font-size="9.00" fill="#000000">generateDatePathForToday.ts</text>
</a>
</g>
</g>
<!-- src/api/SolidApi.ts&#45;&gt;src/api/generateDatePathForToday.ts -->
<g id="edge4" class="edge">
<title>src/api/SolidApi.ts&#45;&gt;src/api/generateDatePathForToday.ts</title>
<path fill="none" stroke="#000000" stroke-width="2" stroke-opacity="0.200000" d="M780.2932,-413.6348C788.434,-413.6348 797.6183,-413.6348 807.0671,-413.6348"/>
<polygon fill="#000000" fill-opacity="0.200000" stroke="#000000" stroke-width="2" stroke-opacity="0.200000" points="807.3062,-415.7349 813.3062,-413.6348 807.3062,-411.5349 807.3062,-415.7349"/>
</g>
<!-- src/api/generateUuid.ts -->
<g id="node7" class="node">
<title>src/api/generateUuid.ts</title>
<g id="a_node7"><a xlink:href="src/api/generateUuid.ts" xlink:title="generateUuid.ts">
<path fill="#ddfeff" stroke="#000000" d="M918.5,-452.6348C918.5,-452.6348 848.5,-452.6348 848.5,-452.6348 845.5,-452.6348 842.5,-449.6348 842.5,-446.6348 842.5,-446.6348 842.5,-440.6348 842.5,-440.6348 842.5,-437.6348 845.5,-434.6348 848.5,-434.6348 848.5,-434.6348 918.5,-434.6348 918.5,-434.6348 921.5,-434.6348 924.5,-437.6348 924.5,-440.6348 924.5,-440.6348 924.5,-446.6348 924.5,-446.6348 924.5,-449.6348 921.5,-452.6348 918.5,-452.6348"/>
<text text-anchor="start" x="850.5" y="-441.4348" font-family="Helvetica,sans-Serif" font-size="9.00" fill="#000000">generateUuid.ts</text>
</a>
</g>
</g>
<!-- src/api/SolidApi.ts&#45;&gt;src/api/generateUuid.ts -->
<g id="edge5" class="edge">
<title>src/api/SolidApi.ts&#45;&gt;src/api/generateUuid.ts</title>
<path fill="none" stroke="#000000" stroke-width="2" stroke-opacity="0.200000" d="M780.0109,-420.8597C790.5844,-423.3692 802.5596,-426.1708 813.5,-428.6348 820.7939,-430.2776 828.5252,-431.9766 836.0855,-433.6147"/>
<polygon fill="#000000" fill-opacity="0.200000" stroke="#000000" stroke-width="2" stroke-opacity="0.200000" points="836.0745,-435.7606 842.3826,-434.9738 836.9607,-431.6552 836.0745,-435.7606"/>
</g>
<!-- src/api/now.ts -->
<g id="node8" class="node">
<title>src/api/now.ts</title>
<g id="a_node8"><a xlink:href="src/api/now.ts" xlink:title="now.ts">
<path fill="#ddfeff" stroke="#000000" d="M1032.5,-444.6348C1032.5,-444.6348 990.5,-444.6348 990.5,-444.6348 987.5,-444.6348 984.5,-441.6348 984.5,-438.6348 984.5,-438.6348 984.5,-432.6348 984.5,-432.6348 984.5,-429.6348 987.5,-426.6348 990.5,-426.6348 990.5,-426.6348 1032.5,-426.6348 1032.5,-426.6348 1035.5,-426.6348 1038.5,-429.6348 1038.5,-432.6348 1038.5,-432.6348 1038.5,-438.6348 1038.5,-438.6348 1038.5,-441.6348 1035.5,-444.6348 1032.5,-444.6348"/>
<text text-anchor="start" x="998" y="-433.4348" font-family="Helvetica,sans-Serif" font-size="9.00" fill="#000000">now.ts</text>
</a>
</g>
</g>
<!-- src/api/SolidApi.ts&#45;&gt;src/api/now.ts -->
<g id="edge6" class="edge">
<title>src/api/SolidApi.ts&#45;&gt;src/api/now.ts</title>
<path fill="none" stroke="#000000" stroke-width="2" stroke-opacity="0.200000" d="M780.0035,-416.5758C787.3698,-418.5091 794.7749,-421.6294 800.5,-426.6348 812.0568,-436.739 800.7652,-450.0628 813.5,-458.6348 867.5411,-495.0109 949.1651,-465.4548 988.5876,-447.2607"/>
<polygon fill="#000000" fill-opacity="0.200000" stroke="#000000" stroke-width="2" stroke-opacity="0.200000" points="989.5571,-449.1253 994.0895,-444.6679 987.7667,-445.326 989.5571,-449.1253"/>
</g>
<!-- src/solid&#45;client&#45;authn&#45;chrome&#45;ext/Session.ts&#45;&gt;events -->
<g id="edge70" class="edge">
<title>src/solid&#45;client&#45;authn&#45;chrome&#45;ext/Session.ts&#45;&gt;events</title>
<path fill="none" stroke="#000000" stroke-dasharray="5,2" stroke-opacity="0.200000" d="M1025.4227,-125.4731C1034.5971,-119.1878 1046.6838,-110.4236 1056.5,-101.6348 1080.1858,-80.428 1104.546,-52.4641 1118.4235,-35.8358"/>
<polygon fill="#000000" fill-opacity="0.200000" stroke="#000000" stroke-opacity="0.200000" points="1120.1702,-37.0192 1122.3814,-31.0592 1116.9361,-34.3394 1120.1702,-37.0192"/>
</g>
<!-- src/solid&#45;client&#45;authn&#45;chrome&#45;ext/ChromeExtensionRedirector.ts -->
<g id="node38" class="node">
<title>src/solid&#45;client&#45;authn&#45;chrome&#45;ext/ChromeExtensionRedirector.ts</title>
<g id="a_node38"><a xlink:href="src/solid-client-authn-chrome-ext/ChromeExtensionRedirector.ts" xlink:title="ChromeExtensionRedirector.ts">
<path fill="#ddfeff" stroke="#000000" d="M1352,-162.6348C1352,-162.6348 1222,-162.6348 1222,-162.6348 1219,-162.6348 1216,-159.6348 1216,-156.6348 1216,-156.6348 1216,-150.6348 1216,-150.6348 1216,-147.6348 1219,-144.6348 1222,-144.6348 1222,-144.6348 1352,-144.6348 1352,-144.6348 1355,-144.6348 1358,-147.6348 1358,-150.6348 1358,-150.6348 1358,-156.6348 1358,-156.6348 1358,-159.6348 1355,-162.6348 1352,-162.6348"/>
<text text-anchor="start" x="1224" y="-151.4348" font-family="Helvetica,sans-Serif" font-size="9.00" fill="#000000">ChromeExtensionRedirector.ts</text>
</a>
</g>
</g>
<!-- src/solid&#45;client&#45;authn&#45;chrome&#45;ext/Session.ts&#45;&gt;src/solid&#45;client&#45;authn&#45;chrome&#45;ext/ChromeExtensionRedirector.ts -->
<g id="edge67" class="edge">
<title>src/solid&#45;client&#45;authn&#45;chrome&#45;ext/Session.ts&#45;&gt;src/solid&#45;client&#45;authn&#45;chrome&#45;ext/ChromeExtensionRedirector.ts</title>
<path fill="none" stroke="#000000" stroke-width="2" stroke-opacity="0.200000" d="M1041.2451,-136.6862C1081.2503,-139.4452 1153.8254,-144.4504 1209.7738,-148.3089"/>
<polygon fill="#000000" fill-opacity="0.200000" stroke="#000000" stroke-width="2" stroke-opacity="0.200000" points="1209.6907,-150.4081 1215.821,-148.7259 1209.9798,-146.218 1209.6907,-150.4081"/>
</g>
<!-- src/solid&#45;client&#45;authn&#45;chrome&#45;ext/getClientAuthentication.ts -->
<g id="node40" class="node">
<title>src/solid&#45;client&#45;authn&#45;chrome&#45;ext/getClientAuthentication.ts</title>
<g id="a_node40"><a xlink:href="src/solid-client-authn-chrome-ext/getClientAuthentication.ts" xlink:title="getClientAuthentication.ts">
<path fill="#ddfeff" stroke="#000000" d="M1184.5,-132.6348C1184.5,-132.6348 1075.5,-132.6348 1075.5,-132.6348 1072.5,-132.6348 1069.5,-129.6348 1069.5,-126.6348 1069.5,-126.6348 1069.5,-120.6348 1069.5,-120.6348 1069.5,-117.6348 1072.5,-114.6348 1075.5,-114.6348 1075.5,-114.6348 1184.5,-114.6348 1184.5,-114.6348 1187.5,-114.6348 1190.5,-117.6348 1190.5,-120.6348 1190.5,-120.6348 1190.5,-126.6348 1190.5,-126.6348 1190.5,-129.6348 1187.5,-132.6348 1184.5,-132.6348"/>
<text text-anchor="start" x="1077.5" y="-121.4348" font-family="Helvetica,sans-Serif" font-size="9.00" fill="#000000">getClientAuthentication.ts</text>
</a>
</g>
</g>
<!-- src/solid&#45;client&#45;authn&#45;chrome&#45;ext/Session.ts&#45;&gt;src/solid&#45;client&#45;authn&#45;chrome&#45;ext/getClientAuthentication.ts -->
<g id="edge68" class="edge">
<title>src/solid&#45;client&#45;authn&#45;chrome&#45;ext/Session.ts&#45;&gt;src/solid&#45;client&#45;authn&#45;chrome&#45;ext/getClientAuthentication.ts</title>
<path fill="none" stroke="#000000" stroke-width="2" stroke-opacity="0.200000" d="M1041.0969,-131.8874C1047.845,-131.261 1055.2846,-130.5704 1062.9003,-129.8635"/>
<polygon fill="#000000" fill-opacity="0.200000" stroke="#000000" stroke-width="2" stroke-opacity="0.200000" points="1063.5474,-131.9126 1069.3275,-129.2669 1063.1591,-127.7305 1063.5474,-131.9126"/>
</g>
<!-- src/solid&#45;client&#45;authn&#45;chrome&#45;ext/time.ts -->
<g id="node41" class="node">
<title>src/solid&#45;client&#45;authn&#45;chrome&#45;ext/time.ts</title>
<g id="a_node41"><a xlink:href="src/solid-client-authn-chrome-ext/time.ts" xlink:title="time.ts">
<path fill="#ddfeff" stroke="#000000" d="M1151,-176.6348C1151,-176.6348 1109,-176.6348 1109,-176.6348 1106,-176.6348 1103,-173.6348 1103,-170.6348 1103,-170.6348 1103,-164.6348 1103,-164.6348 1103,-161.6348 1106,-158.6348 1109,-158.6348 1109,-158.6348 1151,-158.6348 1151,-158.6348 1154,-158.6348 1157,-161.6348 1157,-164.6348 1157,-164.6348 1157,-170.6348 1157,-170.6348 1157,-173.6348 1154,-176.6348 1151,-176.6348"/>
<text text-anchor="start" x="1116.5" y="-165.4348" font-family="Helvetica,sans-Serif" font-size="9.00" fill="#000000">time.ts</text>
</a>
</g>
</g>
<!-- src/solid&#45;client&#45;authn&#45;chrome&#45;ext/Session.ts&#45;&gt;src/solid&#45;client&#45;authn&#45;chrome&#45;ext/time.ts -->
<g id="edge69" class="edge">
<title>src/solid&#45;client&#45;authn&#45;chrome&#45;ext/Session.ts&#45;&gt;src/solid&#45;client&#45;authn&#45;chrome&#45;ext/time.ts</title>
<path fill="none" stroke="#000000" stroke-width="2" stroke-opacity="0.200000" d="M1041.0969,-142.877C1058.0957,-147.6109 1079.4822,-153.5666 1097.019,-158.4502"/>
<polygon fill="#000000" fill-opacity="0.200000" stroke="#000000" stroke-width="2" stroke-opacity="0.200000" points="1096.4633,-160.4753 1102.8067,-160.062 1097.5901,-156.4293 1096.4633,-160.4753"/>
</g>
<!-- src/store/createRelations.ts -->
<g id="node42" class="node">
<title>src/store/createRelations.ts</title>
<g id="a_node42"><a xlink:href="src/store/createRelations.ts" xlink:title="createRelations.ts">
<path fill="#ddfeff" stroke="#000000" d="M1050.5,-526.6348C1050.5,-526.6348 972.5,-526.6348 972.5,-526.6348 969.5,-526.6348 966.5,-523.6348 966.5,-520.6348 966.5,-520.6348 966.5,-514.6348 966.5,-514.6348 966.5,-511.6348 969.5,-508.6348 972.5,-508.6348 972.5,-508.6348 1050.5,-508.6348 1050.5,-508.6348 1053.5,-508.6348 1056.5,-511.6348 1056.5,-514.6348 1056.5,-514.6348 1056.5,-520.6348 1056.5,-520.6348 1056.5,-523.6348 1053.5,-526.6348 1050.5,-526.6348"/>
<text text-anchor="start" x="974.5" y="-515.4348" font-family="Helvetica,sans-Serif" font-size="9.00" fill="#000000">createRelations.ts</text>
</a>
</g>
</g>
<!-- src/store/Store.ts&#45;&gt;src/store/createRelations.ts -->
<g id="edge73" class="edge">
<title>src/store/Store.ts&#45;&gt;src/store/createRelations.ts</title>
<path fill="none" stroke="#000000" stroke-width="2" stroke-opacity="0.200000" d="M910.6455,-517.6348C925.0244,-517.6348 943.1683,-517.6348 960.0898,-517.6348"/>
<polygon fill="#000000" fill-opacity="0.200000" stroke="#000000" stroke-width="2" stroke-opacity="0.200000" points="960.2595,-519.7349 966.2594,-517.6348 960.2594,-515.5349 960.2595,-519.7349"/>
</g>
<!-- src/store/importToStore.ts -->
<g id="node43" class="node">
<title>src/store/importToStore.ts</title>
<g id="a_node43"><a xlink:href="src/store/importToStore.ts" xlink:title="importToStore.ts">
<path fill="#ddfeff" stroke="#000000" d="M1047,-556.6348C1047,-556.6348 976,-556.6348 976,-556.6348 973,-556.6348 970,-553.6348 970,-550.6348 970,-550.6348 970,-544.6348 970,-544.6348 970,-541.6348 973,-538.6348 976,-538.6348 976,-538.6348 1047,-538.6348 1047,-538.6348 1050,-538.6348 1053,-541.6348 1053,-544.6348 1053,-544.6348 1053,-550.6348 1053,-550.6348 1053,-553.6348 1050,-556.6348 1047,-556.6348"/>
<text text-anchor="start" x="978" y="-545.4348" font-family="Helvetica,sans-Serif" font-size="9.00" fill="#000000">importToStore.ts</text>
</a>
</g>
</g>
<!-- src/store/Store.ts&#45;&gt;src/store/importToStore.ts -->
<g id="edge74" class="edge">
<title>src/store/Store.ts&#45;&gt;src/store/importToStore.ts</title>
<path fill="none" stroke="#000000" stroke-width="2" stroke-opacity="0.200000" d="M910.6455,-523.9971C926.8648,-527.7985 947.8745,-532.7226 966.5166,-537.0918"/>
<polygon fill="#000000" fill-opacity="0.200000" stroke="#000000" stroke-width="2" stroke-opacity="0.200000" points="966.4166,-539.2253 972.7376,-538.5499 967.3751,-535.1361 966.4166,-539.2253"/>
</g>
<!-- src/api/generateDatePathForToday.ts&#45;&gt;src/api/now.ts -->
<g id="edge7" class="edge">
<title>src/api/generateDatePathForToday.ts&#45;&gt;src/api/now.ts</title>
<path fill="none" stroke="#000000" stroke-width="2" stroke-opacity="0.200000" d="M935.9318,-422.6466C950.1715,-425.094 965.2015,-427.6773 978.0744,-429.8898"/>
<polygon fill="#000000" fill-opacity="0.200000" stroke="#000000" stroke-width="2" stroke-opacity="0.200000" points="977.9385,-431.9972 984.2076,-430.944 978.65,-427.8579 977.9385,-431.9972"/>
</g>
<!-- src/assets/content.css -->
<g id="node9" class="node">
<title>src/assets/content.css</title>
<g id="a_node9"><a xlink:href="src/assets/content.css" xlink:title="content.css">
<path fill="#ffffcc" stroke="#000000" d="M149.5,-72.6348C149.5,-72.6348 99.5,-72.6348 99.5,-72.6348 96.5,-72.6348 93.5,-69.6348 93.5,-66.6348 93.5,-66.6348 93.5,-60.6348 93.5,-60.6348 93.5,-57.6348 96.5,-54.6348 99.5,-54.6348 99.5,-54.6348 149.5,-54.6348 149.5,-54.6348 152.5,-54.6348 155.5,-57.6348 155.5,-60.6348 155.5,-60.6348 155.5,-66.6348 155.5,-66.6348 155.5,-69.6348 152.5,-72.6348 149.5,-72.6348"/>
<text text-anchor="start" x="101.5" y="-61.4348" font-family="Helvetica,sans-Serif" font-size="9.00" fill="#000000">content.css</text>
</a>
</g>
</g>
<!-- src/chrome/urls.ts -->
<g id="node10" class="node">
<title>src/chrome/urls.ts</title>
<g id="a_node10"><a xlink:href="src/chrome/urls.ts" xlink:title="urls.ts">
<path fill="#ddfeff" stroke="#000000" d="M1032.5,-72.6348C1032.5,-72.6348 990.5,-72.6348 990.5,-72.6348 987.5,-72.6348 984.5,-69.6348 984.5,-66.6348 984.5,-66.6348 984.5,-60.6348 984.5,-60.6348 984.5,-57.6348 987.5,-54.6348 990.5,-54.6348 990.5,-54.6348 1032.5,-54.6348 1032.5,-54.6348 1035.5,-54.6348 1038.5,-57.6348 1038.5,-60.6348 1038.5,-60.6348 1038.5,-66.6348 1038.5,-66.6348 1038.5,-69.6348 1035.5,-72.6348 1032.5,-72.6348"/>
<text text-anchor="start" x="999" y="-61.4348" font-family="Helvetica,sans-Serif" font-size="9.00" fill="#000000">urls.ts</text>
</a>
</g>
</g>
<!-- src/components/Button.tsx -->
<g id="node11" class="node">
<title>src/components/Button.tsx</title>
<g id="a_node11"><a xlink:href="src/components/Button.tsx" xlink:title="Button.tsx">
<path fill="#bbfeff" stroke="#000000" d="M641,-482.6348C641,-482.6348 597,-482.6348 597,-482.6348 594,-482.6348 591,-479.6348 591,-476.6348 591,-476.6348 591,-470.6348 591,-470.6348 591,-467.6348 594,-464.6348 597,-464.6348 597,-464.6348 641,-464.6348 641,-464.6348 644,-464.6348 647,-467.6348 647,-470.6348 647,-470.6348 647,-476.6348 647,-476.6348 647,-479.6348 644,-482.6348 641,-482.6348"/>
<text text-anchor="start" x="599" y="-471.4348" font-family="Helvetica,sans-Serif" font-size="9.00" fill="#000000">Button.tsx</text>
</a>
</g>
</g>
<!-- src/components/ErrorMessage.tsx -->
<g id="node12" class="node">
<title>src/components/ErrorMessage.tsx</title>
<g id="a_node12"><a xlink:href="src/components/ErrorMessage.tsx" xlink:title="ErrorMessage.tsx">
<path fill="#bbfeff" stroke="#000000" d="M657,-452.6348C657,-452.6348 581,-452.6348 581,-452.6348 578,-452.6348 575,-449.6348 575,-446.6348 575,-446.6348 575,-440.6348 575,-440.6348 575,-437.6348 578,-434.6348 581,-434.6348 581,-434.6348 657,-434.6348 657,-434.6348 660,-434.6348 663,-437.6348 663,-440.6348 663,-440.6348 663,-446.6348 663,-446.6348 663,-449.6348 660,-452.6348 657,-452.6348"/>
<text text-anchor="start" x="583" y="-441.4348" font-family="Helvetica,sans-Serif" font-size="9.00" fill="#000000">ErrorMessage.tsx</text>
</a>
</g>
</g>
<!-- src/content.tsx -->
<g id="node13" class="node">
<title>src/content.tsx</title>
<g id="a_node13"><a xlink:href="src/content.tsx" xlink:title="content.tsx">
<path fill="#bbfeff" stroke="#000000" d="M70,-157.6348C70,-157.6348 22,-157.6348 22,-157.6348 19,-157.6348 16,-154.6348 16,-151.6348 16,-151.6348 16,-145.6348 16,-145.6348 16,-142.6348 19,-139.6348 22,-139.6348 22,-139.6348 70,-139.6348 70,-139.6348 73,-139.6348 76,-142.6348 76,-145.6348 76,-145.6348 76,-151.6348 76,-151.6348 76,-154.6348 73,-157.6348 70,-157.6348"/>
<text text-anchor="start" x="24" y="-146.4348" font-family="Helvetica,sans-Serif" font-size="9.00" fill="#000000">content.tsx</text>
</a>
</g>
</g>
<!-- src/content.tsx&#45;&gt;src/assets/content.css -->
<g id="edge8" class="edge">
<title>src/content.tsx&#45;&gt;src/assets/content.css</title>
<path fill="none" stroke="#000000" stroke-width="2" stroke-opacity="0.200000" d="M48.4516,-139.2182C52.9243,-123.8818 63.857,-93.5284 84,-76.6348 85.1882,-75.6383 86.454,-74.7178 87.7766,-73.8675"/>
<polygon fill="#000000" fill-opacity="0.200000" stroke="#000000" stroke-width="2" stroke-opacity="0.200000" points="88.8755,-75.6598 93.1163,-70.9241 86.8479,-71.9816 88.8755,-75.6598"/>
</g>
<!-- src/content.tsx&#45;&gt;src/chrome/urls.ts -->
<g id="edge9" class="edge">
<title>src/content.tsx&#45;&gt;src/chrome/urls.ts</title>
<path fill="none" stroke="#000000" stroke-width="2" stroke-opacity="0.200000" d="M76.2041,-140.3228C78.8313,-139.7104 81.4568,-139.137 84,-138.6348 351.2303,-85.8715 419.7086,-75.6744 691.5,-57.6348 807.6888,-49.923 837.2102,-51.6359 953.5,-57.6348 961.5562,-58.0504 970.2168,-58.7887 978.325,-59.6084"/>
<polygon fill="#000000" fill-opacity="0.200000" stroke="#000000" stroke-width="2" stroke-opacity="0.200000" points="978.2118,-61.708 984.3985,-60.2471 978.6511,-57.531 978.2118,-61.708"/>
</g>
<!-- src/content/authorization&#45;page/ -->
<g id="node14" class="node">
<title>src/content/authorization&#45;page/</title>
<g id="a_node14"><a xlink:href="src/content/authorization-page/" xlink:title="authorization&#45;page">
<polygon fill="#ffffcc" stroke="#000000" points="666,-216.6348 574,-216.6348 572,-214.6348 572,-198.6348 664,-198.6348 666,-200.6348 666,-216.6348"/>
<polyline fill="none" stroke="#000000" points="664,-214.6348 572,-214.6348 "/>
<polyline fill="none" stroke="#000000" points="664,-214.6348 664,-198.6348 "/>
<polyline fill="none" stroke="#000000" points="664,-214.6348 666,-216.6348 "/>
<text text-anchor="start" x="580" y="-205.4348" font-family="Helvetica,sans-Serif" font-size="9.00" fill="#000000">authorization&#45;page</text>
</a>
</g>
</g>
<!-- src/content.tsx&#45;&gt;src/content/authorization&#45;page/ -->
<g id="edge10" class="edge">
<title>src/content.tsx&#45;&gt;src/content/authorization&#45;page/</title>
<path fill="none" stroke="#000000" stroke-width="2" stroke-opacity="0.200000" d="M76.2434,-150.6595C109.7752,-152.7269 165.4763,-155.6348 213.5,-155.6348 213.5,-155.6348 213.5,-155.6348 319.5,-155.6348 418.6071,-155.6348 454.1198,-129.8704 541.5,-176.6348 549.5783,-180.9582 546.7297,-187.7796 554.5,-192.6348 558.0374,-194.8452 561.8676,-196.7302 565.8367,-198.3379"/>
<polygon fill="#000000" fill-opacity="0.200000" stroke="#000000" stroke-width="2" stroke-opacity="0.200000" points="565.3769,-200.406 571.7331,-200.5004 566.8231,-196.4628 565.3769,-200.406"/>
</g>
<!-- src/content/ChromeMessageListener.ts -->
<g id="node15" class="node">
<title>src/content/ChromeMessageListener.ts</title>
<g id="a_node15"><a xlink:href="src/content/ChromeMessageListener.ts" xlink:title="ChromeMessageListener.ts">
<path fill="#ddfeff" stroke="#000000" d="M677.5,-186.6348C677.5,-186.6348 560.5,-186.6348 560.5,-186.6348 557.5,-186.6348 554.5,-183.6348 554.5,-180.6348 554.5,-180.6348 554.5,-174.6348 554.5,-174.6348 554.5,-171.6348 557.5,-168.6348 560.5,-168.6348 560.5,-168.6348 677.5,-168.6348 677.5,-168.6348 680.5,-168.6348 683.5,-171.6348 683.5,-174.6348 683.5,-174.6348 683.5,-180.6348 683.5,-180.6348 683.5,-183.6348 680.5,-186.6348 677.5,-186.6348"/>
<text text-anchor="start" x="562.5" y="-175.4348" font-family="Helvetica,sans-Serif" font-size="9.00" fill="#000000">ChromeMessageListener.ts</text>
</a>
</g>
</g>
<!-- src/content.tsx&#45;&gt;src/content/ChromeMessageListener.ts -->
<g id="edge11" class="edge">
<title>src/content.tsx&#45;&gt;src/content/ChromeMessageListener.ts</title>
<path fill="none" stroke="#000000" stroke-width="2" stroke-opacity="0.200000" d="M76.2434,-146.6101C109.7752,-144.5428 165.4763,-141.6348 213.5,-141.6348 213.5,-141.6348 213.5,-141.6348 319.5,-141.6348 418.2667,-141.6348 451.1252,-111.7944 541.5,-151.6348 548.9767,-154.9308 547.2987,-160.7739 554.5,-164.6348 555.4344,-165.1358 556.3858,-165.6175 557.3518,-166.0807"/>
<polygon fill="#000000" fill-opacity="0.200000" stroke="#000000" stroke-width="2" stroke-opacity="0.200000" points="556.6858,-168.0807 563.0263,-168.5366 558.354,-164.2262 556.6858,-168.0807"/>
</g>
<!-- src/content/WebClip.tsx -->
<g id="node16" class="node">
<title>src/content/WebClip.tsx</title>
<g id="a_node16"><a xlink:href="src/content/WebClip.tsx" xlink:title="WebClip.tsx">
<path fill="#bbfeff" stroke="#000000" d="M151,-189.6348C151,-189.6348 98,-189.6348 98,-189.6348 95,-189.6348 92,-186.6348 92,-183.6348 92,-183.6348 92,-177.6348 92,-177.6348 92,-174.6348 95,-171.6348 98,-171.6348 98,-171.6348 151,-171.6348 151,-171.6348 154,-171.6348 157,-174.6348 157,-177.6348 157,-177.6348 157,-183.6348 157,-183.6348 157,-186.6348 154,-189.6348 151,-189.6348"/>
<text text-anchor="start" x="100" y="-178.4348" font-family="Helvetica,sans-Serif" font-size="9.00" fill="#000000">WebClip.tsx</text>
</a>
</g>
</g>
<!-- src/content.tsx&#45;&gt;src/content/WebClip.tsx -->
<g id="edge12" class="edge">
<title>src/content.tsx&#45;&gt;src/content/WebClip.tsx</title>
<path fill="none" stroke="#000000" stroke-width="2" stroke-opacity="0.200000" d="M62.7686,-157.7126C69.2934,-161.0601 76.8967,-164.7389 84,-167.6348 85.436,-168.2203 86.9089,-168.7972 88.4031,-169.3629"/>
<polygon fill="#000000" fill-opacity="0.200000" stroke="#000000" stroke-width="2" stroke-opacity="0.200000" points="87.8816,-171.4078 94.238,-171.4848 89.317,-167.4607 87.8816,-171.4078"/>
</g>
<!-- src/messages.ts -->
<g id="node17" class="node">
<title>src/messages.ts</title>
<g id="a_node17"><a xlink:href="src/messages.ts" xlink:title="messages.ts">
<path fill="#ddfeff" stroke="#000000" d="M778,-518.6348C778,-518.6348 722,-518.6348 722,-518.6348 719,-518.6348 716,-515.6348 716,-512.6348 716,-512.6348 716,-506.6348 716,-506.6348 716,-503.6348 719,-500.6348 722,-500.6348 722,-500.6348 778,-500.6348 778,-500.6348 781,-500.6348 784,-503.6348 784,-506.6348 784,-506.6348 784,-512.6348 784,-512.6348 784,-515.6348 781,-518.6348 778,-518.6348"/>
<text text-anchor="start" x="724" y="-507.4348" font-family="Helvetica,sans-Serif" font-size="9.00" fill="#000000">messages.ts</text>
</a>
</g>
</g>
<!-- src/content.tsx&#45;&gt;src/messages.ts -->
<g id="edge13" class="edge">
<title>src/content.tsx&#45;&gt;src/messages.ts</title>
<path fill="none" stroke="#000000" stroke-width="2" stroke-opacity="0.200000" d="M46.6612,-157.8614C49.5853,-197.027 62.1855,-349.4358 84,-391.6348 120.8764,-462.9705 133.1966,-517.6348 213.5,-517.6348 213.5,-517.6348 213.5,-517.6348 462.5,-517.6348 550.726,-517.6348 654.1223,-513.8239 709.7195,-511.4626"/>
<polygon fill="#000000" fill-opacity="0.200000" stroke="#000000" stroke-width="2" stroke-opacity="0.200000" points="710.0264,-513.5514 715.931,-511.1963 709.8465,-509.3553 710.0264,-513.5514"/>
</g>
<!-- src/content/authorization&#45;page/&#45;&gt;src/chrome/urls.ts -->
<g id="edge37" class="edge">
<title>src/content/authorization&#45;page/&#45;&gt;src/chrome/urls.ts</title>
<path fill="none" stroke="#000000" stroke-width="2" stroke-opacity="0.200000" d="M666.0424,-204.2161C672.7314,-201.7559 678.8911,-198.0723 683.5,-192.6348 701.4976,-171.4016 671.3186,-86.8045 691.5,-67.6348 701.7486,-57.9001 897.9658,-61.1159 977.9715,-62.8432"/>
<polygon fill="#000000" fill-opacity="0.200000" stroke="#000000" stroke-width="2" stroke-opacity="0.200000" points="978.3921,-64.9528 984.4368,-62.985 978.4843,-60.7538 978.3921,-64.9528"/>
</g>
<!-- src/content/authorization&#45;page/&#45;&gt;src/messages.ts -->
<g id="edge39" class="edge">
<title>src/content/authorization&#45;page/&#45;&gt;src/messages.ts</title>
<path fill="none" stroke="#000000" stroke-width="2" stroke-opacity="0.200000" d="M631.5136,-216.7724C646.9907,-228.9116 672.6225,-251.9569 683.5,-278.6348 692.6095,-300.9766 676.2095,-476.971 691.5,-495.6348 696.2051,-501.3779 702.8085,-505.0109 709.8931,-507.2629"/>
<polygon fill="#000000" fill-opacity="0.200000" stroke="#000000" stroke-width="2" stroke-opacity="0.200000" points="709.5897,-509.3543 715.9262,-508.8457 710.6556,-505.2918 709.5897,-509.3543"/>
</g>
<!-- src/options/optionsStorageApi.ts -->
<g id="node31" class="node">
<title>src/options/optionsStorageApi.ts</title>
<g id="a_node31"><a xlink:href="src/options/optionsStorageApi.ts" xlink:title="optionsStorageApi.ts">
<path fill="#ddfeff" stroke="#000000" d="M794.5,-126.6348C794.5,-126.6348 705.5,-126.6348 705.5,-126.6348 702.5,-126.6348 699.5,-123.6348 699.5,-120.6348 699.5,-120.6348 699.5,-114.6348 699.5,-114.6348 699.5,-111.6348 702.5,-108.6348 705.5,-108.6348 705.5,-108.6348 794.5,-108.6348 794.5,-108.6348 797.5,-108.6348 800.5,-111.6348 800.5,-114.6348 800.5,-114.6348 800.5,-120.6348 800.5,-120.6348 800.5,-123.6348 797.5,-126.6348 794.5,-126.6348"/>
<text text-anchor="start" x="707.5" y="-115.4348" font-family="Helvetica,sans-Serif" font-size="9.00" fill="#000000">optionsStorageApi.ts</text>
</a>
</g>
</g>
<!-- src/content/authorization&#45;page/&#45;&gt;src/options/optionsStorageApi.ts -->
<g id="edge38" class="edge">
<title>src/content/authorization&#45;page/&#45;&gt;src/options/optionsStorageApi.ts</title>
<path fill="none" stroke="#000000" stroke-width="2" stroke-opacity="0.200000" d="M666.2965,-203.1948C672.7061,-200.8274 678.7127,-197.4403 683.5,-192.6348 694.7617,-181.3304 682.5181,-170.8235 691.5,-157.6348 699.5942,-145.7496 712.4909,-136.3794 724.118,-129.705"/>
<polygon fill="#000000" fill-opacity="0.200000" stroke="#000000" stroke-width="2" stroke-opacity="0.200000" points="725.4459,-131.3719 729.6972,-126.6458 723.4265,-127.6892 725.4459,-131.3719"/>
</g>
<!-- src/options/useSolidApis.ts -->
<g id="node32" class="node">
<title>src/options/useSolidApis.ts</title>
<g id="a_node32"><a xlink:href="src/options/useSolidApis.ts" xlink:title="useSolidApis.ts">
<path fill="#ddfeff" stroke="#000000" d="M784,-96.6348C784,-96.6348 716,-96.6348 716,-96.6348 713,-96.6348 710,-93.6348 710,-90.6348 710,-90.6348 710,-84.6348 710,-84.6348 710,-81.6348 713,-78.6348 716,-78.6348 716,-78.6348 784,-78.6348 784,-78.6348 787,-78.6348 790,-81.6348 790,-84.6348 790,-84.6348 790,-90.6348 790,-90.6348 790,-93.6348 787,-96.6348 784,-96.6348"/>
<text text-anchor="start" x="718" y="-85.4348" font-family="Helvetica,sans-Serif" font-size="9.00" fill="#000000">useSolidApis.ts</text>
</a>
</g>
</g>
<!-- src/content/authorization&#45;page/&#45;&gt;src/options/useSolidApis.ts -->
<g id="edge40" class="edge">
<title>src/content/authorization&#45;page/&#45;&gt;src/options/useSolidApis.ts</title>
<path fill="none" stroke="#000000" stroke-width="2" stroke-opacity="0.200000" d="M666.2511,-203.9977C672.8294,-201.5505 678.8996,-197.9281 683.5,-192.6348 696.6713,-177.4797 678.5001,-117.9372 691.5,-102.6348 694.9154,-98.6146 699.2479,-95.5951 704.005,-93.3385"/>
<polygon fill="#000000" fill-opacity="0.200000" stroke="#000000" stroke-width="2" stroke-opacity="0.200000" points="704.9724,-95.2129 709.7552,-91.0254 703.4049,-91.3164 704.9724,-95.2129"/>
</g>
<!-- src/content/sendMessage.ts -->
<g id="node33" class="node">
<title>src/content/sendMessage.ts</title>
<g id="a_node33"><a xlink:href="src/content/sendMessage.ts" xlink:title="sendMessage.ts">
<path fill="#ddfeff" stroke="#000000" d="M785.5,-317.6348C785.5,-317.6348 714.5,-317.6348 714.5,-317.6348 711.5,-317.6348 708.5,-314.6348 708.5,-311.6348 708.5,-311.6348 708.5,-305.6348 708.5,-305.6348 708.5,-302.6348 711.5,-299.6348 714.5,-299.6348 714.5,-299.6348 785.5,-299.6348 785.5,-299.6348 788.5,-299.6348 791.5,-302.6348 791.5,-305.6348 791.5,-305.6348 791.5,-311.6348 791.5,-311.6348 791.5,-314.6348 788.5,-317.6348 785.5,-317.6348"/>
<text text-anchor="start" x="716.5" y="-306.4348" font-family="Helvetica,sans-Serif" font-size="9.00" fill="#000000">sendMessage.ts</text>
</a>
</g>
</g>
<!-- src/content/authorization&#45;page/&#45;&gt;src/content/sendMessage.ts -->
<g id="edge41" class="edge">
<title>src/content/authorization&#45;page/&#45;&gt;src/content/sendMessage.ts</title>
<path fill="none" stroke="#000000" stroke-width="2" stroke-opacity="0.200000" d="M638.7521,-216.6363C653.4116,-224.3576 672.6653,-236.8914 683.5,-253.6348 693.3496,-268.8558 679.0284,-280.4761 691.5,-293.6348 694.7456,-297.0593 698.6578,-299.7433 702.9019,-301.8414"/>
<polygon fill="#000000" fill-opacity="0.200000" stroke="#000000" stroke-width="2" stroke-opacity="0.200000" points="702.0871,-303.7769 708.4301,-304.1973 703.7337,-299.9131 702.0871,-303.7769"/>
</g>
<!-- src/content/ChromeMessageListener.ts&#45;&gt;events -->
<g id="edge14" class="edge">
<title>src/content/ChromeMessageListener.ts&#45;&gt;events</title>
<path fill="none" stroke="#000000" stroke-dasharray="5,2" stroke-opacity="0.200000" d="M621.4352,-168.3734C628.1083,-145.0547 649.0817,-83.9119 691.5,-57.6348 822.3974,23.4528 1019.0414,-.8399 1096.7267,-14.8315"/>
<polygon fill="#000000" fill-opacity="0.200000" stroke="#000000" stroke-opacity="0.200000" points="1096.7114,-16.9639 1102.9924,-15.9845 1097.4715,-12.8332 1096.7114,-16.9639"/>
</g>
<!-- src/content/WebClip.tsx&#45;&gt;src/content/ChromeMessageListener.ts -->
<g id="edge34" class="edge">
<title>src/content/WebClip.tsx&#45;&gt;src/content/ChromeMessageListener.ts</title>
<path fill="none" stroke="#000000" stroke-width="2" stroke-opacity="0.200000" d="M157.1113,-179.1074C161.9349,-178.922 166.8463,-178.7558 171.5,-178.6348 335.8913,-174.3629 377.0566,-175.574 541.5,-176.6348 543.716,-176.6491 545.9676,-176.6657 548.2411,-176.6843"/>
<polygon fill="#000000" fill-opacity="0.200000" stroke="#000000" stroke-width="2" stroke-opacity="0.200000" points="548.2824,-178.7846 554.3007,-176.7376 548.3195,-174.5848 548.2824,-178.7846"/>
</g>
<!-- src/content/PageContent.tsx -->
<g id="node21" class="node">
<title>src/content/PageContent.tsx</title>
<g id="a_node21"><a xlink:href="src/content/PageContent.tsx" xlink:title="PageContent.tsx">
<path fill="#bbfeff" stroke="#000000" d="M249.5,-291.6348C249.5,-291.6348 177.5,-291.6348 177.5,-291.6348 174.5,-291.6348 171.5,-288.6348 171.5,-285.6348 171.5,-285.6348 171.5,-279.6348 171.5,-279.6348 171.5,-276.6348 174.5,-273.6348 177.5,-273.6348 177.5,-273.6348 249.5,-273.6348 249.5,-273.6348 252.5,-273.6348 255.5,-276.6348 255.5,-279.6348 255.5,-279.6348 255.5,-285.6348 255.5,-285.6348 255.5,-288.6348 252.5,-291.6348 249.5,-291.6348"/>
<text text-anchor="start" x="179.5" y="-280.4348" font-family="Helvetica,sans-Serif" font-size="9.00" fill="#000000">PageContent.tsx</text>
</a>
</g>
</g>
<!-- src/content/WebClip.tsx&#45;&gt;src/content/PageContent.tsx -->
<g id="edge36" class="edge">
<title>src/content/WebClip.tsx&#45;&gt;src/content/PageContent.tsx</title>
<path fill="none" stroke="#000000" stroke-width="2" stroke-opacity="0.200000" d="M157.0141,-189.3108C159.3239,-190.5656 161.519,-191.9987 163.5,-193.6348 187.5441,-213.4932 202.1569,-248.0989 208.9442,-267.7976"/>
<polygon fill="#000000" fill-opacity="0.200000" stroke="#000000" stroke-width="2" stroke-opacity="0.200000" points="206.9962,-268.5955 210.875,-273.6319 210.9835,-267.276 206.9962,-268.5955"/>
</g>
<!-- src/content/chromeMessageListenerContext.ts -->
<g id="node30" class="node">
<title>src/content/chromeMessageListenerContext.ts</title>
<g id="a_node30"><a xlink:href="src/content/chromeMessageListenerContext.ts" xlink:title="chromeMessageListenerContext.ts">
<path fill="#ddfeff" stroke="#000000" d="M535.5,-200.6348C535.5,-200.6348 389.5,-200.6348 389.5,-200.6348 386.5,-200.6348 383.5,-197.6348 383.5,-194.6348 383.5,-194.6348 383.5,-188.6348 383.5,-188.6348 383.5,-185.6348 386.5,-182.6348 389.5,-182.6348 389.5,-182.6348 535.5,-182.6348 535.5,-182.6348 538.5,-182.6348 541.5,-185.6348 541.5,-188.6348 541.5,-188.6348 541.5,-194.6348 541.5,-194.6348 541.5,-197.6348 538.5,-200.6348 535.5,-200.6348"/>
<text text-anchor="start" x="391.5" y="-189.4348" font-family="Helvetica,sans-Serif" font-size="9.00" fill="#000000">chromeMessageListenerContext.ts</text>
</a>
</g>
</g>
<!-- src/content/WebClip.tsx&#45;&gt;src/content/chromeMessageListenerContext.ts -->
<g id="edge35" class="edge">
<title>src/content/WebClip.tsx&#45;&gt;src/content/chromeMessageListenerContext.ts</title>
<path fill="none" stroke="#000000" stroke-width="2" stroke-opacity="0.200000" d="M157.216,-181.6996C207.5527,-183.3377 305.6522,-186.5303 377.1021,-188.8556"/>
<polygon fill="#000000" fill-opacity="0.200000" stroke="#000000" stroke-width="2" stroke-opacity="0.200000" points="377.4314,-190.9674 383.4966,-189.0637 377.5681,-186.7696 377.4314,-190.9674"/>
</g>
<!-- src/messages.ts&#45;&gt;src/api/SolidApi.ts -->
<g id="edge59" class="edge">
<title>src/messages.ts&#45;&gt;src/api/SolidApi.ts</title>
<path fill="none" stroke="#000000" stroke-width="2" stroke-opacity="0.200000" d="M750,-500.4986C750,-476.687 750,-452.8753 750,-429.0636"/>
<polygon fill="#000000" fill-opacity="0.200000" stroke="#000000" stroke-width="2" stroke-opacity="0.200000" points="752.1001,-429.0098 750,-423.0098 747.9001,-429.0099 752.1001,-429.0098"/>
</g>
<!-- src/messages.ts&#45;&gt;src/content/usePage.ts -->
<g id="edge60" class="edge">
<title>src/messages.ts&#45;&gt;src/content/usePage.ts</title>
<path fill="none" stroke="#000000" stroke-width="2" stroke-opacity="0.200000" d="M715.7452,-509.243C703.1817,-507.0084 691.1316,-501.6291 687.5,-489.6348 684.4412,-479.5322 684.4412,-309.7375 687.5,-299.6348 690.8614,-288.5328 701.3549,-282.9296 712.8074,-280.2114"/>
<polygon fill="#000000" fill-opacity="0.200000" stroke="#000000" stroke-width="2" stroke-opacity="0.200000" points="713.3607,-282.2433 718.851,-279.0391 712.5609,-278.1202 713.3607,-282.2433"/>
</g>
<!-- src/content/LoginButton.tsx -->
<g id="node18" class="node">
<title>src/content/LoginButton.tsx</title>
<g id="a_node18"><a xlink:href="src/content/LoginButton.tsx" xlink:title="LoginButton.tsx">
<path fill="#bbfeff" stroke="#000000" d="M353.5,-362.6348C353.5,-362.6348 285.5,-362.6348 285.5,-362.6348 282.5,-362.6348 279.5,-359.6348 279.5,-356.6348 279.5,-356.6348 279.5,-350.6348 279.5,-350.6348 279.5,-347.6348 282.5,-344.6348 285.5,-344.6348 285.5,-344.6348 353.5,-344.6348 353.5,-344.6348 356.5,-344.6348 359.5,-347.6348 359.5,-350.6348 359.5,-350.6348 359.5,-356.6348 359.5,-356.6348 359.5,-359.6348 356.5,-362.6348 353.5,-362.6348"/>
<text text-anchor="start" x="287.5" y="-351.4348" font-family="Helvetica,sans-Serif" font-size="9.00" fill="#000000">LoginButton.tsx</text>
</a>
</g>
</g>
<!-- src/content/LoginButton.tsx&#45;&gt;src/components/Button.tsx -->
<g id="edge15" class="edge">
<title>src/content/LoginButton.tsx&#45;&gt;src/components/Button.tsx</title>
<path fill="none" stroke="#000000" stroke-width="2" stroke-opacity="0.200000" d="M359.7111,-358.8823C363.7681,-360.7945 367.4927,-363.3179 370.5,-366.6348 396.17,-394.9473 355.6962,-425.4148 383.5,-451.6348 397.833,-465.1514 523.0202,-470.766 584.8042,-472.7301"/>
<polygon fill="#000000" fill-opacity="0.200000" stroke="#000000" stroke-width="2" stroke-opacity="0.200000" points="584.8763,-474.8332 590.9384,-472.9197 585.0062,-470.6353 584.8763,-474.8332"/>
</g>
<!-- src/content/LoginButton.tsx&#45;&gt;src/components/ErrorMessage.tsx -->
<g id="edge16" class="edge">
<title>src/content/LoginButton.tsx&#45;&gt;src/components/ErrorMessage.tsx</title>
<path fill="none" stroke="#000000" stroke-width="2" stroke-opacity="0.200000" d="M359.6395,-358.948C363.709,-360.8487 367.4561,-363.3514 370.5,-366.6348 393.2019,-391.1234 358.0639,-419 383.5,-440.6348 410.375,-463.4935 508.0346,-456.8968 568.8322,-450.1696"/>
<polygon fill="#000000" fill-opacity="0.200000" stroke="#000000" stroke-width="2" stroke-opacity="0.200000" points="569.2351,-452.2375 574.9614,-449.4772 568.7636,-448.064 569.2351,-452.2375"/>
</g>
<!-- src/content/prettifyUrl.ts -->
<g id="node19" class="node">
<title>src/content/prettifyUrl.ts</title>
<g id="a_node19"><a xlink:href="src/content/prettifyUrl.ts" xlink:title="prettifyUrl.ts">
<path fill="#ddfeff" stroke="#000000" d="M489,-348.6348C489,-348.6348 436,-348.6348 436,-348.6348 433,-348.6348 430,-345.6348 430,-342.6348 430,-342.6348 430,-336.6348 430,-336.6348 430,-333.6348 433,-330.6348 436,-330.6348 436,-330.6348 489,-330.6348 489,-330.6348 492,-330.6348 495,-333.6348 495,-336.6348 495,-336.6348 495,-342.6348 495,-342.6348 495,-345.6348 492,-348.6348 489,-348.6348"/>
<text text-anchor="start" x="438" y="-337.4348" font-family="Helvetica,sans-Serif" font-size="9.00" fill="#000000">prettifyUrl.ts</text>
</a>
</g>
</g>
<!-- src/content/LoginButton.tsx&#45;&gt;src/content/prettifyUrl.ts -->
<g id="edge17" class="edge">
<title>src/content/LoginButton.tsx&#45;&gt;src/content/prettifyUrl.ts</title>
<path fill="none" stroke="#000000" stroke-width="2" stroke-opacity="0.200000" d="M359.714,-349.6978C379.7777,-347.7335 403.9355,-345.3684 423.7884,-343.4248"/>
<polygon fill="#000000" fill-opacity="0.200000" stroke="#000000" stroke-width="2" stroke-opacity="0.200000" points="424.0354,-345.5107 429.8022,-342.836 423.6261,-341.3307 424.0354,-345.5107"/>
</g>
<!-- src/content/useLogin.ts -->
<g id="node20" class="node">
<title>src/content/useLogin.ts</title>
<g id="a_node20"><a xlink:href="src/content/useLogin.ts" xlink:title="useLogin.ts">
<path fill="#ddfeff" stroke="#000000" d="M645,-362.6348C645,-362.6348 593,-362.6348 593,-362.6348 590,-362.6348 587,-359.6348 587,-356.6348 587,-356.6348 587,-350.6348 587,-350.6348 587,-347.6348 590,-344.6348 593,-344.6348 593,-344.6348 645,-344.6348 645,-344.6348 648,-344.6348 651,-347.6348 651,-350.6348 651,-350.6348 651,-356.6348 651,-356.6348 651,-359.6348 648,-362.6348 645,-362.6348"/>
<text text-anchor="start" x="595" y="-351.4348" font-family="Helvetica,sans-Serif" font-size="9.00" fill="#000000">useLogin.ts</text>
</a>
</g>
</g>
<!-- src/content/LoginButton.tsx&#45;&gt;src/content/useLogin.ts -->
<g id="edge18" class="edge">
<title>src/content/LoginButton.tsx&#45;&gt;src/content/useLogin.ts</title>
<path fill="none" stroke="#000000" stroke-width="2" stroke-opacity="0.200000" d="M359.7845,-354.3602C367.649,-354.4747 375.8326,-354.5749 383.5,-354.6348 453.7201,-355.1834 471.2792,-355.0879 541.5,-354.6348 554.3355,-354.552 568.366,-354.3921 580.9188,-354.224"/>
<polygon fill="#000000" fill-opacity="0.200000" stroke="#000000" stroke-width="2" stroke-opacity="0.200000" points="580.9801,-356.3234 586.9506,-354.1411 580.9223,-352.1238 580.9801,-356.3234"/>
</g>
<!-- src/content/useLogin.ts&#45;&gt;src/messages.ts -->
<g id="edge50" class="edge">
<title>src/content/useLogin.ts&#45;&gt;src/messages.ts</title>
<path fill="none" stroke="#000000" stroke-width="2" stroke-opacity="0.200000" d="M651.288,-352.3928C663.1181,-353.7094 675.5439,-357.5071 683.5,-366.6348 702.3721,-388.2862 673.0207,-473.6472 691.5,-495.6348 696.2243,-501.256 702.7665,-504.8455 709.7716,-507.0953"/>
<polygon fill="#000000" fill-opacity="0.200000" stroke="#000000" stroke-width="2" stroke-opacity="0.200000" points="709.3966,-509.1686 715.7351,-508.6852 710.4786,-505.1104 709.3966,-509.1686"/>
</g>
<!-- src/content/useLogin.ts&#45;&gt;src/content/sendMessage.ts -->
<g id="edge51" class="edge">
<title>src/content/useLogin.ts&#45;&gt;src/content/sendMessage.ts</title>
<path fill="none" stroke="#000000" stroke-width="2" stroke-opacity="0.200000" d="M651.1689,-347.4509C661.6041,-345.102 673.1538,-342.1341 683.5,-338.6348 698.2743,-333.6378 714.2219,-326.5068 726.7955,-320.4509"/>
<polygon fill="#000000" fill-opacity="0.200000" stroke="#000000" stroke-width="2" stroke-opacity="0.200000" points="727.8475,-322.2743 732.3188,-317.7557 726.0056,-318.4997 727.8475,-322.2743"/>
</g>
<!-- src/content/PageContent.tsx&#45;&gt;src/content/LoginButton.tsx -->
<g id="edge19" class="edge">
<title>src/content/PageContent.tsx&#45;&gt;src/content/LoginButton.tsx</title>
<path fill="none" stroke="#000000" stroke-width="2" stroke-opacity="0.200000" d="M250.9013,-291.8504C252.5535,-292.9709 254.1013,-294.2269 255.5,-295.6348 269.5711,-309.7989 254.3292,-324.5705 268.5,-338.6348 270.1704,-340.2927 272.014,-341.7691 273.9798,-343.0838"/>
<polygon fill="#000000" fill-opacity="0.200000" stroke="#000000" stroke-width="2" stroke-opacity="0.200000" points="273.1822,-345.0466 279.4337,-346.1995 275.2656,-341.3997 273.1822,-345.0466"/>
</g>
<!-- src/content/openOptions.ts -->
<g id="node22" class="node">
<title>src/content/openOptions.ts</title>
<g id="a_node22"><a xlink:href="src/content/openOptions.ts" xlink:title="openOptions.ts">
<path fill="#ddfeff" stroke="#000000" d="M495.5,-318.6348C495.5,-318.6348 429.5,-318.6348 429.5,-318.6348 426.5,-318.6348 423.5,-315.6348 423.5,-312.6348 423.5,-312.6348 423.5,-306.6348 423.5,-306.6348 423.5,-303.6348 426.5,-300.6348 429.5,-300.6348 429.5,-300.6348 495.5,-300.6348 495.5,-300.6348 498.5,-300.6348 501.5,-303.6348 501.5,-306.6348 501.5,-306.6348 501.5,-312.6348 501.5,-312.6348 501.5,-315.6348 498.5,-318.6348 495.5,-318.6348"/>
<text text-anchor="start" x="431.5" y="-307.4348" font-family="Helvetica,sans-Serif" font-size="9.00" fill="#000000">openOptions.ts</text>
</a>
</g>
</g>
<!-- src/content/PageContent.tsx&#45;&gt;src/content/openOptions.ts -->
<g id="edge20" class="edge">
<title>src/content/PageContent.tsx&#45;&gt;src/content/openOptions.ts</title>
<path fill="none" stroke="#000000" stroke-width="2" stroke-opacity="0.200000" d="M255.5233,-279.2632C259.9029,-279.0062 264.2903,-278.7877 268.5,-278.6348 313.8035,-276.9896 329.5668,-259.1519 370.5,-278.6348 378.7731,-282.5726 375.6322,-289.9393 383.5,-294.6348 393.6063,-300.6662 405.6237,-304.3519 417.1975,-306.5827"/>
<polygon fill="#000000" fill-opacity="0.200000" stroke="#000000" stroke-width="2" stroke-opacity="0.200000" points="416.9266,-308.6669 423.1969,-307.6213 417.6431,-304.5285 416.9266,-308.6669"/>
</g>
<!-- src/content/SetupButton.tsx -->
<g id="node23" class="node">
<title>src/content/SetupButton.tsx</title>
<g id="a_node23"><a xlink:href="src/content/SetupButton.tsx" xlink:title="SetupButton.tsx">
<path fill="#bbfeff" stroke="#000000" d="M353.5,-332.6348C353.5,-332.6348 285.5,-332.6348 285.5,-332.6348 282.5,-332.6348 279.5,-329.6348 279.5,-326.6348 279.5,-326.6348 279.5,-320.6348 279.5,-320.6348 279.5,-317.6348 282.5,-314.6348 285.5,-314.6348 285.5,-314.6348 353.5,-314.6348 353.5,-314.6348 356.5,-314.6348 359.5,-317.6348 359.5,-320.6348 359.5,-320.6348 359.5,-326.6348 359.5,-326.6348 359.5,-329.6348 356.5,-332.6348 353.5,-332.6348"/>
<text text-anchor="start" x="287.5" y="-321.4348" font-family="Helvetica,sans-Serif" font-size="9.00" fill="#000000">SetupButton.tsx</text>
</a>
</g>
</g>
<!-- src/content/PageContent.tsx&#45;&gt;src/content/SetupButton.tsx -->
<g id="edge21" class="edge">
<title>src/content/PageContent.tsx&#45;&gt;src/content/SetupButton.tsx</title>
<path fill="none" stroke="#000000" stroke-width="2" stroke-opacity="0.200000" d="M248.0288,-291.7913C250.6253,-292.9383 253.1471,-294.2155 255.5,-295.6348 262.4966,-299.8553 261.4738,-304.4638 268.5,-308.6348 270.6874,-309.9334 272.995,-311.1261 275.3715,-312.2209"/>
<polygon fill="#000000" fill-opacity="0.200000" stroke="#000000" stroke-width="2" stroke-opacity="0.200000" points="274.6731,-314.2054 281.0177,-314.6011 276.3047,-310.3352 274.6731,-314.2054"/>
</g>
<!-- src/content/ToolbarContainer.tsx -->
<g id="node24" class="node">
<title>src/content/ToolbarContainer.tsx</title>
<g id="a_node24"><a xlink:href="src/content/ToolbarContainer.tsx" xlink:title="ToolbarContainer.tsx">
<path fill="#bbfeff" stroke="#000000" d="M364.5,-258.6348C364.5,-258.6348 274.5,-258.6348 274.5,-258.6348 271.5,-258.6348 268.5,-255.6348 268.5,-252.6348 268.5,-252.6348 268.5,-246.6348 268.5,-246.6348 268.5,-243.6348 271.5,-240.6348 274.5,-240.6348 274.5,-240.6348 364.5,-240.6348 364.5,-240.6348 367.5,-240.6348 370.5,-243.6348 370.5,-246.6348 370.5,-246.6348 370.5,-252.6348 370.5,-252.6348 370.5,-255.6348 367.5,-258.6348 364.5,-258.6348"/>
<text text-anchor="start" x="276.5" y="-247.4348" font-family="Helvetica,sans-Serif" font-size="9.00" fill="#000000">ToolbarContainer.tsx</text>
</a>
</g>
</g>
<!-- src/content/PageContent.tsx&#45;&gt;src/content/ToolbarContainer.tsx -->
<g id="edge22" class="edge">
<title>src/content/PageContent.tsx&#45;&gt;src/content/ToolbarContainer.tsx</title>
<path fill="none" stroke="#000000" stroke-width="2" stroke-opacity="0.200000" d="M242.465,-273.6174C255.5521,-269.5431 271.1198,-264.6966 284.8237,-260.4303"/>
<polygon fill="#000000" fill-opacity="0.200000" stroke="#000000" stroke-width="2" stroke-opacity="0.200000" points="285.4655,-262.43 290.5701,-258.6413 284.217,-258.4198 285.4655,-262.43"/>
</g>
<!-- src/content/useSessionInfo.ts -->
<g id="node25" class="node">
<title>src/content/useSessionInfo.ts</title>
<g id="a_node25"><a xlink:href="src/content/useSessionInfo.ts" xlink:title="useSessionInfo.ts">
<path fill="#ddfeff" stroke="#000000" d="M358,-302.6348C358,-302.6348 281,-302.6348 281,-302.6348 278,-302.6348 275,-299.6348 275,-296.6348 275,-296.6348 275,-290.6348 275,-290.6348 275,-287.6348 278,-284.6348 281,-284.6348 281,-284.6348 358,-284.6348 358,-284.6348 361,-284.6348 364,-287.6348 364,-290.6348 364,-290.6348 364,-296.6348 364,-296.6348 364,-299.6348 361,-302.6348 358,-302.6348"/>
<text text-anchor="start" x="283" y="-291.4348" font-family="Helvetica,sans-Serif" font-size="9.00" fill="#000000">useSessionInfo.ts</text>
</a>
</g>
</g>
<!-- src/content/PageContent.tsx&#45;&gt;src/content/useSessionInfo.ts -->
<g id="edge23" class="edge">
<title>src/content/PageContent.tsx&#45;&gt;src/content/useSessionInfo.ts</title>
<path fill="none" stroke="#000000" stroke-width="2" stroke-opacity="0.200000" d="M255.6986,-287.0139C259.8879,-287.4487 264.1713,-287.8932 268.4379,-288.3359"/>
<polygon fill="#000000" fill-opacity="0.200000" stroke="#000000" stroke-width="2" stroke-opacity="0.200000" points="268.4794,-290.4514 274.6641,-288.9821 268.9129,-286.2739 268.4794,-290.4514"/>
</g>
<!-- src/content/openOptions.ts&#45;&gt;src/messages.ts -->
<g id="edge43" class="edge">
<title>src/content/openOptions.ts&#45;&gt;src/messages.ts</title>
<path fill="none" stroke="#000000" stroke-width="2" stroke-opacity="0.200000" d="M501.7211,-308.3085C515.9912,-309.8753 531.1423,-314.2625 541.5,-324.6348 563.5505,-346.7166 532.0792,-371.9292 554.5,-393.6348 596.1845,-433.9898 643.6513,-371.466 683.5,-413.6348 696.075,-426.942 679.4747,-481.829 691.5,-495.6348 696.3228,-501.1717 702.9094,-504.7232 709.9271,-506.9622"/>
<polygon fill="#000000" fill-opacity="0.200000" stroke="#000000" stroke-width="2" stroke-opacity="0.200000" points="709.556,-509.0365 715.8942,-508.5491 710.6354,-504.9775 709.556,-509.0365"/>
</g>
<!-- src/content/openOptions.ts&#45;&gt;src/content/sendMessage.ts -->
<g id="edge44" class="edge">
<title>src/content/openOptions.ts&#45;&gt;src/content/sendMessage.ts</title>
<path fill="none" stroke="#000000" stroke-width="2" stroke-opacity="0.200000" d="M501.8031,-307.6213C515.1287,-305.5655 529.6321,-301.7176 541.5,-294.6348 549.3678,-289.9393 546.2269,-282.5726 554.5,-278.6348 580.3842,-266.3147 658.9185,-263.886 683.5,-278.6348 689.9788,-282.5221 685.5587,-288.9671 691.5,-293.6348 694.9009,-296.3067 698.7248,-298.507 702.7469,-300.3183"/>
<polygon fill="#000000" fill-opacity="0.200000" stroke="#000000" stroke-width="2" stroke-opacity="0.200000" points="701.9827,-302.2744 708.3334,-302.5549 703.5437,-298.3753 701.9827,-302.2744"/>
</g>
<!-- src/content/SetupButton.tsx&#45;&gt;src/components/Button.tsx -->
<g id="edge24" class="edge">
<title>src/content/SetupButton.tsx&#45;&gt;src/components/Button.tsx</title>
<path fill="none" stroke="#000000" stroke-width="2" stroke-opacity="0.200000" d="M359.5416,-330.3771C363.6815,-332.4583 367.4721,-335.1525 370.5,-338.6348 396.4413,-368.4696 355.4281,-398.7954 383.5,-426.6348 433.8417,-476.5596 476.1152,-421.2197 541.5,-448.6348 548.2224,-451.4535 547.9114,-455.5162 554.5,-458.6348 563.8799,-463.0747 574.6641,-466.2485 584.6962,-468.4971"/>
<polygon fill="#000000" fill-opacity="0.200000" stroke="#000000" stroke-width="2" stroke-opacity="0.200000" points="584.5231,-470.6063 590.8262,-469.7806 585.3839,-466.4954 584.5231,-470.6063"/>
</g>
<!-- src/content/SetupButton.tsx&#45;&gt;src/content/openOptions.ts -->
<g id="edge25" class="edge">
<title>src/content/SetupButton.tsx&#45;&gt;src/content/openOptions.ts</title>
<path fill="none" stroke="#000000" stroke-width="2" stroke-opacity="0.200000" d="M359.714,-319.6978C377.5266,-317.9539 398.5661,-315.8941 416.9554,-314.0938"/>
<polygon fill="#000000" fill-opacity="0.200000" stroke="#000000" stroke-width="2" stroke-opacity="0.200000" points="417.3148,-316.1687 423.0816,-313.494 416.9055,-311.9887 417.3148,-316.1687"/>
</g>
<!-- src/content/ToolbarContainer.tsx&#45;&gt;src/content/usePage.ts -->
<g id="edge31" class="edge">
<title>src/content/ToolbarContainer.tsx&#45;&gt;src/content/usePage.ts</title>
<path fill="none" stroke="#000000" stroke-width="2" stroke-opacity="0.200000" d="M334.6387,-240.5408C347.2198,-233.5435 365.8531,-224.4464 383.5,-220.6348 452.1394,-205.8092 471.9229,-211.1378 541.5,-220.6348 575.1266,-225.2248 665.1256,-252.2204 715.1884,-267.713"/>
<polygon fill="#000000" fill-opacity="0.200000" stroke="#000000" stroke-width="2" stroke-opacity="0.200000" points="714.7363,-269.7714 721.0892,-269.5431 715.9805,-265.7599 714.7363,-269.7714"/>
</g>
<!-- src/content/Toolbar.tsx -->
<g id="node26" class="node">
<title>src/content/Toolbar.tsx</title>
<g id="a_node26"><a xlink:href="src/content/Toolbar.tsx" xlink:title="Toolbar.tsx">
<path fill="#bbfeff" stroke="#000000" d="M487.5,-288.6348C487.5,-288.6348 437.5,-288.6348 437.5,-288.6348 434.5,-288.6348 431.5,-285.6348 431.5,-282.6348 431.5,-282.6348 431.5,-276.6348 431.5,-276.6348 431.5,-273.6348 434.5,-270.6348 437.5,-270.6348 437.5,-270.6348 487.5,-270.6348 487.5,-270.6348 490.5,-270.6348 493.5,-273.6348 493.5,-276.6348 493.5,-276.6348 493.5,-282.6348 493.5,-282.6348 493.5,-285.6348 490.5,-288.6348 487.5,-288.6348"/>
<text text-anchor="start" x="439.5" y="-277.4348" font-family="Helvetica,sans-Serif" font-size="9.00" fill="#000000">Toolbar.tsx</text>
</a>
</g>
</g>
<!-- src/content/ToolbarContainer.tsx&#45;&gt;src/content/Toolbar.tsx -->
<g id="edge30" class="edge">
<title>src/content/ToolbarContainer.tsx&#45;&gt;src/content/Toolbar.tsx</title>
<path fill="none" stroke="#000000" stroke-width="2" stroke-opacity="0.200000" d="M357.0046,-258.7068C365.6886,-260.729 374.9037,-262.8122 383.5,-264.6348 397.1194,-267.5225 412.1163,-270.4366 425.3508,-272.9184"/>
<polygon fill="#000000" fill-opacity="0.200000" stroke="#000000" stroke-width="2" stroke-opacity="0.200000" points="425.0129,-274.9915 431.2961,-274.0266 425.7826,-270.8627 425.0129,-274.9915"/>
</g>
<!-- src/content/usePageData.ts -->
<g id="node28" class="node">
<title>src/content/usePageData.ts</title>
<g id="a_node28"><a xlink:href="src/content/usePageData.ts" xlink:title="usePageData.ts">
<path fill="#ddfeff" stroke="#000000" d="M654,-332.6348C654,-332.6348 584,-332.6348 584,-332.6348 581,-332.6348 578,-329.6348 578,-326.6348 578,-326.6348 578,-320.6348 578,-320.6348 578,-317.6348 581,-314.6348 584,-314.6348 584,-314.6348 654,-314.6348 654,-314.6348 657,-314.6348 660,-317.6348 660,-320.6348 660,-320.6348 660,-326.6348 660,-326.6348 660,-329.6348 657,-332.6348 654,-332.6348"/>
<text text-anchor="start" x="586" y="-321.4348" font-family="Helvetica,sans-Serif" font-size="9.00" fill="#000000">usePageData.ts</text>
</a>
</g>
</g>
<!-- src/content/ToolbarContainer.tsx&#45;&gt;src/content/usePageData.ts -->
<g id="edge32" class="edge">
<title>src/content/ToolbarContainer.tsx&#45;&gt;src/content/usePageData.ts</title>
<path fill="none" stroke="#000000" stroke-width="2" stroke-opacity="0.200000" d="M351.475,-240.6179C361.6277,-238.1668 372.9569,-235.8538 383.5,-234.6348 418.3788,-230.6021 514.6105,-212.0574 541.5,-234.6348 567.0734,-256.1072 531.5412,-284.3871 554.5,-308.6348 559.2205,-313.6203 565.2485,-317.0961 571.7173,-319.4952"/>
<polygon fill="#000000" fill-opacity="0.200000" stroke="#000000" stroke-width="2" stroke-opacity="0.200000" points="571.4029,-321.5984 577.757,-321.4082 572.6712,-317.5944 571.4029,-321.5984"/>
</g>
<!-- src/content/useProfile.ts -->
<g id="node29" class="node">
<title>src/content/useProfile.ts</title>
<g id="a_node29"><a xlink:href="src/content/useProfile.ts" xlink:title="useProfile.ts">
<path fill="#ddfeff" stroke="#000000" d="M490,-258.6348C490,-258.6348 435,-258.6348 435,-258.6348 432,-258.6348 429,-255.6348 429,-252.6348 429,-252.6348 429,-246.6348 429,-246.6348 429,-243.6348 432,-240.6348 435,-240.6348 435,-240.6348 490,-240.6348 490,-240.6348 493,-240.6348 496,-243.6348 496,-246.6348 496,-246.6348 496,-252.6348 496,-252.6348 496,-255.6348 493,-258.6348 490,-258.6348"/>
<text text-anchor="start" x="437" y="-247.4348" font-family="Helvetica,sans-Serif" font-size="9.00" fill="#000000">useProfile.ts</text>
</a>
</g>
</g>
<!-- src/content/ToolbarContainer.tsx&#45;&gt;src/content/useProfile.ts -->
<g id="edge33" class="edge">
<title>src/content/ToolbarContainer.tsx&#45;&gt;src/content/useProfile.ts</title>
<path fill="none" stroke="#000000" stroke-width="2" stroke-opacity="0.200000" d="M370.7224,-249.6348C387.7023,-249.6348 406.3455,-249.6348 422.3677,-249.6348"/>
<polygon fill="#000000" fill-opacity="0.200000" stroke="#000000" stroke-width="2" stroke-opacity="0.200000" points="422.5997,-251.7349 428.5997,-249.6348 422.5996,-247.5349 422.5997,-251.7349"/>
</g>
<!-- src/content/useSessionInfo.ts&#45;&gt;src/messages.ts -->
<g id="edge57" class="edge">
<title>src/content/useSessionInfo.ts&#45;&gt;src/messages.ts</title>
<path fill="none" stroke="#000000" stroke-width="2" stroke-opacity="0.200000" d="M363.061,-302.879C365.7726,-304.5015 368.293,-306.4042 370.5,-308.6348 385.4426,-323.737 368.6673,-339.4247 383.5,-354.6348 439.0509,-411.5994 476.7142,-390.8946 554.5,-407.6348 582.7398,-413.7123 663.2048,-403.0794 683.5,-423.6348 706.1211,-446.5461 670.1906,-471.4987 691.5,-495.6348 696.3598,-501.1393 702.9631,-504.6761 709.9855,-506.911"/>
<polygon fill="#000000" fill-opacity="0.200000" stroke="#000000" stroke-width="2" stroke-opacity="0.200000" points="709.6158,-508.9856 715.9539,-508.4967 710.6943,-504.9264 709.6158,-508.9856"/>
</g>
<!-- src/content/useSessionInfo.ts&#45;&gt;src/content/chromeMessageListenerContext.ts -->
<g id="edge58" class="edge">
<title>src/content/useSessionInfo.ts&#45;&gt;src/content/chromeMessageListenerContext.ts</title>
<path fill="none" stroke="#000000" stroke-width="2" stroke-opacity="0.200000" d="M342.2664,-284.6165C351.9755,-279.8555 362.8131,-273.2013 370.5,-264.6348 380.205,-253.8194 373.695,-245.3597 383.5,-234.6348 396.3561,-220.5727 414.9036,-210.1469 430.7966,-203.0857"/>
<polygon fill="#000000" fill-opacity="0.200000" stroke="#000000" stroke-width="2" stroke-opacity="0.200000" points="431.8278,-204.9286 436.5164,-200.6359 430.1742,-201.0678 431.8278,-204.9286"/>
</g>
<!-- src/content/Toolbar.tsx&#45;&gt;src/content/usePage.ts -->
<g id="edge29" class="edge">
<title>src/content/Toolbar.tsx&#45;&gt;src/content/usePage.ts</title>
<path fill="none" stroke="#000000" stroke-width="2" stroke-opacity="0.200000" d="M493.91,-274.5117C511.6439,-271.8776 534.2472,-268.9501 554.5,-267.6348 611.7128,-263.9193 626.3591,-262.9408 683.5,-267.6348 692.9714,-268.4129 703.1258,-269.8043 712.5767,-271.3416"/>
<polygon fill="#000000" fill-opacity="0.200000" stroke="#000000" stroke-width="2" stroke-opacity="0.200000" points="712.406,-273.4423 718.6715,-272.3679 713.1035,-269.3007 712.406,-273.4423"/>
</g>
<!-- src/content/Toolbar.tsx&#45;&gt;src/components/Button.tsx -->
<g id="edge26" class="edge">
<title>src/content/Toolbar.tsx&#45;&gt;src/components/Button.tsx</title>
<path fill="none" stroke="#000000" stroke-width="2" stroke-opacity="0.200000" d="M493.8395,-277.1805C510.4338,-277.7021 529.755,-281.5405 541.5,-294.6348 565.9107,-321.8499 530.6503,-430.9268 554.5,-458.6348 561.9673,-467.3101 573.3822,-471.5064 584.5448,-473.3953"/>
<polygon fill="#000000" fill-opacity="0.200000" stroke="#000000" stroke-width="2" stroke-opacity="0.200000" points="584.4674,-475.5036 590.6936,-474.2211 585.0265,-471.341 584.4674,-475.5036"/>
</g>
<!-- src/content/Toolbar.tsx&#45;&gt;src/components/ErrorMessage.tsx -->
<g id="edge27" class="edge">
<title>src/content/Toolbar.tsx&#45;&gt;src/components/ErrorMessage.tsx</title>
<path fill="none" stroke="#000000" stroke-width="2" stroke-opacity="0.200000" d="M493.7578,-277.2544C510.3265,-277.7992 529.6493,-281.636 541.5,-294.6348 561.954,-317.0705 534.1724,-408.0845 554.5,-430.6348 558.4317,-434.9965 563.3853,-438.1307 568.7917,-440.3544"/>
<polygon fill="#000000" fill-opacity="0.200000" stroke="#000000" stroke-width="2" stroke-opacity="0.200000" points="568.4522,-442.4584 574.8091,-442.4251 569.8189,-438.487 568.4522,-442.4584"/>
</g>
<!-- src/content/useBookmark.ts -->
<g id="node27" class="node">
<title>src/content/useBookmark.ts</title>
<g id="a_node27"><a xlink:href="src/content/useBookmark.ts" xlink:title="useBookmark.ts">
<path fill="#ddfeff" stroke="#000000" d="M654,-302.6348C654,-302.6348 584,-302.6348 584,-302.6348 581,-302.6348 578,-299.6348 578,-296.6348 578,-296.6348 578,-290.6348 578,-290.6348 578,-287.6348 581,-284.6348 584,-284.6348 584,-284.6348 654,-284.6348 654,-284.6348 657,-284.6348 660,-287.6348 660,-290.6348 660,-290.6348 660,-296.6348 660,-296.6348 660,-299.6348 657,-302.6348 654,-302.6348"/>
<text text-anchor="start" x="586" y="-291.4348" font-family="Helvetica,sans-Serif" font-size="9.00" fill="#000000">useBookmark.ts</text>
</a>
</g>
</g>
<!-- src/content/Toolbar.tsx&#45;&gt;src/content/useBookmark.ts -->
<g id="edge28" class="edge">
<title>src/content/Toolbar.tsx&#45;&gt;src/content/useBookmark.ts</title>
<path fill="none" stroke="#000000" stroke-width="2" stroke-opacity="0.200000" d="M493.794,-282.4343C516.1732,-284.4363 546.6838,-287.1657 571.9832,-289.4289"/>
<polygon fill="#000000" fill-opacity="0.200000" stroke="#000000" stroke-width="2" stroke-opacity="0.200000" points="571.7973,-291.5205 577.9606,-289.9636 572.1716,-287.3372 571.7973,-291.5205"/>
</g>
<!-- src/content/useBookmark.ts&#45;&gt;src/api/SolidApi.ts -->
<g id="edge46" class="edge">
<title>src/content/useBookmark.ts&#45;&gt;src/api/SolidApi.ts</title>
<path fill="none" stroke="#000000" stroke-width="2" stroke-opacity="0.200000" d="M660.2831,-295.4316C669.0839,-297.7576 677.5167,-301.8018 683.5,-308.6348 695.7071,-322.5756 680.2331,-376.9238 691.5,-391.6348 697.075,-398.914 705.3433,-403.7848 713.9195,-407.0439"/>
<polygon fill="#000000" fill-opacity="0.200000" stroke="#000000" stroke-width="2" stroke-opacity="0.200000" points="713.5202,-409.1254 719.8767,-409.0525 714.8622,-405.1455 713.5202,-409.1254"/>
</g>
<!-- src/content/useBookmark.ts&#45;&gt;src/content/usePage.ts -->
<g id="edge49" class="edge">
<title>src/content/useBookmark.ts&#45;&gt;src/content/usePage.ts</title>
<path fill="none" stroke="#000000" stroke-width="2" stroke-opacity="0.200000" d="M660.0898,-288.9299C676.7828,-287.0185 695.9441,-284.8244 712.2772,-282.9542"/>
<polygon fill="#000000" fill-opacity="0.200000" stroke="#000000" stroke-width="2" stroke-opacity="0.200000" points="712.8975,-284.997 718.6196,-282.228 712.4197,-280.8243 712.8975,-284.997"/>
</g>
<!-- src/content/useBookmark.ts&#45;&gt;src/messages.ts -->
<g id="edge47" class="edge">
<title>src/content/useBookmark.ts&#45;&gt;src/messages.ts</title>
<path fill="none" stroke="#000000" stroke-width="2" stroke-opacity="0.200000" d="M660.2134,-295.1186C669.1266,-297.4369 677.6276,-301.5562 683.5,-308.6348 696.7784,-324.6408 678.2729,-479.5865 691.5,-495.6348 696.222,-501.364 702.833,-504.9908 709.9196,-507.2411"/>
<polygon fill="#000000" fill-opacity="0.200000" stroke="#000000" stroke-width="2" stroke-opacity="0.200000" points="709.6168,-509.3326 715.9533,-508.8235 710.6823,-505.27 709.6168,-509.3326"/>
</g>
<!-- src/content/useBookmark.ts&#45;&gt;src/content/sendMessage.ts -->
<g id="edge48" class="edge">
<title>src/content/useBookmark.ts&#45;&gt;src/content/sendMessage.ts</title>
<path fill="none" stroke="#000000" stroke-width="2" stroke-opacity="0.200000" d="M660.0898,-298.3398C673.364,-299.8597 688.199,-301.5584 701.9316,-303.1308"/>
<polygon fill="#000000" fill-opacity="0.200000" stroke="#000000" stroke-width="2" stroke-opacity="0.200000" points="701.954,-305.247 708.154,-303.8433 702.4319,-301.0743 701.954,-305.247"/>
</g>
<!-- src/content/usePageData.ts&#45;&gt;src/messages.ts -->
<g id="edge52" class="edge">
<title>src/content/usePageData.ts&#45;&gt;src/messages.ts</title>
<path fill="none" stroke="#000000" stroke-width="2" stroke-opacity="0.200000" d="M660.1726,-325.1526C669.087,-327.4699 677.5988,-331.5802 683.5,-338.6348 705.9144,-365.4302 669.1715,-468.7679 691.5,-495.6348 696.2453,-501.3447 702.8667,-504.9629 709.9561,-507.2109"/>
<polygon fill="#000000" fill-opacity="0.200000" stroke="#000000" stroke-width="2" stroke-opacity="0.200000" points="709.654,-509.3026 715.9905,-508.7927 710.7191,-505.2398 709.654,-509.3026"/>
</g>
<!-- src/content/usePageData.ts&#45;&gt;src/content/sendMessage.ts -->
<g id="edge53" class="edge">
<title>src/content/usePageData.ts&#45;&gt;src/content/sendMessage.ts</title>
<path fill="none" stroke="#000000" stroke-width="2" stroke-opacity="0.200000" d="M660.0898,-318.9299C673.364,-317.41 688.199,-315.7113 701.9316,-314.1389"/>
<polygon fill="#000000" fill-opacity="0.200000" stroke="#000000" stroke-width="2" stroke-opacity="0.200000" points="702.4319,-316.1954 708.154,-313.4264 701.954,-312.0226 702.4319,-316.1954"/>
</g>
<!-- src/content/useProfile.ts&#45;&gt;src/api/SolidApi.ts -->
<g id="edge54" class="edge">
<title>src/content/useProfile.ts&#45;&gt;src/api/SolidApi.ts</title>
<path fill="none" stroke="#000000" stroke-width="2" stroke-opacity="0.200000" d="M496.3908,-247.5175C512.2608,-248.4292 530.1305,-252.5221 541.5,-264.6348 573.3798,-298.5988 521.0453,-336.2209 554.5,-368.6348 575.177,-388.6686 658.4777,-366.395 683.5,-380.6348 688.7539,-383.6248 686.6907,-387.9723 691.5,-391.6348 698.1038,-396.664 705.9848,-400.652 713.7899,-403.772"/>
<polygon fill="#000000" fill-opacity="0.200000" stroke="#000000" stroke-width="2" stroke-opacity="0.200000" points="713.3658,-405.8555 719.7213,-405.9916 714.8378,-401.9219 713.3658,-405.8555"/>
</g>
<!-- src/content/useProfile.ts&#45;&gt;src/messages.ts -->
<g id="edge55" class="edge">
<title>src/content/useProfile.ts&#45;&gt;src/messages.ts</title>
<path fill="none" stroke="#000000" stroke-width="2" stroke-opacity="0.200000" d="M496.0471,-247.4429C512.0303,-248.2953 530.1012,-252.3585 541.5,-264.6348 576.1986,-302.0046 518.6192,-342.3986 554.5,-378.6348 595.1496,-419.6871 643.5646,-352.8875 683.5,-394.6348 699.0633,-410.9043 676.8674,-478.5234 691.5,-495.6348 696.2722,-501.2154 702.836,-504.7866 709.8472,-507.0312"/>
<polygon fill="#000000" fill-opacity="0.200000" stroke="#000000" stroke-width="2" stroke-opacity="0.200000" points="709.4741,-509.1049 715.8124,-508.6196 710.5549,-505.0464 709.4741,-509.1049"/>
</g>
<!-- src/content/useProfile.ts&#45;&gt;src/content/sendMessage.ts -->
<g id="edge56" class="edge">
<title>src/content/useProfile.ts&#45;&gt;src/content/sendMessage.ts</title>
<path fill="none" stroke="#000000" stroke-width="2" stroke-opacity="0.200000" d="M496.3794,-247.3365C551.125,-244.3595 655.7221,-241.9552 683.5,-264.6348 693.8568,-273.0908 681.9603,-284.2668 691.5,-293.6348 694.7402,-296.8167 698.5585,-299.3512 702.6666,-301.3664"/>
<polygon fill="#000000" fill-opacity="0.200000" stroke="#000000" stroke-width="2" stroke-opacity="0.200000" points="702.0772,-303.3974 708.4211,-303.8045 703.7158,-299.5302 702.0772,-303.3974"/>
</g>
<!-- src/content/chromeMessageListenerContext.ts&#45;&gt;src/content/ChromeMessageListener.ts -->
<g id="edge42" class="edge">
<title>src/content/chromeMessageListenerContext.ts&#45;&gt;src/content/ChromeMessageListener.ts</title>
<path fill="none" stroke="#000000" stroke-width="2" stroke-opacity="0.200000" d="M541.667,-184.5528C543.7898,-184.3629 545.9117,-184.1731 548.0264,-183.9839"/>
<polygon fill="#000000" fill-opacity="0.200000" stroke="#000000" stroke-width="2" stroke-opacity="0.200000" points="548.554,-186.0452 554.343,-183.4188 548.1797,-181.8619 548.554,-186.0452"/>
</g>
<!-- src/options/onOptionChange.ts -->
<g id="node35" class="node">
<title>src/options/onOptionChange.ts</title>
<g id="a_node35"><a xlink:href="src/options/onOptionChange.ts" xlink:title="onOptionChange.ts">
<path fill="#ddfeff" stroke="#000000" d="M925.5,-126.6348C925.5,-126.6348 841.5,-126.6348 841.5,-126.6348 838.5,-126.6348 835.5,-123.6348 835.5,-120.6348 835.5,-120.6348 835.5,-114.6348 835.5,-114.6348 835.5,-111.6348 838.5,-108.6348 841.5,-108.6348 841.5,-108.6348 925.5,-108.6348 925.5,-108.6348 928.5,-108.6348 931.5,-111.6348 931.5,-114.6348 931.5,-114.6348 931.5,-120.6348 931.5,-120.6348 931.5,-123.6348 928.5,-126.6348 925.5,-126.6348"/>
<text text-anchor="start" x="843.5" y="-115.4348" font-family="Helvetica,sans-Serif" font-size="9.00" fill="#000000">onOptionChange.ts</text>
</a>
</g>
</g>
<!-- src/options/optionsStorageApi.ts&#45;&gt;src/options/onOptionChange.ts -->
<g id="edge63" class="edge">
<title>src/options/optionsStorageApi.ts&#45;&gt;src/options/onOptionChange.ts</title>
<path fill="none" stroke="#000000" stroke-width="2" stroke-opacity="0.200000" d="M800.8515,-117.6348C810.16,-117.6348 819.9066,-117.6348 829.3083,-117.6348"/>
<polygon fill="#000000" fill-opacity="0.200000" stroke="#000000" stroke-width="2" stroke-opacity="0.200000" points="829.4287,-119.7349 835.4287,-117.6348 829.4287,-115.5349 829.4287,-119.7349"/>
</g>
<!-- src/options/api/ -->
<g id="node34" class="node">
<title>src/options/api/</title>
<g id="a_node34"><a xlink:href="src/options/api/" xlink:title="api">
<polygon fill="#ffffcc" stroke="#000000" points="910.5,-96.6348 858.5,-96.6348 856.5,-94.6348 856.5,-78.6348 908.5,-78.6348 910.5,-80.6348 910.5,-96.6348"/>
<polyline fill="none" stroke="#000000" points="908.5,-94.6348 856.5,-94.6348 "/>
<polyline fill="none" stroke="#000000" points="908.5,-94.6348 908.5,-78.6348 "/>
<polyline fill="none" stroke="#000000" points="908.5,-94.6348 910.5,-96.6348 "/>
<text text-anchor="middle" x="883.5" y="-85.4348" font-family="Helvetica,sans-Serif" font-size="9.00" fill="#000000">api</text>
</a>
</g>
</g>
<!-- src/options/useSolidApis.ts&#45;&gt;src/options/api/ -->
<g id="edge64" class="edge">
<title>src/options/useSolidApis.ts&#45;&gt;src/options/api/</title>
<path fill="none" stroke="#000000" stroke-width="2" stroke-opacity="0.200000" d="M790.0544,-87.6348C809.0704,-87.6348 831.5472,-87.6348 849.6907,-87.6348"/>
<polygon fill="#000000" fill-opacity="0.200000" stroke="#000000" stroke-width="2" stroke-opacity="0.200000" points="850.1647,-89.7349 856.1647,-87.6348 850.1646,-85.5349 850.1647,-89.7349"/>
</g>
<!-- src/content/sendMessage.ts&#45;&gt;src/messages.ts -->
<g id="edge45" class="edge">
<title>src/content/sendMessage.ts&#45;&gt;src/messages.ts</title>
<path fill="none" stroke="#000000" stroke-width="2" stroke-opacity="0.200000" d="M740.8537,-317.6726C726.1428,-332.9377 697.8304,-365.5158 687.5,-399.6348 684.6022,-409.2058 684.6022,-480.0639 687.5,-489.6348 690.5358,-499.6613 699.4544,-505.0653 709.638,-507.8739"/>
<polygon fill="#000000" fill-opacity="0.200000" stroke="#000000" stroke-width="2" stroke-opacity="0.200000" points="709.4311,-509.9796 715.7452,-509.243 710.3499,-505.8813 709.4311,-509.9796"/>
</g>
<!-- src/options/api/&#45;&gt;src/solid&#45;client&#45;authn&#45;chrome&#45;ext/Session.ts -->
<g id="edge62" class="edge">
<title>src/options/api/&#45;&gt;src/solid&#45;client&#45;authn&#45;chrome&#45;ext/Session.ts</title>
<path fill="none" stroke="#000000" stroke-width="2" stroke-opacity="0.200000" d="M910.617,-91.5364C923.8164,-93.913 939.7621,-97.501 953.5,-102.6348 967.2015,-107.7551 981.605,-115.6863 992.6309,-122.3716"/>
<polygon fill="#000000" fill-opacity="0.200000" stroke="#000000" stroke-width="2" stroke-opacity="0.200000" points="991.546,-124.1697 997.7544,-125.5356 993.7528,-120.5962 991.546,-124.1697"/>
</g>
<!-- src/options/api/&#45;&gt;src/chrome/urls.ts -->
<g id="edge61" class="edge">
<title>src/options/api/&#45;&gt;src/chrome/urls.ts</title>
<path fill="none" stroke="#000000" stroke-width="2" stroke-opacity="0.200000" d="M910.6455,-82.5451C930.4159,-78.8381 957.3042,-73.7966 978.3458,-69.8512"/>
<polygon fill="#000000" fill-opacity="0.200000" stroke="#000000" stroke-width="2" stroke-opacity="0.200000" points="978.8834,-71.8871 984.3936,-68.7173 978.1094,-67.7591 978.8834,-71.8871"/>
</g>
<!-- src/solid&#45;client&#45;authn&#45;chrome&#45;ext/ChromeExtensionLogoutHandler.ts -->
<g id="node36" class="node">
<title>src/solid&#45;client&#45;authn&#45;chrome&#45;ext/ChromeExtensionLogoutHandler.ts</title>
<g id="a_node36"><a xlink:href="src/solid-client-authn-chrome-ext/ChromeExtensionLogoutHandler.ts" xlink:title="ChromeExtensionLogoutHandler.ts">
<path fill="#ddfeff" stroke="#000000" d="M1361.5,-132.6348C1361.5,-132.6348 1212.5,-132.6348 1212.5,-132.6348 1209.5,-132.6348 1206.5,-129.6348 1206.5,-126.6348 1206.5,-126.6348 1206.5,-120.6348 1206.5,-120.6348 1206.5,-117.6348 1209.5,-114.6348 1212.5,-114.6348 1212.5,-114.6348 1361.5,-114.6348 1361.5,-114.6348 1364.5,-114.6348 1367.5,-117.6348 1367.5,-120.6348 1367.5,-120.6348 1367.5,-126.6348 1367.5,-126.6348 1367.5,-129.6348 1364.5,-132.6348 1361.5,-132.6348"/>
<text text-anchor="start" x="1214.5" y="-121.4348" font-family="Helvetica,sans-Serif" font-size="9.00" fill="#000000">ChromeExtensionLogoutHandler.ts</text>
</a>
</g>
</g>
<!-- src/solid&#45;client&#45;authn&#45;chrome&#45;ext/chromeExtensionLogout.ts -->
<g id="node37" class="node">
<title>src/solid&#45;client&#45;authn&#45;chrome&#45;ext/chromeExtensionLogout.ts</title>
<g id="a_node37"><a xlink:href="src/solid-client-authn-chrome-ext/chromeExtensionLogout.ts" xlink:title="chromeExtensionLogout.ts">
<path fill="#ddfeff" stroke="#000000" d="M1499.5,-132.6348C1499.5,-132.6348 1386.5,-132.6348 1386.5,-132.6348 1383.5,-132.6348 1380.5,-129.6348 1380.5,-126.6348 1380.5,-126.6348 1380.5,-120.6348 1380.5,-120.6348 1380.5,-117.6348 1383.5,-114.6348 1386.5,-114.6348 1386.5,-114.6348 1499.5,-114.6348 1499.5,-114.6348 1502.5,-114.6348 1505.5,-117.6348 1505.5,-120.6348 1505.5,-120.6348 1505.5,-126.6348 1505.5,-126.6348 1505.5,-129.6348 1502.5,-132.6348 1499.5,-132.6348"/>
<text text-anchor="start" x="1388.5" y="-121.4348" font-family="Helvetica,sans-Serif" font-size="9.00" fill="#000000">chromeExtensionLogout.ts</text>
</a>
</g>
</g>
<!-- src/solid&#45;client&#45;authn&#45;chrome&#45;ext/ChromeExtensionLogoutHandler.ts&#45;&gt;src/solid&#45;client&#45;authn&#45;chrome&#45;ext/chromeExtensionLogout.ts -->
<g id="edge65" class="edge">
<title>src/solid&#45;client&#45;authn&#45;chrome&#45;ext/ChromeExtensionLogoutHandler.ts&#45;&gt;src/solid&#45;client&#45;authn&#45;chrome&#45;ext/chromeExtensionLogout.ts</title>
<path fill="none" stroke="#000000" stroke-width="2" stroke-opacity="0.200000" d="M1367.7417,-123.6348C1369.8234,-123.6348 1371.9024,-123.6348 1373.973,-123.6348"/>
<polygon fill="#000000" fill-opacity="0.200000" stroke="#000000" stroke-width="2" stroke-opacity="0.200000" points="1374.153,-125.7349 1380.153,-123.6348 1374.1529,-121.5349 1374.153,-125.7349"/>
</g>
<!-- src/solid&#45;client&#45;authn&#45;chrome&#45;ext/launchWebAuthFlow.ts -->
<g id="node39" class="node">
<title>src/solid&#45;client&#45;authn&#45;chrome&#45;ext/launchWebAuthFlow.ts</title>
<g id="a_node39"><a xlink:href="src/solid-client-authn-chrome-ext/launchWebAuthFlow.ts" xlink:title="launchWebAuthFlow.ts">
<path fill="#ddfeff" stroke="#000000" d="M1492,-162.6348C1492,-162.6348 1394,-162.6348 1394,-162.6348 1391,-162.6348 1388,-159.6348 1388,-156.6348 1388,-156.6348 1388,-150.6348 1388,-150.6348 1388,-147.6348 1391,-144.6348 1394,-144.6348 1394,-144.6348 1492,-144.6348 1492,-144.6348 1495,-144.6348 1498,-147.6348 1498,-150.6348 1498,-150.6348 1498,-156.6348 1498,-156.6348 1498,-159.6348 1495,-162.6348 1492,-162.6348"/>
<text text-anchor="start" x="1396" y="-151.4348" font-family="Helvetica,sans-Serif" font-size="9.00" fill="#000000">launchWebAuthFlow.ts</text>
</a>
</g>
</g>
<!-- src/solid&#45;client&#45;authn&#45;chrome&#45;ext/ChromeExtensionRedirector.ts&#45;&gt;src/solid&#45;client&#45;authn&#45;chrome&#45;ext/launchWebAuthFlow.ts -->
<g id="edge66" class="edge">
<title>src/solid&#45;client&#45;authn&#45;chrome&#45;ext/ChromeExtensionRedirector.ts&#45;&gt;src/solid&#45;client&#45;authn&#45;chrome&#45;ext/launchWebAuthFlow.ts</title>
<path fill="none" stroke="#000000" stroke-width="2" stroke-opacity="0.200000" d="M1358.1524,-153.6348C1365.9371,-153.6348 1373.8135,-153.6348 1381.4681,-153.6348"/>
<polygon fill="#000000" fill-opacity="0.200000" stroke="#000000" stroke-width="2" stroke-opacity="0.200000" points="1381.8391,-155.7349 1387.839,-153.6348 1381.839,-151.5349 1381.8391,-155.7349"/>
</g>
<!-- src/solid&#45;client&#45;authn&#45;chrome&#45;ext/getClientAuthentication.ts&#45;&gt;src/solid&#45;client&#45;authn&#45;chrome&#45;ext/ChromeExtensionLogoutHandler.ts -->
<g id="edge71" class="edge">
<title>src/solid&#45;client&#45;authn&#45;chrome&#45;ext/getClientAuthentication.ts&#45;&gt;src/solid&#45;client&#45;authn&#45;chrome&#45;ext/ChromeExtensionLogoutHandler.ts</title>
<path fill="none" stroke="#000000" stroke-width="2" stroke-opacity="0.200000" d="M1190.7003,-123.6348C1193.7743,-123.6348 1196.8868,-123.6348 1200.0175,-123.6348"/>
<polygon fill="#000000" fill-opacity="0.200000" stroke="#000000" stroke-width="2" stroke-opacity="0.200000" points="1200.4628,-125.7349 1206.4627,-123.6348 1200.4627,-121.5349 1200.4628,-125.7349"/>
</g>
<!-- src/solid&#45;client&#45;authn&#45;chrome&#45;ext/getClientAuthentication.ts&#45;&gt;src/solid&#45;client&#45;authn&#45;chrome&#45;ext/ChromeExtensionRedirector.ts -->
<g id="edge72" class="edge">
<title>src/solid&#45;client&#45;authn&#45;chrome&#45;ext/getClientAuthentication.ts&#45;&gt;src/solid&#45;client&#45;authn&#45;chrome&#45;ext/ChromeExtensionRedirector.ts</title>
<path fill="none" stroke="#000000" stroke-width="2" stroke-opacity="0.200000" d="M1175.6973,-132.668C1185.8357,-134.6518 1196.53,-136.7285 1206.5,-138.6348 1214.782,-140.2184 1223.5475,-141.8733 1232.1279,-143.4816"/>
<polygon fill="#000000" fill-opacity="0.200000" stroke="#000000" stroke-width="2" stroke-opacity="0.200000" points="1231.7465,-145.5466 1238.0304,-144.5861 1232.5191,-141.4183 1231.7465,-145.5466"/>
</g>
<!-- src/store/createAboutStatements.ts -->
<g id="node44" class="node">
<title>src/store/createAboutStatements.ts</title>
<g id="a_node44"><a xlink:href="src/store/createAboutStatements.ts" xlink:title="createAboutStatements.ts">
<path fill="#ddfeff" stroke="#000000" d="M1184.5,-526.6348C1184.5,-526.6348 1075.5,-526.6348 1075.5,-526.6348 1072.5,-526.6348 1069.5,-523.6348 1069.5,-520.6348 1069.5,-520.6348 1069.5,-514.6348 1069.5,-514.6348 1069.5,-511.6348 1072.5,-508.6348 1075.5,-508.6348 1075.5,-508.6348 1184.5,-508.6348 1184.5,-508.6348 1187.5,-508.6348 1190.5,-511.6348 1190.5,-514.6348 1190.5,-514.6348 1190.5,-520.6348 1190.5,-520.6348 1190.5,-523.6348 1187.5,-526.6348 1184.5,-526.6348"/>
<text text-anchor="start" x="1077.5" y="-515.4348" font-family="Helvetica,sans-Serif" font-size="9.00" fill="#000000">createAboutStatements.ts</text>
</a>
</g>
</g>
<!-- src/store/createRelations.ts&#45;&gt;src/store/createAboutStatements.ts -->
<g id="edge75" class="edge">
<title>src/store/createRelations.ts&#45;&gt;src/store/createAboutStatements.ts</title>
<path fill="none" stroke="#000000" stroke-width="2" stroke-opacity="0.200000" d="M1056.6378,-517.6348C1058.8616,-517.6348 1061.1136,-517.6348 1063.3802,-517.6348"/>
<polygon fill="#000000" fill-opacity="0.200000" stroke="#000000" stroke-width="2" stroke-opacity="0.200000" points="1063.4049,-519.7349 1069.4048,-517.6348 1063.4048,-515.5349 1063.4049,-519.7349"/>
</g>
</g>
</svg>
