<?xml version="1.0" encoding="UTF-8" standalone="no"?>
<!DOCTYPE svg PUBLIC "-//W3C//DTD SVG 1.1//EN"
 "http://www.w3.org/Graphics/SVG/1.1/DTD/svg11.dtd">
<!-- Generated by graphviz version 2.40.1 (20161225.0304)
 -->
<!-- Title: dependency&#45;cruiser output Pages: 1 -->
<svg width="548pt" height="288pt"
 viewBox="0.00 0.00 548.00 288.00" xmlns="http://www.w3.org/2000/svg" xmlns:xlink="http://www.w3.org/1999/xlink">
<g id="graph0" class="graph" transform="scale(1 1) rotate(0) translate(4 284)">
<title>dependency&#45;cruiser output</title>
<polygon fill="#ffffff" stroke="transparent" points="-4,4 -4,-284 544,-284 544,4 -4,4"/>
<g id="clust1" class="cluster">
<title>cluster_src</title>
<path fill="#ffffff" stroke="#000000" stroke-width="2" d="M20,-8C20,-8 466,-8 466,-8 472,-8 478,-14 478,-20 478,-20 478,-260 478,-260 478,-266 472,-272 466,-272 466,-272 20,-272 20,-272 14,-272 8,-266 8,-260 8,-260 8,-20 8,-20 8,-14 14,-8 20,-8"/>
<text text-anchor="middle" x="243" y="-260.8" font-family="Helvetica,sans-Serif" font-weight="bold" font-size="9.00" fill="#000000">src</text>
</g>
<!-- events -->
<g id="node1" class="node">
<title>events</title>
<g id="a_node1"><a xlink:title="events">
<path fill="#ffffcc" stroke="#c0c0c0" d="M534,-100C534,-100 492,-100 492,-100 489,-100 486,-97 486,-94 486,-94 486,-88 486,-88 486,-85 489,-82 492,-82 492,-82 534,-82 534,-82 537,-82 540,-85 540,-88 540,-88 540,-94 540,-94 540,-97 537,-100 534,-100"/>
<text text-anchor="middle" x="513" y="-88.8" font-family="Helvetica,sans-Serif" font-size="9.00" fill="#c0c0c0">events</text>
</a>
</g>
</g>
<!-- src/api/ -->
<g id="node2" class="node">
<title>src/api/</title>
<g id="a_node2"><a xlink:href="src/api/" xlink:title="api">
<polygon fill="#ffffcc" stroke="#000000" points="314.5,-134 262.5,-134 260.5,-132 260.5,-116 312.5,-116 314.5,-118 314.5,-134"/>
<polyline fill="none" stroke="#000000" points="312.5,-132 260.5,-132 "/>
<polyline fill="none" stroke="#000000" points="312.5,-132 312.5,-116 "/>
<polyline fill="none" stroke="#000000" points="312.5,-132 314.5,-134 "/>
<text text-anchor="start" x="281" y="-122.8" font-family="Helvetica,sans-Serif" font-size="9.00" fill="#000000">api</text>
</a>
</g>
</g>
<!-- src/chrome/ -->
<g id="node3" class="node">
<title>src/chrome/</title>
<g id="a_node3"><a xlink:href="src/chrome/" xlink:title="chrome">
<polygon fill="#ffffcc" stroke="#000000" points="429,-69 377,-69 375,-67 375,-51 427,-51 429,-53 429,-69"/>
<polyline fill="none" stroke="#000000" points="427,-67 375,-67 "/>
<polyline fill="none" stroke="#000000" points="427,-67 427,-51 "/>
<polyline fill="none" stroke="#000000" points="427,-67 429,-69 "/>
<text text-anchor="start" x="386.5" y="-57.8" font-family="Helvetica,sans-Serif" font-size="9.00" fill="#000000">chrome</text>
</a>
</g>
</g>
<!-- src/api/&#45;&gt;src/chrome/ -->
<g id="edge1" class="edge">
<title>src/api/&#45;&gt;src/chrome/</title>
<path fill="none" stroke="#000000" stroke-width="2" stroke-opacity="0.200000" d="M303.4207,-115.962C323.474,-104.5781 358.0132,-84.9707 380.4249,-72.2479"/>
<polygon fill="#000000" fill-opacity="0.200000" stroke="#000000" stroke-width="2" stroke-opacity="0.200000" points="381.6642,-73.9592 385.8454,-69.1708 379.5907,-70.3067 381.6642,-73.9592"/>
</g>
<!-- src/store/ -->
<g id="node4" class="node">
<title>src/store/</title>
<g id="a_node4"><a xlink:href="src/store/" xlink:title="store">
<polygon fill="#ffffcc" stroke="#000000" points="429,-175 377,-175 375,-173 375,-157 427,-157 429,-159 429,-175"/>
<polyline fill="none" stroke="#000000" points="427,-173 375,-173 "/>
<polyline fill="none" stroke="#000000" points="427,-173 427,-157 "/>
<polyline fill="none" stroke="#000000" points="427,-173 429,-175 "/>
<text text-anchor="start" x="391.5" y="-163.8" font-family="Helvetica,sans-Serif" font-size="9.00" fill="#000000">store</text>
</a>
</g>
</g>
<!-- src/api/&#45;&gt;src/store/ -->
<g id="edge2" class="edge">
<title>src/api/&#45;&gt;src/store/</title>
<path fill="none" stroke="#000000" stroke-width="2" stroke-opacity="0.200000" d="M312.0965,-134.0506C319.1622,-136.6346 326.8814,-139.4426 334,-142 345.8391,-146.2532 358.8608,-150.8652 370.3128,-154.899"/>
<polygon fill="#000000" fill-opacity="0.200000" stroke="#000000" stroke-width="2" stroke-opacity="0.200000" points="369.7868,-156.9401 376.1437,-156.9508 371.1809,-152.9782 369.7868,-156.9401"/>
</g>
<!-- src/solid&#45;client&#45;authn&#45;chrome&#45;ext/ -->
<g id="node5" class="node">
<title>src/solid&#45;client&#45;authn&#45;chrome&#45;ext/</title>
<g id="a_node5"><a xlink:href="src/solid-client-authn-chrome-ext/" xlink:title="solid&#45;client&#45;authn&#45;chrome&#45;ext">
<polygon fill="#ffffcc" stroke="#000000" points="470,-209 336,-209 334,-207 334,-191 468,-191 470,-193 470,-209"/>
<polyline fill="none" stroke="#000000" points="468,-207 334,-207 "/>
<polyline fill="none" stroke="#000000" points="468,-207 468,-191 "/>
<polyline fill="none" stroke="#000000" points="468,-207 470,-209 "/>
<text text-anchor="start" x="342" y="-197.8" font-family="Helvetica,sans-Serif" font-size="9.00" fill="#000000">solid&#45;client&#45;authn&#45;chrome&#45;ext</text>
</a>
</g>
</g>
<!-- src/api/&#45;&gt;src/solid&#45;client&#45;authn&#45;chrome&#45;ext/ -->
<g id="edge3" class="edge">
<title>src/api/&#45;&gt;src/solid&#45;client&#45;authn&#45;chrome&#45;ext/</title>
<path fill="none" stroke="#000000" stroke-width="2" stroke-opacity="0.200000" d="M310.1198,-134.1179C314.1499,-136.5336 318.0096,-139.4762 321,-143 332.5494,-156.6099 321.0227,-168.7441 334,-181 336.8657,-183.7064 340.0843,-186.0326 343.5221,-188.0315"/>
<polygon fill="#000000" fill-opacity="0.200000" stroke="#000000" stroke-width="2" stroke-opacity="0.200000" points="342.7914,-190.018 349.0853,-190.9109 344.722,-186.2879 342.7914,-190.018"/>
</g>
<!-- src/domain/ -->
<g id="node6" class="node">
<title>src/domain/</title>
<g id="a_node6"><a xlink:href="src/domain/" xlink:title="domain">
<polygon fill="#ffffcc" stroke="#000000" points="429,-136 377,-136 375,-134 375,-118 427,-118 429,-120 429,-136"/>
<polyline fill="none" stroke="#000000" points="427,-134 375,-134 "/>
<polyline fill="none" stroke="#000000" points="427,-134 427,-118 "/>
<polyline fill="none" stroke="#000000" points="427,-134 429,-136 "/>
<text text-anchor="start" x="386.5" y="-124.8" font-family="Helvetica,sans-Serif" font-size="9.00" fill="#000000">domain</text>
</a>
</g>
</g>
<!-- src/api/&#45;&gt;src/domain/ -->
<g id="edge4" class="edge">
<title>src/api/&#45;&gt;src/domain/</title>
<path fill="none" stroke="#000000" stroke-width="2" stroke-opacity="0.200000" d="M314.6349,-125.474C330.773,-125.7559 351.3742,-126.1157 368.518,-126.4152"/>
<polygon fill="#000000" fill-opacity="0.200000" stroke="#000000" stroke-width="2" stroke-opacity="0.200000" points="368.6273,-128.5173 374.6631,-126.5225 368.7007,-124.3179 368.6273,-128.5173"/>
</g>
<!-- src/solid&#45;client&#45;authn&#45;chrome&#45;ext/&#45;&gt;events -->
<g id="edge31" class="edge">
<title>src/solid&#45;client&#45;authn&#45;chrome&#45;ext/&#45;&gt;events</title>
<path fill="none" stroke="#000000" stroke-dasharray="5,2" stroke-opacity="0.200000" d="M462.0456,-190.9709C467.846,-188.4003 473.3066,-185.1367 478,-181 500.13,-161.4947 508.3736,-126.2843 511.3651,-106.1729"/>
<polygon fill="#000000" fill-opacity="0.200000" stroke="#000000" stroke-opacity="0.200000" points="513.4482,-106.4384 512.1628,-100.2128 509.2853,-105.8812 513.4482,-106.4384"/>
</g>
<!-- src/assets/ -->
<g id="node7" class="node">
<title>src/assets/</title>
<g id="a_node7"><a xlink:href="src/assets/" xlink:title="assets">
<polygon fill="#ffffcc" stroke="#000000" points="235.5,-232 183.5,-232 181.5,-230 181.5,-214 233.5,-214 235.5,-216 235.5,-232"/>
<polyline fill="none" stroke="#000000" points="233.5,-230 181.5,-230 "/>
<polyline fill="none" stroke="#000000" points="233.5,-230 233.5,-214 "/>
<polyline fill="none" stroke="#000000" points="233.5,-230 235.5,-232 "/>
<text text-anchor="start" x="195" y="-220.8" font-family="Helvetica,sans-Serif" font-size="9.00" fill="#000000">assets</text>
</a>
</g>
</g>
<!-- src/background.ts -->
<g id="node8" class="node">
<title>src/background.ts</title>
<g id="a_node8"><a xlink:href="src/background.ts" xlink:title="background.ts">
<path fill="#ddfeff" stroke="#000000" d="M157,-163C157,-163 95,-163 95,-163 92,-163 89,-160 89,-157 89,-157 89,-151 89,-151 89,-148 92,-145 95,-145 95,-145 157,-145 157,-145 160,-145 163,-148 163,-151 163,-151 163,-157 163,-157 163,-160 160,-163 157,-163"/>
<text text-anchor="start" x="97" y="-151.8" font-family="Helvetica,sans-Serif" font-size="9.00" fill="#000000">background.ts</text>
</a>
</g>
</g>
<!-- src/background.ts&#45;&gt;src/solid&#45;client&#45;authn&#45;chrome&#45;ext/ -->
<g id="edge8" class="edge">
<title>src/background.ts&#45;&gt;src/solid&#45;client&#45;authn&#45;chrome&#45;ext/</title>
<path fill="none" stroke="#000000" stroke-width="2" stroke-opacity="0.200000" d="M140.3398,-163.0043C150.0565,-168.7104 163.379,-175.7848 176,-180 209.3348,-191.1332 219.0532,-189.2744 254,-193 277.8322,-195.5407 303.9216,-197.1592 327.4681,-198.1903"/>
<polygon fill="#000000" fill-opacity="0.200000" stroke="#000000" stroke-width="2" stroke-opacity="0.200000" points="327.6333,-200.299 333.7163,-198.4529 327.8098,-196.1027 327.6333,-200.299"/>
</g>
<!-- src/background.ts&#45;&gt;src/domain/ -->
<g id="edge6" class="edge">
<title>src/background.ts&#45;&gt;src/domain/</title>
<path fill="none" stroke="#000000" stroke-width="2" stroke-opacity="0.200000" d="M163.1303,-150.984C167.4685,-150.6451 171.8316,-150.3105 176,-150 240.4191,-145.202 256.8218,-147.348 321,-140 336.7242,-138.1997 354.0598,-135.5128 368.645,-133.0482"/>
<polygon fill="#000000" fill-opacity="0.200000" stroke="#000000" stroke-width="2" stroke-opacity="0.200000" points="369.1553,-135.0915 374.7147,-132.0088 368.4463,-130.9518 369.1553,-135.0915"/>
</g>
<!-- src/background/ -->
<g id="node9" class="node">
<title>src/background/</title>
<g id="a_node9"><a xlink:href="src/background/" xlink:title="background">
<polygon fill="#ffffcc" stroke="#000000" points="241,-174 178,-174 176,-172 176,-156 239,-156 241,-158 241,-174"/>
<polyline fill="none" stroke="#000000" points="239,-172 176,-172 "/>
<polyline fill="none" stroke="#000000" points="239,-172 239,-156 "/>
<polyline fill="none" stroke="#000000" points="239,-172 241,-174 "/>
<text text-anchor="start" x="184" y="-162.8" font-family="Helvetica,sans-Serif" font-size="9.00" fill="#000000">background</text>
</a>
</g>
</g>
<!-- src/background.ts&#45;&gt;src/background/ -->
<g id="edge5" class="edge">
<title>src/background.ts&#45;&gt;src/background/</title>
<path fill="none" stroke="#000000" stroke-width="2" stroke-opacity="0.200000" d="M163.3878,-158.985C165.4769,-159.2636 167.5793,-159.5439 169.6733,-159.8231"/>
<polygon fill="#000000" fill-opacity="0.200000" stroke="#000000" stroke-width="2" stroke-opacity="0.200000" points="169.6837,-161.943 175.9086,-160.6545 170.2388,-157.7798 169.6837,-161.943"/>
</g>
<!-- src/options/ -->
<g id="node10" class="node">
<title>src/options/</title>
<g id="a_node10"><a xlink:href="src/options/" xlink:title="no&#45;orphans">
<polygon fill="#ccffcc" stroke="#ffa500" points="235.5,-112 183.5,-112 181.5,-110 181.5,-94 233.5,-94 235.5,-96 235.5,-112"/>
<polyline fill="none" stroke="#ffa500" points="233.5,-110 181.5,-110 "/>
<polyline fill="none" stroke="#ffa500" points="233.5,-110 233.5,-94 "/>
<polyline fill="none" stroke="#ffa500" points="233.5,-110 235.5,-112 "/>
<text text-anchor="start" x="193" y="-100.8" font-family="Helvetica,sans-Serif" font-size="9.00" fill="#ffa500">options</text>
</a>
</g>
</g>
<!-- src/background.ts&#45;&gt;src/options/ -->
<g id="edge7" class="edge">
<title>src/background.ts&#45;&gt;src/options/</title>
<path fill="none" stroke="#000000" stroke-width="2" stroke-opacity="0.200000" d="M140.7493,-144.8822C154.1235,-136.6146 173.9429,-124.3626 188.6943,-115.2435"/>
<polygon fill="#000000" fill-opacity="0.200000" stroke="#000000" stroke-width="2" stroke-opacity="0.200000" points="189.879,-116.9801 193.8783,-112.0388 187.6705,-113.4076 189.879,-116.9801"/>
</g>
<!-- src/background/&#45;&gt;src/api/ -->
<g id="edge10" class="edge">
<title>src/background/&#45;&gt;src/api/</title>
<path fill="none" stroke="#000000" stroke-width="2" stroke-opacity="0.200000" d="M226.4263,-155.9234C237.638,-150.2466 252.1948,-142.876 264.2844,-136.7547"/>
<polygon fill="#000000" fill-opacity="0.200000" stroke="#000000" stroke-width="2" stroke-opacity="0.200000" points="265.2403,-138.6246 269.6446,-134.0407 263.343,-134.8776 265.2403,-138.6246"/>
</g>
<!-- src/background/&#45;&gt;src/store/ -->
<g id="edge12" class="edge">
<title>src/background/&#45;&gt;src/store/</title>
<path fill="none" stroke="#000000" stroke-width="2" stroke-opacity="0.200000" d="M233.2212,-174.0692C239.876,-176.1055 247.1348,-177.9677 254,-179 293.1721,-184.8902 338.6084,-179.0347 368.6955,-173.4064"/>
<polygon fill="#000000" fill-opacity="0.200000" stroke="#000000" stroke-width="2" stroke-opacity="0.200000" points="369.382,-175.4127 374.875,-172.2131 368.5857,-171.2889 369.382,-175.4127"/>
</g>
<!-- src/background/&#45;&gt;src/solid&#45;client&#45;authn&#45;chrome&#45;ext/ -->
<g id="edge11" class="edge">
<title>src/background/&#45;&gt;src/solid&#45;client&#45;authn&#45;chrome&#45;ext/</title>
<path fill="none" stroke="#000000" stroke-width="2" stroke-opacity="0.200000" d="M226.6793,-174.006C234.8446,-177.6777 244.7143,-181.6128 254,-184 277.6516,-190.0804 304.007,-193.8519 327.8478,-196.1907"/>
<polygon fill="#000000" fill-opacity="0.200000" stroke="#000000" stroke-width="2" stroke-opacity="0.200000" points="327.6815,-198.2843 333.8517,-196.755 328.0746,-194.1027 327.6815,-198.2843"/>
</g>
<!-- src/background/&#45;&gt;src/domain/ -->
<g id="edge9" class="edge">
<title>src/background/&#45;&gt;src/domain/</title>
<path fill="none" stroke="#000000" stroke-width="2" stroke-opacity="0.200000" d="M241.4242,-171.7324C264.6398,-174.9051 295.9357,-175.9298 321,-165 328.7833,-161.606 326.9015,-155.6594 334,-151 344.5167,-144.0969 357.2542,-138.9153 368.8488,-135.1673"/>
<polygon fill="#000000" fill-opacity="0.200000" stroke="#000000" stroke-width="2" stroke-opacity="0.200000" points="369.6745,-137.1104 374.79,-133.3365 368.4376,-133.0966 369.6745,-137.1104"/>
</g>
<!-- src/options/&#45;&gt;src/api/ -->
<g id="edge27" class="edge">
<title>src/options/&#45;&gt;src/api/</title>
<path fill="none" stroke="#000000" stroke-width="2" stroke-opacity="0.200000" d="M235.6873,-110.5712C241.6458,-112.2305 248.0195,-114.0054 254.187,-115.723"/>
<polygon fill="#000000" fill-opacity="0.200000" stroke="#000000" stroke-width="2" stroke-opacity="0.200000" points="253.9191,-117.8282 260.2626,-117.4149 255.0459,-113.7822 253.9191,-117.8282"/>
</g>
<!-- src/options/&#45;&gt;src/chrome/ -->
<g id="edge28" class="edge">
<title>src/options/&#45;&gt;src/chrome/</title>
<path fill="none" stroke="#000000" stroke-width="2" stroke-opacity="0.200000" d="M235.9067,-98.5205C258.7653,-94.6322 292.1411,-88.6013 321,-82 336.7854,-78.3892 354.1291,-73.7678 368.7038,-69.6935"/>
<polygon fill="#000000" fill-opacity="0.200000" stroke="#000000" stroke-width="2" stroke-opacity="0.200000" points="369.5621,-71.6335 374.768,-67.9854 368.4233,-67.5908 369.5621,-71.6335"/>
</g>
<!-- src/options/&#45;&gt;src/solid&#45;client&#45;authn&#45;chrome&#45;ext/ -->
<g id="edge26" class="edge">
<title>src/options/&#45;&gt;src/solid&#45;client&#45;authn&#45;chrome&#45;ext/</title>
<path fill="none" stroke="#000000" stroke-width="2" stroke-opacity="0.200000" d="M218.5096,-112.1705C227.4291,-120.0845 241.0395,-131.5427 254,-140 287.4594,-161.8338 296.7946,-166.4395 334,-181 341.7317,-184.0258 350.1324,-186.7806 358.3069,-189.1959"/>
<polygon fill="#000000" fill-opacity="0.200000" stroke="#000000" stroke-width="2" stroke-opacity="0.200000" points="358.1523,-191.3364 364.499,-190.9756 359.3125,-187.2998 358.1523,-191.3364"/>
</g>
<!-- src/options/&#45;&gt;src/domain/ -->
<g id="edge30" class="edge">
<title>src/options/&#45;&gt;src/domain/</title>
<path fill="none" stroke="#000000" stroke-width="2" stroke-opacity="0.200000" d="M235.888,-103.5971C258.7355,-104.36 292.1055,-106.0899 321,-110 336.8232,-112.1413 354.1719,-115.6268 368.7401,-118.8861"/>
<polygon fill="#000000" fill-opacity="0.200000" stroke="#000000" stroke-width="2" stroke-opacity="0.200000" points="368.4845,-120.9816 374.8009,-120.2646 369.416,-116.8862 368.4845,-120.9816"/>
</g>
<!-- src/components/ -->
<g id="node11" class="node">
<title>src/components/</title>
<g id="a_node11"><a xlink:href="src/components/" xlink:title="components">
<polygon fill="#ffffcc" stroke="#000000" points="321,-76 256,-76 254,-74 254,-58 319,-58 321,-60 321,-76"/>
<polyline fill="none" stroke="#000000" points="319,-74 254,-74 "/>
<polyline fill="none" stroke="#000000" points="319,-74 319,-58 "/>
<polyline fill="none" stroke="#000000" points="319,-74 321,-76 "/>
<text text-anchor="start" x="262" y="-64.8" font-family="Helvetica,sans-Serif" font-size="9.00" fill="#000000">components</text>
</a>
</g>
</g>
<!-- src/options/&#45;&gt;src/components/ -->
<g id="edge29" class="edge">
<title>src/options/&#45;&gt;src/components/</title>
<path fill="none" stroke="#000000" stroke-width="2" stroke-opacity="0.200000" d="M228.435,-93.9157C238.6332,-89.2684 251.1591,-83.5604 262.0476,-78.5986"/>
<polygon fill="#000000" fill-opacity="0.200000" stroke="#000000" stroke-width="2" stroke-opacity="0.200000" points="262.9823,-80.4804 267.5713,-76.0814 261.2407,-76.6586 262.9823,-80.4804"/>
</g>
<!-- src/content.tsx -->
<g id="node12" class="node">
<title>src/content.tsx</title>
<g id="a_node12"><a xlink:href="src/content.tsx" xlink:title="content.tsx">
<path fill="#bbfeff" stroke="#000000" d="M70,-154C70,-154 22,-154 22,-154 19,-154 16,-151 16,-148 16,-148 16,-142 16,-142 16,-139 19,-136 22,-136 22,-136 70,-136 70,-136 73,-136 76,-139 76,-142 76,-142 76,-148 76,-148 76,-151 73,-154 70,-154"/>
<text text-anchor="start" x="24" y="-142.8" font-family="Helvetica,sans-Serif" font-size="9.00" fill="#000000">content.tsx</text>
</a>
</g>
</g>
<!-- src/content.tsx&#45;&gt;src/chrome/ -->
<g id="edge14" class="edge">
<title>src/content.tsx&#45;&gt;src/chrome/</title>
<path fill="none" stroke="#000000" stroke-width="2" stroke-opacity="0.200000" d="M63.9057,-135.8264C68.4966,-132.6661 72.984,-128.7121 76,-124 93.5297,-96.6122 66.8141,-75.7733 89,-52 116.2118,-22.8412 136.4217,-34.9266 176,-30 239.9509,-22.0395 262.378,-3.2315 321,-30 329.0249,-33.6644 326.4193,-40.4877 334,-45 344.4386,-51.2134 357.1593,-54.8602 368.7623,-56.9978"/>
<polygon fill="#000000" fill-opacity="0.200000" stroke="#000000" stroke-width="2" stroke-opacity="0.200000" points="368.4473,-59.0742 374.71,-57.9837 369.1342,-54.9307 368.4473,-59.0742"/>
</g>
<!-- src/content.tsx&#45;&gt;src/domain/ -->
<g id="edge16" class="edge">
<title>src/content.tsx&#45;&gt;src/domain/</title>
<path fill="none" stroke="#000000" stroke-width="2" stroke-opacity="0.200000" d="M47.9004,-154.2398C52.0161,-171.6859 63.5143,-209.3087 89,-227 144.6405,-265.6236 177.1713,-260.6618 241,-238 284.172,-222.6722 291.1,-207.7096 321,-173 328.4125,-164.3952 325.2277,-158.2135 334,-151 344.0551,-142.7317 357.161,-137.2206 369.1802,-133.5911"/>
<polygon fill="#000000" fill-opacity="0.200000" stroke="#000000" stroke-width="2" stroke-opacity="0.200000" points="369.7706,-135.6066 374.9752,-131.9566 368.6304,-131.5643 369.7706,-135.6066"/>
</g>
<!-- src/content.tsx&#45;&gt;src/assets/ -->
<g id="edge13" class="edge">
<title>src/content.tsx&#45;&gt;src/assets/</title>
<path fill="none" stroke="#000000" stroke-width="2" stroke-opacity="0.200000" d="M48.5008,-154.1553C53.352,-169.942 65.6725,-201.9413 89,-216 114.762,-231.5259 149.5912,-231.7336 175.0003,-228.9812"/>
<polygon fill="#000000" fill-opacity="0.200000" stroke="#000000" stroke-width="2" stroke-opacity="0.200000" points="175.5418,-231.0311 181.246,-228.2252 175.0371,-226.8615 175.5418,-231.0311"/>
</g>
<!-- src/content/ -->
<g id="node13" class="node">
<title>src/content/</title>
<g id="a_node13"><a xlink:href="src/content/" xlink:title="content">
<polygon fill="#ffffcc" stroke="#000000" points="153,-76 101,-76 99,-74 99,-58 151,-58 153,-60 153,-76"/>
<polyline fill="none" stroke="#000000" points="151,-74 99,-74 "/>
<polyline fill="none" stroke="#000000" points="151,-74 151,-58 "/>
<polyline fill="none" stroke="#000000" points="151,-74 153,-76 "/>
<text text-anchor="start" x="110.5" y="-64.8" font-family="Helvetica,sans-Serif" font-size="9.00" fill="#000000">content</text>
</a>
</g>
</g>
<!-- src/content.tsx&#45;&gt;src/content/ -->
<g id="edge15" class="edge">
<title>src/content.tsx&#45;&gt;src/content/</title>
<path fill="none" stroke="#000000" stroke-width="2" stroke-opacity="0.200000" d="M60.5692,-135.8365C65.6523,-132.3756 71.2656,-128.2431 76,-124 90.9247,-110.6241 105.7822,-92.9973 115.3735,-80.9069"/>
<polygon fill="#000000" fill-opacity="0.200000" stroke="#000000" stroke-width="2" stroke-opacity="0.200000" points="117.0982,-82.1107 119.1465,-76.0928 113.7924,-79.5199 117.0982,-82.1107"/>
</g>
<!-- src/content/&#45;&gt;events -->
<g id="edge21" class="edge">
<title>src/content/&#45;&gt;events</title>
<path fill="none" stroke="#000000" stroke-dasharray="5,2" stroke-opacity="0.200000" d="M134.5533,-57.9138C143.7765,-48.8402 159.3859,-35.4787 176,-30 237.2026,-9.8176 256.6286,-26.9319 321,-30 391.016,-33.3371 416.7498,-10.9148 478,-45 490.5775,-51.9993 500.0485,-65.5963 505.9455,-76.2003"/>
<polygon fill="#000000" fill-opacity="0.200000" stroke="#000000" stroke-opacity="0.200000" points="504.1987,-77.3905 508.851,-81.7226 507.9157,-75.4348 504.1987,-77.3905"/>
</g>
<!-- src/content/&#45;&gt;src/api/ -->
<g id="edge19" class="edge">
<title>src/content/&#45;&gt;src/api/</title>
<path fill="none" stroke="#000000" stroke-width="2" stroke-opacity="0.200000" d="M131.7825,-76.1692C139.9637,-88.2211 156.1544,-108.9224 176,-118 200.3448,-129.1355 230.85,-130.2983 253.7961,-129.0051"/>
<polygon fill="#000000" fill-opacity="0.200000" stroke="#000000" stroke-width="2" stroke-opacity="0.200000" points="254.2117,-131.0819 260.0562,-128.5815 253.9281,-126.8915 254.2117,-131.0819"/>
</g>
<!-- src/content/&#45;&gt;src/chrome/ -->
<g id="edge17" class="edge">
<title>src/content/&#45;&gt;src/chrome/</title>
<path fill="none" stroke="#000000" stroke-width="2" stroke-opacity="0.200000" d="M139.2987,-57.8264C148.988,-51.7237 162.6942,-44.2528 176,-41 243.0326,-24.6131 324.2047,-39.5678 368.7402,-50.6315"/>
<polygon fill="#000000" fill-opacity="0.200000" stroke="#000000" stroke-width="2" stroke-opacity="0.200000" points="368.4437,-52.7228 374.7759,-52.1632 369.4768,-48.6518 368.4437,-52.7228"/>
</g>
<!-- src/content/&#45;&gt;src/domain/ -->
<g id="edge20" class="edge">
<title>src/content/&#45;&gt;src/domain/</title>
<path fill="none" stroke="#000000" stroke-width="2" stroke-opacity="0.200000" d="M153.0135,-61.2073C199.7138,-51.796 293.2125,-35.7869 321,-52 331.142,-57.9175 326.291,-66.1429 334,-75 347.817,-90.8748 367.1551,-105.0983 381.6783,-114.6399"/>
<polygon fill="#000000" fill-opacity="0.200000" stroke="#000000" stroke-width="2" stroke-opacity="0.200000" points="380.6115,-116.4507 386.792,-117.9378 382.8878,-112.921 380.6115,-116.4507"/>
</g>
<!-- src/content/&#45;&gt;src/options/ -->
<g id="edge18" class="edge">
<title>src/content/&#45;&gt;src/options/</title>
<path fill="none" stroke="#000000" stroke-width="2" stroke-opacity="0.200000" d="M146.8182,-76.0843C157.4682,-80.7316 170.5491,-86.4396 181.92,-91.4014"/>
<polygon fill="#000000" fill-opacity="0.200000" stroke="#000000" stroke-width="2" stroke-opacity="0.200000" points="181.3493,-93.4436 187.6884,-93.9186 183.0291,-89.5941 181.3493,-93.4436"/>
</g>
<!-- src/content/&#45;&gt;src/components/ -->
<g id="edge22" class="edge">
<title>src/content/&#45;&gt;src/components/</title>
<path fill="none" stroke="#000000" stroke-width="2" stroke-opacity="0.200000" d="M153.0315,-67C178.9356,-67 218.3377,-67 247.8037,-67"/>
<polygon fill="#000000" fill-opacity="0.200000" stroke="#000000" stroke-width="2" stroke-opacity="0.200000" points="247.9322,-69.1001 253.9321,-67 247.9321,-64.9001 247.9322,-69.1001"/>
</g>
<!-- src/options.tsx -->
<g id="node14" class="node">
<title>src/options.tsx</title>
<g id="a_node14"><a xlink:href="src/options.tsx" xlink:title="options.tsx">
<path fill="#bbfeff" stroke="#000000" d="M150,-210C150,-210 102,-210 102,-210 99,-210 96,-207 96,-204 96,-204 96,-198 96,-198 96,-195 99,-192 102,-192 102,-192 150,-192 150,-192 153,-192 156,-195 156,-198 156,-198 156,-204 156,-204 156,-207 153,-210 150,-210"/>
<text text-anchor="start" x="104" y="-198.8" font-family="Helvetica,sans-Serif" font-size="9.00" fill="#000000">options.tsx</text>
</a>
</g>
</g>
<!-- src/options.tsx&#45;&gt;src/solid&#45;client&#45;authn&#45;chrome&#45;ext/ -->
<g id="edge24" class="edge">
<title>src/options.tsx&#45;&gt;src/solid&#45;client&#45;authn&#45;chrome&#45;ext/</title>
<path fill="none" stroke="#000000" stroke-width="2" stroke-opacity="0.200000" d="M156.2099,-197.1605C180.2505,-195.4114 214.1894,-195.9274 241,-208 248.4505,-211.3549 246.451,-217.8731 254,-221 281.5111,-232.3955 291.4614,-224.7668 321,-221 336.7617,-218.99 353.8409,-214.8643 368.2346,-210.7975"/>
<polygon fill="#000000" fill-opacity="0.200000" stroke="#000000" stroke-width="2" stroke-opacity="0.200000" points="369.0467,-212.7487 374.2272,-209.0645 367.88,-208.714 369.0467,-212.7487"/>
</g>
<!-- src/options.tsx&#45;&gt;src/assets/ -->
<g id="edge25" class="edge">
<title>src/options.tsx&#45;&gt;src/assets/</title>
<path fill="none" stroke="#000000" stroke-width="2" stroke-opacity="0.200000" d="M156.2515,-209.0671C162.3908,-210.7042 168.8807,-212.4349 175.1211,-214.099"/>
<polygon fill="#000000" fill-opacity="0.200000" stroke="#000000" stroke-width="2" stroke-opacity="0.200000" points="174.9175,-216.218 181.256,-215.7349 175.9997,-212.1598 174.9175,-216.218"/>
</g>
<!-- src/options.tsx&#45;&gt;src/options/ -->
<g id="edge23" class="edge">
<title>src/options.tsx&#45;&gt;src/options/</title>
<path fill="none" stroke="#000000" stroke-width="2" stroke-opacity="0.200000" d="M138.0358,-191.9078C145.638,-185.8584 155.4202,-177.4887 163,-169 169.8149,-161.3679 170.2014,-158.4301 176,-150 183.6137,-138.9311 192.2667,-126.4208 198.729,-117.0915"/>
<polygon fill="#000000" fill-opacity="0.200000" stroke="#000000" stroke-width="2" stroke-opacity="0.200000" points="200.565,-118.1289 202.2563,-112.0011 197.1128,-115.7367 200.565,-118.1289"/>
</g>
<!-- src/types/ -->
<g id="node15" class="node">
<title>src/types/</title>
<g id="a_node15"><a xlink:href="src/types/" xlink:title="types">
<polygon fill="#ccffcc" stroke="#000000" points="73,-118 21,-118 19,-116 19,-100 71,-100 73,-102 73,-118"/>
<polyline fill="none" stroke="#000000" points="71,-116 19,-116 "/>
<polyline fill="none" stroke="#000000" points="71,-116 71,-100 "/>
<polyline fill="none" stroke="#000000" points="71,-116 73,-118 "/>
<text text-anchor="start" x="35" y="-106.8" font-family="Helvetica,sans-Serif" font-size="9.00" fill="#000000">types</text>
</a>
</g>
</g>
</g>
</svg>
