<?xml version="1.0" encoding="UTF-8" standalone="no"?>
<!DOCTYPE svg PUBLIC "-//W3C//DTD SVG 1.1//EN"
 "http://www.w3.org/Graphics/SVG/1.1/DTD/svg11.dtd">
<!-- Generated by graphviz version 2.40.1 (20161225.0304)
 -->
<!-- Title: dependency&#45;cruiser output Pages: 1 -->
<svg width="462pt" height="291pt"
 viewBox="0.00 0.00 462.00 291.42" xmlns="http://www.w3.org/2000/svg" xmlns:xlink="http://www.w3.org/1999/xlink">
<g id="graph0" class="graph" transform="scale(1 1) rotate(0) translate(4 287.4172)">
<title>dependency&#45;cruiser output</title>
<polygon fill="#ffffff" stroke="transparent" points="-4,4 -4,-287.4172 458,-287.4172 458,4 -4,4"/>
<g id="clust1" class="cluster">
<title>cluster_src</title>
<path fill="#ffffff" stroke="#000000" stroke-width="2" d="M20,-9.4172C20,-9.4172 380,-9.4172 380,-9.4172 386,-9.4172 392,-15.4172 392,-21.4172 392,-21.4172 392,-263.4172 392,-263.4172 392,-269.4172 386,-275.4172 380,-275.4172 380,-275.4172 20,-275.4172 20,-275.4172 14,-275.4172 8,-269.4172 8,-263.4172 8,-263.4172 8,-21.4172 8,-21.4172 8,-15.4172 14,-9.4172 20,-9.4172"/>
<text text-anchor="middle" x="200" y="-264.2172" font-family="Helvetica,sans-Serif" font-weight="bold" font-size="9.00" fill="#000000">src</text>
</g>
<!-- events -->
<g id="node1" class="node">
<title>events</title>
<g id="a_node1"><a xlink:title="events">
<path fill="#ffffcc" stroke="#c0c0c0" d="M448,-74.4172C448,-74.4172 406,-74.4172 406,-74.4172 403,-74.4172 400,-71.4172 400,-68.4172 400,-68.4172 400,-62.4172 400,-62.4172 400,-59.4172 403,-56.4172 406,-56.4172 406,-56.4172 448,-56.4172 448,-56.4172 451,-56.4172 454,-59.4172 454,-62.4172 454,-62.4172 454,-68.4172 454,-68.4172 454,-71.4172 451,-74.4172 448,-74.4172"/>
<text text-anchor="middle" x="427" y="-63.2172" font-family="Helvetica,sans-Serif" font-size="9.00" fill="#c0c0c0">events</text>
</a>
</g>
</g>
<!-- src/api/ -->
<g id="node2" class="node">
<title>src/api/</title>
<g id="a_node2"><a xlink:href="src/api/" xlink:title="api">
<polygon fill="#ffffcc" stroke="#000000" points="235,-207.4172 183,-207.4172 181,-205.4172 181,-189.4172 233,-189.4172 235,-191.4172 235,-207.4172"/>
<polyline fill="none" stroke="#000000" points="233,-205.4172 181,-205.4172 "/>
<polyline fill="none" stroke="#000000" points="233,-205.4172 233,-189.4172 "/>
<polyline fill="none" stroke="#000000" points="233,-205.4172 235,-207.4172 "/>
<text text-anchor="start" x="201.5" y="-196.2172" font-family="Helvetica,sans-Serif" font-size="9.00" fill="#000000">api</text>
</a>
</g>
</g>
<!-- src/domain/ -->
<g id="node3" class="node">
<title>src/domain/</title>
<g id="a_node3"><a xlink:href="src/domain/" xlink:title="domain">
<polygon fill="#ffffcc" stroke="#000000" points="343,-184.4172 291,-184.4172 289,-182.4172 289,-166.4172 341,-166.4172 343,-168.4172 343,-184.4172"/>
<polyline fill="none" stroke="#000000" points="341,-182.4172 289,-182.4172 "/>
<polyline fill="none" stroke="#000000" points="341,-182.4172 341,-166.4172 "/>
<polyline fill="none" stroke="#000000" points="341,-182.4172 343,-184.4172 "/>
<text text-anchor="start" x="300.5" y="-173.2172" font-family="Helvetica,sans-Serif" font-size="9.00" fill="#000000">domain</text>
</a>
</g>
</g>
<!-- src/api/&#45;&gt;src/domain/ -->
<g id="edge1" class="edge">
<title>src/api/&#45;&gt;src/domain/</title>
<path fill="none" stroke="#000000" stroke-width="2" stroke-opacity="0.200000" d="M235.253,-192.6133C249.7064,-189.5353 267.5799,-185.7289 282.8338,-182.4804"/>
<polygon fill="#000000" fill-opacity="0.200000" stroke="#000000" stroke-width="2" stroke-opacity="0.200000" points="283.3248,-184.523 288.7558,-181.2192 282.4499,-180.4151 283.3248,-184.523"/>
</g>
<!-- src/solid&#45;client&#45;authn&#45;chrome&#45;ext/ -->
<g id="node4" class="node">
<title>src/solid&#45;client&#45;authn&#45;chrome&#45;ext/</title>
<g id="a_node4"><a xlink:href="src/solid-client-authn-chrome-ext/" xlink:title="solid&#45;client&#45;authn&#45;chrome&#45;ext">
<polygon fill="#ffffcc" stroke="#000000" points="384,-136.4172 250,-136.4172 248,-134.4172 248,-118.4172 382,-118.4172 384,-120.4172 384,-136.4172"/>
<polyline fill="none" stroke="#000000" points="382,-134.4172 248,-134.4172 "/>
<polyline fill="none" stroke="#000000" points="382,-134.4172 382,-118.4172 "/>
<polyline fill="none" stroke="#000000" points="382,-134.4172 384,-136.4172 "/>
<text text-anchor="start" x="256" y="-125.2172" font-family="Helvetica,sans-Serif" font-size="9.00" fill="#000000">solid&#45;client&#45;authn&#45;chrome&#45;ext</text>
</a>
</g>
</g>
<!-- src/api/&#45;&gt;src/solid&#45;client&#45;authn&#45;chrome&#45;ext/ -->
<g id="edge2" class="edge">
<title>src/api/&#45;&gt;src/solid&#45;client&#45;authn&#45;chrome&#45;ext/</title>
<path fill="none" stroke="#000000" stroke-width="2" stroke-opacity="0.200000" d="M223.9632,-189.3279C227.8152,-186.7302 231.7525,-183.7027 235,-180.4172 242.4528,-172.8772 240.0514,-167.4326 248,-160.4172 258.2304,-151.3879 271.3691,-144.2491 283.3656,-138.9548"/>
<polygon fill="#000000" fill-opacity="0.200000" stroke="#000000" stroke-width="2" stroke-opacity="0.200000" points="284.4414,-140.7797 289.1453,-136.5038 282.8016,-136.913 284.4414,-140.7797"/>
</g>
<!-- src/store/ -->
<g id="node5" class="node">
<title>src/store/</title>
<g id="a_node5"><a xlink:href="src/store/" xlink:title="store">
<polygon fill="#ffffcc" stroke="#000000" points="343,-228.4172 291,-228.4172 289,-226.4172 289,-210.4172 341,-210.4172 343,-212.4172 343,-228.4172"/>
<polyline fill="none" stroke="#000000" points="341,-226.4172 289,-226.4172 "/>
<polyline fill="none" stroke="#000000" points="341,-226.4172 341,-210.4172 "/>
<polyline fill="none" stroke="#000000" points="341,-226.4172 343,-228.4172 "/>
<text text-anchor="start" x="305.5" y="-217.2172" font-family="Helvetica,sans-Serif" font-size="9.00" fill="#000000">store</text>
</a>
</g>
</g>
<!-- src/api/&#45;&gt;src/store/ -->
<g id="edge3" class="edge">
<title>src/api/&#45;&gt;src/store/</title>
<path fill="none" stroke="#000000" stroke-width="2" stroke-opacity="0.200000" d="M235.253,-203.7164C249.7064,-206.5268 267.5799,-210.0022 282.8338,-212.9682"/>
<polygon fill="#000000" fill-opacity="0.200000" stroke="#000000" stroke-width="2" stroke-opacity="0.200000" points="282.4652,-215.0358 288.7558,-214.1197 283.2669,-210.913 282.4652,-215.0358"/>
</g>
<!-- src/solid&#45;client&#45;authn&#45;chrome&#45;ext/&#45;&gt;events -->
<g id="edge29" class="edge">
<title>src/solid&#45;client&#45;authn&#45;chrome&#45;ext/&#45;&gt;events</title>
<path fill="none" stroke="#000000" stroke-dasharray="5,2" stroke-opacity="0.200000" d="M332.3784,-118.2689C351.6433,-107.5083 383.7035,-89.6008 405.0927,-77.6537"/>
<polygon fill="#000000" fill-opacity="0.200000" stroke="#000000" stroke-opacity="0.200000" points="406.3402,-79.3624 410.5544,-74.603 404.292,-75.6956 406.3402,-79.3624"/>
</g>
<!-- src/assets/ -->
<g id="node6" class="node">
<title>src/assets/</title>
<g id="a_node6"><a xlink:href="src/assets/" xlink:title="assets">
<polygon fill="#ffffcc" stroke="#000000" points="235,-135.4172 183,-135.4172 181,-133.4172 181,-117.4172 233,-117.4172 235,-119.4172 235,-135.4172"/>
<polyline fill="none" stroke="#000000" points="233,-133.4172 181,-133.4172 "/>
<polyline fill="none" stroke="#000000" points="233,-133.4172 233,-117.4172 "/>
<polyline fill="none" stroke="#000000" points="233,-133.4172 235,-135.4172 "/>
<text text-anchor="start" x="194.5" y="-124.2172" font-family="Helvetica,sans-Serif" font-size="9.00" fill="#000000">assets</text>
</a>
</g>
</g>
<!-- src/background.ts -->
<g id="node7" class="node">
<title>src/background.ts</title>
<g id="a_node7"><a xlink:href="src/background.ts" xlink:title="background.ts">
<path fill="#ddfeff" stroke="#000000" d="M84,-168.4172C84,-168.4172 22,-168.4172 22,-168.4172 19,-168.4172 16,-165.4172 16,-162.4172 16,-162.4172 16,-156.4172 16,-156.4172 16,-153.4172 19,-150.4172 22,-150.4172 22,-150.4172 84,-150.4172 84,-150.4172 87,-150.4172 90,-153.4172 90,-156.4172 90,-156.4172 90,-162.4172 90,-162.4172 90,-165.4172 87,-168.4172 84,-168.4172"/>
<text text-anchor="start" x="24" y="-157.2172" font-family="Helvetica,sans-Serif" font-size="9.00" fill="#000000">background.ts</text>
</a>
</g>
</g>
<!-- src/background.ts&#45;&gt;src/domain/ -->
<g id="edge5" class="edge">
<title>src/background.ts&#45;&gt;src/domain/</title>
<path fill="none" stroke="#000000" stroke-width="2" stroke-opacity="0.200000" d="M58.3767,-168.6812C66.3117,-181.3582 82.462,-203.6496 103,-213.4172 156.0182,-238.632 181.1853,-241.8841 235,-218.4172 242.7833,-215.0231 241.0538,-209.3007 248,-204.4172 258.6469,-196.932 271.5288,-190.8264 283.2044,-186.182"/>
<polygon fill="#000000" fill-opacity="0.200000" stroke="#000000" stroke-width="2" stroke-opacity="0.200000" points="283.9784,-188.1344 288.8241,-184.0198 282.4702,-184.2145 283.9784,-188.1344"/>
</g>
<!-- src/background.ts&#45;&gt;src/solid&#45;client&#45;authn&#45;chrome&#45;ext/ -->
<g id="edge7" class="edge">
<title>src/background.ts&#45;&gt;src/solid&#45;client&#45;authn&#45;chrome&#45;ext/</title>
<path fill="none" stroke="#000000" stroke-width="2" stroke-opacity="0.200000" d="M90.0409,-156.5464C126.8816,-153.5048 184.9737,-148.2052 235,-141.4172 243.5025,-140.2635 252.4792,-138.8795 261.2383,-137.437"/>
<polygon fill="#000000" fill-opacity="0.200000" stroke="#000000" stroke-width="2" stroke-opacity="0.200000" points="261.6872,-139.4912 267.2591,-136.4311 260.995,-135.3486 261.6872,-139.4912"/>
</g>
<!-- src/background/ -->
<g id="node8" class="node">
<title>src/background/</title>
<g id="a_node8"><a xlink:href="src/background/" xlink:title="background">
<polygon fill="#ffffcc" stroke="#000000" points="168,-207.4172 105,-207.4172 103,-205.4172 103,-189.4172 166,-189.4172 168,-191.4172 168,-207.4172"/>
<polyline fill="none" stroke="#000000" points="166,-205.4172 103,-205.4172 "/>
<polyline fill="none" stroke="#000000" points="166,-205.4172 166,-189.4172 "/>
<polyline fill="none" stroke="#000000" points="166,-205.4172 168,-207.4172 "/>
<text text-anchor="start" x="111" y="-196.2172" font-family="Helvetica,sans-Serif" font-size="9.00" fill="#000000">background</text>
</a>
</g>
</g>
<!-- src/background.ts&#45;&gt;src/background/ -->
<g id="edge4" class="edge">
<title>src/background.ts&#45;&gt;src/background/</title>
<path fill="none" stroke="#000000" stroke-width="2" stroke-opacity="0.200000" d="M72.1345,-168.4626C83.6099,-173.8873 98.3272,-180.8446 110.6894,-186.6885"/>
<polygon fill="#000000" fill-opacity="0.200000" stroke="#000000" stroke-width="2" stroke-opacity="0.200000" points="109.8615,-188.62 116.1835,-189.2857 111.6565,-184.8229 109.8615,-188.62"/>
</g>
<!-- src/options/ -->
<g id="node9" class="node">
<title>src/options/</title>
<g id="a_node9"><a xlink:href="src/options/" xlink:title="no&#45;orphans">
<polygon fill="#ccffcc" stroke="#ffa500" points="235,-77.4172 183,-77.4172 181,-75.4172 181,-59.4172 233,-59.4172 235,-61.4172 235,-77.4172"/>
<polyline fill="none" stroke="#ffa500" points="233,-75.4172 181,-75.4172 "/>
<polyline fill="none" stroke="#ffa500" points="233,-75.4172 233,-59.4172 "/>
<polyline fill="none" stroke="#ffa500" points="233,-75.4172 235,-77.4172 "/>
<text text-anchor="start" x="192.5" y="-66.2172" font-family="Helvetica,sans-Serif" font-size="9.00" fill="#ffa500">options</text>
</a>
</g>
</g>
<!-- src/background.ts&#45;&gt;src/options/ -->
<g id="edge6" class="edge">
<title>src/background.ts&#45;&gt;src/options/</title>
<path fill="none" stroke="#000000" stroke-width="2" stroke-opacity="0.200000" d="M68.344,-150.3574C75.9218,-145.1385 84.579,-137.9263 90,-129.4172 102.7999,-109.3257 84.8668,-92.8669 103,-77.4172 113.5078,-68.4644 148.1116,-66.9391 174.7529,-67.1956"/>
<polygon fill="#000000" fill-opacity="0.200000" stroke="#000000" stroke-width="2" stroke-opacity="0.200000" points="174.9596,-69.2988 180.9903,-67.2887 175.0224,-65.0993 174.9596,-69.2988"/>
</g>
<!-- src/background/&#45;&gt;src/api/ -->
<g id="edge9" class="edge">
<title>src/background/&#45;&gt;src/api/</title>
<path fill="none" stroke="#000000" stroke-width="2" stroke-opacity="0.200000" d="M168.356,-198.4172C170.4541,-198.4172 172.5675,-198.4172 174.6677,-198.4172"/>
<polygon fill="#000000" fill-opacity="0.200000" stroke="#000000" stroke-width="2" stroke-opacity="0.200000" points="174.9006,-200.5173 180.9006,-198.4172 174.9005,-196.3173 174.9006,-200.5173"/>
</g>
<!-- src/background/&#45;&gt;src/domain/ -->
<g id="edge8" class="edge">
<title>src/background/&#45;&gt;src/domain/</title>
<path fill="none" stroke="#000000" stroke-width="2" stroke-opacity="0.200000" d="M158.0703,-207.4838C178.53,-214.3813 209.3207,-221.4388 235,-213.4172 241.7076,-211.3219 241.8476,-207.8129 248,-204.4172 259.9738,-197.8084 273.7617,-191.6767 285.7787,-186.7699"/>
<polygon fill="#000000" fill-opacity="0.200000" stroke="#000000" stroke-width="2" stroke-opacity="0.200000" points="286.7357,-188.6487 291.52,-184.4629 285.1696,-184.7515 286.7357,-188.6487"/>
</g>
<!-- src/background/&#45;&gt;src/solid&#45;client&#45;authn&#45;chrome&#45;ext/ -->
<g id="edge10" class="edge">
<title>src/background/&#45;&gt;src/solid&#45;client&#45;authn&#45;chrome&#45;ext/</title>
<path fill="none" stroke="#000000" stroke-width="2" stroke-opacity="0.200000" d="M158.7277,-189.2805C191.4906,-176.3932 251.2503,-152.8866 286.9222,-138.855"/>
<polygon fill="#000000" fill-opacity="0.200000" stroke="#000000" stroke-width="2" stroke-opacity="0.200000" points="288.0466,-140.6694 292.8615,-136.5188 286.5092,-136.7609 288.0466,-140.6694"/>
</g>
<!-- src/background/&#45;&gt;src/store/ -->
<g id="edge11" class="edge">
<title>src/background/&#45;&gt;src/store/</title>
<path fill="none" stroke="#000000" stroke-width="2" stroke-opacity="0.200000" d="M147.4773,-207.5807C156.2358,-213.6786 168.6895,-221.148 181,-224.4172 214.8238,-233.3996 255.0825,-230.2122 282.7833,-225.9901"/>
<polygon fill="#000000" fill-opacity="0.200000" stroke="#000000" stroke-width="2" stroke-opacity="0.200000" points="283.2524,-228.0418 288.8447,-225.0192 282.5881,-223.8947 283.2524,-228.0418"/>
</g>
<!-- src/options/&#45;&gt;src/domain/ -->
<g id="edge28" class="edge">
<title>src/options/&#45;&gt;src/domain/</title>
<path fill="none" stroke="#000000" stroke-width="2" stroke-opacity="0.200000" d="M217.3668,-77.4706C223.1473,-83.5046 230.3259,-91.8717 235,-100.4172 244.377,-117.5607 235.2692,-127.5931 248,-142.4172 257.1932,-153.122 270.661,-160.6562 283.1904,-165.7948"/>
<polygon fill="#000000" fill-opacity="0.200000" stroke="#000000" stroke-width="2" stroke-opacity="0.200000" points="282.5088,-167.7827 288.8623,-167.9899 284.0248,-163.8658 282.5088,-167.7827"/>
</g>
<!-- src/options/&#45;&gt;src/solid&#45;client&#45;authn&#45;chrome&#45;ext/ -->
<g id="edge26" class="edge">
<title>src/options/&#45;&gt;src/solid&#45;client&#45;authn&#45;chrome&#45;ext/</title>
<path fill="none" stroke="#000000" stroke-width="2" stroke-opacity="0.200000" d="M224.875,-77.6359C243.4209,-87.7675 273.2903,-104.0851 293.742,-115.2578"/>
<polygon fill="#000000" fill-opacity="0.200000" stroke="#000000" stroke-width="2" stroke-opacity="0.200000" points="292.9712,-117.2295 299.2435,-118.2632 294.9848,-113.5437 292.9712,-117.2295"/>
</g>
<!-- src/chrome/ -->
<g id="node10" class="node">
<title>src/chrome/</title>
<g id="a_node10"><a xlink:href="src/chrome/" xlink:title="chrome">
<polygon fill="#ffffcc" stroke="#000000" points="343,-41.4172 291,-41.4172 289,-39.4172 289,-23.4172 341,-23.4172 343,-25.4172 343,-41.4172"/>
<polyline fill="none" stroke="#000000" points="341,-39.4172 289,-39.4172 "/>
<polyline fill="none" stroke="#000000" points="341,-39.4172 341,-23.4172 "/>
<polyline fill="none" stroke="#000000" points="341,-39.4172 343,-41.4172 "/>
<text text-anchor="start" x="300.5" y="-30.2172" font-family="Helvetica,sans-Serif" font-size="9.00" fill="#000000">chrome</text>
</a>
</g>
</g>
<!-- src/options/&#45;&gt;src/chrome/ -->
<g id="edge25" class="edge">
<title>src/options/&#45;&gt;src/chrome/</title>
<path fill="none" stroke="#000000" stroke-width="2" stroke-opacity="0.200000" d="M226.4623,-59.3468C233.1493,-56.266 240.8228,-52.9626 248,-50.4172 259.1681,-46.4564 271.6391,-42.9122 282.8211,-40.0378"/>
<polygon fill="#000000" fill-opacity="0.200000" stroke="#000000" stroke-width="2" stroke-opacity="0.200000" points="283.5784,-42.0128 288.8841,-38.5114 282.553,-37.9398 283.5784,-42.0128"/>
</g>
<!-- src/components/ -->
<g id="node11" class="node">
<title>src/components/</title>
<g id="a_node11"><a xlink:href="src/components/" xlink:title="components">
<polygon fill="#ffffcc" stroke="#000000" points="349.5,-74.4172 284.5,-74.4172 282.5,-72.4172 282.5,-56.4172 347.5,-56.4172 349.5,-58.4172 349.5,-74.4172"/>
<polyline fill="none" stroke="#000000" points="347.5,-72.4172 282.5,-72.4172 "/>
<polyline fill="none" stroke="#000000" points="347.5,-72.4172 347.5,-56.4172 "/>
<polyline fill="none" stroke="#000000" points="347.5,-72.4172 349.5,-74.4172 "/>
<text text-anchor="start" x="290.5" y="-63.2172" font-family="Helvetica,sans-Serif" font-size="9.00" fill="#000000">components</text>
</a>
</g>
</g>
<!-- src/options/&#45;&gt;src/components/ -->
<g id="edge27" class="edge">
<title>src/options/&#45;&gt;src/components/</title>
<path fill="none" stroke="#000000" stroke-width="2" stroke-opacity="0.200000" d="M235.253,-67.6602C247.6081,-67.317 262.4624,-66.9043 276.0433,-66.5271"/>
<polygon fill="#000000" fill-opacity="0.200000" stroke="#000000" stroke-width="2" stroke-opacity="0.200000" points="276.2406,-68.6225 282.1799,-66.3566 276.1239,-64.4241 276.2406,-68.6225"/>
</g>
<!-- src/content.tsx -->
<g id="node12" class="node">
<title>src/content.tsx</title>
<g id="a_node12"><a xlink:href="src/content.tsx" xlink:title="content.tsx">
<path fill="#bbfeff" stroke="#000000" d="M77,-123.4172C77,-123.4172 29,-123.4172 29,-123.4172 26,-123.4172 23,-120.4172 23,-117.4172 23,-117.4172 23,-111.4172 23,-111.4172 23,-108.4172 26,-105.4172 29,-105.4172 29,-105.4172 77,-105.4172 77,-105.4172 80,-105.4172 83,-108.4172 83,-111.4172 83,-111.4172 83,-117.4172 83,-117.4172 83,-120.4172 80,-123.4172 77,-123.4172"/>
<text text-anchor="start" x="31" y="-112.2172" font-family="Helvetica,sans-Serif" font-size="9.00" fill="#000000">content.tsx</text>
</a>
</g>
</g>
<!-- src/content.tsx&#45;&gt;src/domain/ -->
<g id="edge15" class="edge">
<title>src/content.tsx&#45;&gt;src/domain/</title>
<path fill="none" stroke="#000000" stroke-width="2" stroke-opacity="0.200000" d="M83.1694,-121.4147C132.8271,-132.9322 231.4005,-155.7953 282.9071,-167.7416"/>
<polygon fill="#000000" fill-opacity="0.200000" stroke="#000000" stroke-width="2" stroke-opacity="0.200000" points="282.6292,-169.8329 288.9486,-169.1429 283.5782,-165.7415 282.6292,-169.8329"/>
</g>
<!-- src/content.tsx&#45;&gt;src/assets/ -->
<g id="edge12" class="edge">
<title>src/content.tsx&#45;&gt;src/assets/</title>
<path fill="none" stroke="#000000" stroke-width="2" stroke-opacity="0.200000" d="M83.2535,-116.7594C109.5166,-118.7927 147.4854,-121.7322 174.6261,-123.8334"/>
<polygon fill="#000000" fill-opacity="0.200000" stroke="#000000" stroke-width="2" stroke-opacity="0.200000" points="174.789,-125.9522 180.9332,-124.3217 175.1132,-121.7647 174.789,-125.9522"/>
</g>
<!-- src/content.tsx&#45;&gt;src/chrome/ -->
<g id="edge13" class="edge">
<title>src/content.tsx&#45;&gt;src/chrome/</title>
<path fill="none" stroke="#000000" stroke-width="2" stroke-opacity="0.200000" d="M61.9121,-105.2078C70.0919,-96.3602 82.1042,-82.3198 90,-68.4172 98.1949,-53.988 89.3981,-42.9223 103,-33.4172 156.6672,4.0861 237.983,-9.8072 283.0336,-21.9433"/>
<polygon fill="#000000" fill-opacity="0.200000" stroke="#000000" stroke-width="2" stroke-opacity="0.200000" points="282.5336,-23.9838 288.8765,-23.5625 283.6553,-19.9364 282.5336,-23.9838"/>
</g>
<!-- src/content/ -->
<g id="node13" class="node">
<title>src/content/</title>
<g id="a_node13"><a xlink:href="src/content/" xlink:title="content">
<polygon fill="#ffffcc" stroke="#000000" points="162.5,-57.4172 110.5,-57.4172 108.5,-55.4172 108.5,-39.4172 160.5,-39.4172 162.5,-41.4172 162.5,-57.4172"/>
<polyline fill="none" stroke="#000000" points="160.5,-55.4172 108.5,-55.4172 "/>
<polyline fill="none" stroke="#000000" points="160.5,-55.4172 160.5,-39.4172 "/>
<polyline fill="none" stroke="#000000" points="160.5,-55.4172 162.5,-57.4172 "/>
<text text-anchor="start" x="120" y="-46.2172" font-family="Helvetica,sans-Serif" font-size="9.00" fill="#000000">content</text>
</a>
</g>
</g>
<!-- src/content.tsx&#45;&gt;src/content/ -->
<g id="edge14" class="edge">
<title>src/content.tsx&#45;&gt;src/content/</title>
<path fill="none" stroke="#000000" stroke-width="2" stroke-opacity="0.200000" d="M61.2332,-105.1864C70.6725,-94.9354 86.9233,-78.2722 103,-66.4172 105.7254,-64.4075 108.6998,-62.4651 111.7064,-60.6468"/>
<polygon fill="#000000" fill-opacity="0.200000" stroke="#000000" stroke-width="2" stroke-opacity="0.200000" points="112.9661,-62.3441 117.1064,-57.5204 110.8617,-58.7094 112.9661,-62.3441"/>
</g>
<!-- src/content/&#45;&gt;events -->
<g id="edge19" class="edge">
<title>src/content/&#45;&gt;events</title>
<path fill="none" stroke="#000000" stroke-dasharray="5,2" stroke-opacity="0.200000" d="M154.1427,-39.3795C198.2244,-19.3938 311.2327,23.6486 392,-17.4172 405.622,-24.3432 415.2004,-39.332 420.8527,-50.7299"/>
<polygon fill="#000000" fill-opacity="0.200000" stroke="#000000" stroke-opacity="0.200000" points="419.0118,-51.7512 423.4512,-56.3012 422.8181,-49.9758 419.0118,-51.7512"/>
</g>
<!-- src/content/&#45;&gt;src/api/ -->
<g id="edge21" class="edge">
<title>src/content/&#45;&gt;src/api/</title>
<path fill="none" stroke="#000000" stroke-width="2" stroke-opacity="0.200000" d="M149.445,-57.6123C156.0571,-62.6843 163.4807,-69.5482 168,-77.4172 182.4554,-102.5868 171.8314,-113.878 181,-141.4172 185.9484,-156.2803 193.7981,-172.3324 199.7611,-183.6028"/>
<polygon fill="#000000" fill-opacity="0.200000" stroke="#000000" stroke-width="2" stroke-opacity="0.200000" points="197.989,-184.7412 202.6821,-189.029 201.6872,-182.7504 197.989,-184.7412"/>
</g>
<!-- src/content/&#45;&gt;src/domain/ -->
<g id="edge18" class="edge">
<title>src/content/&#45;&gt;src/domain/</title>
<path fill="none" stroke="#000000" stroke-width="2" stroke-opacity="0.200000" d="M146.3184,-57.6189C155.2951,-65.0347 168.5586,-75.4948 181,-83.4172 203.8037,-97.9381 216.6761,-91.5401 235,-111.4172 245.1264,-122.402 237.7287,-131.5677 248,-142.4172 257.6227,-152.5815 271.0316,-160.0047 283.4012,-165.2063"/>
<polygon fill="#000000" fill-opacity="0.200000" stroke="#000000" stroke-width="2" stroke-opacity="0.200000" points="282.6431,-167.1648 288.994,-167.4419 284.202,-163.2648 282.6431,-167.1648"/>
</g>
<!-- src/content/&#45;&gt;src/options/ -->
<g id="edge17" class="edge">
<title>src/content/&#45;&gt;src/options/</title>
<path fill="none" stroke="#000000" stroke-width="2" stroke-opacity="0.200000" d="M162.9091,-55.9783C166.6985,-57.0237 170.6251,-58.1069 174.5093,-59.1784"/>
<polygon fill="#000000" fill-opacity="0.200000" stroke="#000000" stroke-width="2" stroke-opacity="0.200000" points="174.2097,-61.2741 180.5521,-60.8454 175.3266,-57.2253 174.2097,-61.2741"/>
</g>
<!-- src/content/&#45;&gt;src/chrome/ -->
<g id="edge16" class="edge">
<title>src/content/&#45;&gt;src/chrome/</title>
<path fill="none" stroke="#000000" stroke-width="2" stroke-opacity="0.200000" d="M162.8991,-44.5464C168.8587,-43.7766 175.1349,-43.0206 181,-42.4172 215.5209,-38.8655 255.1332,-36.084 282.4782,-34.3659"/>
<polygon fill="#000000" fill-opacity="0.200000" stroke="#000000" stroke-width="2" stroke-opacity="0.200000" points="282.9508,-36.4407 288.8093,-33.9733 282.6908,-32.2488 282.9508,-36.4407"/>
</g>
<!-- src/content/&#45;&gt;src/components/ -->
<g id="edge20" class="edge">
<title>src/content/&#45;&gt;src/components/</title>
<path fill="none" stroke="#000000" stroke-width="2" stroke-opacity="0.200000" d="M162.5802,-49.0697C182.6182,-49.7246 210.5589,-50.9984 235,-53.4172 248.3732,-54.7407 262.9147,-56.723 275.9382,-58.6971"/>
<polygon fill="#000000" fill-opacity="0.200000" stroke="#000000" stroke-width="2" stroke-opacity="0.200000" points="275.9478,-60.8234 282.1978,-59.6626 276.5881,-56.6724 275.9478,-60.8234"/>
</g>
<!-- src/options.tsx -->
<g id="node14" class="node">
<title>src/options.tsx</title>
<g id="a_node14"><a xlink:href="src/options.tsx" xlink:title="options.tsx">
<path fill="#bbfeff" stroke="#000000" d="M159.5,-101.4172C159.5,-101.4172 111.5,-101.4172 111.5,-101.4172 108.5,-101.4172 105.5,-98.4172 105.5,-95.4172 105.5,-95.4172 105.5,-89.4172 105.5,-89.4172 105.5,-86.4172 108.5,-83.4172 111.5,-83.4172 111.5,-83.4172 159.5,-83.4172 159.5,-83.4172 162.5,-83.4172 165.5,-86.4172 165.5,-89.4172 165.5,-89.4172 165.5,-95.4172 165.5,-95.4172 165.5,-98.4172 162.5,-101.4172 159.5,-101.4172"/>
<text text-anchor="start" x="113.5" y="-90.2172" font-family="Helvetica,sans-Serif" font-size="9.00" fill="#000000">options.tsx</text>
</a>
</g>
</g>
<!-- src/options.tsx&#45;&gt;src/solid&#45;client&#45;authn&#45;chrome&#45;ext/ -->
<g id="edge23" class="edge">
<title>src/options.tsx&#45;&gt;src/solid&#45;client&#45;authn&#45;chrome&#45;ext/</title>
<path fill="none" stroke="#000000" stroke-width="2" stroke-opacity="0.200000" d="M165.553,-98.1046C185.2984,-101.854 211.6939,-106.8902 235,-111.4172 244.5552,-113.2732 254.7406,-115.2704 264.5495,-117.2032"/>
<polygon fill="#000000" fill-opacity="0.200000" stroke="#000000" stroke-width="2" stroke-opacity="0.200000" points="264.3062,-119.2956 270.5992,-118.3965 265.1191,-115.175 264.3062,-119.2956"/>
</g>
<!-- src/options.tsx&#45;&gt;src/assets/ -->
<g id="edge24" class="edge">
<title>src/options.tsx&#45;&gt;src/assets/</title>
<path fill="none" stroke="#000000" stroke-width="2" stroke-opacity="0.200000" d="M154.9287,-101.5286C163.6124,-105.6009 173.9509,-110.4493 183.1861,-114.7803"/>
<polygon fill="#000000" fill-opacity="0.200000" stroke="#000000" stroke-width="2" stroke-opacity="0.200000" points="182.4451,-116.7523 188.7691,-117.3986 184.2285,-112.9496 182.4451,-116.7523"/>
</g>
<!-- src/options.tsx&#45;&gt;src/options/ -->
<g id="edge22" class="edge">
<title>src/options.tsx&#45;&gt;src/options/</title>
<path fill="none" stroke="#000000" stroke-width="2" stroke-opacity="0.200000" d="M162.9091,-83.3438C166.7887,-82.0595 170.8122,-80.7276 174.7866,-79.412"/>
<polygon fill="#000000" fill-opacity="0.200000" stroke="#000000" stroke-width="2" stroke-opacity="0.200000" points="175.5161,-81.3826 180.5521,-77.5034 174.1961,-77.3954 175.5161,-81.3826"/>
</g>
<!-- src/types/ -->
<g id="node15" class="node">
<title>src/types/</title>
<g id="a_node15"><a xlink:href="src/types/" xlink:title="types">
<polygon fill="#ccffcc" stroke="#000000" points="80,-62.4172 28,-62.4172 26,-60.4172 26,-44.4172 78,-44.4172 80,-46.4172 80,-62.4172"/>
<polyline fill="none" stroke="#000000" points="78,-60.4172 26,-60.4172 "/>
<polyline fill="none" stroke="#000000" points="78,-60.4172 78,-44.4172 "/>
<polyline fill="none" stroke="#000000" points="78,-60.4172 80,-62.4172 "/>
<text text-anchor="start" x="42" y="-51.2172" font-family="Helvetica,sans-Serif" font-size="9.00" fill="#000000">types</text>
</a>
</g>
</g>
</g>
</svg>
