<?xml version="1.0" encoding="UTF-8" standalone="no"?>
<!DOCTYPE svg PUBLIC "-//W3C//DTD SVG 1.1//EN"
 "http://www.w3.org/Graphics/SVG/1.1/DTD/svg11.dtd">
<!-- Generated by graphviz version 2.40.1 (20161225.0304)
 -->
<!-- Title: dependency&#45;cruiser output Pages: 1 -->
<svg width="608pt" height="276pt"
 viewBox="0.00 0.00 608.00 276.00" xmlns="http://www.w3.org/2000/svg" xmlns:xlink="http://www.w3.org/1999/xlink">
<g id="graph0" class="graph" transform="scale(1 1) rotate(0) translate(4 272)">
<title>dependency&#45;cruiser output</title>
<polygon fill="#ffffff" stroke="transparent" points="-4,4 -4,-272 604,-272 604,4 -4,4"/>
<g id="clust1" class="cluster">
<title>cluster_src</title>
<path fill="#ffffff" stroke="#000000" stroke-width="2" d="M20,-8C20,-8 526,-8 526,-8 532,-8 538,-14 538,-20 538,-20 538,-248 538,-248 538,-254 532,-260 526,-260 526,-260 20,-260 20,-260 14,-260 8,-254 8,-248 8,-248 8,-20 8,-20 8,-14 14,-8 20,-8"/>
<text text-anchor="middle" x="273" y="-248.8" font-family="Helvetica,sans-Serif" font-weight="bold" font-size="9.00" fill="#000000">src</text>
</g>
<!-- events -->
<g id="node1" class="node">
<title>events</title>
<g id="a_node1"><a xlink:title="events">
<path fill="#ffffcc" stroke="#c0c0c0" d="M594,-23C594,-23 552,-23 552,-23 549,-23 546,-20 546,-17 546,-17 546,-11 546,-11 546,-8 549,-5 552,-5 552,-5 594,-5 594,-5 597,-5 600,-8 600,-11 600,-11 600,-17 600,-17 600,-20 597,-23 594,-23"/>
<text text-anchor="middle" x="573" y="-11.8" font-family="Helvetica,sans-Serif" font-size="9.00" fill="#c0c0c0">events</text>
</a>
</g>
</g>
<!-- src/api/ -->
<g id="node2" class="node">
<title>src/api/</title>
<g id="a_node2"><a xlink:href="src/api/" xlink:title="api">
<polygon fill="#ffffcc" stroke="#000000" points="238,-149 186,-149 184,-147 184,-131 236,-131 238,-133 238,-149"/>
<polyline fill="none" stroke="#000000" points="236,-147 184,-147 "/>
<polyline fill="none" stroke="#000000" points="236,-147 236,-131 "/>
<polyline fill="none" stroke="#000000" points="236,-147 238,-149 "/>
<text text-anchor="start" x="204.5" y="-137.8" font-family="Helvetica,sans-Serif" font-size="9.00" fill="#000000">api</text>
</a>
</g>
</g>
<!-- src/content/ -->
<g id="node3" class="node">
<title>src/content/</title>
<g id="a_node3"><a xlink:href="src/content/" xlink:title="content">
<polygon fill="#ffffcc" stroke="#000000" points="311,-134 259,-134 257,-132 257,-116 309,-116 311,-118 311,-134"/>
<polyline fill="none" stroke="#000000" points="309,-132 257,-132 "/>
<polyline fill="none" stroke="#000000" points="309,-132 309,-116 "/>
<polyline fill="none" stroke="#000000" points="309,-132 311,-134 "/>
<text text-anchor="start" x="268.5" y="-122.8" font-family="Helvetica,sans-Serif" font-size="9.00" fill="#000000">content</text>
</a>
</g>
</g>
<!-- src/api/&#45;&gt;src/content/ -->
<g id="edge1" class="edge">
<title>src/api/&#45;&gt;src/content/</title>
<path fill="none" stroke="#000000" stroke-width="2" stroke-opacity="0.200000" d="M234.4995,-130.9353C239.7642,-129.6308 245.444,-128.382 251.0137,-127.2966"/>
<polygon fill="#000000" fill-opacity="0.200000" stroke="#000000" stroke-width="2" stroke-opacity="0.200000" points="251.4729,-129.3473 256.9893,-126.1881 250.7069,-125.2178 251.4729,-129.3473"/>
</g>
<!-- src/solid&#45;client&#45;authn&#45;chrome&#45;ext/ -->
<g id="node4" class="node">
<title>src/solid&#45;client&#45;authn&#45;chrome&#45;ext/</title>
<g id="a_node4"><a xlink:href="src/solid-client-authn-chrome-ext/" xlink:title="solid&#45;client&#45;authn&#45;chrome&#45;ext">
<polygon fill="#ffffcc" stroke="#000000" points="530,-68 396,-68 394,-66 394,-50 528,-50 530,-52 530,-68"/>
<polyline fill="none" stroke="#000000" points="528,-66 394,-66 "/>
<polyline fill="none" stroke="#000000" points="528,-66 528,-50 "/>
<polyline fill="none" stroke="#000000" points="528,-66 530,-68 "/>
<text text-anchor="start" x="402" y="-56.8" font-family="Helvetica,sans-Serif" font-size="9.00" fill="#000000">solid&#45;client&#45;authn&#45;chrome&#45;ext</text>
</a>
</g>
</g>
<!-- src/api/&#45;&gt;src/solid&#45;client&#45;authn&#45;chrome&#45;ext/ -->
<g id="edge2" class="edge">
<title>src/api/&#45;&gt;src/solid&#45;client&#45;authn&#45;chrome&#45;ext/</title>
<path fill="none" stroke="#000000" stroke-width="2" stroke-opacity="0.200000" d="M221.2089,-130.996C229.4856,-124.1838 241.7488,-115.1504 254,-110 280.4771,-98.869 353.2017,-93.2244 381,-86 398.0982,-81.5564 416.8318,-75.3984 431.9723,-70.0854"/>
<polygon fill="#000000" fill-opacity="0.200000" stroke="#000000" stroke-width="2" stroke-opacity="0.200000" points="432.8457,-72.0039 437.7996,-68.0202 431.4427,-68.0451 432.8457,-72.0039"/>
</g>
<!-- src/store/ -->
<g id="node5" class="node">
<title>src/store/</title>
<g id="a_node5"><a xlink:href="src/store/" xlink:title="store">
<polygon fill="#ffffcc" stroke="#000000" points="311,-192 259,-192 257,-190 257,-174 309,-174 311,-176 311,-192"/>
<polyline fill="none" stroke="#000000" points="309,-190 257,-190 "/>
<polyline fill="none" stroke="#000000" points="309,-190 309,-174 "/>
<polyline fill="none" stroke="#000000" points="309,-190 311,-192 "/>
<text text-anchor="start" x="273.5" y="-180.8" font-family="Helvetica,sans-Serif" font-size="9.00" fill="#000000">store</text>
</a>
</g>
</g>
<!-- src/api/&#45;&gt;src/store/ -->
<g id="edge3" class="edge">
<title>src/api/&#45;&gt;src/store/</title>
<path fill="none" stroke="#000000" stroke-width="2" stroke-opacity="0.200000" d="M226.4814,-149.1192C237.2244,-155.4473 251.6526,-163.946 263.3706,-170.8484"/>
<polygon fill="#000000" fill-opacity="0.200000" stroke="#000000" stroke-width="2" stroke-opacity="0.200000" points="262.3053,-172.6581 268.5409,-173.894 264.4369,-169.0393 262.3053,-172.6581"/>
</g>
<!-- src/content/&#45;&gt;events -->
<g id="edge19" class="edge">
<title>src/content/&#45;&gt;events</title>
<path fill="none" stroke="#000000" stroke-dasharray="5,2" stroke-opacity="0.200000" d="M295.9898,-115.9478C302.1607,-110.7261 309.3447,-103.6821 314,-96 324.5679,-78.5609 311.6481,-65.4209 327,-52 386.8709,.3403 487.7792,-2.9315 539.7914,-8.9094"/>
<polygon fill="#000000" fill-opacity="0.200000" stroke="#000000" stroke-opacity="0.200000" points="539.6768,-11.0108 545.8859,-9.6483 540.1823,-6.8413 539.6768,-11.0108"/>
</g>
<!-- src/content/&#45;&gt;src/api/ -->
<g id="edge21" class="edge">
<title>src/content/&#45;&gt;src/api/</title>
<path fill="none" stroke="#000000" stroke-width="2" stroke-opacity="0.200000" d="M260.3935,-134.0912C255.1903,-135.3783 249.5859,-136.6105 244.0858,-137.684"/>
<polygon fill="#000000" fill-opacity="0.200000" stroke="#000000" stroke-width="2" stroke-opacity="0.200000" points="243.6975,-135.6201 238.1825,-138.7816 244.4653,-139.7494 243.6975,-135.6201"/>
</g>
<!-- src/messages.ts -->
<g id="node9" class="node">
<title>src/messages.ts</title>
<g id="a_node9"><a xlink:href="src/messages.ts" xlink:title="messages.ts">
<path fill="#ddfeff" stroke="#000000" d="M490,-198C490,-198 434,-198 434,-198 431,-198 428,-195 428,-192 428,-192 428,-186 428,-186 428,-183 431,-180 434,-180 434,-180 490,-180 490,-180 493,-180 496,-183 496,-186 496,-186 496,-192 496,-192 496,-195 493,-198 490,-198"/>
<text text-anchor="start" x="436" y="-186.8" font-family="Helvetica,sans-Serif" font-size="9.00" fill="#000000">messages.ts</text>
</a>
</g>
</g>
<!-- src/content/&#45;&gt;src/messages.ts -->
<g id="edge18" class="edge">
<title>src/content/&#45;&gt;src/messages.ts</title>
<path fill="none" stroke="#000000" stroke-width="2" stroke-opacity="0.200000" d="M310.6441,-134.0971C311.8132,-135.03 312.939,-136.0004 314,-137 321.4475,-144.0161 318.4643,-150.3579 327,-156 355.0841,-174.5637 393.1304,-180.8734 421.6756,-183.7931"/>
<polygon fill="#000000" fill-opacity="0.200000" stroke="#000000" stroke-width="2" stroke-opacity="0.200000" points="421.8068,-185.9154 427.9807,-184.4012 422.2101,-181.7348 421.8068,-185.9154"/>
</g>
<!-- src/options/ -->
<g id="node10" class="node">
<title>src/options/</title>
<g id="a_node10"><a xlink:href="src/options/" xlink:title="no&#45;orphans">
<polygon fill="#ccffcc" stroke="#ffa500" points="381,-148 329,-148 327,-146 327,-130 379,-130 381,-132 381,-148"/>
<polyline fill="none" stroke="#ffa500" points="379,-146 327,-146 "/>
<polyline fill="none" stroke="#ffa500" points="379,-146 379,-130 "/>
<polyline fill="none" stroke="#ffa500" points="379,-146 381,-148 "/>
<text text-anchor="start" x="338.5" y="-136.8" font-family="Helvetica,sans-Serif" font-size="9.00" fill="#ffa500">options</text>
</a>
</g>
</g>
<!-- src/content/&#45;&gt;src/options/ -->
<g id="edge17" class="edge">
<title>src/content/&#45;&gt;src/options/</title>
<path fill="none" stroke="#000000" stroke-width="2" stroke-opacity="0.200000" d="M311.2643,-130.4529C314.273,-131.0546 317.3619,-131.6724 320.4361,-132.2872"/>
<polygon fill="#000000" fill-opacity="0.200000" stroke="#000000" stroke-width="2" stroke-opacity="0.200000" points="320.3996,-134.4214 326.695,-133.539 321.2234,-130.303 320.3996,-134.4214"/>
</g>
<!-- src/chrome/ -->
<g id="node11" class="node">
<title>src/chrome/</title>
<g id="a_node11"><a xlink:href="src/chrome/" xlink:title="chrome">
<polygon fill="#ffffcc" stroke="#000000" points="489,-126 437,-126 435,-124 435,-108 487,-108 489,-110 489,-126"/>
<polyline fill="none" stroke="#000000" points="487,-124 435,-124 "/>
<polyline fill="none" stroke="#000000" points="487,-124 487,-108 "/>
<polyline fill="none" stroke="#000000" points="487,-124 489,-126 "/>
<text text-anchor="start" x="446.5" y="-114.8" font-family="Helvetica,sans-Serif" font-size="9.00" fill="#000000">chrome</text>
</a>
</g>
</g>
<!-- src/content/&#45;&gt;src/chrome/ -->
<g id="edge16" class="edge">
<title>src/content/&#45;&gt;src/chrome/</title>
<path fill="none" stroke="#000000" stroke-width="2" stroke-opacity="0.200000" d="M311.0344,-123.785C342.53,-122.3694 394.5794,-120.0301 428.5813,-118.502"/>
<polygon fill="#000000" fill-opacity="0.200000" stroke="#000000" stroke-width="2" stroke-opacity="0.200000" points="428.8116,-120.5938 434.7112,-118.2265 428.6229,-116.3981 428.8116,-120.5938"/>
</g>
<!-- src/components/ -->
<g id="node12" class="node">
<title>src/components/</title>
<g id="a_node12"><a xlink:href="src/components/" xlink:title="components">
<polygon fill="#ffffcc" stroke="#000000" points="495.5,-162 430.5,-162 428.5,-160 428.5,-144 493.5,-144 495.5,-146 495.5,-162"/>
<polyline fill="none" stroke="#000000" points="493.5,-160 428.5,-160 "/>
<polyline fill="none" stroke="#000000" points="493.5,-160 493.5,-144 "/>
<polyline fill="none" stroke="#000000" points="493.5,-160 495.5,-162 "/>
<text text-anchor="start" x="436.5" y="-150.8" font-family="Helvetica,sans-Serif" font-size="9.00" fill="#000000">components</text>
</a>
</g>
</g>
<!-- src/content/&#45;&gt;src/components/ -->
<g id="edge20" class="edge">
<title>src/content/&#45;&gt;src/components/</title>
<path fill="none" stroke="#000000" stroke-width="2" stroke-opacity="0.200000" d="M300.1873,-134.0614C304.7509,-136.7892 309.6539,-139.8885 314,-143 320.154,-147.4059 319.8932,-151.3967 327,-154 357.5886,-165.2049 394.756,-163.9482 422.3422,-160.4585"/>
<polygon fill="#000000" fill-opacity="0.200000" stroke="#000000" stroke-width="2" stroke-opacity="0.200000" points="422.7666,-162.5203 428.4299,-159.6328 422.202,-158.3584 422.7666,-162.5203"/>
</g>
<!-- src/solid&#45;client&#45;authn&#45;chrome&#45;ext/&#45;&gt;events -->
<g id="edge31" class="edge">
<title>src/solid&#45;client&#45;authn&#45;chrome&#45;ext/&#45;&gt;events</title>
<path fill="none" stroke="#000000" stroke-dasharray="5,2" stroke-opacity="0.200000" d="M484.4625,-49.8936C501.9151,-42.8182 526.2205,-32.9647 544.9508,-25.3713"/>
<polygon fill="#000000" fill-opacity="0.200000" stroke="#000000" stroke-opacity="0.200000" points="545.7995,-27.2933 550.5709,-23.0929 544.2215,-23.401 545.7995,-27.2933"/>
</g>
<!-- src/assets/ -->
<g id="node6" class="node">
<title>src/assets/</title>
<g id="a_node6"><a xlink:href="src/assets/" xlink:title="assets">
<polygon fill="#ffffcc" stroke="#000000" points="381,-76 329,-76 327,-74 327,-58 379,-58 381,-60 381,-76"/>
<polyline fill="none" stroke="#000000" points="379,-74 327,-74 "/>
<polyline fill="none" stroke="#000000" points="379,-74 379,-58 "/>
<polyline fill="none" stroke="#000000" points="379,-74 381,-76 "/>
<text text-anchor="start" x="340.5" y="-64.8" font-family="Helvetica,sans-Serif" font-size="9.00" fill="#000000">assets</text>
</a>
</g>
</g>
<!-- src/background.ts -->
<g id="node7" class="node">
<title>src/background.ts</title>
<g id="a_node7"><a xlink:href="src/background.ts" xlink:title="background.ts">
<path fill="#ddfeff" stroke="#000000" d="M84,-200C84,-200 22,-200 22,-200 19,-200 16,-197 16,-194 16,-194 16,-188 16,-188 16,-185 19,-182 22,-182 22,-182 84,-182 84,-182 87,-182 90,-185 90,-188 90,-188 90,-194 90,-194 90,-197 87,-200 84,-200"/>
<text text-anchor="start" x="24" y="-188.8" font-family="Helvetica,sans-Serif" font-size="9.00" fill="#000000">background.ts</text>
</a>
</g>
</g>
<!-- src/background.ts&#45;&gt;src/solid&#45;client&#45;authn&#45;chrome&#45;ext/ -->
<g id="edge7" class="edge">
<title>src/background.ts&#45;&gt;src/solid&#45;client&#45;authn&#45;chrome&#45;ext/</title>
<path fill="none" stroke="#000000" stroke-width="2" stroke-opacity="0.200000" d="M58.8319,-181.645C81.6892,-145.5034 166.1154,-17 211,-17 211,-17 211,-17 284,-17 327.2575,-17 338.9809,-14.7238 381,-25 401.451,-30.0015 423.3994,-39.4957 439.2835,-47.1828"/>
<polygon fill="#000000" fill-opacity="0.200000" stroke="#000000" stroke-width="2" stroke-opacity="0.200000" points="438.5365,-49.1557 444.8471,-49.9215 440.3914,-45.3875 438.5365,-49.1557"/>
</g>
<!-- src/background/ -->
<g id="node8" class="node">
<title>src/background/</title>
<g id="a_node8"><a xlink:href="src/background/" xlink:title="background">
<polygon fill="#ffffcc" stroke="#000000" points="168,-186 105,-186 103,-184 103,-168 166,-168 168,-170 168,-186"/>
<polyline fill="none" stroke="#000000" points="166,-184 103,-184 "/>
<polyline fill="none" stroke="#000000" points="166,-184 166,-168 "/>
<polyline fill="none" stroke="#000000" points="166,-184 168,-186 "/>
<text text-anchor="start" x="111" y="-174.8" font-family="Helvetica,sans-Serif" font-size="9.00" fill="#000000">background</text>
</a>
</g>
</g>
<!-- src/background.ts&#45;&gt;src/background/ -->
<g id="edge4" class="edge">
<title>src/background.ts&#45;&gt;src/background/</title>
<path fill="none" stroke="#000000" stroke-width="2" stroke-opacity="0.200000" d="M90.3878,-184.6554C92.4769,-184.3009 94.5793,-183.9441 96.6733,-183.5888"/>
<polygon fill="#000000" fill-opacity="0.200000" stroke="#000000" stroke-width="2" stroke-opacity="0.200000" points="97.3446,-185.605 102.9086,-182.5307 96.6418,-181.4642 97.3446,-185.605"/>
</g>
<!-- src/background.ts&#45;&gt;src/messages.ts -->
<g id="edge5" class="edge">
<title>src/background.ts&#45;&gt;src/messages.ts</title>
<path fill="none" stroke="#000000" stroke-width="2" stroke-opacity="0.200000" d="M68.241,-200.1645C77.8872,-205.5687 90.7994,-212.0933 103,-216 149.2765,-230.8179 162.409,-233 211,-233 211,-233 211,-233 284,-233 338.6171,-233 399.9789,-213.2359 434.5115,-200.2"/>
<polygon fill="#000000" fill-opacity="0.200000" stroke="#000000" stroke-width="2" stroke-opacity="0.200000" points="435.3769,-202.1174 440.2289,-198.0102 433.8746,-198.1952 435.3769,-202.1174"/>
</g>
<!-- src/background.ts&#45;&gt;src/options/ -->
<g id="edge6" class="edge">
<title>src/background.ts&#45;&gt;src/options/</title>
<path fill="none" stroke="#000000" stroke-width="2" stroke-opacity="0.200000" d="M80.5319,-200.0841C130.4326,-214.8223 237.7082,-238.449 314,-198 331.4117,-188.7685 342.6396,-168.191 348.6395,-153.9558"/>
<polygon fill="#000000" fill-opacity="0.200000" stroke="#000000" stroke-width="2" stroke-opacity="0.200000" points="350.6249,-154.6461 350.8935,-148.2949 346.7228,-153.0924 350.6249,-154.6461"/>
</g>
<!-- src/background/&#45;&gt;src/api/ -->
<g id="edge9" class="edge">
<title>src/background/&#45;&gt;src/api/</title>
<path fill="none" stroke="#000000" stroke-width="2" stroke-opacity="0.200000" d="M154.1629,-167.8539C164.1286,-162.9701 176.5027,-156.9059 187.1582,-151.6841"/>
<polygon fill="#000000" fill-opacity="0.200000" stroke="#000000" stroke-width="2" stroke-opacity="0.200000" points="188.0881,-153.567 192.5518,-149.0409 186.2398,-149.7956 188.0881,-153.567"/>
</g>
<!-- src/background/&#45;&gt;src/solid&#45;client&#45;authn&#45;chrome&#45;ext/ -->
<g id="edge10" class="edge">
<title>src/background/&#45;&gt;src/solid&#45;client&#45;authn&#45;chrome&#45;ext/</title>
<path fill="none" stroke="#000000" stroke-width="2" stroke-opacity="0.200000" d="M137.5856,-167.9229C142.3386,-148.9725 155.5795,-104.6712 181,-77 206.1744,-49.5967 218,-45.4177 254,-36 308.6068,-21.7147 325.0948,-28.2167 381,-36 397.8723,-38.349 416.1678,-43.3253 431.0948,-48.0502"/>
<polygon fill="#000000" fill-opacity="0.200000" stroke="#000000" stroke-width="2" stroke-opacity="0.200000" points="430.4948,-50.0631 436.8499,-49.9117 431.7875,-46.067 430.4948,-50.0631"/>
</g>
<!-- src/background/&#45;&gt;src/store/ -->
<g id="edge11" class="edge">
<title>src/background/&#45;&gt;src/store/</title>
<path fill="none" stroke="#000000" stroke-width="2" stroke-opacity="0.200000" d="M168.089,-178.3167C192.6457,-179.3089 226.1916,-180.6643 250.8774,-181.6617"/>
<polygon fill="#000000" fill-opacity="0.200000" stroke="#000000" stroke-width="2" stroke-opacity="0.200000" points="250.8717,-183.7631 256.9517,-181.9071 251.0414,-179.5665 250.8717,-183.7631"/>
</g>
<!-- src/background/&#45;&gt;src/messages.ts -->
<g id="edge8" class="edge">
<title>src/background/&#45;&gt;src/messages.ts</title>
<path fill="none" stroke="#000000" stroke-width="2" stroke-opacity="0.200000" d="M168.2521,-184.2745C191.9361,-189.1739 224.7758,-195.2287 254,-198 310.1941,-203.3288 324.6602,-202.4646 381,-199 394.2476,-198.1853 408.6453,-196.628 421.5778,-194.9805"/>
<polygon fill="#000000" fill-opacity="0.200000" stroke="#000000" stroke-width="2" stroke-opacity="0.200000" points="422.1202,-197.0276 427.7973,-194.1674 421.5756,-192.863 422.1202,-197.0276"/>
</g>
<!-- src/messages.ts&#45;&gt;src/api/ -->
<g id="edge22" class="edge">
<title>src/messages.ts&#45;&gt;src/api/</title>
<path fill="none" stroke="#000000" stroke-width="2" stroke-opacity="0.200000" d="M427.7248,-191.0676C413.3039,-191.8401 396.3421,-192.6214 381,-193 357.0073,-193.5921 347.5151,-205.4551 327,-193 316.2949,-186.5007 323.7509,-175.8587 314,-168 312.5772,-166.8533 273.7839,-156.4843 244.2247,-148.6964"/>
<polygon fill="#000000" fill-opacity="0.200000" stroke="#000000" stroke-width="2" stroke-opacity="0.200000" points="244.411,-146.5739 238.0741,-147.0779 243.3421,-150.6357 244.411,-146.5739"/>
</g>
<!-- src/messages.ts&#45;&gt;src/content/ -->
<g id="edge23" class="edge">
<title>src/messages.ts&#45;&gt;src/content/</title>
<path fill="none" stroke="#000000" stroke-width="2" stroke-opacity="0.200000" d="M427.9807,-193.914C398.9423,-193.7577 357.2081,-187.9676 327,-168 318.4643,-162.3579 321.4475,-156.0161 314,-149 309.3579,-144.6268 303.477,-140.8129 298.1543,-137.4212"/>
<polygon fill="#000000" fill-opacity="0.200000" stroke="#000000" stroke-width="2" stroke-opacity="0.200000" points="299.2677,-135.6404 293.0843,-134.1651 296.998,-139.1744 299.2677,-135.6404"/>
</g>
<!-- src/options/&#45;&gt;src/solid&#45;client&#45;authn&#45;chrome&#45;ext/ -->
<g id="edge28" class="edge">
<title>src/options/&#45;&gt;src/solid&#45;client&#45;authn&#45;chrome&#45;ext/</title>
<path fill="none" stroke="#000000" stroke-width="2" stroke-opacity="0.200000" d="M362.7957,-129.9798C370.6345,-122.1622 382.5983,-110.7609 394,-102 408.8623,-90.58 426.8272,-79.3176 440.5586,-71.1853"/>
<polygon fill="#000000" fill-opacity="0.200000" stroke="#000000" stroke-width="2" stroke-opacity="0.200000" points="441.6729,-72.9663 445.7858,-68.1192 439.5479,-69.3435 441.6729,-72.9663"/>
</g>
<!-- src/options/&#45;&gt;src/messages.ts -->
<g id="edge30" class="edge">
<title>src/options/&#45;&gt;src/messages.ts</title>
<path fill="none" stroke="#000000" stroke-width="2" stroke-opacity="0.200000" d="M364.579,-148.1604C372.3022,-154.4622 383.258,-162.6321 394,-168 402.7868,-172.3909 412.674,-176.0798 422.1308,-179.0794"/>
<polygon fill="#000000" fill-opacity="0.200000" stroke="#000000" stroke-width="2" stroke-opacity="0.200000" points="421.5979,-181.1123 427.9497,-180.858 422.8257,-177.0958 421.5979,-181.1123"/>
</g>
<!-- src/options/&#45;&gt;src/chrome/ -->
<g id="edge27" class="edge">
<title>src/options/&#45;&gt;src/chrome/</title>
<path fill="none" stroke="#000000" stroke-width="2" stroke-opacity="0.200000" d="M381.253,-133.4485C395.7064,-130.5043 413.5799,-126.8634 428.8338,-123.7561"/>
<polygon fill="#000000" fill-opacity="0.200000" stroke="#000000" stroke-width="2" stroke-opacity="0.200000" points="429.2957,-125.8052 434.7558,-122.5498 428.4573,-121.6897 429.2957,-125.8052"/>
</g>
<!-- src/options/&#45;&gt;src/components/ -->
<g id="edge29" class="edge">
<title>src/options/&#45;&gt;src/components/</title>
<path fill="none" stroke="#000000" stroke-width="2" stroke-opacity="0.200000" d="M381.253,-142.5328C393.6081,-144.1344 408.4624,-146.0599 422.0433,-147.8204"/>
<polygon fill="#000000" fill-opacity="0.200000" stroke="#000000" stroke-width="2" stroke-opacity="0.200000" points="421.9597,-149.9271 428.1799,-148.6159 422.4997,-145.7619 421.9597,-149.9271"/>
</g>
<!-- src/content.tsx -->
<g id="node13" class="node">
<title>src/content.tsx</title>
<g id="a_node13"><a xlink:href="src/content.tsx" xlink:title="content.tsx">
<path fill="#bbfeff" stroke="#000000" d="M235,-101C235,-101 187,-101 187,-101 184,-101 181,-98 181,-95 181,-95 181,-89 181,-89 181,-86 184,-83 187,-83 187,-83 235,-83 235,-83 238,-83 241,-86 241,-89 241,-89 241,-95 241,-95 241,-98 238,-101 235,-101"/>
<text text-anchor="start" x="189" y="-89.8" font-family="Helvetica,sans-Serif" font-size="9.00" fill="#000000">content.tsx</text>
</a>
</g>
</g>
<!-- src/content.tsx&#45;&gt;src/content/ -->
<g id="edge14" class="edge">
<title>src/content.tsx&#45;&gt;src/content/</title>
<path fill="none" stroke="#000000" stroke-width="2" stroke-opacity="0.200000" d="M230.9476,-101.0174C239.4776,-104.8734 249.5378,-109.4212 258.5918,-113.5141"/>
<polygon fill="#000000" fill-opacity="0.200000" stroke="#000000" stroke-width="2" stroke-opacity="0.200000" points="257.7442,-115.4355 264.0765,-115.9935 259.4743,-111.6084 257.7442,-115.4355"/>
</g>
<!-- src/content.tsx&#45;&gt;src/assets/ -->
<g id="edge12" class="edge">
<title>src/content.tsx&#45;&gt;src/assets/</title>
<path fill="none" stroke="#000000" stroke-width="2" stroke-opacity="0.200000" d="M222.2388,-82.8433C230.4782,-76.7486 242.2354,-69.2802 254,-66 275.5799,-59.983 300.8114,-60.2858 320.5307,-62.066"/>
<polygon fill="#000000" fill-opacity="0.200000" stroke="#000000" stroke-width="2" stroke-opacity="0.200000" points="320.5476,-64.1783 326.7278,-62.6898 320.9683,-59.9994 320.5476,-64.1783"/>
</g>
<!-- src/content.tsx&#45;&gt;src/messages.ts -->
<g id="edge15" class="edge">
<title>src/content.tsx&#45;&gt;src/messages.ts</title>
<path fill="none" stroke="#000000" stroke-width="2" stroke-opacity="0.200000" d="M219.4643,-101.193C225.5064,-107.7839 233.804,-116.8932 241,-125 246.8565,-131.5977 246.3752,-135.5627 254,-140 277.5043,-153.6786 292.1205,-135.8493 314,-152 323.7599,-159.2045 316.8875,-169.2994 327,-176 354.6457,-194.3182 392.736,-196.4148 421.4094,-194.5945"/>
<polygon fill="#000000" fill-opacity="0.200000" stroke="#000000" stroke-width="2" stroke-opacity="0.200000" points="421.9188,-196.6623 427.745,-194.1196 421.6048,-192.474 421.9188,-196.6623"/>
</g>
<!-- src/content.tsx&#45;&gt;src/chrome/ -->
<g id="edge13" class="edge">
<title>src/content.tsx&#45;&gt;src/chrome/</title>
<path fill="none" stroke="#000000" stroke-width="2" stroke-opacity="0.200000" d="M218.8602,-82.9936C226.7889,-74.6056 239.8528,-62.5816 254,-57 306.5463,-36.2685 331.9377,-24.0036 381,-52 390.8643,-57.6288 386.0912,-65.849 394,-74 406.451,-86.8323 423.4523,-97.5828 437.3402,-105.125"/>
<polygon fill="#000000" fill-opacity="0.200000" stroke="#000000" stroke-width="2" stroke-opacity="0.200000" points="436.4029,-107.0049 442.6883,-107.9563 438.3681,-103.293 436.4029,-107.0049"/>
</g>
<!-- src/options.tsx -->
<g id="node14" class="node">
<title>src/options.tsx</title>
<g id="a_node14"><a xlink:href="src/options.tsx" xlink:title="options.tsx">
<path fill="#bbfeff" stroke="#000000" d="M308,-90C308,-90 260,-90 260,-90 257,-90 254,-87 254,-84 254,-84 254,-78 254,-78 254,-75 257,-72 260,-72 260,-72 308,-72 308,-72 311,-72 314,-75 314,-78 314,-78 314,-84 314,-84 314,-87 311,-90 308,-90"/>
<text text-anchor="start" x="262" y="-78.8" font-family="Helvetica,sans-Serif" font-size="9.00" fill="#000000">options.tsx</text>
</a>
</g>
</g>
<!-- src/options.tsx&#45;&gt;src/solid&#45;client&#45;authn&#45;chrome&#45;ext/ -->
<g id="edge25" class="edge">
<title>src/options.tsx&#45;&gt;src/solid&#45;client&#45;authn&#45;chrome&#45;ext/</title>
<path fill="none" stroke="#000000" stroke-width="2" stroke-opacity="0.200000" d="M314.071,-81.7884C318.4089,-81.8762 322.8186,-81.9514 327,-82 350.9984,-82.279 357.2293,-85.3094 381,-82 397.8723,-79.651 416.1678,-74.6747 431.0948,-69.9498"/>
<polygon fill="#000000" fill-opacity="0.200000" stroke="#000000" stroke-width="2" stroke-opacity="0.200000" points="431.7875,-71.933 436.8499,-68.0883 430.4948,-67.9369 431.7875,-71.933"/>
</g>
<!-- src/options.tsx&#45;&gt;src/assets/ -->
<g id="edge26" class="edge">
<title>src/options.tsx&#45;&gt;src/assets/</title>
<path fill="none" stroke="#000000" stroke-width="2" stroke-opacity="0.200000" d="M314.0925,-74.9815C316.1677,-74.5665 318.2662,-74.1468 320.3583,-73.7283"/>
<polygon fill="#000000" fill-opacity="0.200000" stroke="#000000" stroke-width="2" stroke-opacity="0.200000" points="321.1136,-75.7189 326.5852,-72.483 320.2899,-71.6005 321.1136,-75.7189"/>
</g>
<!-- src/options.tsx&#45;&gt;src/options/ -->
<g id="edge24" class="edge">
<title>src/options.tsx&#45;&gt;src/options/</title>
<path fill="none" stroke="#000000" stroke-width="2" stroke-opacity="0.200000" d="M294.9375,-90.0625C306.4792,-99.6256 324.787,-114.795 337.9612,-125.7107"/>
<polygon fill="#000000" fill-opacity="0.200000" stroke="#000000" stroke-width="2" stroke-opacity="0.200000" points="336.9483,-127.5986 342.9083,-129.8097 339.628,-124.3645 336.9483,-127.5986"/>
</g>
<!-- src/types/ -->
<g id="node15" class="node">
<title>src/types/</title>
<g id="a_node15"><a xlink:href="src/types/" xlink:title="types">
<polygon fill="#ccffcc" stroke="#000000" points="80,-109 28,-109 26,-107 26,-91 78,-91 80,-93 80,-109"/>
<polyline fill="none" stroke="#000000" points="78,-107 26,-107 "/>
<polyline fill="none" stroke="#000000" points="78,-107 78,-91 "/>
<polyline fill="none" stroke="#000000" points="78,-107 80,-109 "/>
<text text-anchor="start" x="42" y="-97.8" font-family="Helvetica,sans-Serif" font-size="9.00" fill="#000000">types</text>
</a>
</g>
</g>
</g>
</svg>
