<?xml version="1.0" encoding="UTF-8" standalone="no"?>
<!DOCTYPE svg PUBLIC "-//W3C//DTD SVG 1.1//EN"
 "http://www.w3.org/Graphics/SVG/1.1/DTD/svg11.dtd">
<!-- Generated by graphviz version 2.43.0 (0)
 -->
<!-- Title: dependency&#45;cruiser output Pages: 1 -->
<svg width="582pt" height="337pt"
 viewBox="0.00 0.00 582.00 336.89" xmlns="http://www.w3.org/2000/svg" xmlns:xlink="http://www.w3.org/1999/xlink">
<g id="graph0" class="graph" transform="scale(1 1) rotate(0) translate(4 332.89)">
<title>dependency&#45;cruiser output</title>
<polygon fill="white" stroke="transparent" points="-4,4 -4,-332.89 578,-332.89 578,4 -4,4"/>
<g id="clust1" class="cluster">
<title>cluster_src</title>
<path fill="#ffffff" stroke="black" stroke-width="2" d="M20,-26.89C20,-26.89 554,-26.89 554,-26.89 560,-26.89 566,-32.89 566,-38.89 566,-38.89 566,-308.89 566,-308.89 566,-314.89 560,-320.89 554,-320.89 554,-320.89 20,-320.89 20,-320.89 14,-320.89 8,-314.89 8,-308.89 8,-308.89 8,-38.89 8,-38.89 8,-32.89 14,-26.89 20,-26.89"/>
<text text-anchor="middle" x="287" y="-309.69" font-family="Helvetica,sans-Serif" font-weight="bold" font-size="9.00">src</text>
</g>
<!-- events -->
<g id="node1" class="node">
<title>events</title>
<g id="a_node1"><a xlink:title="events">
<path fill="#ffffcc" stroke="grey" d="M552,-18.89C552,-18.89 510,-18.89 510,-18.89 507,-18.89 504,-15.89 504,-12.89 504,-12.89 504,-6.89 504,-6.89 504,-3.89 507,-0.89 510,-0.89 510,-0.89 552,-0.89 552,-0.89 555,-0.89 558,-3.89 558,-6.89 558,-6.89 558,-12.89 558,-12.89 558,-15.89 555,-18.89 552,-18.89"/>
<text text-anchor="middle" x="531" y="-7.69" font-family="Helvetica,sans-Serif" font-size="9.00" fill="grey">events</text>
</a>
</g>
</g>
<!-- src/api/ -->
<g id="node2" class="node">
<title>src/api/</title>
<g id="a_node2"><a xlink:href="src/api/" xlink:title="api">
<polygon fill="#ffffcc" stroke="black" points="256,-188.89 204,-188.89 202,-186.89 202,-170.89 254,-170.89 256,-172.89 256,-188.89"/>
<polyline fill="none" stroke="black" points="254,-186.89 202,-186.89 "/>
<polyline fill="none" stroke="black" points="254,-186.89 254,-170.89 "/>
<polyline fill="none" stroke="black" points="254,-186.89 256,-188.89 "/>
<text text-anchor="start" x="222" y="-177.69" font-family="Helvetica,sans-Serif" font-size="9.00">api</text>
</a>
</g>
</g>
<!-- src/chrome/ -->
<g id="node3" class="node">
<title>src/chrome/</title>
<g id="a_node3"><a xlink:href="src/chrome/" xlink:title="chrome">
<polygon fill="#ffffcc" stroke="black" points="443.5,-240.89 391.5,-240.89 389.5,-238.89 389.5,-222.89 441.5,-222.89 443.5,-224.89 443.5,-240.89"/>
<polyline fill="none" stroke="black" points="441.5,-238.89 389.5,-238.89 "/>
<polyline fill="none" stroke="black" points="441.5,-238.89 441.5,-222.89 "/>
<polyline fill="none" stroke="black" points="441.5,-238.89 443.5,-240.89 "/>
<text text-anchor="start" x="399" y="-229.69" font-family="Helvetica,sans-Serif" font-size="9.00">chrome</text>
</a>
</g>
</g>
<!-- src/api/&#45;&gt;src/chrome/ -->
<g id="edge1" class="edge">
<title>src/api/&#45;&gt;src/chrome/</title>
<path fill="none" stroke="#000000" stroke-width="2" stroke-opacity="0.200000" d="M245.37,-189.05C253.86,-193.77 264.74,-199.28 275,-202.89 311.09,-215.57 354.44,-223.48 383.35,-227.77"/>
<polygon fill="#000000" fill-opacity="0.200000" stroke="#000000" stroke-width="2" stroke-opacity="0.200000" points="383.06,-229.85 389.3,-228.63 383.66,-225.69 383.06,-229.85"/>
</g>
<!-- src/store/ -->
<g id="node4" class="node">
<title>src/store/</title>
<g id="a_node4"><a xlink:href="src/store/" xlink:title="store">
<polygon fill="#ffffcc" stroke="black" points="329,-196.89 277,-196.89 275,-194.89 275,-178.89 327,-178.89 329,-180.89 329,-196.89"/>
<polyline fill="none" stroke="black" points="327,-194.89 275,-194.89 "/>
<polyline fill="none" stroke="black" points="327,-194.89 327,-178.89 "/>
<polyline fill="none" stroke="black" points="327,-194.89 329,-196.89 "/>
<text text-anchor="start" x="290.5" y="-185.69" font-family="Helvetica,sans-Serif" font-size="9.00">store</text>
</a>
</g>
</g>
<!-- src/api/&#45;&gt;src/store/ -->
<g id="edge2" class="edge">
<title>src/api/&#45;&gt;src/store/</title>
<path fill="none" stroke="#000000" stroke-width="2" stroke-opacity="0.200000" d="M256.03,-182.82C260.18,-183.29 264.52,-183.78 268.79,-184.26"/>
<polygon fill="#000000" fill-opacity="0.200000" stroke="#000000" stroke-width="2" stroke-opacity="0.200000" points="268.77,-186.37 274.97,-184.96 269.24,-182.2 268.77,-186.37"/>
</g>
<!-- src/solid&#45;client&#45;authn&#45;chrome&#45;ext/ -->
<g id="node5" class="node">
<title>src/solid&#45;client&#45;authn&#45;chrome&#45;ext/</title>
<g id="a_node5"><a xlink:href="src/solid-client-authn-chrome-ext/" xlink:title="solid&#45;client&#45;authn&#45;chrome&#45;ext">
<polygon fill="#ffffcc" stroke="black" points="491,-95.89 344,-95.89 342,-93.89 342,-77.89 489,-77.89 491,-79.89 491,-95.89"/>
<polyline fill="none" stroke="black" points="489,-93.89 342,-93.89 "/>
<polyline fill="none" stroke="black" points="489,-93.89 489,-77.89 "/>
<polyline fill="none" stroke="black" points="489,-93.89 491,-95.89 "/>
<text text-anchor="start" x="350" y="-84.69" font-family="Helvetica,sans-Serif" font-size="9.00">solid&#45;client&#45;authn&#45;chrome&#45;ext</text>
</a>
</g>
</g>
<!-- src/api/&#45;&gt;src/solid&#45;client&#45;authn&#45;chrome&#45;ext/ -->
<g id="edge3" class="edge">
<title>src/api/&#45;&gt;src/solid&#45;client&#45;authn&#45;chrome&#45;ext/</title>
<path fill="none" stroke="#000000" stroke-width="2" stroke-opacity="0.200000" d="M248.64,-170.74C268.56,-160.94 301.06,-144.91 329,-130.89 350.38,-120.16 374.64,-107.8 392.02,-98.92"/>
<polygon fill="#000000" fill-opacity="0.200000" stroke="#000000" stroke-width="2" stroke-opacity="0.200000" points="393.25,-100.65 397.64,-96.05 391.34,-96.91 393.25,-100.65"/>
</g>
<!-- src/domain/ -->
<g id="node6" class="node">
<title>src/domain/</title>
<g id="a_node6"><a xlink:href="src/domain/" xlink:title="domain">
<polygon fill="#ffffcc" stroke="black" points="558,-229.89 506,-229.89 504,-227.89 504,-211.89 556,-211.89 558,-213.89 558,-229.89"/>
<polyline fill="none" stroke="black" points="556,-227.89 504,-227.89 "/>
<polyline fill="none" stroke="black" points="556,-227.89 556,-211.89 "/>
<polyline fill="none" stroke="black" points="556,-227.89 558,-229.89 "/>
<text text-anchor="start" x="514" y="-218.69" font-family="Helvetica,sans-Serif" font-size="9.00">domain</text>
</a>
</g>
</g>
<!-- src/api/&#45;&gt;src/domain/ -->
<g id="edge4" class="edge">
<title>src/api/&#45;&gt;src/domain/</title>
<path fill="none" stroke="#000000" stroke-width="2" stroke-opacity="0.200000" d="M256.1,-175.13C262.27,-174.2 268.85,-173.37 275,-172.89 322.86,-169.19 447.66,-152.26 491,-172.89 505.37,-179.73 516.17,-194.73 522.72,-206.16"/>
<polygon fill="#000000" fill-opacity="0.200000" stroke="#000000" stroke-width="2" stroke-opacity="0.200000" points="521.04,-207.47 525.75,-211.74 524.73,-205.47 521.04,-207.47"/>
</g>
<!-- src/options/ -->
<g id="node7" class="node">
<title>src/options/</title>
<g id="a_node7"><a xlink:href="src/options/" xlink:title="options">
<polygon fill="#ffffcc" stroke="black" points="329,-124.89 277,-124.89 275,-122.89 275,-106.89 327,-106.89 329,-108.89 329,-124.89"/>
<polyline fill="none" stroke="black" points="327,-122.89 275,-122.89 "/>
<polyline fill="none" stroke="black" points="327,-122.89 327,-106.89 "/>
<polyline fill="none" stroke="black" points="327,-122.89 329,-124.89 "/>
<text text-anchor="start" x="285" y="-113.69" font-family="Helvetica,sans-Serif" font-size="9.00">options</text>
</a>
</g>
</g>
<!-- src/api/&#45;&gt;src/options/ -->
<g id="edge5" class="edge">
<title>src/api/&#45;&gt;src/options/</title>
<path fill="none" stroke="#000000" stroke-width="2" stroke-opacity="0.200000" d="M240.62,-170.83C247.45,-166.94 256.11,-162.25 262,-155.89 270.08,-147.16 267.28,-140.41 273.94,-130.02"/>
<polygon fill="#000000" fill-opacity="0.200000" stroke="#000000" stroke-width="2" stroke-opacity="0.200000" points="275.81,-131.02 277.73,-124.97 272.45,-128.5 275.81,-131.02"/>
</g>
<!-- src/chrome/&#45;&gt;src/domain/ -->
<g id="edge15" class="edge">
<title>src/chrome/&#45;&gt;src/domain/</title>
<path fill="none" stroke="#000000" stroke-width="2" stroke-opacity="0.200000" d="M443.59,-229.34C459.66,-227.77 480.4,-225.74 497.53,-224.07"/>
<polygon fill="#000000" fill-opacity="0.200000" stroke="#000000" stroke-width="2" stroke-opacity="0.200000" points="497.89,-226.14 503.66,-223.47 497.48,-221.96 497.89,-226.14"/>
</g>
<!-- src/store/&#45;&gt;src/domain/ -->
<g id="edge36" class="edge">
<title>src/store/&#45;&gt;src/domain/</title>
<path fill="none" stroke="#000000" stroke-width="2" stroke-opacity="0.200000" d="M323.31,-196.91C329.23,-199.2 335.78,-201.43 342,-202.89 406.76,-218.08 424.8,-210.39 491,-216.89 493.23,-217.11 495.53,-217.34 497.85,-217.57"/>
<polygon fill="#000000" fill-opacity="0.200000" stroke="#000000" stroke-width="2" stroke-opacity="0.200000" points="497.81,-219.68 503.99,-218.19 498.23,-215.5 497.81,-219.68"/>
</g>
<!-- src/solid&#45;client&#45;authn&#45;chrome&#45;ext/&#45;&gt;events -->
<g id="edge35" class="edge">
<title>src/solid&#45;client&#45;authn&#45;chrome&#45;ext/&#45;&gt;events</title>
<path fill="none" stroke="#000000" stroke-dasharray="5,2" stroke-opacity="0.200000" d="M454.14,-77.79C467.13,-73.04 480.98,-66.04 491,-55.89 501.78,-44.96 493.75,-35.32 504,-23.89 504.31,-23.55 504.63,-23.21 504.95,-22.88"/>
<polygon fill="#000000" fill-opacity="0.200000" stroke="#000000" stroke-opacity="0.200000" points="506.38,-24.42 509.65,-18.97 503.7,-21.19 506.38,-24.42"/>
</g>
<!-- src/options/&#45;&gt;events -->
<g id="edge29" class="edge">
<title>src/options/&#45;&gt;events</title>
<path fill="none" stroke="#000000" stroke-dasharray="5,2" stroke-opacity="0.200000" d="M311.24,-106.78C316.37,-101.09 323.1,-93.59 329,-86.89 334.83,-80.27 334.66,-76.78 342,-71.89 400.03,-33.27 424.82,-44.8 491,-22.89 493.36,-22.11 495.81,-21.3 498.26,-20.48"/>
<polygon fill="#000000" fill-opacity="0.200000" stroke="#000000" stroke-opacity="0.200000" points="498.96,-22.46 503.99,-18.58 497.64,-18.48 498.96,-22.46"/>
</g>
<!-- src/options/&#45;&gt;src/api/ -->
<g id="edge30" class="edge">
<title>src/options/&#45;&gt;src/api/</title>
<path fill="none" stroke="#000000" stroke-width="2" stroke-opacity="0.200000" d="M292.87,-125.03C287.26,-129.18 279.95,-134.01 275,-139.89 266.16,-150.38 271.32,-157.82 262,-167.89 261.68,-168.24 261.34,-168.59 261,-168.93"/>
<polygon fill="#000000" fill-opacity="0.200000" stroke="#000000" stroke-width="2" stroke-opacity="0.200000" points="259.39,-167.54 256.2,-173.05 262.12,-170.73 259.39,-167.54"/>
</g>
<!-- src/options/&#45;&gt;src/chrome/ -->
<g id="edge32" class="edge">
<title>src/options/&#45;&gt;src/chrome/</title>
<path fill="none" stroke="#000000" stroke-width="2" stroke-opacity="0.200000" d="M307.29,-125.15C312.49,-136.4 321.49,-155.99 329,-172.89 334.9,-186.17 331.56,-192.79 342,-202.89 353.3,-213.82 369.22,-220.78 383.35,-225.13"/>
<polygon fill="#000000" fill-opacity="0.200000" stroke="#000000" stroke-width="2" stroke-opacity="0.200000" points="382.93,-227.19 389.28,-226.84 384.1,-223.16 382.93,-227.19"/>
</g>
<!-- src/options/&#45;&gt;src/solid&#45;client&#45;authn&#45;chrome&#45;ext/ -->
<g id="edge31" class="edge">
<title>src/options/&#45;&gt;src/solid&#45;client&#45;authn&#45;chrome&#45;ext/</title>
<path fill="none" stroke="#000000" stroke-width="2" stroke-opacity="0.200000" d="M329.09,-109.16C342.5,-105.71 359.16,-101.41 374.26,-97.52"/>
<polygon fill="#000000" fill-opacity="0.200000" stroke="#000000" stroke-width="2" stroke-opacity="0.200000" points="374.89,-99.53 380.17,-96 373.84,-95.46 374.89,-99.53"/>
</g>
<!-- src/options/&#45;&gt;src/domain/ -->
<g id="edge34" class="edge">
<title>src/options/&#45;&gt;src/domain/</title>
<path fill="none" stroke="#000000" stroke-width="2" stroke-opacity="0.200000" d="M329.11,-113.52C368.12,-111.36 442.25,-112.76 491,-147.89 510.45,-161.91 521.11,-188.66 526.18,-205.6"/>
<polygon fill="#000000" fill-opacity="0.200000" stroke="#000000" stroke-width="2" stroke-opacity="0.200000" points="524.27,-206.56 527.91,-211.77 528.31,-205.42 524.27,-206.56"/>
</g>
<!-- src/components/ -->
<g id="node11" class="node">
<title>src/components/</title>
<g id="a_node11"><a xlink:href="src/components/" xlink:title="components">
<polygon fill="#ffffcc" stroke="black" points="453,-196.89 382,-196.89 380,-194.89 380,-178.89 451,-178.89 453,-180.89 453,-196.89"/>
<polyline fill="none" stroke="black" points="451,-194.89 380,-194.89 "/>
<polyline fill="none" stroke="black" points="451,-194.89 451,-178.89 "/>
<polyline fill="none" stroke="black" points="451,-194.89 453,-196.89 "/>
<text text-anchor="start" x="388" y="-185.69" font-family="Helvetica,sans-Serif" font-size="9.00">components</text>
</a>
</g>
</g>
<!-- src/options/&#45;&gt;src/components/ -->
<g id="edge33" class="edge">
<title>src/options/&#45;&gt;src/components/</title>
<path fill="none" stroke="#000000" stroke-width="2" stroke-opacity="0.200000" d="M317.25,-125.01C337.28,-137.83 373.83,-161.22 396.26,-175.58"/>
<polygon fill="#000000" fill-opacity="0.200000" stroke="#000000" stroke-width="2" stroke-opacity="0.200000" points="395.18,-177.38 401.37,-178.85 397.45,-173.84 395.18,-177.38"/>
</g>
<!-- src/assets/ -->
<g id="node8" class="node">
<title>src/assets/</title>
<g id="a_node8"><a xlink:href="src/assets/" xlink:title="assets">
<polygon fill="#ffffcc" stroke="black" points="329,-80.89 277,-80.89 275,-78.89 275,-62.89 327,-62.89 329,-64.89 329,-80.89"/>
<polyline fill="none" stroke="black" points="327,-78.89 275,-78.89 "/>
<polyline fill="none" stroke="black" points="327,-78.89 327,-62.89 "/>
<polyline fill="none" stroke="black" points="327,-78.89 329,-80.89 "/>
<text text-anchor="start" x="288" y="-69.69" font-family="Helvetica,sans-Serif" font-size="9.00">assets</text>
</a>
</g>
</g>
<!-- src/background.ts -->
<g id="node9" class="node">
<title>src/background.ts</title>
<g id="a_node9"><a xlink:href="src/background.ts" xlink:title="background.ts">
<path fill="#ddfeff" stroke="black" d="M93,-138.89C93,-138.89 22,-138.89 22,-138.89 19,-138.89 16,-135.89 16,-132.89 16,-132.89 16,-126.89 16,-126.89 16,-123.89 19,-120.89 22,-120.89 22,-120.89 93,-120.89 93,-120.89 96,-120.89 99,-123.89 99,-126.89 99,-126.89 99,-132.89 99,-132.89 99,-135.89 96,-138.89 93,-138.89"/>
<text text-anchor="start" x="24" y="-127.69" font-family="Helvetica,sans-Serif" font-size="9.00">background.ts</text>
</a>
</g>
</g>
<!-- src/background.ts&#45;&gt;src/solid&#45;client&#45;authn&#45;chrome&#45;ext/ -->
<g id="edge9" class="edge">
<title>src/background.ts&#45;&gt;src/solid&#45;client&#45;authn&#45;chrome&#45;ext/</title>
<path fill="none" stroke="#000000" stroke-width="2" stroke-opacity="0.200000" d="M69.51,-120.78C77.86,-113.71 89.48,-103.53 99,-93.89 105.2,-87.61 104.32,-83.22 112,-78.89 176.03,-42.79 201.76,-57.13 275,-50.89 298.91,-48.85 305.47,-46.19 329,-50.89 352.07,-55.5 376.69,-66.39 393.74,-75"/>
<polygon fill="#000000" fill-opacity="0.200000" stroke="#000000" stroke-width="2" stroke-opacity="0.200000" points="392.92,-76.94 399.21,-77.82 394.84,-73.2 392.92,-76.94"/>
</g>
<!-- src/background.ts&#45;&gt;src/domain/ -->
<g id="edge7" class="edge">
<title>src/background.ts&#45;&gt;src/domain/</title>
<path fill="none" stroke="#000000" stroke-width="2" stroke-opacity="0.200000" d="M61.97,-139.09C71.02,-162.67 95.78,-224.46 112,-238.89 152.85,-275.24 173.32,-279.89 228,-279.89 228,-279.89 228,-279.89 303,-279.89 387.13,-279.89 414.81,-293.55 491,-257.89 502.2,-252.65 512.25,-242.92 519.35,-234.75"/>
<polygon fill="#000000" fill-opacity="0.200000" stroke="#000000" stroke-width="2" stroke-opacity="0.200000" points="521.14,-235.88 523.37,-229.93 517.91,-233.19 521.14,-235.88"/>
</g>
<!-- src/background.ts&#45;&gt;src/options/ -->
<g id="edge8" class="edge">
<title>src/background.ts&#45;&gt;src/options/</title>
<path fill="none" stroke="#000000" stroke-width="2" stroke-opacity="0.200000" d="M99.1,-126.79C103.45,-126.48 107.82,-126.17 112,-125.89 149.32,-123.38 158.65,-122.89 196,-120.89 220.28,-119.59 247.72,-118.29 268.46,-117.34"/>
<polygon fill="#000000" fill-opacity="0.200000" stroke="#000000" stroke-width="2" stroke-opacity="0.200000" points="268.77,-119.43 274.67,-117.06 268.58,-115.23 268.77,-119.43"/>
</g>
<!-- src/background/ -->
<g id="node10" class="node">
<title>src/background/</title>
<g id="a_node10"><a xlink:href="src/background/" xlink:title="background">
<polygon fill="#ffffcc" stroke="black" points="183,-149.89 114,-149.89 112,-147.89 112,-131.89 181,-131.89 183,-133.89 183,-149.89"/>
<polyline fill="none" stroke="black" points="181,-147.89 112,-147.89 "/>
<polyline fill="none" stroke="black" points="181,-147.89 181,-131.89 "/>
<polyline fill="none" stroke="black" points="181,-147.89 183,-149.89 "/>
<text text-anchor="start" x="120" y="-138.69" font-family="Helvetica,sans-Serif" font-size="9.00">background</text>
</a>
</g>
</g>
<!-- src/background.ts&#45;&gt;src/background/ -->
<g id="edge6" class="edge">
<title>src/background.ts&#45;&gt;src/background/</title>
<path fill="none" stroke="#000000" stroke-width="2" stroke-opacity="0.200000" d="M99.15,-134.97C101.27,-135.24 103.39,-135.5 105.51,-135.77"/>
<polygon fill="#000000" fill-opacity="0.200000" stroke="#000000" stroke-width="2" stroke-opacity="0.200000" points="105.6,-137.89 111.82,-136.55 106.12,-133.73 105.6,-137.89"/>
</g>
<!-- src/background/&#45;&gt;src/api/ -->
<g id="edge11" class="edge">
<title>src/background/&#45;&gt;src/api/</title>
<path fill="none" stroke="#000000" stroke-width="2" stroke-opacity="0.200000" d="M166.94,-149.94C177.9,-155.31 191.92,-162.19 203.77,-168"/>
<polygon fill="#000000" fill-opacity="0.200000" stroke="#000000" stroke-width="2" stroke-opacity="0.200000" points="203.07,-170 209.39,-170.76 204.92,-166.23 203.07,-170"/>
</g>
<!-- src/background/&#45;&gt;src/store/ -->
<g id="edge14" class="edge">
<title>src/background/&#45;&gt;src/store/</title>
<path fill="none" stroke="#000000" stroke-width="2" stroke-opacity="0.200000" d="M153.16,-149.89C160.36,-162.7 175.52,-185.63 196,-194.89 218.82,-205.21 247.32,-202.47 268.86,-197.7"/>
<polygon fill="#000000" fill-opacity="0.200000" stroke="#000000" stroke-width="2" stroke-opacity="0.200000" points="269.39,-199.73 274.75,-196.3 268.42,-195.64 269.39,-199.73"/>
</g>
<!-- src/background/&#45;&gt;src/solid&#45;client&#45;authn&#45;chrome&#45;ext/ -->
<g id="edge13" class="edge">
<title>src/background/&#45;&gt;src/solid&#45;client&#45;authn&#45;chrome&#45;ext/</title>
<path fill="none" stroke="#000000" stroke-width="2" stroke-opacity="0.200000" d="M152.99,-131.81C160.17,-118.22 175.55,-92.71 196,-78.89 226.2,-58.48 238.89,-61.82 275,-56.89 298.78,-53.64 305.33,-52.9 329,-56.89 349.94,-60.42 372.58,-68.43 389.45,-75.29"/>
<polygon fill="#000000" fill-opacity="0.200000" stroke="#000000" stroke-width="2" stroke-opacity="0.200000" points="389.04,-77.4 395.38,-77.76 390.65,-73.52 389.04,-77.4"/>
</g>
<!-- src/background/&#45;&gt;src/domain/ -->
<g id="edge10" class="edge">
<title>src/background/&#45;&gt;src/domain/</title>
<path fill="none" stroke="#000000" stroke-width="2" stroke-opacity="0.200000" d="M183.13,-138.77C259.49,-134.71 439.65,-128.74 491,-158.89 508.66,-169.26 519.53,-191.11 525.17,-205.9"/>
<polygon fill="#000000" fill-opacity="0.200000" stroke="#000000" stroke-width="2" stroke-opacity="0.200000" points="523.26,-206.81 527.27,-211.75 527.22,-205.39 523.26,-206.81"/>
</g>
<!-- src/background/&#45;&gt;src/options/ -->
<g id="edge12" class="edge">
<title>src/background/&#45;&gt;src/options/</title>
<path fill="none" stroke="#000000" stroke-width="2" stroke-opacity="0.200000" d="M183.1,-135.22C208.7,-131.02 243.34,-125.34 268.44,-121.23"/>
<polygon fill="#000000" fill-opacity="0.200000" stroke="#000000" stroke-width="2" stroke-opacity="0.200000" points="269.02,-123.26 274.61,-120.22 268.34,-119.12 269.02,-123.26"/>
</g>
<!-- src/content.tsx -->
<g id="node12" class="node">
<title>src/content.tsx</title>
<g id="a_node12"><a xlink:href="src/content.tsx" xlink:title="content.tsx">
<path fill="#bbfeff" stroke="black" d="M85.5,-246.89C85.5,-246.89 29.5,-246.89 29.5,-246.89 26.5,-246.89 23.5,-243.89 23.5,-240.89 23.5,-240.89 23.5,-234.89 23.5,-234.89 23.5,-231.89 26.5,-228.89 29.5,-228.89 29.5,-228.89 85.5,-228.89 85.5,-228.89 88.5,-228.89 91.5,-231.89 91.5,-234.89 91.5,-234.89 91.5,-240.89 91.5,-240.89 91.5,-243.89 88.5,-246.89 85.5,-246.89"/>
<text text-anchor="start" x="31.5" y="-235.69" font-family="Helvetica,sans-Serif" font-size="9.00">content.tsx</text>
</a>
</g>
</g>
<!-- src/content.tsx&#45;&gt;src/chrome/ -->
<g id="edge17" class="edge">
<title>src/content.tsx&#45;&gt;src/chrome/</title>
<path fill="none" stroke="#000000" stroke-width="2" stroke-opacity="0.200000" d="M91.6,-238.61C98.35,-238.72 105.4,-238.83 112,-238.89 208.46,-239.79 232.59,-237.88 329,-234.89 346.9,-234.33 366.88,-233.65 383.13,-233.07"/>
<polygon fill="#000000" fill-opacity="0.200000" stroke="#000000" stroke-width="2" stroke-opacity="0.200000" points="383.46,-235.16 389.38,-232.85 383.31,-230.96 383.46,-235.16"/>
</g>
<!-- src/content.tsx&#45;&gt;src/domain/ -->
<g id="edge19" class="edge">
<title>src/content.tsx&#45;&gt;src/domain/</title>
<path fill="none" stroke="#000000" stroke-width="2" stroke-opacity="0.200000" d="M66.06,-247.24C75.51,-258.18 92.8,-275.82 112,-283.89 159.7,-303.95 176.25,-293.89 228,-293.89 228,-293.89 228,-293.89 303,-293.89 386.67,-293.89 419.01,-326.54 491,-283.89 508.82,-273.33 519.65,-251.14 525.24,-236.12"/>
<polygon fill="#000000" fill-opacity="0.200000" stroke="#000000" stroke-width="2" stroke-opacity="0.200000" points="527.32,-236.53 527.31,-230.17 523.35,-235.15 527.32,-236.53"/>
</g>
<!-- src/content.tsx&#45;&gt;src/assets/ -->
<g id="edge16" class="edge">
<title>src/content.tsx&#45;&gt;src/assets/</title>
<path fill="none" stroke="#000000" stroke-width="2" stroke-opacity="0.200000" d="M62.09,-228.59C71.43,-204.74 96.82,-142.08 112,-125.89 141.26,-94.68 154.99,-91.06 196,-78.89 219.75,-71.84 247.81,-70.3 268.94,-70.4"/>
<polygon fill="#000000" fill-opacity="0.200000" stroke="#000000" stroke-width="2" stroke-opacity="0.200000" points="268.96,-72.5 274.98,-70.48 269.01,-68.3 268.96,-72.5"/>
</g>
<!-- src/content/ -->
<g id="node13" class="node">
<title>src/content/</title>
<g id="a_node13"><a xlink:href="src/content/" xlink:title="content">
<polygon fill="#ffffcc" stroke="black" points="174.5,-232.89 122.5,-232.89 120.5,-230.89 120.5,-214.89 172.5,-214.89 174.5,-216.89 174.5,-232.89"/>
<polyline fill="none" stroke="black" points="172.5,-230.89 120.5,-230.89 "/>
<polyline fill="none" stroke="black" points="172.5,-230.89 172.5,-214.89 "/>
<polyline fill="none" stroke="black" points="172.5,-230.89 174.5,-232.89 "/>
<text text-anchor="start" x="129.5" y="-221.69" font-family="Helvetica,sans-Serif" font-size="9.00">content</text>
</a>
</g>
</g>
<!-- src/content.tsx&#45;&gt;src/content/ -->
<g id="edge18" class="edge">
<title>src/content.tsx&#45;&gt;src/content/</title>
<path fill="none" stroke="#000000" stroke-width="2" stroke-opacity="0.200000" d="M91.52,-232.64C98.99,-231.45 106.91,-230.19 114.34,-229.01"/>
<polygon fill="#000000" fill-opacity="0.200000" stroke="#000000" stroke-width="2" stroke-opacity="0.200000" points="114.85,-231.05 120.44,-228.04 114.19,-226.9 114.85,-231.05"/>
</g>
<!-- src/content/&#45;&gt;events -->
<g id="edge24" class="edge">
<title>src/content/&#45;&gt;events</title>
<path fill="none" stroke="#000000" stroke-dasharray="5,2" stroke-opacity="0.200000" d="M154.36,-214.6C162.14,-201.86 175.71,-178.02 183,-155.89 193.86,-122.93 173.94,-105.68 196,-78.89 270.38,11.44 428.97,3.43 497.42,-4.93"/>
<polygon fill="#000000" fill-opacity="0.200000" stroke="#000000" stroke-opacity="0.200000" points="497.54,-7.06 503.76,-5.73 498.07,-2.89 497.54,-7.06"/>
</g>
<!-- src/content/&#45;&gt;src/api/ -->
<g id="edge22" class="edge">
<title>src/content/&#45;&gt;src/api/</title>
<path fill="none" stroke="#000000" stroke-width="2" stroke-opacity="0.200000" d="M164.97,-214.77C176.91,-208.17 193.18,-199.16 206.19,-191.96"/>
<polygon fill="#000000" fill-opacity="0.200000" stroke="#000000" stroke-width="2" stroke-opacity="0.200000" points="207.32,-193.74 211.55,-189 205.28,-190.06 207.32,-193.74"/>
</g>
<!-- src/content/&#45;&gt;src/chrome/ -->
<g id="edge20" class="edge">
<title>src/content/&#45;&gt;src/chrome/</title>
<path fill="none" stroke="#000000" stroke-width="2" stroke-opacity="0.200000" d="M174.61,-226.4C181.56,-226.98 189.06,-227.53 196,-227.89 262.57,-231.3 340.63,-231.92 383.41,-231.97"/>
<polygon fill="#000000" fill-opacity="0.200000" stroke="#000000" stroke-width="2" stroke-opacity="0.200000" points="383.46,-234.07 389.46,-231.97 383.46,-229.87 383.46,-234.07"/>
</g>
<!-- src/content/&#45;&gt;src/domain/ -->
<g id="edge23" class="edge">
<title>src/content/&#45;&gt;src/domain/</title>
<path fill="none" stroke="#000000" stroke-width="2" stroke-opacity="0.200000" d="M174.56,-231.79C232.77,-248.13 377.21,-281.34 491,-246.89 499.69,-244.26 508.21,-238.98 515.06,-233.87"/>
<polygon fill="#000000" fill-opacity="0.200000" stroke="#000000" stroke-width="2" stroke-opacity="0.200000" points="516.53,-235.39 519.95,-230.03 513.93,-232.08 516.53,-235.39"/>
</g>
<!-- src/content/&#45;&gt;src/options/ -->
<g id="edge21" class="edge">
<title>src/content/&#45;&gt;src/options/</title>
<path fill="none" stroke="#000000" stroke-width="2" stroke-opacity="0.200000" d="M153.91,-214.82C161.81,-202.21 177.58,-179.33 196,-164.89 208.58,-155.03 246.03,-138.52 272.61,-127.42"/>
<polygon fill="#000000" fill-opacity="0.200000" stroke="#000000" stroke-width="2" stroke-opacity="0.200000" points="273.7,-129.24 278.44,-125 272.09,-125.36 273.7,-129.24"/>
</g>
<!-- src/content/&#45;&gt;src/components/ -->
<g id="edge25" class="edge">
<title>src/content/&#45;&gt;src/components/</title>
<path fill="none" stroke="#000000" stroke-width="2" stroke-opacity="0.200000" d="M174.56,-221.32C209.71,-217.75 274.2,-210.82 329,-202.89 343.65,-200.77 359.64,-198.1 373.83,-195.6"/>
<polygon fill="#000000" fill-opacity="0.200000" stroke="#000000" stroke-width="2" stroke-opacity="0.200000" points="374.26,-197.66 379.8,-194.54 373.52,-193.52 374.26,-197.66"/>
</g>
<!-- src/options.tsx -->
<g id="node14" class="node">
<title>src/options.tsx</title>
<g id="a_node14"><a xlink:href="src/options.tsx" xlink:title="options.tsx">
<path fill="#bbfeff" stroke="black" d="M256,-102.89C256,-102.89 202,-102.89 202,-102.89 199,-102.89 196,-99.89 196,-96.89 196,-96.89 196,-90.89 196,-90.89 196,-87.89 199,-84.89 202,-84.89 202,-84.89 256,-84.89 256,-84.89 259,-84.89 262,-87.89 262,-90.89 262,-90.89 262,-96.89 262,-96.89 262,-99.89 259,-102.89 256,-102.89"/>
<text text-anchor="start" x="204" y="-91.69" font-family="Helvetica,sans-Serif" font-size="9.00">options.tsx</text>
</a>
</g>
</g>
<!-- src/options.tsx&#45;&gt;src/solid&#45;client&#45;authn&#45;chrome&#45;ext/ -->
<g id="edge27" class="edge">
<title>src/options.tsx&#45;&gt;src/solid&#45;client&#45;authn&#45;chrome&#45;ext/</title>
<path fill="none" stroke="#000000" stroke-width="2" stroke-opacity="0.200000" d="M262.31,-92.67C282.59,-91.91 309.69,-90.88 335.46,-89.91"/>
<polygon fill="#000000" fill-opacity="0.200000" stroke="#000000" stroke-width="2" stroke-opacity="0.200000" points="335.71,-92 341.63,-89.68 335.55,-87.81 335.71,-92"/>
</g>
<!-- src/options.tsx&#45;&gt;src/options/ -->
<g id="edge26" class="edge">
<title>src/options.tsx&#45;&gt;src/options/</title>
<path fill="none" stroke="#000000" stroke-width="2" stroke-opacity="0.200000" d="M259.29,-102.97C262.54,-103.97 265.85,-105 269.13,-106.01"/>
<polygon fill="#000000" fill-opacity="0.200000" stroke="#000000" stroke-width="2" stroke-opacity="0.200000" points="268.61,-108.05 274.96,-107.82 269.85,-104.04 268.61,-108.05"/>
</g>
<!-- src/options.tsx&#45;&gt;src/assets/ -->
<g id="edge28" class="edge">
<title>src/options.tsx&#45;&gt;src/assets/</title>
<path fill="none" stroke="#000000" stroke-width="2" stroke-opacity="0.200000" d="M259.29,-84.81C262.54,-83.81 265.85,-82.78 269.13,-81.77"/>
<polygon fill="#000000" fill-opacity="0.200000" stroke="#000000" stroke-width="2" stroke-opacity="0.200000" points="269.85,-83.74 274.96,-79.96 268.61,-79.73 269.85,-83.74"/>
</g>
<!-- src/types/ -->
<g id="node15" class="node">
<title>src/types/</title>
<g id="a_node15"><a xlink:href="src/types/" xlink:title="types">
<polygon fill="#ccffcc" stroke="black" points="84.5,-87.89 32.5,-87.89 30.5,-85.89 30.5,-69.89 82.5,-69.89 84.5,-71.89 84.5,-87.89"/>
<polyline fill="none" stroke="black" points="82.5,-85.89 30.5,-85.89 "/>
<polyline fill="none" stroke="black" points="82.5,-85.89 82.5,-69.89 "/>
<polyline fill="none" stroke="black" points="82.5,-85.89 84.5,-87.89 "/>
<text text-anchor="start" x="45" y="-76.69" font-family="Helvetica,sans-Serif" font-size="9.00">types</text>
</a>
</g>
</g>
</g>
</svg>
