<?xml version="1.0" encoding="UTF-8" standalone="no"?>
<!DOCTYPE svg PUBLIC "-//W3C//DTD SVG 1.1//EN"
 "http://www.w3.org/Graphics/SVG/1.1/DTD/svg11.dtd">
<!-- Generated by graphviz version 2.40.1 (20161225.0304)
 -->
<!-- Title: dependency&#45;cruiser output Pages: 1 -->
<svg width="548pt" height="288pt"
 viewBox="0.00 0.00 548.00 288.00" xmlns="http://www.w3.org/2000/svg" xmlns:xlink="http://www.w3.org/1999/xlink">
<g id="graph0" class="graph" transform="scale(1 1) rotate(0) translate(4 284)">
<title>dependency&#45;cruiser output</title>
<polygon fill="#ffffff" stroke="transparent" points="-4,4 -4,-284 544,-284 544,4 -4,4"/>
<g id="clust1" class="cluster">
<title>cluster_src</title>
<path fill="#ffffff" stroke="#000000" stroke-width="2" d="M20,-8C20,-8 466,-8 466,-8 472,-8 478,-14 478,-20 478,-20 478,-260 478,-260 478,-266 472,-272 466,-272 466,-272 20,-272 20,-272 14,-272 8,-266 8,-260 8,-260 8,-20 8,-20 8,-14 14,-8 20,-8"/>
<text text-anchor="middle" x="243" y="-260.8" font-family="Helvetica,sans-Serif" font-weight="bold" font-size="9.00" fill="#000000">src</text>
</g>
<!-- events -->
<g id="node1" class="node">
<title>events</title>
<g id="a_node1"><a xlink:title="events">
<path fill="#ffffcc" stroke="#c0c0c0" d="M534,-103C534,-103 492,-103 492,-103 489,-103 486,-100 486,-97 486,-97 486,-91 486,-91 486,-88 489,-85 492,-85 492,-85 534,-85 534,-85 537,-85 540,-88 540,-91 540,-91 540,-97 540,-97 540,-100 537,-103 534,-103"/>
<text text-anchor="middle" x="513" y="-91.8" font-family="Helvetica,sans-Serif" font-size="9.00" fill="#c0c0c0">events</text>
</a>
</g>
</g>
<!-- src/api/ -->
<g id="node2" class="node">
<title>src/api/</title>
<g id="a_node2"><a xlink:href="src/api/" xlink:title="api">
<polygon fill="#ffffcc" stroke="#000000" points="314.5,-162 262.5,-162 260.5,-160 260.5,-144 312.5,-144 314.5,-146 314.5,-162"/>
<polyline fill="none" stroke="#000000" points="312.5,-160 260.5,-160 "/>
<polyline fill="none" stroke="#000000" points="312.5,-160 312.5,-144 "/>
<polyline fill="none" stroke="#000000" points="312.5,-160 314.5,-162 "/>
<text text-anchor="start" x="281" y="-150.8" font-family="Helvetica,sans-Serif" font-size="9.00" fill="#000000">api</text>
</a>
</g>
</g>
<!-- src/domain/ -->
<g id="node3" class="node">
<title>src/domain/</title>
<g id="a_node3"><a xlink:href="src/domain/" xlink:title="domain">
<polygon fill="#ffffcc" stroke="#000000" points="429,-104 377,-104 375,-102 375,-86 427,-86 429,-88 429,-104"/>
<polyline fill="none" stroke="#000000" points="427,-102 375,-102 "/>
<polyline fill="none" stroke="#000000" points="427,-102 427,-86 "/>
<polyline fill="none" stroke="#000000" points="427,-102 429,-104 "/>
<text text-anchor="start" x="386.5" y="-92.8" font-family="Helvetica,sans-Serif" font-size="9.00" fill="#000000">domain</text>
</a>
</g>
</g>
<!-- src/api/&#45;&gt;src/domain/ -->
<g id="edge1" class="edge">
<title>src/api/&#45;&gt;src/domain/</title>
<path fill="none" stroke="#000000" stroke-width="2" stroke-opacity="0.200000" d="M297.1419,-143.9056C306.0936,-135.8782 320.0968,-124.3419 334,-117 344.9318,-111.2272 357.6545,-106.6155 369.1181,-103.1355"/>
<polygon fill="#000000" fill-opacity="0.200000" stroke="#000000" stroke-width="2" stroke-opacity="0.200000" points="369.8138,-105.1201 374.982,-101.4187 368.6336,-101.0893 369.8138,-105.1201"/>
</g>
<!-- src/solid&#45;client&#45;authn&#45;chrome&#45;ext/ -->
<g id="node4" class="node">
<title>src/solid&#45;client&#45;authn&#45;chrome&#45;ext/</title>
<g id="a_node4"><a xlink:href="src/solid-client-authn-chrome-ext/" xlink:title="solid&#45;client&#45;authn&#45;chrome&#45;ext">
<polygon fill="#ffffcc" stroke="#000000" points="470,-210 336,-210 334,-208 334,-192 468,-192 470,-194 470,-210"/>
<polyline fill="none" stroke="#000000" points="468,-208 334,-208 "/>
<polyline fill="none" stroke="#000000" points="468,-208 468,-192 "/>
<polyline fill="none" stroke="#000000" points="468,-208 470,-210 "/>
<text text-anchor="start" x="342" y="-198.8" font-family="Helvetica,sans-Serif" font-size="9.00" fill="#000000">solid&#45;client&#45;authn&#45;chrome&#45;ext</text>
</a>
</g>
</g>
<!-- src/api/&#45;&gt;src/solid&#45;client&#45;authn&#45;chrome&#45;ext/ -->
<g id="edge2" class="edge">
<title>src/api/&#45;&gt;src/solid&#45;client&#45;authn&#45;chrome&#45;ext/</title>
<path fill="none" stroke="#000000" stroke-width="2" stroke-opacity="0.200000" d="M306.4305,-162.0986C311.3245,-164.7365 316.4838,-167.781 321,-171 327.403,-175.5638 327.1075,-179.2158 334,-183 338.8741,-185.676 344.1654,-187.9695 349.5714,-189.9319"/>
<polygon fill="#000000" fill-opacity="0.200000" stroke="#000000" stroke-width="2" stroke-opacity="0.200000" points="349.1115,-191.9934 355.4682,-191.9338 350.4618,-188.0164 349.1115,-191.9934"/>
</g>
<!-- src/store/ -->
<g id="node5" class="node">
<title>src/store/</title>
<g id="a_node5"><a xlink:href="src/store/" xlink:title="store">
<polygon fill="#ffffcc" stroke="#000000" points="429,-177 377,-177 375,-175 375,-159 427,-159 429,-161 429,-177"/>
<polyline fill="none" stroke="#000000" points="427,-175 375,-175 "/>
<polyline fill="none" stroke="#000000" points="427,-175 427,-159 "/>
<polyline fill="none" stroke="#000000" points="427,-175 429,-177 "/>
<text text-anchor="start" x="391.5" y="-165.8" font-family="Helvetica,sans-Serif" font-size="9.00" fill="#000000">store</text>
</a>
</g>
</g>
<!-- src/api/&#45;&gt;src/store/ -->
<g id="edge3" class="edge">
<title>src/api/&#45;&gt;src/store/</title>
<path fill="none" stroke="#000000" stroke-width="2" stroke-opacity="0.200000" d="M314.6349,-156.5548C330.773,-158.669 351.3742,-161.3678 368.518,-163.6137"/>
<polygon fill="#000000" fill-opacity="0.200000" stroke="#000000" stroke-width="2" stroke-opacity="0.200000" points="368.4411,-165.7215 374.6631,-164.4187 368.9867,-161.5571 368.4411,-165.7215"/>
</g>
<!-- src/chrome/ -->
<g id="node6" class="node">
<title>src/chrome/</title>
<g id="a_node6"><a xlink:href="src/chrome/" xlink:title="chrome">
<polygon fill="#ffffcc" stroke="#000000" points="429,-141 377,-141 375,-139 375,-123 427,-123 429,-125 429,-141"/>
<polyline fill="none" stroke="#000000" points="427,-139 375,-139 "/>
<polyline fill="none" stroke="#000000" points="427,-139 427,-123 "/>
<polyline fill="none" stroke="#000000" points="427,-139 429,-141 "/>
<text text-anchor="start" x="386.5" y="-129.8" font-family="Helvetica,sans-Serif" font-size="9.00" fill="#000000">chrome</text>
</a>
</g>
</g>
<!-- src/api/&#45;&gt;src/chrome/ -->
<g id="edge4" class="edge">
<title>src/api/&#45;&gt;src/chrome/</title>
<path fill="none" stroke="#000000" stroke-width="2" stroke-opacity="0.200000" d="M314.6349,-148.0233C330.773,-145.0635 351.3742,-141.2851 368.518,-138.1408"/>
<polygon fill="#000000" fill-opacity="0.200000" stroke="#000000" stroke-width="2" stroke-opacity="0.200000" points="369.1404,-140.1618 374.6631,-137.0138 368.3826,-136.0307 369.1404,-140.1618"/>
</g>
<!-- src/solid&#45;client&#45;authn&#45;chrome&#45;ext/&#45;&gt;events -->
<g id="edge31" class="edge">
<title>src/solid&#45;client&#45;authn&#45;chrome&#45;ext/&#45;&gt;events</title>
<path fill="none" stroke="#000000" stroke-dasharray="5,2" stroke-opacity="0.200000" d="M463.8884,-191.9438C468.9955,-189.5792 473.7997,-186.642 478,-183 499.9769,-163.9439 508.2658,-129.2875 511.3088,-109.308"/>
<polygon fill="#000000" fill-opacity="0.200000" stroke="#000000" stroke-opacity="0.200000" points="513.4201,-109.3678 512.1519,-103.1387 509.2588,-108.7991 513.4201,-109.3678"/>
</g>
<!-- src/assets/ -->
<g id="node7" class="node">
<title>src/assets/</title>
<g id="a_node7"><a xlink:href="src/assets/" xlink:title="assets">
<polygon fill="#ffffcc" stroke="#000000" points="235.5,-232 183.5,-232 181.5,-230 181.5,-214 233.5,-214 235.5,-216 235.5,-232"/>
<polyline fill="none" stroke="#000000" points="233.5,-230 181.5,-230 "/>
<polyline fill="none" stroke="#000000" points="233.5,-230 233.5,-214 "/>
<polyline fill="none" stroke="#000000" points="233.5,-230 235.5,-232 "/>
<text text-anchor="start" x="195" y="-220.8" font-family="Helvetica,sans-Serif" font-size="9.00" fill="#000000">assets</text>
</a>
</g>
</g>
<!-- src/background.ts -->
<g id="node8" class="node">
<title>src/background.ts</title>
<g id="a_node8"><a xlink:href="src/background.ts" xlink:title="background.ts">
<path fill="#ddfeff" stroke="#000000" d="M157,-155C157,-155 95,-155 95,-155 92,-155 89,-152 89,-149 89,-149 89,-143 89,-143 89,-140 92,-137 95,-137 95,-137 157,-137 157,-137 160,-137 163,-140 163,-143 163,-143 163,-149 163,-149 163,-152 160,-155 157,-155"/>
<text text-anchor="start" x="97" y="-143.8" font-family="Helvetica,sans-Serif" font-size="9.00" fill="#000000">background.ts</text>
</a>
</g>
</g>
<!-- src/background.ts&#45;&gt;src/domain/ -->
<g id="edge6" class="edge">
<title>src/background.ts&#45;&gt;src/domain/</title>
<path fill="none" stroke="#000000" stroke-width="2" stroke-opacity="0.200000" d="M138.5747,-136.9307C148.3515,-130.2661 162.4821,-121.4559 176,-116 240.3899,-90.012 323.2148,-89.8508 368.5884,-92.2748"/>
<polygon fill="#000000" fill-opacity="0.200000" stroke="#000000" stroke-width="2" stroke-opacity="0.200000" points="368.6248,-94.3804 374.7364,-92.6316 368.8682,-90.1874 368.6248,-94.3804"/>
</g>
<!-- src/background.ts&#45;&gt;src/solid&#45;client&#45;authn&#45;chrome&#45;ext/ -->
<g id="edge8" class="edge">
<title>src/background.ts&#45;&gt;src/solid&#45;client&#45;authn&#45;chrome&#45;ext/</title>
<path fill="none" stroke="#000000" stroke-width="2" stroke-opacity="0.200000" d="M138.0042,-155.2405C147.7019,-162.1831 161.9953,-171.2765 176,-176 224.8538,-192.4773 282.6837,-198.6488 327.6147,-200.7415"/>
<polygon fill="#000000" fill-opacity="0.200000" stroke="#000000" stroke-width="2" stroke-opacity="0.200000" points="327.7821,-202.8506 333.8668,-201.0104 327.9626,-198.6544 327.7821,-202.8506"/>
</g>
<!-- src/background/ -->
<g id="node9" class="node">
<title>src/background/</title>
<g id="a_node9"><a xlink:href="src/background/" xlink:title="background">
<polygon fill="#ffffcc" stroke="#000000" points="241,-170 178,-170 176,-168 176,-152 239,-152 241,-154 241,-170"/>
<polyline fill="none" stroke="#000000" points="239,-168 176,-168 "/>
<polyline fill="none" stroke="#000000" points="239,-168 239,-152 "/>
<polyline fill="none" stroke="#000000" points="239,-168 241,-170 "/>
<text text-anchor="start" x="184" y="-158.8" font-family="Helvetica,sans-Serif" font-size="9.00" fill="#000000">background</text>
</a>
</g>
</g>
<!-- src/background.ts&#45;&gt;src/background/ -->
<g id="edge5" class="edge">
<title>src/background.ts&#45;&gt;src/background/</title>
<path fill="none" stroke="#000000" stroke-width="2" stroke-opacity="0.200000" d="M163.3878,-152.7978C165.4769,-153.1776 167.5793,-153.5599 169.6733,-153.9406"/>
<polygon fill="#000000" fill-opacity="0.200000" stroke="#000000" stroke-width="2" stroke-opacity="0.200000" points="169.6297,-156.067 175.9086,-155.0743 170.3811,-151.9348 169.6297,-156.067"/>
</g>
<!-- src/options/ -->
<g id="node10" class="node">
<title>src/options/</title>
<g id="a_node10"><a xlink:href="src/options/" xlink:title="no&#45;orphans">
<polygon fill="#ccffcc" stroke="#ffa500" points="235.5,-140 183.5,-140 181.5,-138 181.5,-122 233.5,-122 235.5,-124 235.5,-140"/>
<polyline fill="none" stroke="#ffa500" points="233.5,-138 181.5,-138 "/>
<polyline fill="none" stroke="#ffa500" points="233.5,-138 233.5,-122 "/>
<polyline fill="none" stroke="#ffa500" points="233.5,-138 235.5,-140 "/>
<text text-anchor="start" x="193" y="-128.8" font-family="Helvetica,sans-Serif" font-size="9.00" fill="#ffa500">options</text>
</a>
</g>
</g>
<!-- src/background.ts&#45;&gt;src/options/ -->
<g id="edge7" class="edge">
<title>src/background.ts&#45;&gt;src/options/</title>
<path fill="none" stroke="#000000" stroke-width="2" stroke-opacity="0.200000" d="M163.3878,-139.2022C167.3048,-138.49 171.2687,-137.7693 175.1364,-137.0661"/>
<polygon fill="#000000" fill-opacity="0.200000" stroke="#000000" stroke-width="2" stroke-opacity="0.200000" points="175.5871,-139.1187 181.1146,-135.9792 174.8357,-134.9864 175.5871,-139.1187"/>
</g>
<!-- src/background/&#45;&gt;src/api/ -->
<g id="edge10" class="edge">
<title>src/background/&#45;&gt;src/api/</title>
<path fill="none" stroke="#000000" stroke-width="2" stroke-opacity="0.200000" d="M241.0884,-157.6999C245.3148,-157.2719 249.6501,-156.8329 253.8927,-156.4033"/>
<polygon fill="#000000" fill-opacity="0.200000" stroke="#000000" stroke-width="2" stroke-opacity="0.200000" points="254.2608,-158.4768 260.0186,-155.7829 253.8376,-154.2982 254.2608,-158.4768"/>
</g>
<!-- src/background/&#45;&gt;src/domain/ -->
<g id="edge9" class="edge">
<title>src/background/&#45;&gt;src/domain/</title>
<path fill="none" stroke="#000000" stroke-width="2" stroke-opacity="0.200000" d="M229.313,-151.8427C233.2366,-149.9904 237.2755,-147.9963 241,-146 246.9794,-142.7951 247.7978,-140.749 254,-138 291.9541,-121.1778 338.267,-108.9515 368.8647,-101.9295"/>
<polygon fill="#000000" fill-opacity="0.200000" stroke="#000000" stroke-width="2" stroke-opacity="0.200000" points="369.3785,-103.9664 374.7675,-100.5946 368.4521,-99.8698 369.3785,-103.9664"/>
</g>
<!-- src/background/&#45;&gt;src/solid&#45;client&#45;authn&#45;chrome&#45;ext/ -->
<g id="edge11" class="edge">
<title>src/background/&#45;&gt;src/solid&#45;client&#45;authn&#45;chrome&#45;ext/</title>
<path fill="none" stroke="#000000" stroke-width="2" stroke-opacity="0.200000" d="M241.2373,-169.9306C245.5191,-171.0114 249.8566,-172.0629 254,-173 283.2851,-179.6232 316.0722,-185.9377 343.329,-190.8881"/>
<polygon fill="#000000" fill-opacity="0.200000" stroke="#000000" stroke-width="2" stroke-opacity="0.200000" points="343.1368,-192.9873 349.4146,-191.9874 343.8835,-188.8542 343.1368,-192.9873"/>
</g>
<!-- src/background/&#45;&gt;src/store/ -->
<g id="edge12" class="edge">
<title>src/background/&#45;&gt;src/store/</title>
<path fill="none" stroke="#000000" stroke-width="2" stroke-opacity="0.200000" d="M241.2365,-166.6472C245.5184,-167.2061 249.8561,-167.6831 254,-168 293.3457,-171.0089 338.7473,-170.4077 368.7789,-169.4449"/>
<polygon fill="#000000" fill-opacity="0.200000" stroke="#000000" stroke-width="2" stroke-opacity="0.200000" points="369.0212,-171.538 374.9463,-169.2352 368.8783,-167.3404 369.0212,-171.538"/>
</g>
<!-- src/options/&#45;&gt;src/api/ -->
<g id="edge27" class="edge">
<title>src/options/&#45;&gt;src/api/</title>
<path fill="none" stroke="#000000" stroke-width="2" stroke-opacity="0.200000" d="M235.6873,-138.5712C241.6458,-140.2305 248.0195,-142.0054 254.187,-143.723"/>
<polygon fill="#000000" fill-opacity="0.200000" stroke="#000000" stroke-width="2" stroke-opacity="0.200000" points="253.9191,-145.8282 260.2626,-145.4149 255.0459,-141.7822 253.9191,-145.8282"/>
</g>
<!-- src/options/&#45;&gt;src/domain/ -->
<g id="edge30" class="edge">
<title>src/options/&#45;&gt;src/domain/</title>
<path fill="none" stroke="#000000" stroke-width="2" stroke-opacity="0.200000" d="M228.0687,-121.9869C235.9719,-118.6852 245.2727,-115.2179 254,-113 292.6437,-103.1792 338.369,-98.6599 368.6614,-96.6179"/>
<polygon fill="#000000" fill-opacity="0.200000" stroke="#000000" stroke-width="2" stroke-opacity="0.200000" points="369.0299,-98.6986 374.8831,-96.2187 368.7609,-94.5073 369.0299,-98.6986"/>
</g>
<!-- src/options/&#45;&gt;src/solid&#45;client&#45;authn&#45;chrome&#45;ext/ -->
<g id="edge26" class="edge">
<title>src/options/&#45;&gt;src/solid&#45;client&#45;authn&#45;chrome&#45;ext/</title>
<path fill="none" stroke="#000000" stroke-width="2" stroke-opacity="0.200000" d="M232.6209,-140.0772C235.6245,-141.7823 238.51,-143.7503 241,-146 249.4271,-153.6139 244.6726,-161.5203 254,-168 278.8449,-185.2596 291.4478,-173.5326 321,-180 329.0892,-181.7703 346.0365,-186.1283 362.3486,-190.4183"/>
<polygon fill="#000000" fill-opacity="0.200000" stroke="#000000" stroke-width="2" stroke-opacity="0.200000" points="361.9748,-192.4914 368.3119,-191.9908 363.0457,-188.4302 361.9748,-192.4914"/>
</g>
<!-- src/options/&#45;&gt;src/chrome/ -->
<g id="edge28" class="edge">
<title>src/options/&#45;&gt;src/chrome/</title>
<path fill="none" stroke="#000000" stroke-width="2" stroke-opacity="0.200000" d="M235.8134,-131.1412C270.6751,-131.3213 330.9586,-131.6329 368.5403,-131.8271"/>
<polygon fill="#000000" fill-opacity="0.200000" stroke="#000000" stroke-width="2" stroke-opacity="0.200000" points="368.8147,-133.9284 374.8255,-131.8596 368.8365,-129.7285 368.8147,-133.9284"/>
</g>
<!-- src/components/ -->
<g id="node11" class="node">
<title>src/components/</title>
<g id="a_node11"><a xlink:href="src/components/" xlink:title="components">
<polygon fill="#ffffcc" stroke="#000000" points="321,-76 256,-76 254,-74 254,-58 319,-58 321,-60 321,-76"/>
<polyline fill="none" stroke="#000000" points="319,-74 254,-74 "/>
<polyline fill="none" stroke="#000000" points="319,-74 319,-58 "/>
<polyline fill="none" stroke="#000000" points="319,-74 321,-76 "/>
<text text-anchor="start" x="262" y="-64.8" font-family="Helvetica,sans-Serif" font-size="9.00" fill="#000000">components</text>
</a>
</g>
</g>
<!-- src/options/&#45;&gt;src/components/ -->
<g id="edge29" class="edge">
<title>src/options/&#45;&gt;src/components/</title>
<path fill="none" stroke="#000000" stroke-width="2" stroke-opacity="0.200000" d="M219.8188,-121.8304C233.3114,-110.8996 255.9579,-92.5531 271.3022,-80.1223"/>
<polygon fill="#000000" fill-opacity="0.200000" stroke="#000000" stroke-width="2" stroke-opacity="0.200000" points="272.862,-81.5613 276.2022,-76.1526 270.2182,-78.2978 272.862,-81.5613"/>
</g>
<!-- src/content.tsx -->
<g id="node12" class="node">
<title>src/content.tsx</title>
<g id="a_node12"><a xlink:href="src/content.tsx" xlink:title="content.tsx">
<path fill="#bbfeff" stroke="#000000" d="M70,-154C70,-154 22,-154 22,-154 19,-154 16,-151 16,-148 16,-148 16,-142 16,-142 16,-139 19,-136 22,-136 22,-136 70,-136 70,-136 73,-136 76,-139 76,-142 76,-142 76,-148 76,-148 76,-151 73,-154 70,-154"/>
<text text-anchor="start" x="24" y="-142.8" font-family="Helvetica,sans-Serif" font-size="9.00" fill="#000000">content.tsx</text>
</a>
</g>
</g>
<!-- src/content.tsx&#45;&gt;src/domain/ -->
<g id="edge16" class="edge">
<title>src/content.tsx&#45;&gt;src/domain/</title>
<path fill="none" stroke="#000000" stroke-width="2" stroke-opacity="0.200000" d="M50.9352,-135.7687C57.1037,-124.091 67.8419,-103.2949 76,-85 82.42,-70.6029 77.4468,-62.7246 89,-52 118.6721,-24.4559 135.9715,-31.0686 176,-25 239.7164,-15.3402 268.4178,12.2585 321,-25 335.2216,-35.0771 322.3969,-48.9934 334,-62 343.3176,-72.4447 356.6757,-79.9145 369.0898,-85.0753"/>
<polygon fill="#000000" fill-opacity="0.200000" stroke="#000000" stroke-width="2" stroke-opacity="0.200000" points="368.3569,-87.0436 374.7092,-87.2864 369.8948,-83.1353 368.3569,-87.0436"/>
</g>
<!-- src/content.tsx&#45;&gt;src/chrome/ -->
<g id="edge14" class="edge">
<title>src/content.tsx&#45;&gt;src/chrome/</title>
<path fill="none" stroke="#000000" stroke-width="2" stroke-opacity="0.200000" d="M47.9004,-154.2398C52.0161,-171.6859 63.5143,-209.3087 89,-227 144.6405,-265.6236 177.5957,-261.8232 241,-238 285.2263,-221.3826 287.6719,-201.4864 321,-168 327.2233,-161.7472 326.6117,-157.8208 334,-153 344.486,-146.158 357.3255,-141.4422 369.0121,-138.2414"/>
<polygon fill="#000000" fill-opacity="0.200000" stroke="#000000" stroke-width="2" stroke-opacity="0.200000" points="369.7114,-140.23 374.9998,-136.7025 368.6659,-136.1622 369.7114,-140.23"/>
</g>
<!-- src/content.tsx&#45;&gt;src/assets/ -->
<g id="edge13" class="edge">
<title>src/content.tsx&#45;&gt;src/assets/</title>
<path fill="none" stroke="#000000" stroke-width="2" stroke-opacity="0.200000" d="M48.5008,-154.1553C53.352,-169.942 65.6725,-201.9413 89,-216 114.762,-231.5259 149.5912,-231.7336 175.0003,-228.9812"/>
<polygon fill="#000000" fill-opacity="0.200000" stroke="#000000" stroke-width="2" stroke-opacity="0.200000" points="175.5418,-231.0311 181.246,-228.2252 175.0371,-226.8615 175.5418,-231.0311"/>
</g>
<!-- src/content/ -->
<g id="node13" class="node">
<title>src/content/</title>
<g id="a_node13"><a xlink:href="src/content/" xlink:title="content">
<polygon fill="#ffffcc" stroke="#000000" points="153,-76 101,-76 99,-74 99,-58 151,-58 153,-60 153,-76"/>
<polyline fill="none" stroke="#000000" points="151,-74 99,-74 "/>
<polyline fill="none" stroke="#000000" points="151,-74 151,-58 "/>
<polyline fill="none" stroke="#000000" points="151,-74 153,-76 "/>
<text text-anchor="start" x="110.5" y="-64.8" font-family="Helvetica,sans-Serif" font-size="9.00" fill="#000000">content</text>
</a>
</g>
</g>
<!-- src/content.tsx&#45;&gt;src/content/ -->
<g id="edge15" class="edge">
<title>src/content.tsx&#45;&gt;src/content/</title>
<path fill="none" stroke="#000000" stroke-width="2" stroke-opacity="0.200000" d="M55.4912,-135.7461C69.4445,-122.1416 95.592,-96.6478 111.8258,-80.8198"/>
<polygon fill="#000000" fill-opacity="0.200000" stroke="#000000" stroke-width="2" stroke-opacity="0.200000" points="113.6911,-81.9341 116.5211,-76.2419 110.7591,-78.9269 113.6911,-81.9341"/>
</g>
<!-- src/content/&#45;&gt;events -->
<g id="edge21" class="edge">
<title>src/content/&#45;&gt;events</title>
<path fill="none" stroke="#000000" stroke-dasharray="5,2" stroke-opacity="0.200000" d="M133.319,-57.8341C142.1638,-47.5695 158.1047,-31.5187 176,-25 236.5521,-2.9427 257.468,-14.1937 321,-25 383.8828,-35.6958 453.3048,-65.4874 488.9494,-82.2165"/>
<polygon fill="#000000" fill-opacity="0.200000" stroke="#000000" stroke-opacity="0.200000" points="488.4673,-84.3118 494.7887,-84.9825 490.2653,-80.5161 488.4673,-84.3118"/>
</g>
<!-- src/content/&#45;&gt;src/api/ -->
<g id="edge19" class="edge">
<title>src/content/&#45;&gt;src/api/</title>
<path fill="none" stroke="#000000" stroke-width="2" stroke-opacity="0.200000" d="M153.0166,-76.1582C176.9708,-84.8188 212.4771,-99.0012 241,-116 252.5154,-122.8628 264.3206,-132.2911 273.1549,-139.9125"/>
<polygon fill="#000000" fill-opacity="0.200000" stroke="#000000" stroke-width="2" stroke-opacity="0.200000" points="271.8415,-141.5539 277.7364,-143.9329 274.6117,-138.397 271.8415,-141.5539"/>
</g>
<!-- src/content/&#45;&gt;src/domain/ -->
<g id="edge20" class="edge">
<title>src/content/&#45;&gt;src/domain/</title>
<path fill="none" stroke="#000000" stroke-width="2" stroke-opacity="0.200000" d="M139.2987,-57.8264C148.988,-51.7237 162.6942,-44.2528 176,-41 238.601,-25.6964 259.3207,-22.325 321,-41 347.1594,-48.9204 372.5923,-68.3833 387.7774,-81.6449"/>
<polygon fill="#000000" fill-opacity="0.200000" stroke="#000000" stroke-width="2" stroke-opacity="0.200000" points="386.646,-83.4499 392.5205,-85.8789 389.4429,-80.3166 386.646,-83.4499"/>
</g>
<!-- src/content/&#45;&gt;src/chrome/ -->
<g id="edge17" class="edge">
<title>src/content/&#45;&gt;src/chrome/</title>
<path fill="none" stroke="#000000" stroke-width="2" stroke-opacity="0.200000" d="M153.1794,-60.503C200.6024,-49.8672 295.8202,-31.8392 321,-52 341.6217,-68.5113 316.2028,-90.4773 334,-110 342.9078,-119.7714 356.1822,-125.22 368.6444,-128.2513"/>
<polygon fill="#000000" fill-opacity="0.200000" stroke="#000000" stroke-width="2" stroke-opacity="0.200000" points="368.3662,-130.3396 374.6743,-129.5537 369.2529,-126.2343 368.3662,-130.3396"/>
</g>
<!-- src/content/&#45;&gt;src/options/ -->
<g id="edge18" class="edge">
<title>src/content/&#45;&gt;src/options/</title>
<path fill="none" stroke="#000000" stroke-width="2" stroke-opacity="0.200000" d="M136.0023,-76.3179C145.8614,-85.3275 161.5117,-99.1684 176,-110 179.8587,-112.8848 184.1062,-115.8015 188.2217,-118.5057"/>
<polygon fill="#000000" fill-opacity="0.200000" stroke="#000000" stroke-width="2" stroke-opacity="0.200000" points="187.1448,-120.31 193.3249,-121.799 189.4222,-116.781 187.1448,-120.31"/>
</g>
<!-- src/content/&#45;&gt;src/components/ -->
<g id="edge22" class="edge">
<title>src/content/&#45;&gt;src/components/</title>
<path fill="none" stroke="#000000" stroke-width="2" stroke-opacity="0.200000" d="M153.0315,-67C178.9356,-67 218.3377,-67 247.8037,-67"/>
<polygon fill="#000000" fill-opacity="0.200000" stroke="#000000" stroke-width="2" stroke-opacity="0.200000" points="247.9322,-69.1001 253.9321,-67 247.9321,-64.9001 247.9322,-69.1001"/>
</g>
<!-- src/options.tsx -->
<g id="node14" class="node">
<title>src/options.tsx</title>
<g id="a_node14"><a xlink:href="src/options.tsx" xlink:title="options.tsx">
<path fill="#bbfeff" stroke="#000000" d="M150,-210C150,-210 102,-210 102,-210 99,-210 96,-207 96,-204 96,-204 96,-198 96,-198 96,-195 99,-192 102,-192 102,-192 150,-192 150,-192 153,-192 156,-195 156,-198 156,-198 156,-204 156,-204 156,-207 153,-210 150,-210"/>
<text text-anchor="start" x="104" y="-198.8" font-family="Helvetica,sans-Serif" font-size="9.00" fill="#000000">options.tsx</text>
</a>
</g>
</g>
<!-- src/options.tsx&#45;&gt;src/solid&#45;client&#45;authn&#45;chrome&#45;ext/ -->
<g id="edge24" class="edge">
<title>src/options.tsx&#45;&gt;src/solid&#45;client&#45;authn&#45;chrome&#45;ext/</title>
<path fill="none" stroke="#000000" stroke-width="2" stroke-opacity="0.200000" d="M156.2099,-197.1605C180.2505,-195.4114 214.1894,-195.9274 241,-208 248.4505,-211.3549 246.451,-217.8731 254,-221 281.5111,-232.3955 291.4401,-224.5954 321,-221 336.2236,-219.1483 352.7096,-215.4074 366.8098,-211.6566"/>
<polygon fill="#000000" fill-opacity="0.200000" stroke="#000000" stroke-width="2" stroke-opacity="0.200000" points="367.4585,-213.6565 372.6961,-210.054 366.3551,-209.604 367.4585,-213.6565"/>
</g>
<!-- src/options.tsx&#45;&gt;src/assets/ -->
<g id="edge25" class="edge">
<title>src/options.tsx&#45;&gt;src/assets/</title>
<path fill="none" stroke="#000000" stroke-width="2" stroke-opacity="0.200000" d="M156.2515,-209.0671C162.3908,-210.7042 168.8807,-212.4349 175.1211,-214.099"/>
<polygon fill="#000000" fill-opacity="0.200000" stroke="#000000" stroke-width="2" stroke-opacity="0.200000" points="174.9175,-216.218 181.256,-215.7349 175.9997,-212.1598 174.9175,-216.218"/>
</g>
<!-- src/options.tsx&#45;&gt;src/options/ -->
<g id="edge23" class="edge">
<title>src/options.tsx&#45;&gt;src/options/</title>
<path fill="none" stroke="#000000" stroke-width="2" stroke-opacity="0.200000" d="M134.6088,-191.8629C142.1627,-183.8052 153.4082,-171.7122 163,-161 168.8849,-154.4277 168.948,-151.3006 176,-146 177.2605,-145.0525 178.5904,-144.1455 179.9637,-143.2803"/>
<polygon fill="#000000" fill-opacity="0.200000" stroke="#000000" stroke-width="2" stroke-opacity="0.200000" points="181.2586,-144.9586 185.4194,-140.1525 179.1696,-141.3149 181.2586,-144.9586"/>
</g>
<!-- src/types/ -->
<g id="node15" class="node">
<title>src/types/</title>
<g id="a_node15"><a xlink:href="src/types/" xlink:title="types">
<polygon fill="#ccffcc" stroke="#000000" points="73,-79 21,-79 19,-77 19,-61 71,-61 73,-63 73,-79"/>
<polyline fill="none" stroke="#000000" points="71,-77 19,-77 "/>
<polyline fill="none" stroke="#000000" points="71,-77 71,-61 "/>
<polyline fill="none" stroke="#000000" points="71,-77 73,-79 "/>
<text text-anchor="start" x="35" y="-67.8" font-family="Helvetica,sans-Serif" font-size="9.00" fill="#000000">types</text>
</a>
</g>
</g>
</g>
</svg>
