<?xml version="1.0" encoding="UTF-8" standalone="no"?>
<!DOCTYPE svg PUBLIC "-//W3C//DTD SVG 1.1//EN"
 "http://www.w3.org/Graphics/SVG/1.1/DTD/svg11.dtd">
<!-- Generated by graphviz version 2.40.1 (20161225.0304)
 -->
<!-- Title: dependency&#45;cruiser output Pages: 1 -->
<svg width="548pt" height="300pt"
 viewBox="0.00 0.00 548.00 300.41" xmlns="http://www.w3.org/2000/svg" xmlns:xlink="http://www.w3.org/1999/xlink">
<g id="graph0" class="graph" transform="scale(1 1) rotate(0) translate(4 296.4075)">
<title>dependency&#45;cruiser output</title>
<polygon fill="#ffffff" stroke="transparent" points="-4,4 -4,-296.4075 544,-296.4075 544,4 -4,4"/>
<g id="clust1" class="cluster">
<title>cluster_src</title>
<path fill="#ffffff" stroke="#000000" stroke-width="2" d="M20,-20.4075C20,-20.4075 466,-20.4075 466,-20.4075 472,-20.4075 478,-26.4075 478,-32.4075 478,-32.4075 478,-272.4075 478,-272.4075 478,-278.4075 472,-284.4075 466,-284.4075 466,-284.4075 20,-284.4075 20,-284.4075 14,-284.4075 8,-278.4075 8,-272.4075 8,-272.4075 8,-32.4075 8,-32.4075 8,-26.4075 14,-20.4075 20,-20.4075"/>
<text text-anchor="middle" x="243" y="-273.2075" font-family="Helvetica,sans-Serif" font-weight="bold" font-size="9.00" fill="#000000">src</text>
</g>
<!-- events -->
<g id="node1" class="node">
<title>events</title>
<g id="a_node1"><a xlink:title="events">
<path fill="#ffffcc" stroke="#c0c0c0" d="M534,-71.4075C534,-71.4075 492,-71.4075 492,-71.4075 489,-71.4075 486,-68.4075 486,-65.4075 486,-65.4075 486,-59.4075 486,-59.4075 486,-56.4075 489,-53.4075 492,-53.4075 492,-53.4075 534,-53.4075 534,-53.4075 537,-53.4075 540,-56.4075 540,-59.4075 540,-59.4075 540,-65.4075 540,-65.4075 540,-68.4075 537,-71.4075 534,-71.4075"/>
<text text-anchor="middle" x="513" y="-60.2075" font-family="Helvetica,sans-Serif" font-size="9.00" fill="#c0c0c0">events</text>
</a>
</g>
</g>
<!-- src/api/ -->
<g id="node2" class="node">
<title>src/api/</title>
<g id="a_node2"><a xlink:href="src/api/" xlink:title="api">
<polygon fill="#ffffcc" stroke="#000000" points="314.5,-174.4075 262.5,-174.4075 260.5,-172.4075 260.5,-156.4075 312.5,-156.4075 314.5,-158.4075 314.5,-174.4075"/>
<polyline fill="none" stroke="#000000" points="312.5,-172.4075 260.5,-172.4075 "/>
<polyline fill="none" stroke="#000000" points="312.5,-172.4075 312.5,-156.4075 "/>
<polyline fill="none" stroke="#000000" points="312.5,-172.4075 314.5,-174.4075 "/>
<text text-anchor="start" x="281" y="-163.2075" font-family="Helvetica,sans-Serif" font-size="9.00" fill="#000000">api</text>
</a>
</g>
</g>
<!-- src/chrome/ -->
<g id="node3" class="node">
<title>src/chrome/</title>
<g id="a_node3"><a xlink:href="src/chrome/" xlink:title="chrome">
<polygon fill="#ffffcc" stroke="#000000" points="429,-73.4075 377,-73.4075 375,-71.4075 375,-55.4075 427,-55.4075 429,-57.4075 429,-73.4075"/>
<polyline fill="none" stroke="#000000" points="427,-71.4075 375,-71.4075 "/>
<polyline fill="none" stroke="#000000" points="427,-71.4075 427,-55.4075 "/>
<polyline fill="none" stroke="#000000" points="427,-71.4075 429,-73.4075 "/>
<text text-anchor="start" x="386.5" y="-62.2075" font-family="Helvetica,sans-Serif" font-size="9.00" fill="#000000">chrome</text>
</a>
</g>
</g>
<!-- src/api/&#45;&gt;src/chrome/ -->
<g id="edge1" class="edge">
<title>src/api/&#45;&gt;src/chrome/</title>
<path fill="none" stroke="#000000" stroke-width="2" stroke-opacity="0.200000" d="M294.9021,-156.2449C303.6871,-145.6289 319.0371,-127.8729 334,-114.4075 349.4815,-100.4754 368.7334,-86.601 382.7968,-77.0148"/>
<polygon fill="#000000" fill-opacity="0.200000" stroke="#000000" stroke-width="2" stroke-opacity="0.200000" points="384.3037,-78.5313 388.102,-73.4339 381.954,-75.0501 384.3037,-78.5313"/>
</g>
<!-- src/solid&#45;client&#45;authn&#45;chrome&#45;ext/ -->
<g id="node4" class="node">
<title>src/solid&#45;client&#45;authn&#45;chrome&#45;ext/</title>
<g id="a_node4"><a xlink:href="src/solid-client-authn-chrome-ext/" xlink:title="solid&#45;client&#45;authn&#45;chrome&#45;ext">
<polygon fill="#ffffcc" stroke="#000000" points="470,-138.4075 336,-138.4075 334,-136.4075 334,-120.4075 468,-120.4075 470,-122.4075 470,-138.4075"/>
<polyline fill="none" stroke="#000000" points="468,-136.4075 334,-136.4075 "/>
<polyline fill="none" stroke="#000000" points="468,-136.4075 468,-120.4075 "/>
<polyline fill="none" stroke="#000000" points="468,-136.4075 470,-138.4075 "/>
<text text-anchor="start" x="342" y="-127.2075" font-family="Helvetica,sans-Serif" font-size="9.00" fill="#000000">solid&#45;client&#45;authn&#45;chrome&#45;ext</text>
</a>
</g>
</g>
<!-- src/api/&#45;&gt;src/solid&#45;client&#45;authn&#45;chrome&#45;ext/ -->
<g id="edge2" class="edge">
<title>src/api/&#45;&gt;src/solid&#45;client&#45;authn&#45;chrome&#45;ext/</title>
<path fill="none" stroke="#000000" stroke-width="2" stroke-opacity="0.200000" d="M314.6349,-156.876C330.3018,-151.9502 350.175,-145.7018 367.0077,-140.4094"/>
<polygon fill="#000000" fill-opacity="0.200000" stroke="#000000" stroke-width="2" stroke-opacity="0.200000" points="367.9644,-142.3101 373.0583,-138.5071 366.7046,-138.3035 367.9644,-142.3101"/>
</g>
<!-- src/domain/ -->
<g id="node5" class="node">
<title>src/domain/</title>
<g id="a_node5"><a xlink:href="src/domain/" xlink:title="domain">
<polygon fill="#ffffcc" stroke="#000000" points="429,-213.4075 377,-213.4075 375,-211.4075 375,-195.4075 427,-195.4075 429,-197.4075 429,-213.4075"/>
<polyline fill="none" stroke="#000000" points="427,-211.4075 375,-211.4075 "/>
<polyline fill="none" stroke="#000000" points="427,-211.4075 427,-195.4075 "/>
<polyline fill="none" stroke="#000000" points="427,-211.4075 429,-213.4075 "/>
<text text-anchor="start" x="386.5" y="-202.2075" font-family="Helvetica,sans-Serif" font-size="9.00" fill="#000000">domain</text>
</a>
</g>
</g>
<!-- src/api/&#45;&gt;src/domain/ -->
<g id="edge3" class="edge">
<title>src/api/&#45;&gt;src/domain/</title>
<path fill="none" stroke="#000000" stroke-width="2" stroke-opacity="0.200000" d="M314.0564,-174.4529C330.5568,-180.0731 351.8867,-187.3383 369.4076,-193.3062"/>
<polygon fill="#000000" fill-opacity="0.200000" stroke="#000000" stroke-width="2" stroke-opacity="0.200000" points="368.8343,-195.3293 375.191,-195.2761 370.1885,-191.3536 368.8343,-195.3293"/>
</g>
<!-- src/store/ -->
<g id="node6" class="node">
<title>src/store/</title>
<g id="a_node6"><a xlink:href="src/store/" xlink:title="store">
<polygon fill="#ffffcc" stroke="#000000" points="429,-249.4075 377,-249.4075 375,-247.4075 375,-231.4075 427,-231.4075 429,-233.4075 429,-249.4075"/>
<polyline fill="none" stroke="#000000" points="427,-247.4075 375,-247.4075 "/>
<polyline fill="none" stroke="#000000" points="427,-247.4075 427,-231.4075 "/>
<polyline fill="none" stroke="#000000" points="427,-247.4075 429,-249.4075 "/>
<text text-anchor="start" x="391.5" y="-238.2075" font-family="Helvetica,sans-Serif" font-size="9.00" fill="#000000">store</text>
</a>
</g>
</g>
<!-- src/api/&#45;&gt;src/store/ -->
<g id="edge4" class="edge">
<title>src/api/&#45;&gt;src/store/</title>
<path fill="none" stroke="#000000" stroke-width="2" stroke-opacity="0.200000" d="M292.9479,-174.4375C300.6359,-186.4293 315.783,-207.4799 334,-219.4075 344.4751,-226.2661 357.3123,-230.9854 369.0002,-234.1843"/>
<polygon fill="#000000" fill-opacity="0.200000" stroke="#000000" stroke-width="2" stroke-opacity="0.200000" points="368.655,-236.2638 374.9888,-235.7219 369.6995,-232.1957 368.655,-236.2638"/>
</g>
<!-- src/solid&#45;client&#45;authn&#45;chrome&#45;ext/&#45;&gt;events -->
<g id="edge31" class="edge">
<title>src/solid&#45;client&#45;authn&#45;chrome&#45;ext/&#45;&gt;events</title>
<path fill="none" stroke="#000000" stroke-dasharray="5,2" stroke-opacity="0.200000" d="M416.97,-120.3716C436.5,-108.5832 470.7526,-87.9082 492.633,-74.7011"/>
<polygon fill="#000000" fill-opacity="0.200000" stroke="#000000" stroke-opacity="0.200000" points="493.8611,-76.4127 497.9127,-71.5142 491.6907,-72.817 493.8611,-76.4127"/>
</g>
<!-- src/assets/ -->
<g id="node7" class="node">
<title>src/assets/</title>
<g id="a_node7"><a xlink:href="src/assets/" xlink:title="assets">
<polygon fill="#ffffcc" stroke="#000000" points="235.5,-60.4075 183.5,-60.4075 181.5,-58.4075 181.5,-42.4075 233.5,-42.4075 235.5,-44.4075 235.5,-60.4075"/>
<polyline fill="none" stroke="#000000" points="233.5,-58.4075 181.5,-58.4075 "/>
<polyline fill="none" stroke="#000000" points="233.5,-58.4075 233.5,-42.4075 "/>
<polyline fill="none" stroke="#000000" points="233.5,-58.4075 235.5,-60.4075 "/>
<text text-anchor="start" x="195" y="-49.2075" font-family="Helvetica,sans-Serif" font-size="9.00" fill="#000000">assets</text>
</a>
</g>
</g>
<!-- src/background.ts -->
<g id="node8" class="node">
<title>src/background.ts</title>
<g id="a_node8"><a xlink:href="src/background.ts" xlink:title="background.ts">
<path fill="#ddfeff" stroke="#000000" d="M157,-192.4075C157,-192.4075 95,-192.4075 95,-192.4075 92,-192.4075 89,-189.4075 89,-186.4075 89,-186.4075 89,-180.4075 89,-180.4075 89,-177.4075 92,-174.4075 95,-174.4075 95,-174.4075 157,-174.4075 157,-174.4075 160,-174.4075 163,-177.4075 163,-180.4075 163,-180.4075 163,-186.4075 163,-186.4075 163,-189.4075 160,-192.4075 157,-192.4075"/>
<text text-anchor="start" x="97" y="-181.2075" font-family="Helvetica,sans-Serif" font-size="9.00" fill="#000000">background.ts</text>
</a>
</g>
</g>
<!-- src/background.ts&#45;&gt;src/solid&#45;client&#45;authn&#45;chrome&#45;ext/ -->
<g id="edge8" class="edge">
<title>src/background.ts&#45;&gt;src/solid&#45;client&#45;authn&#45;chrome&#45;ext/</title>
<path fill="none" stroke="#000000" stroke-width="2" stroke-opacity="0.200000" d="M157.0759,-174.3596C182.8596,-167.1034 220.5776,-157.0655 254,-150.4075 277.9326,-145.6399 304.2514,-141.5415 327.9747,-138.2638"/>
<polygon fill="#000000" fill-opacity="0.200000" stroke="#000000" stroke-width="2" stroke-opacity="0.200000" points="328.2864,-140.3408 333.947,-137.4483 327.7181,-136.1794 328.2864,-140.3408"/>
</g>
<!-- src/background.ts&#45;&gt;src/domain/ -->
<g id="edge6" class="edge">
<title>src/background.ts&#45;&gt;src/domain/</title>
<path fill="none" stroke="#000000" stroke-width="2" stroke-opacity="0.200000" d="M134.1161,-192.6231C143.2085,-202.182 158.9267,-216.5363 176,-222.4075 241.544,-244.9468 323.8511,-227.9612 368.847,-215.1617"/>
<polygon fill="#000000" fill-opacity="0.200000" stroke="#000000" stroke-width="2" stroke-opacity="0.200000" points="369.5018,-217.1583 374.6772,-213.4669 368.3294,-213.1253 369.5018,-217.1583"/>
</g>
<!-- src/background/ -->
<g id="node9" class="node">
<title>src/background/</title>
<g id="a_node9"><a xlink:href="src/background/" xlink:title="background">
<polygon fill="#ffffcc" stroke="#000000" points="241,-216.4075 178,-216.4075 176,-214.4075 176,-198.4075 239,-198.4075 241,-200.4075 241,-216.4075"/>
<polyline fill="none" stroke="#000000" points="239,-214.4075 176,-214.4075 "/>
<polyline fill="none" stroke="#000000" points="239,-214.4075 239,-198.4075 "/>
<polyline fill="none" stroke="#000000" points="239,-214.4075 241,-216.4075 "/>
<text text-anchor="start" x="184" y="-205.2075" font-family="Helvetica,sans-Serif" font-size="9.00" fill="#000000">background</text>
</a>
</g>
</g>
<!-- src/background.ts&#45;&gt;src/background/ -->
<g id="edge5" class="edge">
<title>src/background.ts&#45;&gt;src/background/</title>
<path fill="none" stroke="#000000" stroke-width="2" stroke-opacity="0.200000" d="M157.1897,-192.4809C161.8739,-193.8436 166.7424,-195.2599 171.5331,-196.6535"/>
<polygon fill="#000000" fill-opacity="0.200000" stroke="#000000" stroke-width="2" stroke-opacity="0.200000" points="171.192,-198.7413 177.5398,-198.4009 172.3653,-194.7085 171.192,-198.7413"/>
</g>
<!-- src/options/ -->
<g id="node10" class="node">
<title>src/options/</title>
<g id="a_node10"><a xlink:href="src/options/" xlink:title="no&#45;orphans">
<polygon fill="#ccffcc" stroke="#ffa500" points="235.5,-132.4075 183.5,-132.4075 181.5,-130.4075 181.5,-114.4075 233.5,-114.4075 235.5,-116.4075 235.5,-132.4075"/>
<polyline fill="none" stroke="#ffa500" points="233.5,-130.4075 181.5,-130.4075 "/>
<polyline fill="none" stroke="#ffa500" points="233.5,-130.4075 233.5,-114.4075 "/>
<polyline fill="none" stroke="#ffa500" points="233.5,-130.4075 235.5,-132.4075 "/>
<text text-anchor="start" x="193" y="-121.2075" font-family="Helvetica,sans-Serif" font-size="9.00" fill="#ffa500">options</text>
</a>
</g>
</g>
<!-- src/background.ts&#45;&gt;src/options/ -->
<g id="edge7" class="edge">
<title>src/background.ts&#45;&gt;src/options/</title>
<path fill="none" stroke="#000000" stroke-width="2" stroke-opacity="0.200000" d="M138.53,-174.2948C152.5424,-164.1039 175.3325,-147.5293 191.0762,-136.0793"/>
<polygon fill="#000000" fill-opacity="0.200000" stroke="#000000" stroke-width="2" stroke-opacity="0.200000" points="192.5052,-137.6368 196.1224,-132.4094 190.0348,-134.2401 192.5052,-137.6368"/>
</g>
<!-- src/background/&#45;&gt;src/api/ -->
<g id="edge10" class="edge">
<title>src/background/&#45;&gt;src/api/</title>
<path fill="none" stroke="#000000" stroke-width="2" stroke-opacity="0.200000" d="M225.6418,-198.2941C237.1329,-192.185 252.3881,-184.0746 264.8735,-177.4368"/>
<polygon fill="#000000" fill-opacity="0.200000" stroke="#000000" stroke-width="2" stroke-opacity="0.200000" points="266.0796,-179.174 270.3916,-174.5031 264.108,-175.4655 266.0796,-179.174"/>
</g>
<!-- src/background/&#45;&gt;src/solid&#45;client&#45;authn&#45;chrome&#45;ext/ -->
<g id="edge11" class="edge">
<title>src/background/&#45;&gt;src/solid&#45;client&#45;authn&#45;chrome&#45;ext/</title>
<path fill="none" stroke="#000000" stroke-width="2" stroke-opacity="0.200000" d="M241.3941,-202.436C264.3152,-198.2757 295.2708,-191.2472 321,-180.4075 344.8028,-170.3794 369.5608,-153.7283 385.3398,-142.1932"/>
<polygon fill="#000000" fill-opacity="0.200000" stroke="#000000" stroke-width="2" stroke-opacity="0.200000" points="386.7614,-143.7535 390.3323,-138.4944 384.2611,-140.3788 386.7614,-143.7535"/>
</g>
<!-- src/background/&#45;&gt;src/domain/ -->
<g id="edge9" class="edge">
<title>src/background/&#45;&gt;src/domain/</title>
<path fill="none" stroke="#000000" stroke-width="2" stroke-opacity="0.200000" d="M241.3246,-206.8986C276.7506,-206.3494 332.8737,-205.4792 368.5435,-204.9262"/>
<polygon fill="#000000" fill-opacity="0.200000" stroke="#000000" stroke-width="2" stroke-opacity="0.200000" points="368.9895,-207.0196 374.9562,-204.8268 368.9244,-202.8201 368.9895,-207.0196"/>
</g>
<!-- src/background/&#45;&gt;src/store/ -->
<g id="edge12" class="edge">
<title>src/background/&#45;&gt;src/store/</title>
<path fill="none" stroke="#000000" stroke-width="2" stroke-opacity="0.200000" d="M241.3246,-213.0055C276.8976,-219.0722 333.3398,-228.698 368.9865,-234.7773"/>
<polygon fill="#000000" fill-opacity="0.200000" stroke="#000000" stroke-width="2" stroke-opacity="0.200000" points="368.6886,-236.8567 374.9562,-235.7954 369.3947,-232.7165 368.6886,-236.8567"/>
</g>
<!-- src/options/&#45;&gt;src/api/ -->
<g id="edge27" class="edge">
<title>src/options/&#45;&gt;src/api/</title>
<path fill="none" stroke="#000000" stroke-width="2" stroke-opacity="0.200000" d="M225.6418,-132.5209C237.1329,-138.6301 252.3881,-146.7404 264.8735,-153.3782"/>
<polygon fill="#000000" fill-opacity="0.200000" stroke="#000000" stroke-width="2" stroke-opacity="0.200000" points="264.108,-155.3495 270.3916,-156.3119 266.0796,-151.6411 264.108,-155.3495"/>
</g>
<!-- src/options/&#45;&gt;src/chrome/ -->
<g id="edge28" class="edge">
<title>src/options/&#45;&gt;src/chrome/</title>
<path fill="none" stroke="#000000" stroke-width="2" stroke-opacity="0.200000" d="M235.5408,-117.2596C258.4667,-111.8516 292.1281,-103.4493 321,-94.4075 338.6871,-88.8684 358.1758,-81.6852 373.6039,-75.7365"/>
<polygon fill="#000000" fill-opacity="0.200000" stroke="#000000" stroke-width="2" stroke-opacity="0.200000" points="374.6865,-77.569 379.5195,-73.4395 373.1662,-73.6538 374.6865,-77.569"/>
</g>
<!-- src/options/&#45;&gt;src/solid&#45;client&#45;authn&#45;chrome&#45;ext/ -->
<g id="edge26" class="edge">
<title>src/options/&#45;&gt;src/solid&#45;client&#45;authn&#45;chrome&#45;ext/</title>
<path fill="none" stroke="#000000" stroke-width="2" stroke-opacity="0.200000" d="M235.7857,-123.6518C258.5722,-123.9136 291.9102,-124.4309 321,-125.4075 323.2427,-125.4828 325.5201,-125.5642 327.8191,-125.6507"/>
<polygon fill="#000000" fill-opacity="0.200000" stroke="#000000" stroke-width="2" stroke-opacity="0.200000" points="327.8689,-127.7542 333.9466,-125.8908 328.0334,-123.5574 327.8689,-127.7542"/>
</g>
<!-- src/options/&#45;&gt;src/domain/ -->
<g id="edge30" class="edge">
<title>src/options/&#45;&gt;src/domain/</title>
<path fill="none" stroke="#000000" stroke-width="2" stroke-opacity="0.200000" d="M235.7246,-127.1816C259.0593,-131.056 293.2055,-138.2685 321,-150.4075 345.4909,-161.1037 370.6303,-179.1886 386.2733,-191.4537"/>
<polygon fill="#000000" fill-opacity="0.200000" stroke="#000000" stroke-width="2" stroke-opacity="0.200000" points="385.1962,-193.2803 391.1995,-195.371 387.8103,-189.9929 385.1962,-193.2803"/>
</g>
<!-- src/components/ -->
<g id="node11" class="node">
<title>src/components/</title>
<g id="a_node11"><a xlink:href="src/components/" xlink:title="components">
<polygon fill="#ffffcc" stroke="#000000" points="321,-88.4075 256,-88.4075 254,-86.4075 254,-70.4075 319,-70.4075 321,-72.4075 321,-88.4075"/>
<polyline fill="none" stroke="#000000" points="319,-86.4075 254,-86.4075 "/>
<polyline fill="none" stroke="#000000" points="319,-86.4075 319,-70.4075 "/>
<polyline fill="none" stroke="#000000" points="319,-86.4075 321,-88.4075 "/>
<text text-anchor="start" x="262" y="-77.2075" font-family="Helvetica,sans-Serif" font-size="9.00" fill="#000000">components</text>
</a>
</g>
</g>
<!-- src/options/&#45;&gt;src/components/ -->
<g id="edge29" class="edge">
<title>src/options/&#45;&gt;src/components/</title>
<path fill="none" stroke="#000000" stroke-width="2" stroke-opacity="0.200000" d="M225.1164,-114.3961C230.2379,-111.5673 235.8763,-108.4008 241,-105.4075 246.8578,-101.9854 248.1205,-100.7923 254,-97.4075 257.3795,-95.462 260.9828,-93.456 264.5267,-91.5211"/>
<polygon fill="#000000" fill-opacity="0.200000" stroke="#000000" stroke-width="2" stroke-opacity="0.200000" points="265.7273,-93.2593 270.0061,-88.5579 263.7294,-89.5649 265.7273,-93.2593"/>
</g>
<!-- src/content.tsx -->
<g id="node12" class="node">
<title>src/content.tsx</title>
<g id="a_node12"><a xlink:href="src/content.tsx" xlink:title="content.tsx">
<path fill="#bbfeff" stroke="#000000" d="M70,-113.4075C70,-113.4075 22,-113.4075 22,-113.4075 19,-113.4075 16,-110.4075 16,-107.4075 16,-107.4075 16,-101.4075 16,-101.4075 16,-98.4075 19,-95.4075 22,-95.4075 22,-95.4075 70,-95.4075 70,-95.4075 73,-95.4075 76,-98.4075 76,-101.4075 76,-101.4075 76,-107.4075 76,-107.4075 76,-110.4075 73,-113.4075 70,-113.4075"/>
<text text-anchor="start" x="24" y="-102.2075" font-family="Helvetica,sans-Serif" font-size="9.00" fill="#000000">content.tsx</text>
</a>
</g>
</g>
<!-- src/content.tsx&#45;&gt;src/chrome/ -->
<g id="edge14" class="edge">
<title>src/content.tsx&#45;&gt;src/chrome/</title>
<path fill="none" stroke="#000000" stroke-width="2" stroke-opacity="0.200000" d="M58.5459,-95.1807C64.4216,-90.3813 71.1726,-84.1204 76,-77.4075 84.4839,-65.6099 77.3778,-56.1301 89,-47.4075 176.1064,17.9669 318.3053,-29.2602 376.227,-52.9893"/>
<polygon fill="#000000" fill-opacity="0.200000" stroke="#000000" stroke-width="2" stroke-opacity="0.200000" points="375.5444,-54.9798 381.8908,-55.3455 377.1577,-51.1019 375.5444,-54.9798"/>
</g>
<!-- src/content.tsx&#45;&gt;src/domain/ -->
<g id="edge16" class="edge">
<title>src/content.tsx&#45;&gt;src/domain/</title>
<path fill="none" stroke="#000000" stroke-width="2" stroke-opacity="0.200000" d="M47.7463,-113.5176C51.7545,-132.0417 63.3154,-174.3762 89,-198.4075 119.198,-226.6617 135.4217,-223.4313 176,-231.4075 239.2404,-243.8383 258.9856,-250.9602 321,-233.4075 327.5277,-231.5599 327.821,-228.2084 334,-225.4075 345.1163,-220.3685 357.7785,-216.0915 369.1384,-212.7387"/>
<polygon fill="#000000" fill-opacity="0.200000" stroke="#000000" stroke-width="2" stroke-opacity="0.200000" points="369.7582,-214.7457 374.9451,-211.0706 368.5985,-210.709 369.7582,-214.7457"/>
</g>
<!-- src/content.tsx&#45;&gt;src/assets/ -->
<g id="edge13" class="edge">
<title>src/content.tsx&#45;&gt;src/assets/</title>
<path fill="none" stroke="#000000" stroke-width="2" stroke-opacity="0.200000" d="M56.1052,-95.3461C68.5025,-84.2483 88.0126,-66.8535 89,-66.4075 116.228,-54.1072 150.2907,-50.8649 175.0754,-50.401"/>
<polygon fill="#000000" fill-opacity="0.200000" stroke="#000000" stroke-width="2" stroke-opacity="0.200000" points="175.1886,-52.5001 181.1669,-50.3391 175.1459,-48.3003 175.1886,-52.5001"/>
</g>
<!-- src/content/ -->
<g id="node13" class="node">
<title>src/content/</title>
<g id="a_node13"><a xlink:href="src/content/" xlink:title="content">
<polygon fill="#ffffcc" stroke="#000000" points="153,-120.4075 101,-120.4075 99,-118.4075 99,-102.4075 151,-102.4075 153,-104.4075 153,-120.4075"/>
<polyline fill="none" stroke="#000000" points="151,-118.4075 99,-118.4075 "/>
<polyline fill="none" stroke="#000000" points="151,-118.4075 151,-102.4075 "/>
<polyline fill="none" stroke="#000000" points="151,-118.4075 153,-120.4075 "/>
<text text-anchor="start" x="110.5" y="-109.2075" font-family="Helvetica,sans-Serif" font-size="9.00" fill="#000000">content</text>
</a>
</g>
</g>
<!-- src/content.tsx&#45;&gt;src/content/ -->
<g id="edge15" class="edge">
<title>src/content.tsx&#45;&gt;src/content/</title>
<path fill="none" stroke="#000000" stroke-width="2" stroke-opacity="0.200000" d="M76.2446,-107.0539C81.5874,-107.5214 87.1776,-108.0105 92.6012,-108.4851"/>
<polygon fill="#000000" fill-opacity="0.200000" stroke="#000000" stroke-width="2" stroke-opacity="0.200000" points="92.7066,-110.6023 98.8668,-109.0334 93.0727,-106.4183 92.7066,-110.6023"/>
</g>
<!-- src/content/&#45;&gt;events -->
<g id="edge21" class="edge">
<title>src/content/&#45;&gt;events</title>
<path fill="none" stroke="#000000" stroke-dasharray="5,2" stroke-opacity="0.200000" d="M153.1466,-104.0892C156.8674,-102.1042 160.3224,-99.5897 163,-96.4075 180.5674,-75.5298 154.7616,-53.5371 176,-36.4075 269.5859,39.0729 429.239,-22.9235 489.257,-50.6867"/>
<polygon fill="#000000" fill-opacity="0.200000" stroke="#000000" stroke-opacity="0.200000" points="488.4245,-52.6157 494.7486,-53.2609 490.2072,-48.8128 488.4245,-52.6157"/>
</g>
<!-- src/content/&#45;&gt;src/api/ -->
<g id="edge19" class="edge">
<title>src/content/&#45;&gt;src/api/</title>
<path fill="none" stroke="#000000" stroke-width="2" stroke-opacity="0.200000" d="M140.4021,-120.4754C150.1451,-126.2816 163.4735,-133.6014 176,-138.4075 201.496,-148.1897 231.6653,-155.2385 254.1884,-159.6758"/>
<polygon fill="#000000" fill-opacity="0.200000" stroke="#000000" stroke-width="2" stroke-opacity="0.200000" points="254.0392,-161.7856 260.3281,-160.8582 254.8335,-157.6613 254.0392,-161.7856"/>
</g>
<!-- src/content/&#45;&gt;src/chrome/ -->
<g id="edge17" class="edge">
<title>src/content/&#45;&gt;src/chrome/</title>
<path fill="none" stroke="#000000" stroke-width="2" stroke-opacity="0.200000" d="M150.1446,-102.2975C154.4815,-100.4702 158.918,-98.4728 163,-96.4075 169.0534,-93.3447 169.8196,-91.2052 176,-88.4075 209.0428,-73.4498 218.1326,-69.8008 254,-64.4075 293.0219,-58.5399 338.4882,-59.7123 368.6234,-61.5897"/>
<polygon fill="#000000" fill-opacity="0.200000" stroke="#000000" stroke-width="2" stroke-opacity="0.200000" points="368.6879,-63.6985 374.8133,-61.9988 368.9649,-59.5076 368.6879,-63.6985"/>
</g>
<!-- src/content/&#45;&gt;src/domain/ -->
<g id="edge20" class="edge">
<title>src/content/&#45;&gt;src/domain/</title>
<path fill="none" stroke="#000000" stroke-width="2" stroke-opacity="0.200000" d="M135.653,-120.6994C145.253,-129.5432 160.7171,-142.7512 176,-151.4075 238.126,-186.5959 322.504,-198.4635 368.5796,-202.4357"/>
<polygon fill="#000000" fill-opacity="0.200000" stroke="#000000" stroke-width="2" stroke-opacity="0.200000" points="368.6695,-204.55 374.8205,-202.9454 369.0114,-200.3639 368.6695,-204.55"/>
</g>
<!-- src/content/&#45;&gt;src/options/ -->
<g id="edge18" class="edge">
<title>src/content/&#45;&gt;src/options/</title>
<path fill="none" stroke="#000000" stroke-width="2" stroke-opacity="0.200000" d="M153.0136,-115.3368C160.136,-116.3727 167.9038,-117.5026 175.3108,-118.58"/>
<polygon fill="#000000" fill-opacity="0.200000" stroke="#000000" stroke-width="2" stroke-opacity="0.200000" points="175.1859,-120.6838 181.4257,-119.4694 175.7905,-116.5276 175.1859,-120.6838"/>
</g>
<!-- src/content/&#45;&gt;src/components/ -->
<g id="edge22" class="edge">
<title>src/content/&#45;&gt;src/components/</title>
<path fill="none" stroke="#000000" stroke-width="2" stroke-opacity="0.200000" d="M153.0723,-107.329C176.452,-103.6567 211.0874,-97.8574 241,-91.4075 243.2082,-90.9314 245.4698,-90.4216 247.7488,-89.8907"/>
<polygon fill="#000000" fill-opacity="0.200000" stroke="#000000" stroke-width="2" stroke-opacity="0.200000" points="248.4503,-91.8822 253.7973,-88.4443 247.4734,-87.7974 248.4503,-91.8822"/>
</g>
<!-- src/options.tsx -->
<g id="node14" class="node">
<title>src/options.tsx</title>
<g id="a_node14"><a xlink:href="src/options.tsx" xlink:title="options.tsx">
<path fill="#bbfeff" stroke="#000000" d="M150,-90.4075C150,-90.4075 102,-90.4075 102,-90.4075 99,-90.4075 96,-87.4075 96,-84.4075 96,-84.4075 96,-78.4075 96,-78.4075 96,-75.4075 99,-72.4075 102,-72.4075 102,-72.4075 150,-72.4075 150,-72.4075 153,-72.4075 156,-75.4075 156,-78.4075 156,-78.4075 156,-84.4075 156,-84.4075 156,-87.4075 153,-90.4075 150,-90.4075"/>
<text text-anchor="start" x="104" y="-79.2075" font-family="Helvetica,sans-Serif" font-size="9.00" fill="#000000">options.tsx</text>
</a>
</g>
</g>
<!-- src/options.tsx&#45;&gt;src/solid&#45;client&#45;authn&#45;chrome&#45;ext/ -->
<g id="edge24" class="edge">
<title>src/options.tsx&#45;&gt;src/solid&#45;client&#45;authn&#45;chrome&#45;ext/</title>
<path fill="none" stroke="#000000" stroke-width="2" stroke-opacity="0.200000" d="M156.2919,-77.649C179.4963,-74.7233 212.2949,-70.4871 241,-66.4075 246.7876,-65.585 248.1713,-64.8533 254,-64.4075 283.6911,-62.1369 293.9126,-52.0386 321,-64.4075 329.0249,-68.0719 327.5173,-73.4241 334,-79.4075 349.2097,-93.4457 368.337,-107.2144 382.4283,-116.7372"/>
<polygon fill="#000000" fill-opacity="0.200000" stroke="#000000" stroke-width="2" stroke-opacity="0.200000" points="381.5974,-118.7077 387.7527,-120.2957 383.9312,-115.2157 381.5974,-118.7077"/>
</g>
<!-- src/options.tsx&#45;&gt;src/assets/ -->
<g id="edge25" class="edge">
<title>src/options.tsx&#45;&gt;src/assets/</title>
<path fill="none" stroke="#000000" stroke-width="2" stroke-opacity="0.200000" d="M150.7527,-72.4065C159.2404,-69.3201 168.8437,-65.828 177.748,-62.5901"/>
<polygon fill="#000000" fill-opacity="0.200000" stroke="#000000" stroke-width="2" stroke-opacity="0.200000" points="178.5585,-64.5299 183.4796,-60.5058 177.1232,-60.5828 178.5585,-64.5299"/>
</g>
<!-- src/options.tsx&#45;&gt;src/options/ -->
<g id="edge23" class="edge">
<title>src/options.tsx&#45;&gt;src/options/</title>
<path fill="none" stroke="#000000" stroke-width="2" stroke-opacity="0.200000" d="M150.1174,-90.572C154.457,-92.3936 158.9015,-94.3751 163,-96.4075 171.8258,-100.7842 181.2424,-106.2326 189.2059,-111.0865"/>
<polygon fill="#000000" fill-opacity="0.200000" stroke="#000000" stroke-width="2" stroke-opacity="0.200000" points="188.2531,-112.9663 194.4617,-114.3315 190.4596,-109.3925 188.2531,-112.9663"/>
</g>
<!-- src/types/ -->
<g id="node15" class="node">
<title>src/types/</title>
<g id="a_node15"><a xlink:href="src/types/" xlink:title="types">
<polygon fill="#ccffcc" stroke="#000000" points="73,-71.4075 21,-71.4075 19,-69.4075 19,-53.4075 71,-53.4075 73,-55.4075 73,-71.4075"/>
<polyline fill="none" stroke="#000000" points="71,-69.4075 19,-69.4075 "/>
<polyline fill="none" stroke="#000000" points="71,-69.4075 71,-53.4075 "/>
<polyline fill="none" stroke="#000000" points="71,-69.4075 73,-71.4075 "/>
<text text-anchor="start" x="35" y="-60.2075" font-family="Helvetica,sans-Serif" font-size="9.00" fill="#000000">types</text>
</a>
</g>
</g>
</g>
</svg>
