<?xml version="1.0" encoding="UTF-8" standalone="no"?>
<!DOCTYPE svg PUBLIC "-//W3C//DTD SVG 1.1//EN"
 "http://www.w3.org/Graphics/SVG/1.1/DTD/svg11.dtd">
<!-- Generated by graphviz version 2.40.1 (20161225.0304)
 -->
<!-- Title: dependency&#45;cruiser output Pages: 1 -->
<svg width="1265pt" height="702pt"
 viewBox="0.00 0.00 1265.00 702.36" xmlns="http://www.w3.org/2000/svg" xmlns:xlink="http://www.w3.org/1999/xlink">
<g id="graph0" class="graph" transform="scale(1 1) rotate(0) translate(4 698.3559)">
<title>dependency&#45;cruiser output</title>
<polygon fill="#ffffff" stroke="transparent" points="-4,4 -4,-698.3559 1261,-698.3559 1261,4 -4,4"/>
<g id="clust1" class="cluster">
<title>cluster_src</title>
<path fill="#ffffff" stroke="#000000" stroke-width="2" d="M20,-44.3559C20,-44.3559 1237,-44.3559 1237,-44.3559 1243,-44.3559 1249,-50.3559 1249,-56.3559 1249,-56.3559 1249,-674.3559 1249,-674.3559 1249,-680.3559 1243,-686.3559 1237,-686.3559 1237,-686.3559 20,-686.3559 20,-686.3559 14,-686.3559 8,-680.3559 8,-674.3559 8,-674.3559 8,-56.3559 8,-56.3559 8,-50.3559 14,-44.3559 20,-44.3559"/>
<text text-anchor="middle" x="628.5" y="-675.1559" font-family="Helvetica,sans-Serif" font-weight="bold" font-size="9.00" fill="#000000">src</text>
</g>
<g id="clust2" class="cluster">
<title>cluster_src/api</title>
<path fill="#ffffff" stroke="#000000" stroke-width="2" d="M731.5,-564.3559C731.5,-564.3559 1077,-564.3559 1077,-564.3559 1083,-564.3559 1089,-570.3559 1089,-576.3559 1089,-576.3559 1089,-648.3559 1089,-648.3559 1089,-654.3559 1083,-660.3559 1077,-660.3559 1077,-660.3559 731.5,-660.3559 731.5,-660.3559 725.5,-660.3559 719.5,-654.3559 719.5,-648.3559 719.5,-648.3559 719.5,-576.3559 719.5,-576.3559 719.5,-570.3559 725.5,-564.3559 731.5,-564.3559"/>
<text text-anchor="middle" x="904.25" y="-649.1559" font-family="Helvetica,sans-Serif" font-weight="bold" font-size="9.00" fill="#000000">api</text>
</g>
<g id="clust3" class="cluster">
<title>cluster_src/components</title>
<path fill="#ffffff" stroke="#000000" stroke-width="2" d="M424,-358.3559C424,-358.3559 504,-358.3559 504,-358.3559 510,-358.3559 516,-364.3559 516,-370.3559 516,-370.3559 516,-428.3559 516,-428.3559 516,-434.3559 510,-440.3559 504,-440.3559 504,-440.3559 424,-440.3559 424,-440.3559 418,-440.3559 412,-434.3559 412,-428.3559 412,-428.3559 412,-370.3559 412,-370.3559 412,-364.3559 418,-358.3559 424,-358.3559"/>
<text text-anchor="middle" x="464" y="-429.1559" font-family="Helvetica,sans-Serif" font-weight="bold" font-size="9.00" fill="#000000">components</text>
</g>
<g id="clust4" class="cluster">
<title>cluster_src/content</title>
<path fill="#ffffff" stroke="#000000" stroke-width="2" d="M28,-52.3559C28,-52.3559 836,-52.3559 836,-52.3559 842,-52.3559 848,-58.3559 848,-64.3559 848,-64.3559 848,-338.3559 848,-338.3559 848,-344.3559 842,-350.3559 836,-350.3559 836,-350.3559 28,-350.3559 28,-350.3559 22,-350.3559 16,-344.3559 16,-338.3559 16,-338.3559 16,-64.3559 16,-64.3559 16,-58.3559 22,-52.3559 28,-52.3559"/>
<text text-anchor="middle" x="432" y="-339.1559" font-family="Helvetica,sans-Serif" font-weight="bold" font-size="9.00" fill="#000000">content</text>
</g>
<g id="clust5" class="cluster">
<title>cluster_src/content/messaging</title>
<path fill="#ffffff" stroke="#000000" stroke-width="2" d="M536,-128.3559C536,-128.3559 828,-128.3559 828,-128.3559 834,-128.3559 840,-134.3559 840,-140.3559 840,-140.3559 840,-198.3559 840,-198.3559 840,-204.3559 834,-210.3559 828,-210.3559 828,-210.3559 536,-210.3559 536,-210.3559 530,-210.3559 524,-204.3559 524,-198.3559 524,-198.3559 524,-140.3559 524,-140.3559 524,-134.3559 530,-128.3559 536,-128.3559"/>
<text text-anchor="middle" x="682" y="-199.1559" font-family="Helvetica,sans-Serif" font-weight="bold" font-size="9.00" fill="#000000">messaging</text>
</g>
<g id="clust6" class="cluster">
<title>cluster_src/content/page&#45;overlay</title>
<path fill="#ffffff" stroke="#000000" stroke-width="2" d="M36,-108.3559C36,-108.3559 501,-108.3559 501,-108.3559 507,-108.3559 513,-114.3559 513,-120.3559 513,-120.3559 513,-312.3559 513,-312.3559 513,-318.3559 507,-324.3559 501,-324.3559 501,-324.3559 36,-324.3559 36,-324.3559 30,-324.3559 24,-318.3559 24,-312.3559 24,-312.3559 24,-120.3559 24,-120.3559 24,-114.3559 30,-108.3559 36,-108.3559"/>
<text text-anchor="middle" x="268.5" y="-313.1559" font-family="Helvetica,sans-Serif" font-weight="bold" font-size="9.00" fill="#000000">page&#45;overlay</text>
</g>
<g id="clust7" class="cluster">
<title>cluster_src/domain</title>
<path fill="#ffffff" stroke="#000000" stroke-width="2" d="M737.5,-358.3559C737.5,-358.3559 965.5,-358.3559 965.5,-358.3559 971.5,-358.3559 977.5,-364.3559 977.5,-370.3559 977.5,-370.3559 977.5,-428.3559 977.5,-428.3559 977.5,-434.3559 971.5,-440.3559 965.5,-440.3559 965.5,-440.3559 737.5,-440.3559 737.5,-440.3559 731.5,-440.3559 725.5,-434.3559 725.5,-428.3559 725.5,-428.3559 725.5,-370.3559 725.5,-370.3559 725.5,-364.3559 731.5,-358.3559 737.5,-358.3559"/>
<text text-anchor="middle" x="851.5" y="-429.1559" font-family="Helvetica,sans-Serif" font-weight="bold" font-size="9.00" fill="#000000">domain</text>
</g>
<g id="clust8" class="cluster">
<title>cluster_src/store</title>
<path fill="#ffffff" stroke="#000000" stroke-width="2" d="M885.5,-474.3559C885.5,-474.3559 1229,-474.3559 1229,-474.3559 1235,-474.3559 1241,-480.3559 1241,-486.3559 1241,-486.3559 1241,-544.3559 1241,-544.3559 1241,-550.3559 1235,-556.3559 1229,-556.3559 1229,-556.3559 885.5,-556.3559 885.5,-556.3559 879.5,-556.3559 873.5,-550.3559 873.5,-544.3559 873.5,-544.3559 873.5,-486.3559 873.5,-486.3559 873.5,-480.3559 879.5,-474.3559 885.5,-474.3559"/>
<text text-anchor="middle" x="1057.25" y="-545.1559" font-family="Helvetica,sans-Serif" font-weight="bold" font-size="9.00" fill="#000000">store</text>
</g>
<!-- events -->
<g id="node1" class="node">
<title>events</title>
<g id="a_node1"><a xlink:title="events">
<path fill="#ffffcc" stroke="#c0c0c0" d="M1075,-36.3559C1075,-36.3559 1033,-36.3559 1033,-36.3559 1030,-36.3559 1027,-33.3559 1027,-30.3559 1027,-30.3559 1027,-24.3559 1027,-24.3559 1027,-21.3559 1030,-18.3559 1033,-18.3559 1033,-18.3559 1075,-18.3559 1075,-18.3559 1078,-18.3559 1081,-21.3559 1081,-24.3559 1081,-24.3559 1081,-30.3559 1081,-30.3559 1081,-33.3559 1078,-36.3559 1075,-36.3559"/>
<text text-anchor="middle" x="1054" y="-25.1559" font-family="Helvetica,sans-Serif" font-size="9.00" fill="#c0c0c0">events</text>
</a>
</g>
</g>
<!-- src/api/BookmarkApi.ts -->
<g id="node2" class="node">
<title>src/api/BookmarkApi.ts</title>
<g id="a_node2"><a xlink:href="src/api/BookmarkApi.ts" xlink:title="BookmarkApi.ts">
<path fill="#ddfeff" stroke="#000000" d="M801.5,-590.3559C801.5,-590.3559 733.5,-590.3559 733.5,-590.3559 730.5,-590.3559 727.5,-587.3559 727.5,-584.3559 727.5,-584.3559 727.5,-578.3559 727.5,-578.3559 727.5,-575.3559 730.5,-572.3559 733.5,-572.3559 733.5,-572.3559 801.5,-572.3559 801.5,-572.3559 804.5,-572.3559 807.5,-575.3559 807.5,-578.3559 807.5,-578.3559 807.5,-584.3559 807.5,-584.3559 807.5,-587.3559 804.5,-590.3559 801.5,-590.3559"/>
<text text-anchor="start" x="735.5" y="-579.1559" font-family="Helvetica,sans-Serif" font-size="9.00" fill="#000000">BookmarkApi.ts</text>
</a>
</g>
</g>
<!-- src/domain/Bookmark.ts -->
<g id="node3" class="node">
<title>src/domain/Bookmark.ts</title>
<g id="a_node3"><a xlink:href="src/domain/Bookmark.ts" xlink:title="Bookmark.ts">
<path fill="#ddfeff" stroke="#000000" d="M953.5,-414.3559C953.5,-414.3559 898.5,-414.3559 898.5,-414.3559 895.5,-414.3559 892.5,-411.3559 892.5,-408.3559 892.5,-408.3559 892.5,-402.3559 892.5,-402.3559 892.5,-399.3559 895.5,-396.3559 898.5,-396.3559 898.5,-396.3559 953.5,-396.3559 953.5,-396.3559 956.5,-396.3559 959.5,-399.3559 959.5,-402.3559 959.5,-402.3559 959.5,-408.3559 959.5,-408.3559 959.5,-411.3559 956.5,-414.3559 953.5,-414.3559"/>
<text text-anchor="start" x="900.5" y="-403.1559" font-family="Helvetica,sans-Serif" font-size="9.00" fill="#000000">Bookmark.ts</text>
</a>
</g>
</g>
<!-- src/api/BookmarkApi.ts&#45;&gt;src/domain/Bookmark.ts -->
<g id="edge1" class="edge">
<title>src/api/BookmarkApi.ts&#45;&gt;src/domain/Bookmark.ts</title>
<path fill="none" stroke="#000000" stroke-width="2" stroke-opacity="0.200000" d="M773.9105,-572.0361C788.6304,-550.3131 825.3237,-494.2865 848,-443.3559 852.7451,-432.6984 847.2475,-426.0691 856,-418.3559 864.294,-411.0469 875.3366,-407.2581 886.1951,-405.4221"/>
<polygon fill="#000000" fill-opacity="0.200000" stroke="#000000" stroke-width="2" stroke-opacity="0.200000" points="886.5342,-407.4953 892.1899,-404.593 885.9588,-403.3349 886.5342,-407.4953"/>
</g>
<!-- src/domain/PageMetaData.ts -->
<g id="node4" class="node">
<title>src/domain/PageMetaData.ts</title>
<g id="a_node4"><a xlink:href="src/domain/PageMetaData.ts" xlink:title="PageMetaData.ts">
<path fill="#ddfeff" stroke="#000000" d="M963.5,-384.3559C963.5,-384.3559 888.5,-384.3559 888.5,-384.3559 885.5,-384.3559 882.5,-381.3559 882.5,-378.3559 882.5,-378.3559 882.5,-372.3559 882.5,-372.3559 882.5,-369.3559 885.5,-366.3559 888.5,-366.3559 888.5,-366.3559 963.5,-366.3559 963.5,-366.3559 966.5,-366.3559 969.5,-369.3559 969.5,-372.3559 969.5,-372.3559 969.5,-378.3559 969.5,-378.3559 969.5,-381.3559 966.5,-384.3559 963.5,-384.3559"/>
<text text-anchor="start" x="890.5" y="-373.1559" font-family="Helvetica,sans-Serif" font-size="9.00" fill="#000000">PageMetaData.ts</text>
</a>
</g>
</g>
<!-- src/api/BookmarkApi.ts&#45;&gt;src/domain/PageMetaData.ts -->
<g id="edge2" class="edge">
<title>src/api/BookmarkApi.ts&#45;&gt;src/domain/PageMetaData.ts</title>
<path fill="none" stroke="#000000" stroke-width="2" stroke-opacity="0.200000" d="M774.4837,-572.2644C790.4092,-551.0213 829.4634,-495.9348 848,-443.3559 855.9207,-420.8889 839.679,-407.7091 856,-390.3559 861.4962,-384.5122 868.6709,-380.6617 876.3283,-378.1708"/>
<polygon fill="#000000" fill-opacity="0.200000" stroke="#000000" stroke-width="2" stroke-opacity="0.200000" points="877.0409,-380.1524 882.2582,-376.5205 875.9148,-376.1061 877.0409,-380.1524"/>
</g>
<!-- src/solid&#45;client&#45;authn&#45;chrome&#45;ext -->
<g id="node5" class="node">
<title>src/solid&#45;client&#45;authn&#45;chrome&#45;ext</title>
<g id="a_node5"><a xlink:href="src/solid-client-authn-chrome-ext" xlink:title="solid&#45;client&#45;authn&#45;chrome&#45;ext">
<polygon fill="#ffffcc" stroke="#000000" points="994,-466.3559 860,-466.3559 858,-464.3559 858,-448.3559 992,-448.3559 994,-450.3559 994,-466.3559"/>
<polyline fill="none" stroke="#000000" points="992,-464.3559 858,-464.3559 "/>
<polyline fill="none" stroke="#000000" points="992,-464.3559 992,-448.3559 "/>
<polyline fill="none" stroke="#000000" points="992,-464.3559 994,-466.3559 "/>
<text text-anchor="start" x="866" y="-455.1559" font-family="Helvetica,sans-Serif" font-size="9.00" fill="#000000">solid&#45;client&#45;authn&#45;chrome&#45;ext</text>
</a>
</g>
</g>
<!-- src/api/BookmarkApi.ts&#45;&gt;src/solid&#45;client&#45;authn&#45;chrome&#45;ext -->
<g id="edge3" class="edge">
<title>src/api/BookmarkApi.ts&#45;&gt;src/solid&#45;client&#45;authn&#45;chrome&#45;ext</title>
<path fill="none" stroke="#000000" stroke-width="2" stroke-opacity="0.200000" d="M772.0017,-572.1657C783.0402,-550.6788 813.6701,-497.0382 856,-471.3559 857.3443,-470.5403 858.7274,-469.7711 860.1419,-469.0458"/>
<polygon fill="#000000" fill-opacity="0.200000" stroke="#000000" stroke-width="2" stroke-opacity="0.200000" points="861.1732,-470.8828 865.7394,-466.4601 859.4118,-467.0699 861.1732,-470.8828"/>
</g>
<!-- src/store/BookmarkStore.ts -->
<g id="node6" class="node">
<title>src/store/BookmarkStore.ts</title>
<g id="a_node6"><a xlink:href="src/store/BookmarkStore.ts" xlink:title="BookmarkStore.ts">
<path fill="#ddfeff" stroke="#000000" d="M964.5,-530.3559C964.5,-530.3559 887.5,-530.3559 887.5,-530.3559 884.5,-530.3559 881.5,-527.3559 881.5,-524.3559 881.5,-524.3559 881.5,-518.3559 881.5,-518.3559 881.5,-515.3559 884.5,-512.3559 887.5,-512.3559 887.5,-512.3559 964.5,-512.3559 964.5,-512.3559 967.5,-512.3559 970.5,-515.3559 970.5,-518.3559 970.5,-518.3559 970.5,-524.3559 970.5,-524.3559 970.5,-527.3559 967.5,-530.3559 964.5,-530.3559"/>
<text text-anchor="start" x="889.5" y="-519.1559" font-family="Helvetica,sans-Serif" font-size="9.00" fill="#000000">BookmarkStore.ts</text>
</a>
</g>
</g>
<!-- src/api/BookmarkApi.ts&#45;&gt;src/store/BookmarkStore.ts -->
<g id="edge4" class="edge">
<title>src/api/BookmarkApi.ts&#45;&gt;src/store/BookmarkStore.ts</title>
<path fill="none" stroke="#000000" stroke-width="2" stroke-opacity="0.200000" d="M791.5727,-572.2432C819.664,-561.6093 866.1174,-544.0244 896.3913,-532.5643"/>
<polygon fill="#000000" fill-opacity="0.200000" stroke="#000000" stroke-width="2" stroke-opacity="0.200000" points="897.3521,-534.4461 902.22,-530.3578 895.8652,-530.5181 897.3521,-534.4461"/>
</g>
<!-- src/api/generateDatePathForToday.ts -->
<g id="node7" class="node">
<title>src/api/generateDatePathForToday.ts</title>
<g id="a_node7"><a xlink:href="src/api/generateDatePathForToday.ts" xlink:title="generateDatePathForToday.ts">
<path fill="#ddfeff" stroke="#000000" d="M990,-604.3559C990,-604.3559 862,-604.3559 862,-604.3559 859,-604.3559 856,-601.3559 856,-598.3559 856,-598.3559 856,-592.3559 856,-592.3559 856,-589.3559 859,-586.3559 862,-586.3559 862,-586.3559 990,-586.3559 990,-586.3559 993,-586.3559 996,-589.3559 996,-592.3559 996,-592.3559 996,-598.3559 996,-598.3559 996,-601.3559 993,-604.3559 990,-604.3559"/>
<text text-anchor="start" x="864" y="-593.1559" font-family="Helvetica,sans-Serif" font-size="9.00" fill="#000000">generateDatePathForToday.ts</text>
</a>
</g>
</g>
<!-- src/api/BookmarkApi.ts&#45;&gt;src/api/generateDatePathForToday.ts -->
<g id="edge5" class="edge">
<title>src/api/BookmarkApi.ts&#45;&gt;src/api/generateDatePathForToday.ts</title>
<path fill="none" stroke="#000000" stroke-width="2" stroke-opacity="0.200000" d="M807.9063,-584.925C820.6666,-586.052 835.2118,-587.3368 849.6298,-588.6103"/>
<polygon fill="#000000" fill-opacity="0.200000" stroke="#000000" stroke-width="2" stroke-opacity="0.200000" points="849.634,-590.7188 855.7955,-589.1549 850.0036,-586.5351 849.634,-590.7188"/>
</g>
<!-- src/api/generateUuid.ts -->
<g id="node8" class="node">
<title>src/api/generateUuid.ts</title>
<g id="a_node8"><a xlink:href="src/api/generateUuid.ts" xlink:title="generateUuid.ts">
<path fill="#ddfeff" stroke="#000000" d="M961,-634.3559C961,-634.3559 891,-634.3559 891,-634.3559 888,-634.3559 885,-631.3559 885,-628.3559 885,-628.3559 885,-622.3559 885,-622.3559 885,-619.3559 888,-616.3559 891,-616.3559 891,-616.3559 961,-616.3559 961,-616.3559 964,-616.3559 967,-619.3559 967,-622.3559 967,-622.3559 967,-628.3559 967,-628.3559 967,-631.3559 964,-634.3559 961,-634.3559"/>
<text text-anchor="start" x="893" y="-623.1559" font-family="Helvetica,sans-Serif" font-size="9.00" fill="#000000">generateUuid.ts</text>
</a>
</g>
</g>
<!-- src/api/BookmarkApi.ts&#45;&gt;src/api/generateUuid.ts -->
<g id="edge6" class="edge">
<title>src/api/BookmarkApi.ts&#45;&gt;src/api/generateUuid.ts</title>
<path fill="none" stroke="#000000" stroke-width="2" stroke-opacity="0.200000" d="M792.8455,-590.4508C810.4256,-596.5639 834.4598,-604.5363 856,-610.3559 863.2178,-612.306 870.9088,-614.1679 878.4519,-615.8753"/>
<polygon fill="#000000" fill-opacity="0.200000" stroke="#000000" stroke-width="2" stroke-opacity="0.200000" points="878.4271,-618.0209 884.7397,-617.2718 879.3378,-613.9208 878.4271,-618.0209"/>
</g>
<!-- src/api/now.ts -->
<g id="node9" class="node">
<title>src/api/now.ts</title>
<g id="a_node9"><a xlink:href="src/api/now.ts" xlink:title="now.ts">
<path fill="#ddfeff" stroke="#000000" d="M1075,-597.3559C1075,-597.3559 1033,-597.3559 1033,-597.3559 1030,-597.3559 1027,-594.3559 1027,-591.3559 1027,-591.3559 1027,-585.3559 1027,-585.3559 1027,-582.3559 1030,-579.3559 1033,-579.3559 1033,-579.3559 1075,-579.3559 1075,-579.3559 1078,-579.3559 1081,-582.3559 1081,-585.3559 1081,-585.3559 1081,-591.3559 1081,-591.3559 1081,-594.3559 1078,-597.3559 1075,-597.3559"/>
<text text-anchor="start" x="1040.5" y="-586.1559" font-family="Helvetica,sans-Serif" font-size="9.00" fill="#000000">now.ts</text>
</a>
</g>
</g>
<!-- src/api/BookmarkApi.ts&#45;&gt;src/api/now.ts -->
<g id="edge7" class="edge">
<title>src/api/BookmarkApi.ts&#45;&gt;src/api/now.ts</title>
<path fill="none" stroke="#000000" stroke-width="2" stroke-opacity="0.200000" d="M807.5952,-579.4162C853.2667,-577.6163 930.1036,-575.8328 996,-580.3559 1004.081,-580.9106 1012.7511,-581.8951 1020.8604,-582.9882"/>
<polygon fill="#000000" fill-opacity="0.200000" stroke="#000000" stroke-width="2" stroke-opacity="0.200000" points="1020.6997,-585.0861 1026.9333,-583.8398 1021.2831,-580.9268 1020.6997,-585.0861"/>
</g>
<!-- src/solid&#45;client&#45;authn&#45;chrome&#45;ext&#45;&gt;events -->
<g id="edge53" class="edge">
<title>src/solid&#45;client&#45;authn&#45;chrome&#45;ext&#45;&gt;events</title>
<path fill="none" stroke="#000000" stroke-dasharray="5,2" stroke-opacity="0.200000" d="M990.4498,-448.1971C992.4377,-446.7666 994.2996,-445.1595 996,-443.3559 1024.1673,-413.4798 1047.6672,-114.1551 1052.9087,-42.642"/>
<polygon fill="#000000" fill-opacity="0.200000" stroke="#000000" stroke-opacity="0.200000" points="1055.0183,-42.5856 1053.3585,-36.4492 1050.8293,-42.2813 1055.0183,-42.5856"/>
</g>
<!-- src/store/createRelations.ts -->
<g id="node30" class="node">
<title>src/store/createRelations.ts</title>
<g id="a_node30"><a xlink:href="src/store/createRelations.ts" xlink:title="createRelations.ts">
<path fill="#ddfeff" stroke="#000000" d="M1093,-500.3559C1093,-500.3559 1015,-500.3559 1015,-500.3559 1012,-500.3559 1009,-497.3559 1009,-494.3559 1009,-494.3559 1009,-488.3559 1009,-488.3559 1009,-485.3559 1012,-482.3559 1015,-482.3559 1015,-482.3559 1093,-482.3559 1093,-482.3559 1096,-482.3559 1099,-485.3559 1099,-488.3559 1099,-488.3559 1099,-494.3559 1099,-494.3559 1099,-497.3559 1096,-500.3559 1093,-500.3559"/>
<text text-anchor="start" x="1017" y="-489.1559" font-family="Helvetica,sans-Serif" font-size="9.00" fill="#000000">createRelations.ts</text>
</a>
</g>
</g>
<!-- src/store/BookmarkStore.ts&#45;&gt;src/store/createRelations.ts -->
<g id="edge54" class="edge">
<title>src/store/BookmarkStore.ts&#45;&gt;src/store/createRelations.ts</title>
<path fill="none" stroke="#000000" stroke-width="2" stroke-opacity="0.200000" d="M970.5798,-513.7784C979.0534,-512.1401 987.8246,-510.3079 996,-508.3559 1003.6451,-506.5306 1011.782,-504.318 1019.4683,-502.101"/>
<polygon fill="#000000" fill-opacity="0.200000" stroke="#000000" stroke-width="2" stroke-opacity="0.200000" points="1020.074,-504.1119 1025.2427,-500.4112 1018.8943,-500.081 1020.074,-504.1119"/>
</g>
<!-- src/store/importToStore.ts -->
<g id="node31" class="node">
<title>src/store/importToStore.ts</title>
<g id="a_node31"><a xlink:href="src/store/importToStore.ts" xlink:title="importToStore.ts">
<path fill="#ddfeff" stroke="#000000" d="M1089.5,-530.3559C1089.5,-530.3559 1018.5,-530.3559 1018.5,-530.3559 1015.5,-530.3559 1012.5,-527.3559 1012.5,-524.3559 1012.5,-524.3559 1012.5,-518.3559 1012.5,-518.3559 1012.5,-515.3559 1015.5,-512.3559 1018.5,-512.3559 1018.5,-512.3559 1089.5,-512.3559 1089.5,-512.3559 1092.5,-512.3559 1095.5,-515.3559 1095.5,-518.3559 1095.5,-518.3559 1095.5,-524.3559 1095.5,-524.3559 1095.5,-527.3559 1092.5,-530.3559 1089.5,-530.3559"/>
<text text-anchor="start" x="1020.5" y="-519.1559" font-family="Helvetica,sans-Serif" font-size="9.00" fill="#000000">importToStore.ts</text>
</a>
</g>
</g>
<!-- src/store/BookmarkStore.ts&#45;&gt;src/store/importToStore.ts -->
<g id="edge55" class="edge">
<title>src/store/BookmarkStore.ts&#45;&gt;src/store/importToStore.ts</title>
<path fill="none" stroke="#000000" stroke-width="2" stroke-opacity="0.200000" d="M970.7682,-521.3559C982.3098,-521.3559 994.7713,-521.3559 1006.449,-521.3559"/>
<polygon fill="#000000" fill-opacity="0.200000" stroke="#000000" stroke-width="2" stroke-opacity="0.200000" points="1006.4753,-523.456 1012.4752,-521.3559 1006.4752,-519.256 1006.4753,-523.456"/>
</g>
<!-- src/api/generateDatePathForToday.ts&#45;&gt;src/api/now.ts -->
<g id="edge8" class="edge">
<title>src/api/generateDatePathForToday.ts&#45;&gt;src/api/now.ts</title>
<path fill="none" stroke="#000000" stroke-width="2" stroke-opacity="0.200000" d="M996.3656,-591.5078C1004.8072,-591.0462 1013.0995,-590.5927 1020.6474,-590.1799"/>
<polygon fill="#000000" fill-opacity="0.200000" stroke="#000000" stroke-width="2" stroke-opacity="0.200000" points="1020.9231,-592.2681 1026.7994,-589.8435 1020.6937,-588.0743 1020.9231,-592.2681"/>
</g>
<!-- src/components/Button.tsx -->
<g id="node10" class="node">
<title>src/components/Button.tsx</title>
<g id="a_node10"><a xlink:href="src/components/Button.tsx" xlink:title="Button.tsx">
<path fill="#bbfeff" stroke="#000000" d="M486,-414.3559C486,-414.3559 442,-414.3559 442,-414.3559 439,-414.3559 436,-411.3559 436,-408.3559 436,-408.3559 436,-402.3559 436,-402.3559 436,-399.3559 439,-396.3559 442,-396.3559 442,-396.3559 486,-396.3559 486,-396.3559 489,-396.3559 492,-399.3559 492,-402.3559 492,-402.3559 492,-408.3559 492,-408.3559 492,-411.3559 489,-414.3559 486,-414.3559"/>
<text text-anchor="start" x="444" y="-403.1559" font-family="Helvetica,sans-Serif" font-size="9.00" fill="#000000">Button.tsx</text>
</a>
</g>
</g>
<!-- src/components/ErrorMessage.tsx -->
<g id="node11" class="node">
<title>src/components/ErrorMessage.tsx</title>
<g id="a_node11"><a xlink:href="src/components/ErrorMessage.tsx" xlink:title="ErrorMessage.tsx">
<path fill="#bbfeff" stroke="#000000" d="M502,-384.3559C502,-384.3559 426,-384.3559 426,-384.3559 423,-384.3559 420,-381.3559 420,-378.3559 420,-378.3559 420,-372.3559 420,-372.3559 420,-369.3559 423,-366.3559 426,-366.3559 426,-366.3559 502,-366.3559 502,-366.3559 505,-366.3559 508,-369.3559 508,-372.3559 508,-372.3559 508,-378.3559 508,-378.3559 508,-381.3559 505,-384.3559 502,-384.3559"/>
<text text-anchor="start" x="428" y="-373.1559" font-family="Helvetica,sans-Serif" font-size="9.00" fill="#000000">ErrorMessage.tsx</text>
</a>
</g>
</g>
<!-- src/content/messaging/ChromeMessageListener.ts -->
<g id="node12" class="node">
<title>src/content/messaging/ChromeMessageListener.ts</title>
<g id="a_node12"><a xlink:href="src/content/messaging/ChromeMessageListener.ts" xlink:title="ChromeMessageListener.ts">
<path fill="#ddfeff" stroke="#000000" d="M826,-154.3559C826,-154.3559 709,-154.3559 709,-154.3559 706,-154.3559 703,-151.3559 703,-148.3559 703,-148.3559 703,-142.3559 703,-142.3559 703,-139.3559 706,-136.3559 709,-136.3559 709,-136.3559 826,-136.3559 826,-136.3559 829,-136.3559 832,-139.3559 832,-142.3559 832,-142.3559 832,-148.3559 832,-148.3559 832,-151.3559 829,-154.3559 826,-154.3559"/>
<text text-anchor="start" x="711" y="-143.1559" font-family="Helvetica,sans-Serif" font-size="9.00" fill="#000000">ChromeMessageListener.ts</text>
</a>
</g>
</g>
<!-- src/content/messaging/ChromeMessageListener.ts&#45;&gt;events -->
<g id="edge9" class="edge">
<title>src/content/messaging/ChromeMessageListener.ts&#45;&gt;events</title>
<path fill="none" stroke="#000000" stroke-dasharray="5,2" stroke-opacity="0.200000" d="M789.5055,-136.2926C841.0641,-115.0573 969.594,-62.12 1026.3337,-38.7508"/>
<polygon fill="#000000" fill-opacity="0.200000" stroke="#000000" stroke-opacity="0.200000" points="1027.1715,-40.6769 1031.9196,-36.4501 1025.5719,-36.7934 1027.1715,-40.6769"/>
</g>
<!-- src/content/messaging/chromeMessageListenerContext.ts -->
<g id="node13" class="node">
<title>src/content/messaging/chromeMessageListenerContext.ts</title>
<g id="a_node13"><a xlink:href="src/content/messaging/chromeMessageListenerContext.ts" xlink:title="chromeMessageListenerContext.ts">
<path fill="#ddfeff" stroke="#000000" d="M684,-154.3559C684,-154.3559 538,-154.3559 538,-154.3559 535,-154.3559 532,-151.3559 532,-148.3559 532,-148.3559 532,-142.3559 532,-142.3559 532,-139.3559 535,-136.3559 538,-136.3559 538,-136.3559 684,-136.3559 684,-136.3559 687,-136.3559 690,-139.3559 690,-142.3559 690,-142.3559 690,-148.3559 690,-148.3559 690,-151.3559 687,-154.3559 684,-154.3559"/>
<text text-anchor="start" x="540" y="-143.1559" font-family="Helvetica,sans-Serif" font-size="9.00" fill="#000000">chromeMessageListenerContext.ts</text>
</a>
</g>
</g>
<!-- src/content/messaging/chromeMessageListenerContext.ts&#45;&gt;src/content/messaging/ChromeMessageListener.ts -->
<g id="edge10" class="edge">
<title>src/content/messaging/chromeMessageListenerContext.ts&#45;&gt;src/content/messaging/ChromeMessageListener.ts</title>
<path fill="none" stroke="#000000" stroke-width="2" stroke-opacity="0.200000" d="M690.167,-145.3559C692.2898,-145.3559 694.4117,-145.3559 696.5264,-145.3559"/>
<polygon fill="#000000" fill-opacity="0.200000" stroke="#000000" stroke-width="2" stroke-opacity="0.200000" points="696.843,-147.456 702.843,-145.3559 696.843,-143.256 696.843,-147.456"/>
</g>
<!-- src/content/messaging/sendMessage.ts -->
<g id="node14" class="node">
<title>src/content/messaging/sendMessage.ts</title>
<g id="a_node14"><a xlink:href="src/content/messaging/sendMessage.ts" xlink:title="sendMessage.ts">
<path fill="#ddfeff" stroke="#000000" d="M646.5,-184.3559C646.5,-184.3559 575.5,-184.3559 575.5,-184.3559 572.5,-184.3559 569.5,-181.3559 569.5,-178.3559 569.5,-178.3559 569.5,-172.3559 569.5,-172.3559 569.5,-169.3559 572.5,-166.3559 575.5,-166.3559 575.5,-166.3559 646.5,-166.3559 646.5,-166.3559 649.5,-166.3559 652.5,-169.3559 652.5,-172.3559 652.5,-172.3559 652.5,-178.3559 652.5,-178.3559 652.5,-181.3559 649.5,-184.3559 646.5,-184.3559"/>
<text text-anchor="start" x="577.5" y="-173.1559" font-family="Helvetica,sans-Serif" font-size="9.00" fill="#000000">sendMessage.ts</text>
</a>
</g>
</g>
<!-- src/domain/messages.ts -->
<g id="node15" class="node">
<title>src/domain/messages.ts</title>
<g id="a_node15"><a xlink:href="src/domain/messages.ts" xlink:title="messages.ts">
<path fill="#ddfeff" stroke="#000000" d="M795.5,-384.3559C795.5,-384.3559 739.5,-384.3559 739.5,-384.3559 736.5,-384.3559 733.5,-381.3559 733.5,-378.3559 733.5,-378.3559 733.5,-372.3559 733.5,-372.3559 733.5,-369.3559 736.5,-366.3559 739.5,-366.3559 739.5,-366.3559 795.5,-366.3559 795.5,-366.3559 798.5,-366.3559 801.5,-369.3559 801.5,-372.3559 801.5,-372.3559 801.5,-378.3559 801.5,-378.3559 801.5,-381.3559 798.5,-384.3559 795.5,-384.3559"/>
<text text-anchor="start" x="741.5" y="-373.1559" font-family="Helvetica,sans-Serif" font-size="9.00" fill="#000000">messages.ts</text>
</a>
</g>
</g>
<!-- src/content/messaging/sendMessage.ts&#45;&gt;src/domain/messages.ts -->
<g id="edge11" class="edge">
<title>src/content/messaging/sendMessage.ts&#45;&gt;src/domain/messages.ts</title>
<path fill="none" stroke="#000000" stroke-width="2" stroke-opacity="0.200000" d="M625.5045,-184.4235C642.4946,-195.569 670.7607,-215.7998 690,-238.3559 723.6559,-277.814 750.0041,-334.0626 761.3825,-360.5204"/>
<polygon fill="#000000" fill-opacity="0.200000" stroke="#000000" stroke-width="2" stroke-opacity="0.200000" points="759.5511,-361.5808 763.8265,-366.2852 763.418,-359.9414 759.5511,-361.5808"/>
</g>
<!-- src/domain/messages.ts&#45;&gt;src/domain/Bookmark.ts -->
<g id="edge51" class="edge">
<title>src/domain/messages.ts&#45;&gt;src/domain/Bookmark.ts</title>
<path fill="none" stroke="#000000" stroke-width="2" stroke-opacity="0.200000" d="M801.5022,-381.7917C826.3444,-386.4937 860.1073,-392.8841 886.2058,-397.8239"/>
<polygon fill="#000000" fill-opacity="0.200000" stroke="#000000" stroke-width="2" stroke-opacity="0.200000" points="886.0405,-399.9298 892.3264,-398.9824 886.8216,-395.8031 886.0405,-399.9298"/>
</g>
<!-- src/domain/messages.ts&#45;&gt;src/domain/PageMetaData.ts -->
<g id="edge52" class="edge">
<title>src/domain/messages.ts&#45;&gt;src/domain/PageMetaData.ts</title>
<path fill="none" stroke="#000000" stroke-width="2" stroke-opacity="0.200000" d="M801.5022,-375.3559C823.3047,-375.3559 851.9782,-375.3559 876.3115,-375.3559"/>
<polygon fill="#000000" fill-opacity="0.200000" stroke="#000000" stroke-width="2" stroke-opacity="0.200000" points="876.3976,-377.456 882.3976,-375.3559 876.3975,-373.256 876.3976,-377.456"/>
</g>
<!-- src/content/page&#45;overlay/LoginButton.tsx -->
<g id="node16" class="node">
<title>src/content/page&#45;overlay/LoginButton.tsx</title>
<g id="a_node16"><a xlink:href="src/content/page-overlay/LoginButton.tsx" xlink:title="LoginButton.tsx">
<path fill="#bbfeff" stroke="#000000" d="M292,-298.3559C292,-298.3559 224,-298.3559 224,-298.3559 221,-298.3559 218,-295.3559 218,-292.3559 218,-292.3559 218,-286.3559 218,-286.3559 218,-283.3559 221,-280.3559 224,-280.3559 224,-280.3559 292,-280.3559 292,-280.3559 295,-280.3559 298,-283.3559 298,-286.3559 298,-286.3559 298,-292.3559 298,-292.3559 298,-295.3559 295,-298.3559 292,-298.3559"/>
<text text-anchor="start" x="226" y="-287.1559" font-family="Helvetica,sans-Serif" font-size="9.00" fill="#000000">LoginButton.tsx</text>
</a>
</g>
</g>
<!-- src/content/page&#45;overlay/LoginButton.tsx&#45;&gt;src/components/Button.tsx -->
<g id="edge12" class="edge">
<title>src/content/page&#45;overlay/LoginButton.tsx&#45;&gt;src/components/Button.tsx</title>
<path fill="none" stroke="#000000" stroke-width="2" stroke-opacity="0.200000" d="M268.8124,-298.4058C292.9189,-318.1216 353.5588,-365.1968 412,-390.3559 417.6312,-392.7802 423.7699,-394.9431 429.7917,-396.8204"/>
<polygon fill="#000000" fill-opacity="0.200000" stroke="#000000" stroke-width="2" stroke-opacity="0.200000" points="429.4013,-398.8955 435.7514,-398.6016 430.6041,-394.8713 429.4013,-398.8955"/>
</g>
<!-- src/content/page&#45;overlay/LoginButton.tsx&#45;&gt;src/components/ErrorMessage.tsx -->
<g id="edge13" class="edge">
<title>src/content/page&#45;overlay/LoginButton.tsx&#45;&gt;src/components/ErrorMessage.tsx</title>
<path fill="none" stroke="#000000" stroke-width="2" stroke-opacity="0.200000" d="M279.6563,-298.3969C317.443,-314.1719 395.3312,-346.6884 436.7329,-363.9726"/>
<polygon fill="#000000" fill-opacity="0.200000" stroke="#000000" stroke-width="2" stroke-opacity="0.200000" points="435.9789,-365.9334 442.3248,-366.3071 437.597,-362.0576 435.9789,-365.9334"/>
</g>
<!-- src/content/page&#45;overlay/prettifyUrl.ts -->
<g id="node17" class="node">
<title>src/content/page&#45;overlay/prettifyUrl.ts</title>
<g id="a_node17"><a xlink:href="src/content/page-overlay/prettifyUrl.ts" xlink:title="prettifyUrl.ts">
<path fill="#ddfeff" stroke="#000000" d="M389.5,-268.3559C389.5,-268.3559 336.5,-268.3559 336.5,-268.3559 333.5,-268.3559 330.5,-265.3559 330.5,-262.3559 330.5,-262.3559 330.5,-256.3559 330.5,-256.3559 330.5,-253.3559 333.5,-250.3559 336.5,-250.3559 336.5,-250.3559 389.5,-250.3559 389.5,-250.3559 392.5,-250.3559 395.5,-253.3559 395.5,-256.3559 395.5,-256.3559 395.5,-262.3559 395.5,-262.3559 395.5,-265.3559 392.5,-268.3559 389.5,-268.3559"/>
<text text-anchor="start" x="338.5" y="-257.1559" font-family="Helvetica,sans-Serif" font-size="9.00" fill="#000000">prettifyUrl.ts</text>
</a>
</g>
</g>
<!-- src/content/page&#45;overlay/LoginButton.tsx&#45;&gt;src/content/page&#45;overlay/prettifyUrl.ts -->
<g id="edge14" class="edge">
<title>src/content/page&#45;overlay/LoginButton.tsx&#45;&gt;src/content/page&#45;overlay/prettifyUrl.ts</title>
<path fill="none" stroke="#000000" stroke-width="2" stroke-opacity="0.200000" d="M289.5035,-280.3549C300.7175,-277.1509 313.4617,-273.5097 325.1522,-270.1696"/>
<polygon fill="#000000" fill-opacity="0.200000" stroke="#000000" stroke-width="2" stroke-opacity="0.200000" points="325.9637,-272.1219 331.1559,-268.4543 324.8098,-268.0835 325.9637,-272.1219"/>
</g>
<!-- src/content/page&#45;overlay/useLogin.ts -->
<g id="node18" class="node">
<title>src/content/page&#45;overlay/useLogin.ts</title>
<g id="a_node18"><a xlink:href="src/content/page-overlay/useLogin.ts" xlink:title="useLogin.ts">
<path fill="#ddfeff" stroke="#000000" d="M389,-298.3559C389,-298.3559 337,-298.3559 337,-298.3559 334,-298.3559 331,-295.3559 331,-292.3559 331,-292.3559 331,-286.3559 331,-286.3559 331,-283.3559 334,-280.3559 337,-280.3559 337,-280.3559 389,-280.3559 389,-280.3559 392,-280.3559 395,-283.3559 395,-286.3559 395,-286.3559 395,-292.3559 395,-292.3559 395,-295.3559 392,-298.3559 389,-298.3559"/>
<text text-anchor="start" x="339" y="-287.1559" font-family="Helvetica,sans-Serif" font-size="9.00" fill="#000000">useLogin.ts</text>
</a>
</g>
</g>
<!-- src/content/page&#45;overlay/LoginButton.tsx&#45;&gt;src/content/page&#45;overlay/useLogin.ts -->
<g id="edge15" class="edge">
<title>src/content/page&#45;overlay/LoginButton.tsx&#45;&gt;src/content/page&#45;overlay/useLogin.ts</title>
<path fill="none" stroke="#000000" stroke-width="2" stroke-opacity="0.200000" d="M298.2954,-289.3559C306.9514,-289.3559 316.076,-289.3559 324.6555,-289.3559"/>
<polygon fill="#000000" fill-opacity="0.200000" stroke="#000000" stroke-width="2" stroke-opacity="0.200000" points="324.7919,-291.456 330.7919,-289.3559 324.7919,-287.256 324.7919,-291.456"/>
</g>
<!-- src/content/page&#45;overlay/useLogin.ts&#45;&gt;src/content/messaging/sendMessage.ts -->
<g id="edge41" class="edge">
<title>src/content/page&#45;overlay/useLogin.ts&#45;&gt;src/content/messaging/sendMessage.ts</title>
<path fill="none" stroke="#000000" stroke-width="2" stroke-opacity="0.200000" d="M389.1726,-280.2039C394.1301,-278.3511 399.2496,-276.3555 404,-274.3559 471.9604,-245.7495 549.8611,-206.7545 587.7991,-187.3486"/>
<polygon fill="#000000" fill-opacity="0.200000" stroke="#000000" stroke-width="2" stroke-opacity="0.200000" points="589.156,-189.013 593.5372,-184.4069 587.2399,-185.2755 589.156,-189.013"/>
</g>
<!-- src/content/page&#45;overlay/useLogin.ts&#45;&gt;src/domain/messages.ts -->
<g id="edge40" class="edge">
<title>src/content/page&#45;overlay/useLogin.ts&#45;&gt;src/domain/messages.ts</title>
<path fill="none" stroke="#000000" stroke-width="2" stroke-opacity="0.200000" d="M395.1123,-297.6563C398.2239,-299.0097 401.2438,-300.5675 404,-302.3559 408.4895,-305.2691 407.3322,-308.738 412,-311.3559 514.8684,-369.0499 658.4635,-376.5153 727.4234,-376.4152"/>
<polygon fill="#000000" fill-opacity="0.200000" stroke="#000000" stroke-width="2" stroke-opacity="0.200000" points="727.4701,-378.5151 733.4601,-376.3866 727.4502,-374.3151 727.4701,-378.5151"/>
</g>
<!-- src/content/page&#45;overlay/PageContent.tsx -->
<g id="node19" class="node">
<title>src/content/page&#45;overlay/PageContent.tsx</title>
<g id="a_node19"><a xlink:href="src/content/page-overlay/PageContent.tsx" xlink:title="PageContent.tsx">
<path fill="#bbfeff" stroke="#000000" d="M188,-167.3559C188,-167.3559 116,-167.3559 116,-167.3559 113,-167.3559 110,-164.3559 110,-161.3559 110,-161.3559 110,-155.3559 110,-155.3559 110,-152.3559 113,-149.3559 116,-149.3559 116,-149.3559 188,-149.3559 188,-149.3559 191,-149.3559 194,-152.3559 194,-155.3559 194,-155.3559 194,-161.3559 194,-161.3559 194,-164.3559 191,-167.3559 188,-167.3559"/>
<text text-anchor="start" x="118" y="-156.1559" font-family="Helvetica,sans-Serif" font-size="9.00" fill="#000000">PageContent.tsx</text>
</a>
</g>
</g>
<!-- src/content/page&#45;overlay/PageContent.tsx&#45;&gt;src/content/page&#45;overlay/LoginButton.tsx -->
<g id="edge16" class="edge">
<title>src/content/page&#45;overlay/PageContent.tsx&#45;&gt;src/content/page&#45;overlay/LoginButton.tsx</title>
<path fill="none" stroke="#000000" stroke-width="2" stroke-opacity="0.200000" d="M159.2858,-167.3601C177.4401,-189.796 224.7965,-248.3214 246.649,-275.3278"/>
<polygon fill="#000000" fill-opacity="0.200000" stroke="#000000" stroke-width="2" stroke-opacity="0.200000" points="245.2565,-276.9454 250.6632,-280.2888 248.5215,-274.3035 245.2565,-276.9454"/>
</g>
<!-- src/content/page&#45;overlay/openOptions.ts -->
<g id="node20" class="node">
<title>src/content/page&#45;overlay/openOptions.ts</title>
<g id="a_node20"><a xlink:href="src/content/page-overlay/openOptions.ts" xlink:title="openOptions.ts">
<path fill="#ddfeff" stroke="#000000" d="M396,-134.3559C396,-134.3559 330,-134.3559 330,-134.3559 327,-134.3559 324,-131.3559 324,-128.3559 324,-128.3559 324,-122.3559 324,-122.3559 324,-119.3559 327,-116.3559 330,-116.3559 330,-116.3559 396,-116.3559 396,-116.3559 399,-116.3559 402,-119.3559 402,-122.3559 402,-122.3559 402,-128.3559 402,-128.3559 402,-131.3559 399,-134.3559 396,-134.3559"/>
<text text-anchor="start" x="332" y="-123.1559" font-family="Helvetica,sans-Serif" font-size="9.00" fill="#000000">openOptions.ts</text>
</a>
</g>
</g>
<!-- src/content/page&#45;overlay/PageContent.tsx&#45;&gt;src/content/page&#45;overlay/openOptions.ts -->
<g id="edge17" class="edge">
<title>src/content/page&#45;overlay/PageContent.tsx&#45;&gt;src/content/page&#45;overlay/openOptions.ts</title>
<path fill="none" stroke="#000000" stroke-width="2" stroke-opacity="0.200000" d="M194.2559,-155.3191C226.0167,-152.6003 270.4923,-147.8636 309,-140.3559 315.0882,-139.1689 321.4929,-137.6429 327.6789,-136.0204"/>
<polygon fill="#000000" fill-opacity="0.200000" stroke="#000000" stroke-width="2" stroke-opacity="0.200000" points="328.5273,-137.9666 333.7722,-134.3746 327.4321,-133.9118 328.5273,-137.9666"/>
</g>
<!-- src/content/page&#45;overlay/SetupButton.tsx -->
<g id="node21" class="node">
<title>src/content/page&#45;overlay/SetupButton.tsx</title>
<g id="a_node21"><a xlink:href="src/content/page-overlay/SetupButton.tsx" xlink:title="SetupButton.tsx">
<path fill="#bbfeff" stroke="#000000" d="M292,-208.3559C292,-208.3559 224,-208.3559 224,-208.3559 221,-208.3559 218,-205.3559 218,-202.3559 218,-202.3559 218,-196.3559 218,-196.3559 218,-193.3559 221,-190.3559 224,-190.3559 224,-190.3559 292,-190.3559 292,-190.3559 295,-190.3559 298,-193.3559 298,-196.3559 298,-196.3559 298,-202.3559 298,-202.3559 298,-205.3559 295,-208.3559 292,-208.3559"/>
<text text-anchor="start" x="226" y="-197.1559" font-family="Helvetica,sans-Serif" font-size="9.00" fill="#000000">SetupButton.tsx</text>
</a>
</g>
</g>
<!-- src/content/page&#45;overlay/PageContent.tsx&#45;&gt;src/content/page&#45;overlay/SetupButton.tsx -->
<g id="edge18" class="edge">
<title>src/content/page&#45;overlay/PageContent.tsx&#45;&gt;src/content/page&#45;overlay/SetupButton.tsx</title>
<path fill="none" stroke="#000000" stroke-width="2" stroke-opacity="0.200000" d="M169.5302,-167.5005C180.1859,-172.8417 194.1684,-179.47 207,-184.3559 210.7667,-185.7902 214.7325,-187.1717 218.7198,-188.4766"/>
<polygon fill="#000000" fill-opacity="0.200000" stroke="#000000" stroke-width="2" stroke-opacity="0.200000" points="218.2021,-190.5155 224.5564,-190.3309 219.4739,-186.5126 218.2021,-190.5155"/>
</g>
<!-- src/content/page&#45;overlay/ToolbarContainer.tsx -->
<g id="node22" class="node">
<title>src/content/page&#45;overlay/ToolbarContainer.tsx</title>
<g id="a_node22"><a xlink:href="src/content/page-overlay/ToolbarContainer.tsx" xlink:title="ToolbarContainer.tsx">
<path fill="#bbfeff" stroke="#000000" d="M303,-178.3559C303,-178.3559 213,-178.3559 213,-178.3559 210,-178.3559 207,-175.3559 207,-172.3559 207,-172.3559 207,-166.3559 207,-166.3559 207,-163.3559 210,-160.3559 213,-160.3559 213,-160.3559 303,-160.3559 303,-160.3559 306,-160.3559 309,-163.3559 309,-166.3559 309,-166.3559 309,-172.3559 309,-172.3559 309,-175.3559 306,-178.3559 303,-178.3559"/>
<text text-anchor="start" x="215" y="-167.1559" font-family="Helvetica,sans-Serif" font-size="9.00" fill="#000000">ToolbarContainer.tsx</text>
</a>
</g>
</g>
<!-- src/content/page&#45;overlay/PageContent.tsx&#45;&gt;src/content/page&#45;overlay/ToolbarContainer.tsx -->
<g id="edge19" class="edge">
<title>src/content/page&#45;overlay/PageContent.tsx&#45;&gt;src/content/page&#45;overlay/ToolbarContainer.tsx</title>
<path fill="none" stroke="#000000" stroke-width="2" stroke-opacity="0.200000" d="M194.1986,-162.735C196.277,-162.9507 198.3786,-163.1688 200.4898,-163.3879"/>
<polygon fill="#000000" fill-opacity="0.200000" stroke="#000000" stroke-width="2" stroke-opacity="0.200000" points="200.6539,-165.5161 206.8387,-164.0467 201.0875,-161.3386 200.6539,-165.5161"/>
</g>
<!-- src/content/page&#45;overlay/useSessionInfo.ts -->
<g id="node23" class="node">
<title>src/content/page&#45;overlay/useSessionInfo.ts</title>
<g id="a_node23"><a xlink:href="src/content/page-overlay/useSessionInfo.ts" xlink:title="useSessionInfo.ts">
<path fill="#ddfeff" stroke="#000000" d="M296.5,-134.3559C296.5,-134.3559 219.5,-134.3559 219.5,-134.3559 216.5,-134.3559 213.5,-131.3559 213.5,-128.3559 213.5,-128.3559 213.5,-122.3559 213.5,-122.3559 213.5,-119.3559 216.5,-116.3559 219.5,-116.3559 219.5,-116.3559 296.5,-116.3559 296.5,-116.3559 299.5,-116.3559 302.5,-119.3559 302.5,-122.3559 302.5,-122.3559 302.5,-128.3559 302.5,-128.3559 302.5,-131.3559 299.5,-134.3559 296.5,-134.3559"/>
<text text-anchor="start" x="221.5" y="-123.1559" font-family="Helvetica,sans-Serif" font-size="9.00" fill="#000000">useSessionInfo.ts</text>
</a>
</g>
</g>
<!-- src/content/page&#45;overlay/PageContent.tsx&#45;&gt;src/content/page&#45;overlay/useSessionInfo.ts -->
<g id="edge20" class="edge">
<title>src/content/page&#45;overlay/PageContent.tsx&#45;&gt;src/content/page&#45;overlay/useSessionInfo.ts</title>
<path fill="none" stroke="#000000" stroke-width="2" stroke-opacity="0.200000" d="M180.965,-149.3385C194.0521,-145.2642 209.6198,-140.4177 223.3237,-136.1514"/>
<polygon fill="#000000" fill-opacity="0.200000" stroke="#000000" stroke-width="2" stroke-opacity="0.200000" points="223.9655,-138.1511 229.0701,-134.3624 222.717,-134.1409 223.9655,-138.1511"/>
</g>
<!-- src/content/page&#45;overlay/openOptions.ts&#45;&gt;src/content/messaging/sendMessage.ts -->
<g id="edge35" class="edge">
<title>src/content/page&#45;overlay/openOptions.ts&#45;&gt;src/content/messaging/sendMessage.ts</title>
<path fill="none" stroke="#000000" stroke-width="2" stroke-opacity="0.200000" d="M381.1918,-134.4405C389.264,-139.3214 398.2237,-146.0541 404,-154.3559 411.8813,-165.6831 401.0573,-175.9489 412,-184.3559 434.7957,-201.8694 511.9032,-192.8416 563.1712,-184.3581"/>
<polygon fill="#000000" fill-opacity="0.200000" stroke="#000000" stroke-width="2" stroke-opacity="0.200000" points="563.7218,-186.3951 569.2899,-183.3281 563.0245,-182.2534 563.7218,-186.3951"/>
</g>
<!-- src/content/page&#45;overlay/openOptions.ts&#45;&gt;src/domain/messages.ts -->
<g id="edge34" class="edge">
<title>src/content/page&#45;overlay/openOptions.ts&#45;&gt;src/domain/messages.ts</title>
<path fill="none" stroke="#000000" stroke-width="2" stroke-opacity="0.200000" d="M386.2994,-116.2719C445.2953,-94.957 602.1174,-49.0605 690,-125.3559 704.9273,-138.3151 697.8649,-194.2668 703,-213.3559 718.1239,-269.5769 746.9265,-332.755 760.3199,-360.7073"/>
<polygon fill="#000000" fill-opacity="0.200000" stroke="#000000" stroke-width="2" stroke-opacity="0.200000" points="758.4342,-361.6315 762.9336,-366.1221 762.2166,-359.8058 758.4342,-361.6315"/>
</g>
<!-- src/content/page&#45;overlay/SetupButton.tsx&#45;&gt;src/components/Button.tsx -->
<g id="edge21" class="edge">
<title>src/content/page&#45;overlay/SetupButton.tsx&#45;&gt;src/components/Button.tsx</title>
<path fill="none" stroke="#000000" stroke-width="2" stroke-opacity="0.200000" d="M265.203,-208.6959C275.6734,-222.5332 295.3361,-249.5241 309,-274.3559 316.0055,-287.0872 311.5905,-294.2167 322,-304.3559 350.1416,-331.7669 379.6354,-306.5392 404,-337.3559 418.7747,-356.0432 396.2939,-372.4443 412,-390.3559 416.7428,-395.7648 423.2998,-399.28 430.1617,-401.5505"/>
<polygon fill="#000000" fill-opacity="0.200000" stroke="#000000" stroke-width="2" stroke-opacity="0.200000" points="429.6199,-403.5795 435.9642,-403.1792 430.755,-399.5358 429.6199,-403.5795"/>
</g>
<!-- src/content/page&#45;overlay/SetupButton.tsx&#45;&gt;src/content/page&#45;overlay/openOptions.ts -->
<g id="edge22" class="edge">
<title>src/content/page&#45;overlay/SetupButton.tsx&#45;&gt;src/content/page&#45;overlay/openOptions.ts</title>
<path fill="none" stroke="#000000" stroke-width="2" stroke-opacity="0.200000" d="M298.231,-191.3116C302.1352,-189.4537 305.8194,-187.168 309,-184.3559 319.8866,-174.7309 312.8397,-165.6364 322,-154.3559 327.0667,-148.1165 333.801,-142.6102 340.345,-138.118"/>
<polygon fill="#000000" fill-opacity="0.200000" stroke="#000000" stroke-width="2" stroke-opacity="0.200000" points="341.8775,-139.6258 345.7563,-134.5894 339.5833,-136.1077 341.8775,-139.6258"/>
</g>
<!-- src/content/page&#45;overlay/Toolbar.tsx -->
<g id="node24" class="node">
<title>src/content/page&#45;overlay/Toolbar.tsx</title>
<g id="a_node24"><a xlink:href="src/content/page-overlay/Toolbar.tsx" xlink:title="Toolbar.tsx">
<path fill="#bbfeff" stroke="#000000" d="M388,-178.3559C388,-178.3559 338,-178.3559 338,-178.3559 335,-178.3559 332,-175.3559 332,-172.3559 332,-172.3559 332,-166.3559 332,-166.3559 332,-163.3559 335,-160.3559 338,-160.3559 338,-160.3559 388,-160.3559 388,-160.3559 391,-160.3559 394,-163.3559 394,-166.3559 394,-166.3559 394,-172.3559 394,-172.3559 394,-175.3559 391,-178.3559 388,-178.3559"/>
<text text-anchor="start" x="340" y="-167.1559" font-family="Helvetica,sans-Serif" font-size="9.00" fill="#000000">Toolbar.tsx</text>
</a>
</g>
</g>
<!-- src/content/page&#45;overlay/ToolbarContainer.tsx&#45;&gt;src/content/page&#45;overlay/Toolbar.tsx -->
<g id="edge27" class="edge">
<title>src/content/page&#45;overlay/ToolbarContainer.tsx&#45;&gt;src/content/page&#45;overlay/Toolbar.tsx</title>
<path fill="none" stroke="#000000" stroke-width="2" stroke-opacity="0.200000" d="M309.2696,-169.3559C314.8073,-169.3559 320.3632,-169.3559 325.6908,-169.3559"/>
<polygon fill="#000000" fill-opacity="0.200000" stroke="#000000" stroke-width="2" stroke-opacity="0.200000" points="325.8252,-171.456 331.8252,-169.3559 325.8252,-167.256 325.8252,-171.456"/>
</g>
<!-- src/content/page&#45;overlay/usePage.ts -->
<g id="node26" class="node">
<title>src/content/page&#45;overlay/usePage.ts</title>
<g id="a_node26"><a xlink:href="src/content/page-overlay/usePage.ts" xlink:title="usePage.ts">
<path fill="#ddfeff" stroke="#000000" d="M489,-148.3559C489,-148.3559 439,-148.3559 439,-148.3559 436,-148.3559 433,-145.3559 433,-142.3559 433,-142.3559 433,-136.3559 433,-136.3559 433,-133.3559 436,-130.3559 439,-130.3559 439,-130.3559 489,-130.3559 489,-130.3559 492,-130.3559 495,-133.3559 495,-136.3559 495,-136.3559 495,-142.3559 495,-142.3559 495,-145.3559 492,-148.3559 489,-148.3559"/>
<text text-anchor="start" x="441" y="-137.1559" font-family="Helvetica,sans-Serif" font-size="9.00" fill="#000000">usePage.ts</text>
</a>
</g>
</g>
<!-- src/content/page&#45;overlay/ToolbarContainer.tsx&#45;&gt;src/content/page&#45;overlay/usePage.ts -->
<g id="edge28" class="edge">
<title>src/content/page&#45;overlay/ToolbarContainer.tsx&#45;&gt;src/content/page&#45;overlay/usePage.ts</title>
<path fill="none" stroke="#000000" stroke-width="2" stroke-opacity="0.200000" d="M293.0501,-160.3084C302.4086,-158.1214 312.5483,-155.9563 322,-154.3559 357.2214,-148.3922 397.7838,-144.3896 426.5144,-142.0299"/>
<polygon fill="#000000" fill-opacity="0.200000" stroke="#000000" stroke-width="2" stroke-opacity="0.200000" points="427.0104,-144.0969 432.8227,-141.5226 426.6736,-139.9104 427.0104,-144.0969"/>
</g>
<!-- src/content/page&#45;overlay/usePageData.ts -->
<g id="node27" class="node">
<title>src/content/page&#45;overlay/usePageData.ts</title>
<g id="a_node27"><a xlink:href="src/content/page-overlay/usePageData.ts" xlink:title="usePageData.ts">
<path fill="#ddfeff" stroke="#000000" d="M398,-208.3559C398,-208.3559 328,-208.3559 328,-208.3559 325,-208.3559 322,-205.3559 322,-202.3559 322,-202.3559 322,-196.3559 322,-196.3559 322,-193.3559 325,-190.3559 328,-190.3559 328,-190.3559 398,-190.3559 398,-190.3559 401,-190.3559 404,-193.3559 404,-196.3559 404,-196.3559 404,-202.3559 404,-202.3559 404,-205.3559 401,-208.3559 398,-208.3559"/>
<text text-anchor="start" x="330" y="-197.1559" font-family="Helvetica,sans-Serif" font-size="9.00" fill="#000000">usePageData.ts</text>
</a>
</g>
</g>
<!-- src/content/page&#45;overlay/ToolbarContainer.tsx&#45;&gt;src/content/page&#45;overlay/usePageData.ts -->
<g id="edge29" class="edge">
<title>src/content/page&#45;overlay/ToolbarContainer.tsx&#45;&gt;src/content/page&#45;overlay/usePageData.ts</title>
<path fill="none" stroke="#000000" stroke-width="2" stroke-opacity="0.200000" d="M289.5035,-178.3569C300.7175,-181.5609 313.4617,-185.2021 325.1522,-188.5423"/>
<polygon fill="#000000" fill-opacity="0.200000" stroke="#000000" stroke-width="2" stroke-opacity="0.200000" points="324.8098,-190.6284 331.1559,-190.2576 325.9637,-186.59 324.8098,-190.6284"/>
</g>
<!-- src/content/page&#45;overlay/useProfile.ts -->
<g id="node28" class="node">
<title>src/content/page&#45;overlay/useProfile.ts</title>
<g id="a_node28"><a xlink:href="src/content/page-overlay/useProfile.ts" xlink:title="useProfile.ts">
<path fill="#ddfeff" stroke="#000000" d="M390.5,-238.3559C390.5,-238.3559 335.5,-238.3559 335.5,-238.3559 332.5,-238.3559 329.5,-235.3559 329.5,-232.3559 329.5,-232.3559 329.5,-226.3559 329.5,-226.3559 329.5,-223.3559 332.5,-220.3559 335.5,-220.3559 335.5,-220.3559 390.5,-220.3559 390.5,-220.3559 393.5,-220.3559 396.5,-223.3559 396.5,-226.3559 396.5,-226.3559 396.5,-232.3559 396.5,-232.3559 396.5,-235.3559 393.5,-238.3559 390.5,-238.3559"/>
<text text-anchor="start" x="337.5" y="-227.1559" font-family="Helvetica,sans-Serif" font-size="9.00" fill="#000000">useProfile.ts</text>
</a>
</g>
</g>
<!-- src/content/page&#45;overlay/ToolbarContainer.tsx&#45;&gt;src/content/page&#45;overlay/useProfile.ts -->
<g id="edge30" class="edge">
<title>src/content/page&#45;overlay/ToolbarContainer.tsx&#45;&gt;src/content/page&#45;overlay/useProfile.ts</title>
<path fill="none" stroke="#000000" stroke-width="2" stroke-opacity="0.200000" d="M300.2465,-178.409C303.4014,-180.0691 306.3725,-182.033 309,-184.3559 319.8866,-193.981 311.4303,-204.3839 322,-214.3559 322.9855,-215.2857 324.0332,-216.1587 325.1297,-216.9784"/>
<polygon fill="#000000" fill-opacity="0.200000" stroke="#000000" stroke-width="2" stroke-opacity="0.200000" points="324.0249,-218.7647 330.2079,-220.2414 326.2954,-215.2312 324.0249,-218.7647"/>
</g>
<!-- src/content/page&#45;overlay/useSessionInfo.ts&#45;&gt;src/content/messaging/ChromeMessageListener.ts -->
<g id="edge49" class="edge">
<title>src/content/page&#45;overlay/useSessionInfo.ts&#45;&gt;src/content/messaging/ChromeMessageListener.ts</title>
<path fill="none" stroke="#000000" stroke-width="2" stroke-opacity="0.200000" d="M279.7858,-116.2996C291.9687,-111.7244 307.5658,-106.6635 322,-104.3559 357.9875,-98.6026 367.5588,-103.868 404,-104.3559 453.7912,-105.0227 468.9748,-90.9781 516,-107.3559 520.1972,-108.8177 519.8608,-111.7373 524,-113.3559 593.07,-140.3666 616.6321,-119.521 690,-130.3559 699.2308,-131.7191 709.0335,-133.4182 718.4509,-135.1781"/>
<polygon fill="#000000" fill-opacity="0.200000" stroke="#000000" stroke-width="2" stroke-opacity="0.200000" points="718.2876,-137.2846 724.574,-136.3405 719.071,-133.1583 718.2876,-137.2846"/>
</g>
<!-- src/content/page&#45;overlay/useSessionInfo.ts&#45;&gt;src/content/messaging/chromeMessageListenerContext.ts -->
<g id="edge50" class="edge">
<title>src/content/page&#45;overlay/useSessionInfo.ts&#45;&gt;src/content/messaging/chromeMessageListenerContext.ts</title>
<path fill="none" stroke="#000000" stroke-width="2" stroke-opacity="0.200000" d="M289.975,-116.339C300.1277,-113.8879 311.4569,-111.5749 322,-110.3559 358.2033,-106.1701 367.626,-108.0914 404,-110.3559 454.0682,-113.4731 467.2914,-112.3554 516,-124.3559 519.6871,-125.2643 520.352,-126.3014 524,-127.3559 533.7853,-130.1845 544.3115,-132.7516 554.5453,-135.0038"/>
<polygon fill="#000000" fill-opacity="0.200000" stroke="#000000" stroke-width="2" stroke-opacity="0.200000" points="554.2215,-137.0821 560.5292,-136.2931 555.1061,-132.9764 554.2215,-137.0821"/>
</g>
<!-- src/content/page&#45;overlay/useSessionInfo.ts&#45;&gt;src/domain/messages.ts -->
<g id="edge48" class="edge">
<title>src/content/page&#45;overlay/useSessionInfo.ts&#45;&gt;src/domain/messages.ts</title>
<path fill="none" stroke="#000000" stroke-width="2" stroke-opacity="0.200000" d="M284.5412,-134.4549C293.7938,-138.9802 303.2828,-145.4383 309,-154.3559 327.0582,-182.5226 311.1414,-272.7087 322,-304.3559 345.8852,-373.9691 347.3457,-408.1947 412,-443.3559 527.2783,-506.0482 691.0416,-421.2111 747.4792,-387.8175"/>
<polygon fill="#000000" fill-opacity="0.200000" stroke="#000000" stroke-width="2" stroke-opacity="0.200000" points="748.8389,-389.4511 752.9079,-384.567 746.6813,-385.8476 748.8389,-389.4511"/>
</g>
<!-- src/content/page&#45;overlay/Toolbar.tsx&#45;&gt;src/components/Button.tsx -->
<g id="edge23" class="edge">
<title>src/content/page&#45;overlay/Toolbar.tsx&#45;&gt;src/components/Button.tsx</title>
<path fill="none" stroke="#000000" stroke-width="2" stroke-opacity="0.200000" d="M394.3973,-176.2342C398.1338,-178.2771 401.5013,-180.9249 404,-184.3559 417.4847,-202.8723 397.8766,-372.322 412,-390.3559 416.4807,-396.0773 423.0005,-399.7107 429.9182,-401.9956"/>
<polygon fill="#000000" fill-opacity="0.200000" stroke="#000000" stroke-width="2" stroke-opacity="0.200000" points="429.4443,-404.0432 435.7867,-403.614 430.5609,-399.9944 429.4443,-404.0432"/>
</g>
<!-- src/content/page&#45;overlay/Toolbar.tsx&#45;&gt;src/components/ErrorMessage.tsx -->
<g id="edge24" class="edge">
<title>src/content/page&#45;overlay/Toolbar.tsx&#45;&gt;src/components/ErrorMessage.tsx</title>
<path fill="none" stroke="#000000" stroke-width="2" stroke-opacity="0.200000" d="M394.3439,-176.2734C398.0882,-178.3106 401.4721,-180.9463 404,-184.3559 422.9555,-209.923 398.4252,-298.5685 412,-327.3559 418.8162,-341.8108 432.1311,-353.9689 443.5806,-362.4323"/>
<polygon fill="#000000" fill-opacity="0.200000" stroke="#000000" stroke-width="2" stroke-opacity="0.200000" points="442.5726,-364.2922 448.6799,-366.0559 445.0055,-360.8686 442.5726,-364.2922"/>
</g>
<!-- src/content/page&#45;overlay/useBookmark.ts -->
<g id="node25" class="node">
<title>src/content/page&#45;overlay/useBookmark.ts</title>
<g id="a_node25"><a xlink:href="src/content/page-overlay/useBookmark.ts" xlink:title="useBookmark.ts">
<path fill="#ddfeff" stroke="#000000" d="M499,-178.3559C499,-178.3559 429,-178.3559 429,-178.3559 426,-178.3559 423,-175.3559 423,-172.3559 423,-172.3559 423,-166.3559 423,-166.3559 423,-163.3559 426,-160.3559 429,-160.3559 429,-160.3559 499,-160.3559 499,-160.3559 502,-160.3559 505,-163.3559 505,-166.3559 505,-166.3559 505,-172.3559 505,-172.3559 505,-175.3559 502,-178.3559 499,-178.3559"/>
<text text-anchor="start" x="431" y="-167.1559" font-family="Helvetica,sans-Serif" font-size="9.00" fill="#000000">useBookmark.ts</text>
</a>
</g>
</g>
<!-- src/content/page&#45;overlay/Toolbar.tsx&#45;&gt;src/content/page&#45;overlay/useBookmark.ts -->
<g id="edge25" class="edge">
<title>src/content/page&#45;overlay/Toolbar.tsx&#45;&gt;src/content/page&#45;overlay/useBookmark.ts</title>
<path fill="none" stroke="#000000" stroke-width="2" stroke-opacity="0.200000" d="M394.1275,-169.3559C401.1915,-169.3559 408.8516,-169.3559 416.4238,-169.3559"/>
<polygon fill="#000000" fill-opacity="0.200000" stroke="#000000" stroke-width="2" stroke-opacity="0.200000" points="416.7487,-171.456 422.7487,-169.3559 416.7487,-167.256 416.7487,-171.456"/>
</g>
<!-- src/content/page&#45;overlay/Toolbar.tsx&#45;&gt;src/content/page&#45;overlay/usePage.ts -->
<g id="edge26" class="edge">
<title>src/content/page&#45;overlay/Toolbar.tsx&#45;&gt;src/content/page&#45;overlay/usePage.ts</title>
<path fill="none" stroke="#000000" stroke-width="2" stroke-opacity="0.200000" d="M392.2555,-160.3153C398.7502,-158.3319 405.6042,-156.2572 412,-154.3559 416.855,-152.9127 421.971,-151.4122 427.0229,-149.9424"/>
<polygon fill="#000000" fill-opacity="0.200000" stroke="#000000" stroke-width="2" stroke-opacity="0.200000" points="427.7269,-151.9249 432.9044,-148.2366 426.5569,-147.8911 427.7269,-151.9249"/>
</g>
<!-- src/content/page&#45;overlay/useBookmark.ts&#45;&gt;src/domain/Bookmark.ts -->
<g id="edge36" class="edge">
<title>src/content/page&#45;overlay/useBookmark.ts&#45;&gt;src/domain/Bookmark.ts</title>
<path fill="none" stroke="#000000" stroke-width="2" stroke-opacity="0.200000" d="M505.178,-161.9673C509.1784,-159.9899 512.8956,-157.4967 516,-154.3559 525.3989,-144.8467 513.3627,-133.4561 524,-125.3559 581.2825,-81.7358 796.3259,-75.2183 848,-125.3559 869.1418,-145.8691 837.1369,-367.7296 856,-390.3559 863.4549,-399.2982 874.8264,-403.7047 886.25,-405.6975"/>
<polygon fill="#000000" fill-opacity="0.200000" stroke="#000000" stroke-width="2" stroke-opacity="0.200000" points="885.9751,-407.7794 892.2082,-406.5309 886.5569,-403.6199 885.9751,-407.7794"/>
</g>
<!-- src/content/page&#45;overlay/useBookmark.ts&#45;&gt;src/domain/PageMetaData.ts -->
<g id="edge38" class="edge">
<title>src/content/page&#45;overlay/useBookmark.ts&#45;&gt;src/domain/PageMetaData.ts</title>
<path fill="none" stroke="#000000" stroke-width="2" stroke-opacity="0.200000" d="M505.2189,-162.7201C509.317,-160.6157 513.0455,-157.8869 516,-154.3559 527.0397,-141.1621 511.2224,-88.8748 524,-77.3559 550.7388,-53.2513 819.5029,-55.3578 848,-77.3559 894.1713,-112.9975 918.2905,-304.2607 924.4157,-360.0637"/>
<polygon fill="#000000" fill-opacity="0.200000" stroke="#000000" stroke-width="2" stroke-opacity="0.200000" points="922.3436,-360.4371 925.0737,-366.1779 926.5195,-359.9876 922.3436,-360.4371"/>
</g>
<!-- src/content/page&#45;overlay/useBookmark.ts&#45;&gt;src/content/messaging/sendMessage.ts -->
<g id="edge39" class="edge">
<title>src/content/page&#45;overlay/useBookmark.ts&#45;&gt;src/content/messaging/sendMessage.ts</title>
<path fill="none" stroke="#000000" stroke-width="2" stroke-opacity="0.200000" d="M505.3389,-171.0432C523.3445,-171.7782 544.5578,-172.644 563.234,-173.4063"/>
<polygon fill="#000000" fill-opacity="0.200000" stroke="#000000" stroke-width="2" stroke-opacity="0.200000" points="563.3814,-175.514 569.4621,-173.6605 563.5527,-171.3175 563.3814,-175.514"/>
</g>
<!-- src/content/page&#45;overlay/useBookmark.ts&#45;&gt;src/domain/messages.ts -->
<g id="edge37" class="edge">
<title>src/content/page&#45;overlay/useBookmark.ts&#45;&gt;src/domain/messages.ts</title>
<path fill="none" stroke="#000000" stroke-width="2" stroke-opacity="0.200000" d="M474.9547,-178.6398C486.586,-188.1891 505.771,-203.0793 524,-213.3559 593.5993,-252.5929 625.6767,-234.9628 690,-282.3559 720.1592,-304.5771 745.8914,-340.9391 758.7407,-360.9783"/>
<polygon fill="#000000" fill-opacity="0.200000" stroke="#000000" stroke-width="2" stroke-opacity="0.200000" points="757.0394,-362.2173 762.0163,-366.1722 760.5919,-359.9769 757.0394,-362.2173"/>
</g>
<!-- src/content/page&#45;overlay/usePage.ts&#45;&gt;src/domain/PageMetaData.ts -->
<g id="edge42" class="edge">
<title>src/content/page&#45;overlay/usePage.ts&#45;&gt;src/domain/PageMetaData.ts</title>
<path fill="none" stroke="#000000" stroke-width="2" stroke-opacity="0.200000" d="M467.5178,-130.0917C474.8565,-112.2707 493.679,-73.6294 524,-58.3559 652.6053,6.4259 734.6632,30.4741 848,-58.3559 896.9656,-96.7337 919.3118,-302.4205 924.6838,-360.232"/>
<polygon fill="#000000" fill-opacity="0.200000" stroke="#000000" stroke-width="2" stroke-opacity="0.200000" points="922.5952,-360.454 925.2298,-366.2392 926.778,-360.0737 922.5952,-360.454"/>
</g>
<!-- src/content/page&#45;overlay/usePageData.ts&#45;&gt;src/content/messaging/sendMessage.ts -->
<g id="edge44" class="edge">
<title>src/content/page&#45;overlay/usePageData.ts&#45;&gt;src/content/messaging/sendMessage.ts</title>
<path fill="none" stroke="#000000" stroke-width="2" stroke-opacity="0.200000" d="M404.0555,-200.2945C434.944,-200.5137 478.2616,-199.7846 516,-195.3559 533.7415,-193.2739 553.0757,-189.4879 569.643,-185.7656"/>
<polygon fill="#000000" fill-opacity="0.200000" stroke="#000000" stroke-width="2" stroke-opacity="0.200000" points="570.2326,-187.7851 575.6135,-184.4004 569.2963,-183.6908 570.2326,-187.7851"/>
</g>
<!-- src/content/page&#45;overlay/usePageData.ts&#45;&gt;src/domain/messages.ts -->
<g id="edge43" class="edge">
<title>src/content/page&#45;overlay/usePageData.ts&#45;&gt;src/domain/messages.ts</title>
<path fill="none" stroke="#000000" stroke-width="2" stroke-opacity="0.200000" d="M392.2971,-208.3697C450.592,-226.7936 584.5836,-271.5968 690,-325.3559 711.47,-336.305 734.4841,-351.6633 749.8047,-362.4612"/>
<polygon fill="#000000" fill-opacity="0.200000" stroke="#000000" stroke-width="2" stroke-opacity="0.200000" points="748.9774,-364.4498 755.0839,-366.2164 751.4119,-361.0273 748.9774,-364.4498"/>
</g>
<!-- src/content/page&#45;overlay/useProfile.ts&#45;&gt;src/api/BookmarkApi.ts -->
<g id="edge45" class="edge">
<title>src/content/page&#45;overlay/useProfile.ts&#45;&gt;src/api/BookmarkApi.ts</title>
<path fill="none" stroke="#000000" stroke-width="2" stroke-opacity="0.200000" d="M396.5296,-237.7949C399.3649,-239.5785 401.9327,-241.739 404,-244.3559 422.8633,-268.2348 393.6341,-288.0924 412,-312.3559 442.1871,-352.2366 473.6772,-328.7006 516,-355.3559 619.156,-420.3247 720.4569,-528.6144 755.0256,-567.1822"/>
<polygon fill="#000000" fill-opacity="0.200000" stroke="#000000" stroke-width="2" stroke-opacity="0.200000" points="753.7119,-568.8644 759.2723,-571.9452 756.8468,-566.0693 753.7119,-568.8644"/>
</g>
<!-- src/content/page&#45;overlay/useProfile.ts&#45;&gt;src/content/messaging/sendMessage.ts -->
<g id="edge47" class="edge">
<title>src/content/page&#45;overlay/useProfile.ts&#45;&gt;src/content/messaging/sendMessage.ts</title>
<path fill="none" stroke="#000000" stroke-width="2" stroke-opacity="0.200000" d="M396.5974,-224.0629C427.7103,-218.9591 475.1907,-210.6564 516,-201.3559 535.4725,-196.9182 556.9514,-191.1178 574.5525,-186.1218"/>
<polygon fill="#000000" fill-opacity="0.200000" stroke="#000000" stroke-width="2" stroke-opacity="0.200000" points="575.1721,-188.1289 580.3645,-184.4616 574.0184,-184.0905 575.1721,-188.1289"/>
</g>
<!-- src/content/page&#45;overlay/useProfile.ts&#45;&gt;src/domain/messages.ts -->
<g id="edge46" class="edge">
<title>src/content/page&#45;overlay/useProfile.ts&#45;&gt;src/domain/messages.ts</title>
<path fill="none" stroke="#000000" stroke-width="2" stroke-opacity="0.200000" d="M396.7719,-238.1564C399.4835,-239.8683 401.9587,-241.9132 404,-244.3559 417.3068,-260.279 397.6515,-275.3647 412,-290.3559 455.7324,-336.0475 628.8484,-335.2089 690,-351.3559 704.7761,-355.2575 720.9485,-360.163 734.6793,-364.5207"/>
<polygon fill="#000000" fill-opacity="0.200000" stroke="#000000" stroke-width="2" stroke-opacity="0.200000" points="734.0488,-366.5237 740.4033,-366.3501 735.3275,-362.5231 734.0488,-366.5237"/>
</g>
<!-- src/content/page&#45;overlay/WebClip.tsx -->
<g id="node29" class="node">
<title>src/content/page&#45;overlay/WebClip.tsx</title>
<g id="a_node29"><a xlink:href="src/content/page-overlay/WebClip.tsx" xlink:title="WebClip.tsx">
<path fill="#bbfeff" stroke="#000000" d="M91,-134.3559C91,-134.3559 38,-134.3559 38,-134.3559 35,-134.3559 32,-131.3559 32,-128.3559 32,-128.3559 32,-122.3559 32,-122.3559 32,-119.3559 35,-116.3559 38,-116.3559 38,-116.3559 91,-116.3559 91,-116.3559 94,-116.3559 97,-119.3559 97,-122.3559 97,-122.3559 97,-128.3559 97,-128.3559 97,-131.3559 94,-134.3559 91,-134.3559"/>
<text text-anchor="start" x="40" y="-123.1559" font-family="Helvetica,sans-Serif" font-size="9.00" fill="#000000">WebClip.tsx</text>
</a>
</g>
</g>
<!-- src/content/page&#45;overlay/WebClip.tsx&#45;&gt;src/content/messaging/ChromeMessageListener.ts -->
<g id="edge31" class="edge">
<title>src/content/page&#45;overlay/WebClip.tsx&#45;&gt;src/content/messaging/ChromeMessageListener.ts</title>
<path fill="none" stroke="#000000" stroke-width="2" stroke-opacity="0.200000" d="M75.303,-116.1444C84.0612,-109.2178 97.0376,-100.1317 110,-95.3559 150.7613,-80.3382 163.6545,-86.2161 207,-83.3559 421.6416,-69.1926 481.3658,-61.9786 690,-114.3559 708.364,-118.9662 728.1704,-126.9455 743.1633,-133.654"/>
<polygon fill="#000000" fill-opacity="0.200000" stroke="#000000" stroke-width="2" stroke-opacity="0.200000" points="742.5338,-135.6747 748.8649,-136.2475 744.2729,-131.8516 742.5338,-135.6747"/>
</g>
<!-- src/content/page&#45;overlay/WebClip.tsx&#45;&gt;src/content/messaging/chromeMessageListenerContext.ts -->
<g id="edge32" class="edge">
<title>src/content/page&#45;overlay/WebClip.tsx&#45;&gt;src/content/messaging/chromeMessageListenerContext.ts</title>
<path fill="none" stroke="#000000" stroke-width="2" stroke-opacity="0.200000" d="M97.1902,-116.9466C172.8854,-98.9998 365.2434,-62.1919 516,-108.3559 520.0091,-109.5836 520.2347,-111.5113 524,-113.3559 540.6045,-121.4903 559.828,-128.7687 575.9755,-134.321"/>
<polygon fill="#000000" fill-opacity="0.200000" stroke="#000000" stroke-width="2" stroke-opacity="0.200000" points="575.4182,-136.3494 581.7748,-136.2868 576.7666,-132.3717 575.4182,-136.3494"/>
</g>
<!-- src/content/page&#45;overlay/WebClip.tsx&#45;&gt;src/content/page&#45;overlay/PageContent.tsx -->
<g id="edge33" class="edge">
<title>src/content/page&#45;overlay/WebClip.tsx&#45;&gt;src/content/page&#45;overlay/PageContent.tsx</title>
<path fill="none" stroke="#000000" stroke-width="2" stroke-opacity="0.200000" d="M88.4098,-134.3733C98.9235,-138.3385 111.3766,-143.0351 122.4635,-147.2164"/>
<polygon fill="#000000" fill-opacity="0.200000" stroke="#000000" stroke-width="2" stroke-opacity="0.200000" points="121.7641,-149.197 128.1191,-149.3494 123.2462,-145.2672 121.7641,-149.197"/>
</g>
<!-- src/store/createAboutStatements.ts -->
<g id="node32" class="node">
<title>src/store/createAboutStatements.ts</title>
<g id="a_node32"><a xlink:href="src/store/createAboutStatements.ts" xlink:title="createAboutStatements.ts">
<path fill="#ddfeff" stroke="#000000" d="M1227,-500.3559C1227,-500.3559 1118,-500.3559 1118,-500.3559 1115,-500.3559 1112,-497.3559 1112,-494.3559 1112,-494.3559 1112,-488.3559 1112,-488.3559 1112,-485.3559 1115,-482.3559 1118,-482.3559 1118,-482.3559 1227,-482.3559 1227,-482.3559 1230,-482.3559 1233,-485.3559 1233,-488.3559 1233,-488.3559 1233,-494.3559 1233,-494.3559 1233,-497.3559 1230,-500.3559 1227,-500.3559"/>
<text text-anchor="start" x="1120" y="-489.1559" font-family="Helvetica,sans-Serif" font-size="9.00" fill="#000000">createAboutStatements.ts</text>
</a>
</g>
</g>
<!-- src/store/createRelations.ts&#45;&gt;src/store/createAboutStatements.ts -->
<g id="edge56" class="edge">
<title>src/store/createRelations.ts&#45;&gt;src/store/createAboutStatements.ts</title>
<path fill="none" stroke="#000000" stroke-width="2" stroke-opacity="0.200000" d="M1099.1378,-491.3559C1101.3616,-491.3559 1103.6136,-491.3559 1105.8802,-491.3559"/>
<polygon fill="#000000" fill-opacity="0.200000" stroke="#000000" stroke-width="2" stroke-opacity="0.200000" points="1105.9049,-493.456 1111.9048,-491.3559 1105.9048,-489.256 1105.9049,-493.456"/>
</g>
</g>
</svg>
